<?xml version="1.0" encoding="utf-8"?>
<!-- Generator: Adobe Illustrator 18.0.0, SVG Export Plug-In . SVG Version: 6.00 Build 0)  -->
<!DOCTYPE svg PUBLIC "-//W3C//DTD SVG 1.1//EN" "http://www.w3.org/Graphics/SVG/1.1/DTD/svg11.dtd">
<svg version="1.1" id="Layer_1" xmlns="http://www.w3.org/2000/svg" xmlns:xlink="http://www.w3.org/1999/xlink" x="0px" y="0px"
	 viewBox="0 0 1096 1280" enable-background="new 0 0 1096 1280" xml:space="preserve">
<g>
	<g>
		<path fill="#FDCD4D" d="M893.022,1181.214l-33.718-25.288l-28.098,25.288l-21.079,49.177h-40.736
			c-28.098,0-49.177,22.491-49.177,49.184h174.219v-98.355h-1.405L893.022,1181.214z M717.398,1181.214l-33.717-25.288
			l-28.11,25.288l-21.073,49.177h-40.742c-28.098,0-49.177,22.491-49.177,49.184h174.219l-1.405-98.355L717.398,1181.214z"/>
		<path fill="#1D345C" d="M742.686,539.117l-148.937,61.815v580.283h123.649V725.98l50.576,50.589v404.64h125.048V600.932
			L742.686,539.117z"/>
		<path fill="#1D345C" d="M696.343,137.289l35.128,42.159l64.625,8.429v-99.76h-99.753V137.289z"/>
		<path fill="#B69C89" d="M766.593,242.675l29.503-30.908v-23.896l-50.576-50.576h-49.177v74.478l29.503,30.908L766.593,242.675z"/>
		<path fill="#FDCD4D" d="M895.856,242.675H596.583c-109.594,0-199.513,89.913-199.513,199.513h99.76
			c0-54.791,41.957-99.754,96.76-99.754v299.273h302.273V342.435c54.803,0,99.778,44.957,99.778,99.76
			c0,54.797-44.969,99.766-99.778,99.766v99.76c109.6,0,199.526-89.913,199.526-199.513c0-111.005-89.932-199.52-199.526-199.52
			L895.856,242.675z"/>
		<path fill="#B69C89" d="M876.187,520.868h-60.423c0,11.239,8.429,19.668,19.669,19.668h9.834v9.828h-80.085
			c-11.239,0-19.669,8.429-19.669,19.668h99.76v9.834h-109.6c0,11.252,8.429,19.668,19.669,19.668h89.913v9.84h-99.747
			c0,11.239,8.429,19.668,19.669,19.668h80.085v9.834H796.09c0,11.239,8.429,19.668,19.669,19.668h30.908l47.766-19.668v-99.754
			l-18.251-18.245L876.187,520.868z"/>
	</g>
	<g>
		<path fill="#B69C89" d="M500.803,1181.214l-33.718-25.288l-28.098,25.288l-21.079,49.177h-40.736
			c-28.098,0-49.177,22.491-49.177,49.184h174.219v-98.355h-1.405L500.803,1181.214z M325.179,1181.214l-33.717-25.288
			l-28.11,25.288l-21.073,49.177h-40.742c-28.098,0-49.177,22.491-49.177,49.184h174.219l-1.405-98.355L325.179,1181.214z"/>
		<path fill="#1D345C" d="M350.467,539.117L201.53,600.932v580.283h123.649V725.98l50.576,50.589v404.64h125.048V600.932
			L350.467,539.117z M301.29,99.336l35.122,40.748l64.625,8.429V48.76H301.29V99.336z"/>
		<path fill="#F3AAB9" d="M350.467,99.336H301.29v74.472l49.177,49.177l50.576-49.177v-25.288L350.467,99.336z"/>
		<path fill="#B69C89" d="M698.906,402.823c0-109.594-89.913-199.513-199.513-199.513H200.119
			c-109.581,0-199.507,89.913-199.507,199.507S90.525,602.33,200.125,602.33H498c109.594-2.81,200.918-91.318,200.918-199.513
			L698.906,402.823z M201.53,502.583c-54.797,0-99.76-44.957-99.76-99.766c0-54.791,44.957-99.76,99.76-99.76v199.52V502.583z
			 M499.392,502.583l1.417-199.52c54.791,0,99.76,44.957,99.76,99.76c0,54.797-46.368,98.342-101.171,99.754L499.392,502.583z"/>
		<circle fill="#1D345C" cx="401.044" cy="48.753" r="49.177"/>
		<path fill="#F3AAB9" d="M499.386,502.589l-19.669-19.668h-60.41c0,11.239,8.429,19.668,19.669,19.668h9.834v9.828h-80.085
			c-11.239,0-19.669,8.429-19.669,19.668h99.753v9.834H339.228c0,11.239,8.429,19.668,19.669,19.668h89.913v9.828h-99.754
			c0,11.239,8.429,19.668,19.669,19.668h80.085v9.834h-49.177c0,11.239,8.429,19.668,19.669,19.668h30.908l47.766-19.668v-98.361
			h1.417L499.386,502.589z"/>
	</g>
</g>
</svg>
