<?xml version="1.0" encoding="utf-8"?>
<!-- Generator: Adobe Illustrator 18.0.0, SVG Export Plug-In . SVG Version: 6.00 Build 0)  -->
<!DOCTYPE svg PUBLIC "-//W3C//DTD SVG 1.1//EN" "http://www.w3.org/Graphics/SVG/1.1/DTD/svg11.dtd">
<svg version="1.1" id="Layer_1" xmlns="http://www.w3.org/2000/svg" xmlns:xlink="http://www.w3.org/1999/xlink" x="0px" y="0px"
	 width="66px" height="66px" viewBox="0 0 66 66" enable-background="new 0 0 66 66" xml:space="preserve">
<g id="down" display="none">
	<g display="inline">
		<g>
			<g opacity="0.6">
				<path fill="#5A6164" d="M33,65C15.355,65,1,50.645,1,33S15.355,1,33,1s32,14.355,32,32S50.645,65,33,65z"/>
				<g>
					<path fill="#69D1CA" d="M33,2c17.093,0,31,13.907,31,31S50.093,64,33,64S2,50.093,2,33S15.907,2,33,2 M33,0
						C14.775,0,0,14.775,0,33s14.775,33,33,33s33-14.775,33-33S51.225,0,33,0L33,0z"/>
				</g>
			</g>
		</g>
		<polygon fill="#69D1CA" points="32.272,16.593 30.227,18.638 30.227,18.638 17.394,31.47 18.781,32.856 31.574,22.151 
			31.574,49.407 34.426,49.407 34.426,22.151 47.219,32.856 48.606,31.47 35.773,18.638 35.773,18.638 33.728,16.593 		"/>
	</g>
</g>
<g id="up" display="none">
	<g display="inline">
		<g>
			<g opacity="0.6">
				<path fill="#5A6164" d="M33,65C15.355,65,1,50.645,1,33S15.355,1,33,1s32,14.355,32,32S50.645,65,33,65z"/>
				<g>
					<path fill="#69D1CA" d="M33,2c17.093,0,31,13.907,31,31S50.093,64,33,64S2,50.093,2,33S15.907,2,33,2 M33,0
						C14.775,0,0,14.775,0,33s14.775,33,33,33s33-14.775,33-33S51.225,0,33,0L33,0z"/>
				</g>
			</g>
		</g>
		<polygon fill="#69D1CA" points="33.728,49.407 35.773,47.362 35.773,47.362 48.606,34.53 47.219,33.144 34.426,43.849 
			34.426,16.593 31.574,16.593 31.574,43.849 18.781,33.144 17.394,34.53 30.227,47.362 30.227,47.362 32.272,49.407 		"/>
	</g>
</g>
<g id="right" display="none">
	<g display="inline">
		<g>
			<g opacity="0.6">
				<path fill="#5A6164" d="M33,65C15.355,65,1,50.645,1,33S15.355,1,33,1s32,14.355,32,32S50.645,65,33,65z"/>
				<g>
					<path fill="#69D1CA" d="M33,2c17.093,0,31,13.907,31,31S50.093,64,33,64S2,50.093,2,33S15.907,2,33,2 M33,0
						C14.775,0,0,14.775,0,33s14.775,33,33,33s33-14.775,33-33S51.225,0,33,0L33,0z"/>
				</g>
			</g>
		</g>
		<polygon fill="#69D1CA" points="49.407,32.272 47.362,30.227 47.362,30.227 34.53,17.394 33.144,18.781 43.849,31.574 
			16.593,31.574 16.593,34.426 43.849,34.426 33.144,47.219 34.53,48.606 47.362,35.773 47.362,35.773 49.407,33.728 		"/>
	</g>
</g>
<g id="left">
	<g>
		<g>
			<g opacity="0.6">
				<path fill="#5A6164" d="M33,65C15.355,65,1,50.645,1,33S15.355,1,33,1s32,14.355,32,32S50.645,65,33,65z"/>
				<g>
					<path fill="#FFFFFF" d="M33,2c17.093,0,31,13.907,31,31S50.093,64,33,64S2,50.093,2,33S15.907,2,33,2 M33,0
						C14.775,0,0,14.775,0,33s14.775,33,33,33s33-14.775,33-33S51.225,0,33,0L33,0z"/>
				</g>
			</g>
		</g>
		<polygon fill="#FFFFFF" points="16.593,32.272 18.638,30.227 18.638,30.227 31.47,17.394 32.856,18.781 22.151,31.574 
			49.407,31.574 49.407,34.426 22.151,34.426 32.856,47.219 31.47,48.606 18.638,35.773 18.638,35.773 16.593,33.728 		"/>
	</g>
</g>
<g id="audio-on" display="none">
	<g display="inline">
		<g opacity="0.6">
			<path fill="#5A6164" d="M33,65C15.355,65,1,50.645,1,33S15.355,1,33,1s32,14.355,32,32S50.645,65,33,65z"/>
			<g>
				<path fill="#69D1CA" d="M33,2c17.093,0,31,13.907,31,31S50.093,64,33,64S2,50.093,2,33S15.907,2,33,2 M33,0
					C14.775,0,0,14.775,0,33s14.775,33,33,33s33-14.775,33-33S51.225,0,33,0L33,0z"/>
			</g>
		</g>
		<g>
			<polygon fill="#69D1CA" points="30.906,19.03 22.591,27.344 16.888,27.344 15.387,28.83 15.387,37.227 16.743,38.583 
				22.521,38.583 30.909,46.97 32.474,46.97 32.474,19.033 			"/>
		</g>
		<g>
			<g>
				<path fill="#69D1CA" d="M47.857,33c0,4.332-1.484,8.309-3.951,11.482l0.868,0.869c3.565-2.932,5.839-7.375,5.839-12.351
					s-2.274-9.419-5.839-12.351l-0.868,0.868C46.373,24.691,47.857,28.668,47.857,33z"/>
			</g>
			<g>
				<path fill="#69D1CA" d="M39.588,33c0,2.504-0.759,4.829-2.058,6.761l1.035,1.035c1.995-1.995,3.229-4.751,3.229-7.795
					s-1.234-5.8-3.229-7.795l-1.035,1.035C38.829,28.171,39.588,30.496,39.588,33z"/>
			</g>
		</g>
	</g>
</g>
<g id="audio-off" display="none">
	<g display="inline">
		<g opacity="0.6">
			<path fill="#5A6164" d="M33,65C15.355,65,1,50.645,1,33S15.355,1,33,1s32,14.355,32,32S50.645,65,33,65z"/>
			<g>
				<path fill="#69D1CA" d="M33,2c17.093,0,31,13.907,31,31S50.093,64,33,64S2,50.093,2,33S15.907,2,33,2 M33,0
					C14.775,0,0,14.775,0,33s14.775,33,33,33s33-14.775,33-33S51.225,0,33,0L33,0z"/>
			</g>
		</g>
		<g>
			<polygon fill="#69D1CA" points="30.906,19.03 22.591,27.344 16.888,27.344 15.387,28.83 15.387,37.227 16.743,38.583 
				22.521,38.583 30.909,46.97 32.474,46.97 32.474,19.033 			"/>
			<g>
				<polygon fill="#69D1CA" points="37.532,25.867 36.396,27.002 42.56,33.922 49.478,40.083 50.613,38.948 44.451,32.029 				"/>
				<polygon fill="#69D1CA" points="36.397,38.948 37.532,40.083 44.451,33.922 50.613,27.002 49.478,25.867 42.56,32.031 				"/>
			</g>
		</g>
	</g>
</g>
<g id="play" display="none">
	<g display="inline">
		<g opacity="0.6">
			<path fill="#5A6164" d="M33,65C15.355,65,1,50.645,1,33S15.355,1,33,1s32,14.355,32,32S50.645,65,33,65z"/>
			<g>
				<path fill="#69D1CA" d="M33,2c17.093,0,31,13.907,31,31S50.093,64,33,64S2,50.093,2,33S15.907,2,33,2 M33,0
					C14.775,0,0,14.775,0,33s14.775,33,33,33s33-14.775,33-33S51.225,0,33,0L33,0z"/>
			</g>
		</g>
		<polygon fill="#69D1CA" points="48.894,33 22.281,45.435 22.281,20.565 		"/>
	</g>
</g>
<g id="replay" display="none">
	<g display="inline">
		<g opacity="0.6">
			<path fill="#5A6164" d="M33,65C15.355,65,1,50.645,1,33S15.355,1,33,1s32,14.355,32,32S50.645,65,33,65z"/>
			<g>
				<path fill="#69D1CA" d="M33,2c17.093,0,31,13.907,31,31S50.093,64,33,64S2,50.093,2,33S15.907,2,33,2 M33,0
					C14.775,0,0,14.775,0,33s14.775,33,33,33s33-14.775,33-33S51.225,0,33,0L33,0z"/>
			</g>
		</g>
		<g>
			<path fill="#69D1CA" d="M19.186,22.607c2.684-3.252,6.05-5.219,10.101-5.994c3.219-0.616,6.344-0.193,9.342,1.073
				c3.536,1.493,6.251,3.954,8.112,7.304c1.502,2.703,2.218,5.637,2.053,8.731c-0.235,4.412-1.927,8.21-5.104,11.295
				c-2.41,2.339-5.317,3.791-8.613,4.386c-7.577,1.369-14.275-2.754-17.203-7.939c0.508-0.336,1.015-0.677,1.529-1.008
				c0.641-0.413,1.29-0.814,1.932-1.226c0.155-0.099,0.239-0.053,0.324,0.093c0.466,0.799,1.029,1.528,1.683,2.177
				c0.461,0.458,0.953,0.89,1.466,1.289c0.433,0.337,0.893,0.656,1.381,0.903c0.698,0.354,1.431,0.641,2.153,0.947
				c0.896,0.38,1.858,0.477,2.807,0.601c0.544,0.071,1.106,0.041,1.657,0.008c0.975-0.057,1.937-0.209,2.875-0.495
				c1.406-0.428,2.702-1.065,3.863-1.975c1.11-0.87,2.05-1.891,2.859-3.049c0.827-1.184,1.343-2.499,1.685-3.879
				c0.179-0.72,0.229-1.477,0.287-2.221c0.044-0.575,0.064-1.162-0.004-1.732c-0.103-0.863-0.201-1.734-0.526-2.556
				c-0.2-0.506-0.321-1.052-0.579-1.524c-0.465-0.85-0.953-1.697-1.533-2.47c-0.446-0.596-1.045-1.078-1.58-1.606
				c-0.752-0.743-1.646-1.298-2.591-1.728c-0.896-0.408-1.851-0.705-2.804-0.967c-1.095-0.301-2.233-0.353-3.361-0.242
				c-0.848,0.083-1.7,0.209-2.526,0.412c-1.516,0.373-2.889,1.073-4.099,2.064c-0.617,0.505-1.201,1.051-1.778,1.603
				c-0.222,0.212-0.391,0.485-0.559,0.746c-0.036,0.055,0.007,0.207,0.063,0.267c0.361,0.386,0.737,0.758,1.106,1.137
				c0.299,0.306,0.595,0.615,0.925,0.956c-2.463,0-4.891,0-7.347,0c0-2.453,0-4.898,0-7.397
				C17.857,21.268,18.508,21.924,19.186,22.607z"/>
		</g>
	</g>
</g>
</svg>
