<?xml version="1.0" encoding="utf-8"?>
<!-- Generator: Adobe Illustrator 18.0.0, SVG Export Plug-In . SVG Version: 6.00 Build 0)  -->
<!DOCTYPE svg PUBLIC "-//W3C//DTD SVG 1.1//EN" "http://www.w3.org/Graphics/SVG/1.1/DTD/svg11.dtd">
<svg version="1.1" id="Layer_1" xmlns="http://www.w3.org/2000/svg" xmlns:xlink="http://www.w3.org/1999/xlink" x="0px" y="0px"
	 width="36px" height="28px" viewBox="0 0 36 28" enable-background="new 0 0 36 28" xml:space="preserve">
<g>
	<g>
		<polygon fill="#FFFFFF" points="15.906,0.03 7.591,8.344 1.888,8.344 0.387,9.83 0.387,18.227 1.743,19.583 7.521,19.583 
			15.909,27.97 17.474,27.97 17.474,0.033 		"/>
	</g>
	<g>
		<g>
			<path fill="#FFFFFF" d="M32.857,14c0,4.332-1.484,8.309-3.951,11.482l0.868,0.869c3.565-2.932,5.839-7.375,5.839-12.351
				s-2.274-9.419-5.839-12.351l-0.868,0.868C31.373,5.691,32.857,9.668,32.857,14z"/>
		</g>
		<g>
			<path fill="#FFFFFF" d="M24.588,14c0,2.504-0.759,4.829-2.058,6.761l1.035,1.035c1.995-1.995,3.229-4.751,3.229-7.795
				s-1.234-5.8-3.229-7.795L22.53,7.239C23.829,9.171,24.588,11.496,24.588,14z"/>
		</g>
	</g>
</g>
</svg>
