<?xml version="1.0" encoding="utf-8"?>
<!-- Generator: Adobe Illustrator 18.0.0, SVG Export Plug-In . SVG Version: 6.00 Build 0)  -->
<!DOCTYPE svg PUBLIC "-//W3C//DTD SVG 1.1//EN" "http://www.w3.org/Graphics/SVG/1.1/DTD/svg11.dtd">
<svg version="1.1" xmlns="http://www.w3.org/2000/svg" xmlns:xlink="http://www.w3.org/1999/xlink" x="0px" y="0px" width="64px"
	 height="64px" viewBox="0 0 64 64" enable-background="new 0 0 64 64" xml:space="preserve">
<g id="up" display="none">
	<g display="inline">
		<g>
			<path fill="#005580" d="M32,63.5C14.631,63.5,0.5,49.369,0.5,32S14.631,0.5,32,0.5S63.5,14.631,63.5,32S49.369,63.5,32,63.5z"/>
			<g>
				<path fill="#005580" d="M32,1c17.093,0,31,13.907,31,31S49.093,63,32,63C14.907,63,1,49.093,1,32S14.907,1,32,1 M32,0
					C14.327,0,0,14.327,0,32s14.327,32,32,32c17.673,0,32-14.327,32-32S49.673,0,32,0L32,0z"/>
			</g>
		</g>
		<polygon fill="#FFFFFF" points="32.706,16.09 34.689,18.073 34.689,18.073 47.133,30.517 45.788,31.861 33.383,21.48 
			33.383,47.91 30.617,47.91 30.617,21.48 18.212,31.861 16.867,30.517 29.311,18.073 29.311,18.073 31.294,16.09 		"/>
	</g>
</g>
<g id="down_1_" display="none">
	<g display="inline">
		<g>
			<path fill="#005580" d="M32,63.5C14.631,63.5,0.5,49.369,0.5,32S14.631,0.5,32,0.5S63.5,14.631,63.5,32S49.369,63.5,32,63.5z"/>
			<g>
				<path fill="#005580" d="M32,1c17.093,0,31,13.907,31,31S49.093,63,32,63C14.907,63,1,49.093,1,32S14.907,1,32,1 M32,0
					C14.327,0,0,14.327,0,32s14.327,32,32,32c17.673,0,32-14.327,32-32S49.673,0,32,0L32,0z"/>
			</g>
		</g>
		<polygon fill="#FFFFFF" points="31.294,47.91 29.311,45.927 29.311,45.927 16.867,33.483 18.212,32.139 30.617,42.52 
			30.617,16.09 33.383,16.09 33.383,42.52 45.788,32.139 47.133,33.483 34.689,45.927 34.689,45.927 32.706,47.91 		"/>
	</g>
</g>
<g id="right" display="none">
	<g display="inline">
		<g>
			<path fill="#005580" d="M32,63.5C14.631,63.5,0.5,49.369,0.5,32S14.631,0.5,32,0.5S63.5,14.631,63.5,32S49.369,63.5,32,63.5z"/>
			<g>
				<path fill="#005580" d="M32,1c17.093,0,31,13.907,31,31c0,17.093-13.907,31-31,31S1,49.093,1,32C1,14.907,14.907,1,32,1 M32,0
					C14.327,0,0,14.327,0,32c0,17.673,14.327,32,32,32s32-14.327,32-32C64,14.327,49.673,0,32,0L32,0z"/>
			</g>
		</g>
		<polygon fill="#FFFFFF" points="47.91,31.294 45.927,29.311 45.927,29.311 33.483,16.867 32.139,18.212 42.52,30.617 
			16.09,30.617 16.09,33.383 42.52,33.383 32.139,45.788 33.483,47.133 45.927,34.689 45.927,34.689 47.91,32.706 		"/>
	</g>
</g>
<g id="left" display="none">
	<g display="inline">
		<g>
			<path fill="#005580" d="M32,63.5C14.631,63.5,0.5,49.369,0.5,32S14.631,0.5,32,0.5S63.5,14.631,63.5,32S49.369,63.5,32,63.5z"/>
			<g>
				<path fill="#005580" d="M32,1c17.093,0,31,13.907,31,31c0,17.093-13.907,31-31,31S1,49.093,1,32C1,14.907,14.907,1,32,1 M32,0
					C14.327,0,0,14.327,0,32c0,17.673,14.327,32,32,32s32-14.327,32-32C64,14.327,49.673,0,32,0L32,0z"/>
			</g>
		</g>
		<polygon fill="#FFFFFF" points="16.09,31.294 18.073,29.311 18.073,29.311 30.517,16.867 31.861,18.212 21.48,30.617 
			47.91,30.617 47.91,33.383 21.48,33.383 31.861,45.788 30.517,47.133 18.073,34.689 18.073,34.689 16.09,32.706 		"/>
	</g>
</g>
<g id="audio-on" display="none">
	<g display="inline">
		<g>
			<path fill="#005580" d="M32,63.5C14.631,63.5,0.5,49.369,0.5,32S14.631,0.5,32,0.5S63.5,14.631,63.5,32S49.369,63.5,32,63.5z"/>
			<g>
				<path fill="#005580" d="M32,1c17.093,0,31,13.907,31,31c0,17.093-13.907,31-31,31S1,49.093,1,32C1,14.907,14.907,1,32,1 M32,0
					C14.327,0,0,14.327,0,32c0,17.673,14.327,32,32,32s32-14.327,32-32C64,14.327,49.673,0,32,0L32,0z"/>
			</g>
		</g>
		<g>
			<polygon fill="#FFFFFF" points="29.969,18.453 21.907,26.515 16.376,26.515 14.921,27.957 14.921,36.099 16.236,37.414 
				21.838,37.414 29.972,45.547 31.49,45.547 31.49,18.456 			"/>
			<g>
				<path fill="#FFFFFF" d="M46.406,32c0,4.201-1.439,8.057-3.832,11.134l0.842,0.842c3.457-2.843,5.662-7.152,5.662-11.977
					s-2.205-9.134-5.662-11.977l-0.842,0.842C44.967,23.942,46.406,27.799,46.406,32z"/>
			</g>
			<g>
				<path fill="#FFFFFF" d="M38.389,32c0,2.428-0.736,4.683-1.996,6.556l1.003,1.003c1.934-1.934,3.131-4.607,3.131-7.559
					c0-2.952-1.196-5.625-3.131-7.559l-1.003,1.003C37.653,27.317,38.389,29.572,38.389,32z"/>
			</g>
		</g>
	</g>
</g>
<g id="audio-off" display="none">
	<g display="inline">
		<g>
			<path fill="#005580" d="M32,63.5C14.631,63.5,0.5,49.369,0.5,32S14.631,0.5,32,0.5S63.5,14.631,63.5,32S49.369,63.5,32,63.5z"/>
			<g>
				<path fill="#005580" d="M32,1c17.093,0,31,13.907,31,31c0,17.093-13.907,31-31,31S1,49.093,1,32C1,14.907,14.907,1,32,1 M32,0
					C14.327,0,0,14.327,0,32c0,17.673,14.327,32,32,32s32-14.327,32-32C64,14.327,49.673,0,32,0L32,0z"/>
			</g>
		</g>
		<g>
			<polygon fill="#FFFFFF" points="29.969,18.453 21.907,26.515 16.376,26.515 14.921,27.957 14.921,36.099 16.236,37.414 
				21.838,37.414 29.972,45.547 31.49,45.547 31.49,18.456 			"/>
			<g>
				<polygon fill="#FFFFFF" points="36.395,25.083 35.293,26.183 41.27,32.894 47.979,38.868 49.079,37.768 43.104,31.059 				"/>
				<polygon fill="#FFFFFF" points="35.294,37.768 36.395,38.868 43.104,32.894 49.079,26.183 47.979,25.083 41.27,31.06 				"/>
			</g>
		</g>
	</g>
</g>
<g id="play" display="none">
	<g display="inline">
		<g>
			<path fill="#005580" d="M32,63.5C14.631,63.5,0.5,49.369,0.5,32S14.631,0.5,32,0.5S63.5,14.631,63.5,32S49.369,63.5,32,63.5z"/>
			<g>
				<path fill="#005580" d="M32,1c17.093,0,31,13.907,31,31c0,17.093-13.907,31-31,31S1,49.093,1,32C1,14.907,14.907,1,32,1 M32,0
					C14.327,0,0,14.327,0,32c0,17.673,14.327,32,32,32s32-14.327,32-32C64,14.327,49.673,0,32,0L32,0z"/>
			</g>
		</g>
		<polygon fill="#FFFFFF" points="47.413,32 21.606,44.058 21.606,19.942 		"/>
	</g>
</g>
<g id="replay" display="none">
	<g display="inline">
		<g>
			<path fill="#005580" d="M32,63.5C14.631,63.5,0.5,49.369,0.5,32S14.631,0.5,32,0.5S63.5,14.631,63.5,32S49.369,63.5,32,63.5z"/>
			<g>
				<path fill="#005580" d="M32,1c17.093,0,31,13.907,31,31c0,17.093-13.907,31-31,31S1,49.093,1,32C1,14.907,14.907,1,32,1 M32,0
					C14.327,0,0,14.327,0,32c0,17.673,14.327,32,32,32s32-14.327,32-32C64,14.327,49.673,0,32,0L32,0z"/>
			</g>
		</g>
		<g>
			<path fill="#FFFFFF" d="M18.604,21.921c2.603-3.154,5.866-5.061,9.795-5.812c3.122-0.597,6.152-0.187,9.059,1.04
				c3.429,1.447,6.062,3.834,7.867,7.083c1.456,2.621,2.15,5.466,1.991,8.466c-0.228,4.278-1.868,7.962-4.95,10.952
				c-2.337,2.268-5.156,3.676-8.352,4.253c-7.347,1.328-13.843-2.671-16.682-7.698c0.493-0.325,0.984-0.657,1.482-0.978
				c0.622-0.4,1.251-0.79,1.874-1.189c0.15-0.096,0.232-0.051,0.314,0.09c0.452,0.775,0.998,1.481,1.632,2.111
				c0.447,0.444,0.925,0.863,1.422,1.25c0.42,0.327,0.866,0.636,1.339,0.876c0.677,0.343,1.388,0.621,2.088,0.918
				c0.869,0.368,1.802,0.463,2.722,0.583c0.527,0.069,1.073,0.039,1.607,0.008c0.945-0.055,1.878-0.203,2.788-0.48
				c1.363-0.415,2.62-1.033,3.745-1.915c1.077-0.844,1.988-1.833,2.772-2.956c0.802-1.149,1.302-2.423,1.634-3.761
				c0.173-0.698,0.223-1.432,0.278-2.153c0.043-0.557,0.062-1.127-0.004-1.68c-0.1-0.837-0.195-1.682-0.51-2.479
				c-0.194-0.49-0.311-1.02-0.561-1.478c-0.451-0.824-0.924-1.646-1.486-2.396c-0.433-0.578-1.014-1.045-1.532-1.558
				c-0.729-0.721-1.596-1.259-2.513-1.676c-0.869-0.396-1.795-0.684-2.719-0.938c-1.062-0.292-2.165-0.342-3.259-0.235
				c-0.822,0.081-1.648,0.202-2.45,0.4c-1.47,0.362-2.802,1.041-3.975,2.001c-0.598,0.49-1.165,1.019-1.724,1.554
				c-0.215,0.206-0.379,0.47-0.542,0.723c-0.034,0.053,0.006,0.201,0.061,0.259c0.35,0.374,0.714,0.735,1.072,1.102
				c0.29,0.297,0.577,0.597,0.897,0.928c-2.388,0-4.743,0-7.124,0c0-2.379,0-4.75,0-7.173C17.315,20.624,17.947,21.26,18.604,21.921
				z"/>
		</g>
	</g>
</g>
<g id="pause">
	<g>
		<g>
			<path fill="#005580" d="M32,63.5C14.631,63.5,0.5,49.369,0.5,32S14.631,0.5,32,0.5S63.5,14.631,63.5,32S49.369,63.5,32,63.5z"/>
			<g>
				<path fill="#005580" d="M32,1c17.093,0,31,13.907,31,31c0,17.093-13.907,31-31,31S1,49.093,1,32C1,14.907,14.907,1,32,1 M32,0
					C14.327,0,0,14.327,0,32c0,17.673,14.327,32,32,32s32-14.327,32-32C64,14.327,49.673,0,32,0L32,0z"/>
			</g>
		</g>
		<g>
			<rect x="34.636" y="21" fill="#FFFFFF" width="3" height="22"/>
			<rect x="26.364" y="21" fill="#FFFFFF" width="3" height="22"/>
		</g>
	</g>
</g>
</svg>
