<?xml version="1.0" encoding="utf-8"?>
<!-- Generator: Adobe Illustrator 18.0.0, SVG Export Plug-In . SVG Version: 6.00 Build 0)  -->
<!DOCTYPE svg PUBLIC "-//W3C//DTD SVG 1.1//EN" "http://www.w3.org/Graphics/SVG/1.1/DTD/svg11.dtd">
<svg version="1.1" id="Layer_1" xmlns="http://www.w3.org/2000/svg" xmlns:xlink="http://www.w3.org/1999/xlink" x="0px" y="0px"
	 width="32px" height="33px" viewBox="0 0 32 33" enable-background="new 0 0 32 33" xml:space="preserve">
<g>
	<path fill="#FFFFFF" d="M2.324,6.21c2.657-3.22,5.99-5.167,10.001-5.934c3.187-0.61,6.281-0.191,9.249,1.062
		c3.501,1.478,6.189,3.914,8.032,7.231c1.487,2.676,2.195,5.58,2.032,8.644c-0.232,4.368-1.907,8.129-5.054,11.182
		c-2.386,2.316-5.264,3.753-8.527,4.342c-7.501,1.355-14.133-2.727-17.032-7.86c0.503-0.332,1.005-0.671,1.514-0.998
		c0.635-0.409,1.277-0.806,1.913-1.214c0.153-0.098,0.237-0.052,0.321,0.092c0.461,0.791,1.019,1.512,1.666,2.156
		c0.456,0.454,0.944,0.881,1.452,1.277c0.429,0.334,0.884,0.649,1.367,0.894c0.691,0.35,1.417,0.634,2.132,0.938
		c0.887,0.376,1.84,0.473,2.779,0.595c0.538,0.07,1.095,0.04,1.641,0.008c0.965-0.057,1.918-0.207,2.846-0.49
		c1.392-0.424,2.675-1.055,3.824-1.955c1.099-0.862,2.03-1.872,2.831-3.018c0.819-1.173,1.33-2.474,1.669-3.84
		c0.177-0.713,0.227-1.462,0.284-2.198c0.044-0.569,0.063-1.151-0.004-1.715c-0.102-0.855-0.199-1.717-0.521-2.531
		c-0.198-0.501-0.317-1.041-0.573-1.509c-0.46-0.841-0.944-1.681-1.517-2.446c-0.442-0.59-1.035-1.067-1.564-1.59
		c-0.744-0.736-1.63-1.285-2.565-1.711c-0.887-0.404-1.833-0.698-2.776-0.957c-1.084-0.298-2.21-0.35-3.327-0.24
		c-0.84,0.083-1.683,0.207-2.501,0.408c-1.501,0.369-2.861,1.062-4.058,2.043c-0.611,0.5-1.189,1.041-1.76,1.587
		c-0.22,0.21-0.387,0.48-0.554,0.738C5.505,9.254,5.547,9.405,5.603,9.464c0.357,0.382,0.729,0.751,1.095,1.125
		c0.296,0.303,0.589,0.609,0.915,0.947c-2.439,0-4.842,0-7.273,0c0-2.429,0-4.849,0-7.323C1.007,4.885,1.653,5.535,2.324,6.21z"/>
</g>
</svg>
