<?xml version="1.0" encoding="utf-8"?>
<!-- Generator: Adobe Illustrator 18.0.0, SVG Export Plug-In . SVG Version: 6.00 Build 0)  -->
<!DOCTYPE svg PUBLIC "-//W3C//DTD SVG 1.1//EN" "http://www.w3.org/Graphics/SVG/1.1/DTD/svg11.dtd">
<svg version="1.1" id="Layer_1" xmlns="http://www.w3.org/2000/svg" xmlns:xlink="http://www.w3.org/1999/xlink" x="0px" y="0px"
	 viewBox="0 0 1280 1280" enable-background="new 0 0 1280 1280" xml:space="preserve">
<g>
	<g>
		<path fill="#FFFFFF" d="M435,481.9c0,27.8-8.4,53.6-22.8,75.1l11.5,11.5c22.2-22.2,35.8-52.8,35.8-86.6
			c0-33.8-13.7-64.4-35.8-86.6l-11.5,11.5C426.5,428.2,435,454.1,435,481.9z"/>
		<path fill="#FFFFFF" d="M435.4,555.3l-9.6-9.6c-39.6,32.6-64.9,81.9-64.9,137.2s25.3,104.6,64.9,137.2l9.6-9.6
			c-27.4-35.2-43.9-79.4-43.9-127.5C391.6,634.7,408,590.5,435.4,555.3z"/>
	</g>
	<g>
		<path fill="#FFFFFF" d="M748.1,481.9c0,43.8-13.2,84.4-36,118.2l18,18c34.9-34.9,56.4-83.1,56.4-136.3
			c0-53.3-21.5-101.4-56.4-136.3l-18,18C734.7,397.4,748.1,438.1,748.1,481.9z"/>
		<path fill="#FFFFFF" d="M748.8,597.4l-15.2-15.2c-62.3,51.2-102.1,128.9-102.1,215.9s39.8,164.6,102.1,215.9l15.2-15.2
			c-43.1-55.4-69-124.9-69-200.7S705.6,652.9,748.8,597.4z"/>
	</g>
	<g>
		<path fill="#FFFFFF" d="M588.2,481.9c0,75.8-26,145.3-69,200.7l15.2,15.2c62.3-51.2,102.1-128.9,102.1-215.9
			S596.6,317.2,534.4,266l-15.2,15.2C562.4,336.6,588.2,406.1,588.2,481.9z"/>
		<path fill="#FFFFFF" d="M555.9,679.9l-18-18c-34.9,34.9-56.4,83-56.4,136.3c0,53.2,21.5,101.4,56.4,136.3l18-18
			c-22.7-33.8-36-74.4-36-118.2C519.9,754.4,533.3,713.7,555.9,679.9z"/>
	</g>
	<g>
		<path fill="#FFFFFF" d="M884.3,640c0,54.6-18.7,104.7-49.7,144.7l10.9,10.9c44.9-36.9,73.6-92.9,73.6-155.6
			s-28.7-118.7-73.6-155.6l-10.9,10.9C865.7,535.3,884.3,585.4,884.3,640z"/>
		<path fill="#FFFFFF" d="M861,782.7l-13-13c-25.1,25.1-40.6,59.8-40.6,98.2c0,38.3,15.5,73.1,40.6,98.2l13-13
			c-16.4-24.4-25.9-53.6-25.9-85.2S844.7,807.1,861,782.7z"/>
	</g>
</g>
</svg>
