<?xml version="1.0" encoding="utf-8"?>
<!-- Generator: Adobe Illustrator 18.0.0, SVG Export Plug-In . SVG Version: 6.00 Build 0)  -->
<!DOCTYPE svg PUBLIC "-//W3C//DTD SVG 1.1//EN" "http://www.w3.org/Graphics/SVG/1.1/DTD/svg11.dtd">
<svg version="1.1" id="Layer_1" xmlns="http://www.w3.org/2000/svg" xmlns:xlink="http://www.w3.org/1999/xlink" x="0px" y="0px"
	 viewBox="0 0 1280 1280" enable-background="new 0 0 1280 1280" xml:space="preserve">
<g>
	<polygon fill="#FFFFFF" points="617.3,430 492.3,555 406.6,555 384,577.3 384,703.6 404.4,723.9 491.2,723.9 617.3,850 640.9,850 
		640.9,430 	"/>
	<g>
		<path fill="#FFFFFF" d="M855.9,639.5c0,63-21.6,120.8-57.4,166.9l12.6,12.6c51.8-42.6,84.9-107.2,84.9-179.5
			s-33.1-136.9-84.9-179.5l-12.6,12.6C834.4,518.7,855.9,576.5,855.9,639.5z"/>
	</g>
	<g>
		<path fill="#FFFFFF" d="M735.8,639.5c0,36.4-11,70.2-29.9,98.3l15,15c29-29,46.9-69.1,46.9-113.3c0-44.3-17.9-84.3-46.9-113.3
			l-15,15C724.7,569.3,735.8,603.1,735.8,639.5z"/>
	</g>
</g>
</svg>
