<svg class="c-icons" version="1.1" viewBox="0 0 100 100" xmlns="http://www.w3.org/2000/svg" xmlns:xlink="http://www.w3.org/1999/xlink"><symbol viewBox="0 0 32 33" id="icon-arrow-down"><title>arrow-down</title> <polygon points="16.728,32.907 18.773,30.862 18.773,30.862 31.606,18.03 30.219,16.644 17.426,27.349 17.426,0.093 
	14.574,0.093 14.574,27.349 1.781,16.644 0.394,18.03 13.227,30.862 13.227,30.862 15.272,32.907 "/> </symbol><symbol viewBox="0 0 33 32" id="icon-arrow-left"><title>arrow-left</title> <polygon points="0.093,15.272 2.138,13.227 2.138,13.227 14.97,0.394 16.356,1.781 5.651,14.574 32.907,14.574 
	32.907,17.426 5.651,17.426 16.356,30.219 14.97,31.606 2.138,18.773 2.138,18.773 0.093,16.728 "/> </symbol><symbol viewBox="0 0 33 32" id="icon-arrow-right"><title>arrow-right</title> <polygon points="32.907,15.272 30.862,13.227 30.862,13.227 18.03,0.394 16.644,1.781 27.349,14.574 0.093,14.574 
	0.093,17.426 27.349,17.426 16.644,30.219 18.03,31.606 30.862,18.773 30.862,18.773 32.907,16.728 "/> </symbol><symbol viewBox="0 0 32 33" id="icon-arrow-up"><title>arrow-up</title> <g> <polygon points="15.272,0 13.227,2.045 13.227,2.045 0.394,14.877 1.781,16.263 14.574,5.558 14.574,32.814 
		17.426,32.814 17.426,5.558 30.219,16.263 31.606,14.877 18.773,2.045 18.773,2.045 16.728,0 	"/> </g> </symbol><symbol viewBox="0 0 36 28" id="icon-audio-off"><title>audio-off</title> <g> <polygon points="15.906,0.03 7.591,8.344 1.888,8.344 0.387,9.83 0.387,18.227 1.743,19.583 7.521,19.583 
		15.909,27.97 17.474,27.97 17.474,0.033 	"/> <g> <polygon points="22.532,6.867 21.396,8.002 27.56,14.922 34.478,21.083 35.613,19.948 29.451,13.029 		"/> <polygon points="21.397,19.948 22.532,21.083 29.451,14.922 35.613,8.002 34.478,6.867 27.56,13.031 		"/> </g> </g> </symbol><symbol viewBox="0 0 36 28" id="icon-audio-on"><title>audio-on</title> <g> <g> <polygon points="15.906,0.03 7.591,8.344 1.888,8.344 0.387,9.83 0.387,18.227 1.743,19.583 7.521,19.583 
			15.909,27.97 17.474,27.97 17.474,0.033 		"/> </g> <g> <g> <path d="M32.857,14c0,4.332-1.484,8.309-3.951,11.482l0.868,0.869c3.565-2.932,5.839-7.375,5.839-12.351
				s-2.274-9.419-5.839-12.351l-0.868,0.868C31.373,5.691,32.857,9.668,32.857,14z"/> </g> <g> <path d="M24.588,14c0,2.504-0.759,4.829-2.058,6.761l1.035,1.035c1.995-1.995,3.229-4.751,3.229-7.795
				s-1.234-5.8-3.229-7.795L22.53,7.239C23.829,9.171,24.588,11.496,24.588,14z"/> </g> </g> </g> </symbol><symbol viewBox="0 0 32 20" id="icon-menu"><title>menu</title> <g> <rect width="32" height="2.857"/> <rect y="8.571" width="32" height="2.857"/> <rect y="17.143" width="32" height="2.857"/> </g> </symbol><symbol viewBox="0 0 12 22" id="icon-pause"><title>pause</title> <g> <rect x="8.806" width="3.194" height="22"/> <rect x="0" width="3.194" height="22"/> </g> </symbol><symbol viewBox="0 0 26 25" id="icon-play"><title>play</title> <polygon points="26,12.5 0,24.935 0,0.065 "/> </symbol><symbol viewBox="0 0 32 33" id="icon-replay"><title>replay</title> <g> <path d="M2.324,6.21c2.657-3.22,5.99-5.167,10.001-5.934c3.187-0.61,6.281-0.191,9.249,1.062
		c3.501,1.478,6.189,3.914,8.032,7.231c1.487,2.676,2.195,5.58,2.032,8.644c-0.232,4.368-1.907,8.129-5.054,11.182
		c-2.386,2.316-5.264,3.753-8.527,4.342c-7.501,1.355-14.133-2.727-17.032-7.86c0.503-0.332,1.005-0.671,1.514-0.998
		c0.635-0.409,1.277-0.806,1.913-1.214c0.153-0.098,0.237-0.052,0.321,0.092c0.461,0.791,1.019,1.512,1.666,2.156
		c0.456,0.454,0.944,0.881,1.452,1.277c0.429,0.334,0.884,0.649,1.367,0.894c0.691,0.35,1.417,0.634,2.132,0.938
		c0.887,0.376,1.84,0.473,2.779,0.595c0.538,0.07,1.095,0.04,1.641,0.008c0.965-0.057,1.918-0.207,2.846-0.49
		c1.392-0.424,2.675-1.055,3.824-1.955c1.099-0.862,2.03-1.872,2.831-3.018c0.819-1.173,1.33-2.474,1.669-3.84
		c0.177-0.713,0.227-1.462,0.284-2.198c0.044-0.569,0.063-1.151-0.004-1.715c-0.102-0.855-0.199-1.717-0.521-2.531
		c-0.198-0.501-0.317-1.041-0.573-1.509c-0.46-0.841-0.944-1.681-1.517-2.446c-0.442-0.59-1.035-1.067-1.564-1.59
		c-0.744-0.736-1.63-1.285-2.565-1.711c-0.887-0.404-1.833-0.698-2.776-0.957c-1.084-0.298-2.21-0.35-3.327-0.24
		c-0.84,0.083-1.683,0.207-2.501,0.408c-1.501,0.369-2.861,1.062-4.058,2.043c-0.611,0.5-1.189,1.041-1.76,1.587
		c-0.22,0.21-0.387,0.48-0.554,0.738C5.505,9.254,5.547,9.405,5.603,9.464c0.357,0.382,0.729,0.751,1.095,1.125
		c0.296,0.303,0.589,0.609,0.915,0.947c-2.439,0-4.842,0-7.273,0c0-2.429,0-4.849,0-7.323C1.007,4.885,1.653,5.535,2.324,6.21z"/> </g> </symbol><symbol viewBox="-3 -1 22 18" id="icon-result-right"><title>result-right</title> <g> <polygon points="17.093,-1 5.28,13.299 -1.351,7.305 -3,9.285 5.541,17 19,0.71 	"/> </g> </symbol><symbol viewBox="0 0 16 16" id="icon-result-wrong"><title>result-wrong</title> <polygon points="16,14.261 9.738,7.999 15.999,1.739 14.26,0 7.999,6.26 1.74,0.001 0.001,1.74 6.26,7.999 0,14.26 
	1.739,15.999 7.999,9.738 14.261,16 "/> </symbol></svg>