<?xml version="1.0" encoding="utf-8"?>
<!-- Generator: Adobe Illustrator 18.0.0, SVG Export Plug-In . SVG Version: 6.00 Build 0)  -->
<!DOCTYPE svg PUBLIC "-//W3C//DTD SVG 1.1//EN" "http://www.w3.org/Graphics/SVG/1.1/DTD/svg11.dtd">
<svg version="1.1" xmlns="http://www.w3.org/2000/svg" xmlns:xlink="http://www.w3.org/1999/xlink" x="0px" y="0px" width="478px"
	 height="590px" viewBox="0 0 478 590" enable-background="new 0 0 478 590" xml:space="preserve">
<g id="_x31__neutral" display="none">
	<g display="inline">
		<g>
			<g>
				<circle fill="#76491D" cx="238.999" cy="143.263" r="97.572"/>
				<circle fill="#E0A280" cx="151.947" cy="156.926" r="21.321"/>
				<path fill="#C38669" d="M173.268,156.926c0,11.776-9.546,21.321-21.321,21.321c-0.901,0-1.783-0.074-2.655-0.182
					c-4.672-10.656-7.282-22.421-7.282-34.802c0-1.774,0.07-3.53,0.175-5.278c2.927-1.512,6.241-2.381,9.763-2.381
					C163.722,135.604,173.268,145.15,173.268,156.926z"/>
				<circle fill="#76491D" cx="238.999" cy="143.263" r="97.572"/>
				<path fill="#C38669" d="M151.947,135.604c-3.777,0-7.318,0.992-10.395,2.715c-0.082,1.638-0.125,3.286-0.125,4.944
					c0,12.174,2.248,23.819,6.322,34.566c1.358,0.271,2.761,0.418,4.198,0.418c11.775,0,21.321-9.546,21.321-21.321
					C173.268,145.15,163.722,135.604,151.947,135.604z"/>
				<circle fill="#E0A280" cx="326.052" cy="156.926" r="21.321"/>
				<path fill="#C38669" d="M304.731,156.925c0,11.776,9.546,21.321,21.321,21.321c1.438,0,2.84-0.147,4.198-0.418
					c4.073-10.747,6.322-22.391,6.322-34.566c0-1.658-0.043-3.307-0.125-4.945c-3.077-1.722-6.618-2.714-10.395-2.714
					C314.277,135.604,304.731,145.15,304.731,156.925z"/>
				<rect x="205.282" y="201.056" fill="#F4B891" width="67.435" height="90.298"/>
				<rect x="205.282" y="201.056" fill="#F4B891" width="67.435" height="90.298"/>
				<path fill="#C38669" d="M205.282,240.343c10.509,3.87,21.866,5.987,33.717,5.987c11.852,0,23.209-2.117,33.718-5.987v-40.278
					h-67.435V240.343z"/>
				<circle fill="#F4B891" cx="238.999" cy="143.263" r="86.773"/>
				<path fill="#E0A280" d="M152.582,135.604h172.835c-2.66-30.392-20.98-56.277-46.851-69.561h-79.133
					C173.561,79.327,155.242,105.212,152.582,135.604z"/>
				<polygon fill="#986327" points="347.374,122.798 130.625,122.798 152.226,40.447 325.773,40.447 				"/>
				<circle fill="#020202" cx="272.296" cy="147.83" r="6.113"/>
				<circle fill="#020202" cx="205.704" cy="147.83" r="6.113"/>
				
					<path fill="none" stroke="#C38669" stroke-width="4" stroke-linecap="round" stroke-linejoin="round" stroke-miterlimit="10" d="
					M228.782,164.071c1.75,3.903,5.662,6.627,10.217,6.627c4.555,0,8.467-2.724,10.217-6.627"/>
				
					<path fill="none" stroke="#CA6634" stroke-width="4" stroke-linecap="round" stroke-linejoin="round" stroke-miterlimit="10" d="
					M218.684,181.392c3.48,7.761,11.258,13.177,20.315,13.177c9.057,0,16.836-5.416,20.316-13.177"/>
				<path fill="#EE4823" d="M386.056,472.75H91.943v-70.629c0-65.006,52.698-117.704,117.704-117.704h58.705
					c65.006,0,117.704,52.698,117.704,117.704V472.75z"/>
			</g>
			<g>
				<path fill="#986327" d="M380.213,170.722c2.149-11.333,2.964-23.137,2.268-35.25C378.228,61.492,316.797,2.1,242.718,0.229
					C161.644-1.818,95.277,63.294,95.277,143.906c0,9,0.832,17.805,2.422,26.343c5.158,27.714-3.168,56.248-22.559,76.709
					c-18.175,19.178-36.489,39.536-50.405,55.268C9.229,319.756,0.693,342.334,0.693,365.736v0c0,42.077,34.11,76.186,76.186,76.186
					h324.24c42.077,0,76.187-34.11,76.187-76.187v-0.001c0-23.402-8.536-45.979-24.04-63.508
					c-13.853-15.662-32.066-35.908-50.161-55.009C383.768,226.804,374.975,198.348,380.213,170.722z"/>
				<g>
					<g>
						<circle fill="#76491D" cx="239" cy="160.523" r="103.977"/>
						<circle fill="#E0A280" cx="146.233" cy="175.082" r="22.721"/>
						<path fill="#C38669" d="M168.953,175.082c0,12.549-10.172,22.721-22.721,22.721c-0.96,0-1.9-0.079-2.829-0.194
							c-4.979-11.355-7.76-23.893-7.76-37.086c0-1.89,0.074-3.762,0.186-5.625c3.12-1.611,6.651-2.537,10.404-2.537
							C158.781,152.361,168.953,162.534,168.953,175.082z"/>
						<circle fill="#76491D" cx="239" cy="160.523" r="103.977"/>
						<path fill="#C38669" d="M146.233,152.361c-4.025,0-7.798,1.057-11.077,2.893c-0.087,1.745-0.133,3.502-0.133,5.269
							c0,12.974,2.396,25.383,6.737,36.835c1.447,0.289,2.942,0.445,4.474,0.445c12.548,0,22.721-10.172,22.721-22.721
							C168.954,162.534,158.781,152.361,146.233,152.361z"/>
						<circle fill="#E0A280" cx="331.767" cy="175.082" r="22.721"/>
						<path fill="#C38669" d="M309.046,175.082c0,12.549,10.172,22.721,22.721,22.721c1.532,0,3.026-0.156,4.474-0.446
							c4.34-11.452,6.737-23.861,6.737-36.835c0-1.767-0.046-3.524-0.133-5.269c-3.279-1.835-7.052-2.892-11.077-2.892
							C319.219,152.361,309.046,162.534,309.046,175.082z"/>
						<rect x="203.069" y="222.109" fill="#F4B891" width="71.862" height="96.226"/>
						<rect x="203.069" y="222.109" fill="#F4B891" width="71.862" height="96.226"/>
						<path fill="#C38669" d="M203.069,263.975c11.198,4.124,23.301,6.38,35.931,6.38c12.63,0,24.732-2.256,35.931-6.38v-42.922
							h-71.862V263.975z"/>
						<circle fill="#F4B891" cx="239" cy="160.523" r="92.469"/>
						<path fill="#E0A280" d="M146.91,152.361h184.18c-2.835-32.387-22.357-59.971-49.927-74.127h-84.327
							C169.266,92.39,149.744,119.974,146.91,152.361z"/>
						<polygon fill="#986327" points="354.488,138.714 123.512,138.714 146.531,50.958 331.469,50.958 						"/>
						<circle fill="#020202" cx="274.482" cy="165.389" r="6.514"/>
						<circle fill="#020202" cx="203.519" cy="165.389" r="6.514"/>
						
							<path fill="none" stroke="#C38669" stroke-width="4" stroke-linecap="round" stroke-linejoin="round" stroke-miterlimit="10" d="
							M228.112,182.696c1.865,4.16,6.034,7.062,10.888,7.062c4.854,0,9.023-2.903,10.888-7.062"/>
					</g>
				</g>
			</g>
			<path fill="#D22D27" d="M416.707,590V439.031c0-70.741-57.347-128.088-128.088-128.088h-41.982h-15.261h-41.982
				c-70.741,0-128.088,57.348-128.088,128.088v28.621V590H416.707z"/>
			<path fill="#EE4823" d="M395.709,590V467.652v-28.621c0-70.741-57.347-128.088-128.088-128.088h-57.243
				c-70.741,0-128.088,57.348-128.088,128.088v28.621V590H395.709z"/>
		</g>
		<ellipse fill="#CA6634" stroke="#CA6634" stroke-miterlimit="10" cx="238.999" cy="207.652" rx="14.189" ry="2.75"/>
	</g>
</g>
<g id="_x31__sad" display="none">
	<g display="inline">
		<g>
			<circle fill="#76491D" cx="238.999" cy="143.263" r="97.572"/>
			<circle fill="#E0A280" cx="151.947" cy="156.926" r="21.321"/>
			<path fill="#C38669" d="M173.268,156.926c0,11.776-9.546,21.321-21.321,21.321c-0.901,0-1.783-0.074-2.655-0.182
				c-4.672-10.656-7.282-22.421-7.282-34.802c0-1.774,0.07-3.53,0.175-5.278c2.927-1.512,6.241-2.381,9.763-2.381
				C163.722,135.604,173.268,145.15,173.268,156.926z"/>
			<circle fill="#76491D" cx="238.999" cy="143.263" r="97.572"/>
			<path fill="#C38669" d="M151.947,135.604c-3.777,0-7.318,0.992-10.395,2.715c-0.082,1.638-0.125,3.286-0.125,4.944
				c0,12.174,2.248,23.819,6.322,34.566c1.358,0.271,2.761,0.418,4.198,0.418c11.775,0,21.321-9.546,21.321-21.321
				C173.268,145.15,163.722,135.604,151.947,135.604z"/>
			<circle fill="#E0A280" cx="326.052" cy="156.926" r="21.321"/>
			<path fill="#C38669" d="M304.731,156.925c0,11.776,9.546,21.321,21.321,21.321c1.438,0,2.84-0.147,4.198-0.418
				c4.073-10.747,6.322-22.391,6.322-34.566c0-1.658-0.043-3.307-0.125-4.945c-3.077-1.722-6.618-2.714-10.395-2.714
				C314.277,135.604,304.731,145.15,304.731,156.925z"/>
			<rect x="205.282" y="201.056" fill="#F4B891" width="67.435" height="90.298"/>
			<rect x="205.282" y="201.056" fill="#F4B891" width="67.435" height="90.298"/>
			<path fill="#C38669" d="M205.282,240.343c10.509,3.87,21.866,5.987,33.717,5.987c11.852,0,23.209-2.117,33.718-5.987v-40.278
				h-67.435V240.343z"/>
			<circle fill="#F4B891" cx="238.999" cy="143.263" r="86.773"/>
			<path fill="#E0A280" d="M152.582,135.604h172.835c-2.66-30.392-20.98-56.277-46.851-69.561h-79.133
				C173.561,79.327,155.242,105.212,152.582,135.604z"/>
			<polygon fill="#986327" points="347.374,122.798 130.625,122.798 152.226,40.447 325.773,40.447 			"/>
			<circle fill="#020202" cx="272.296" cy="147.83" r="6.113"/>
			<circle fill="#020202" cx="205.704" cy="147.83" r="6.113"/>
			<path fill="none" stroke="#C38669" stroke-width="4" stroke-linecap="round" stroke-linejoin="round" stroke-miterlimit="10" d="
				M228.782,164.071c1.75,3.903,5.662,6.627,10.217,6.627c4.555,0,8.467-2.724,10.217-6.627"/>
			<path fill="none" stroke="#CA6634" stroke-width="4" stroke-linecap="round" stroke-linejoin="round" stroke-miterlimit="10" d="
				M218.684,181.392c3.48,7.761,11.258,13.177,20.315,13.177c9.057,0,16.836-5.416,20.316-13.177"/>
			<path fill="#EE4823" d="M386.056,472.75H91.943v-70.629c0-65.006,52.698-117.704,117.704-117.704h58.705
				c65.006,0,117.704,52.698,117.704,117.704V472.75z"/>
		</g>
		<g>
			<path fill="#986327" d="M380.213,170.722c2.149-11.333,2.964-23.137,2.268-35.25C378.228,61.492,316.797,2.1,242.718,0.229
				C161.644-1.818,95.277,63.294,95.277,143.906c0,9,0.832,17.805,2.422,26.343c5.158,27.714-3.168,56.248-22.559,76.709
				c-18.175,19.178-36.489,39.536-50.405,55.268C9.229,319.756,0.693,342.334,0.693,365.736v0c0,42.077,34.11,76.186,76.186,76.186
				h324.24c42.077,0,76.187-34.11,76.187-76.187v-0.001c0-23.402-8.536-45.979-24.04-63.508
				c-13.853-15.662-32.066-35.908-50.161-55.009C383.768,226.804,374.975,198.348,380.213,170.722z"/>
			<g>
				<g>
					<circle fill="#76491D" cx="239" cy="160.523" r="103.977"/>
					<circle fill="#E0A280" cx="146.233" cy="175.082" r="22.721"/>
					<path fill="#C38669" d="M168.953,175.082c0,12.549-10.172,22.721-22.721,22.721c-0.96,0-1.9-0.079-2.829-0.194
						c-4.979-11.355-7.76-23.893-7.76-37.086c0-1.89,0.074-3.762,0.186-5.625c3.12-1.611,6.651-2.537,10.404-2.537
						C158.781,152.361,168.953,162.534,168.953,175.082z"/>
					<circle fill="#76491D" cx="239" cy="160.523" r="103.977"/>
					<path fill="#C38669" d="M146.233,152.361c-4.025,0-7.798,1.057-11.077,2.893c-0.087,1.745-0.133,3.502-0.133,5.269
						c0,12.974,2.396,25.383,6.737,36.835c1.447,0.289,2.942,0.445,4.474,0.445c12.548,0,22.721-10.172,22.721-22.721
						C168.954,162.534,158.781,152.361,146.233,152.361z"/>
					<circle fill="#E0A280" cx="331.767" cy="175.082" r="22.721"/>
					<path fill="#C38669" d="M309.046,175.082c0,12.549,10.172,22.721,22.721,22.721c1.532,0,3.026-0.156,4.474-0.446
						c4.34-11.452,6.737-23.861,6.737-36.835c0-1.767-0.046-3.524-0.133-5.269c-3.279-1.835-7.052-2.892-11.077-2.892
						C319.219,152.361,309.046,162.534,309.046,175.082z"/>
					<rect x="203.069" y="222.109" fill="#F4B891" width="71.862" height="96.226"/>
					<rect x="203.069" y="222.109" fill="#F4B891" width="71.862" height="96.226"/>
					<path fill="#C38669" d="M203.069,263.975c11.198,4.124,23.301,6.38,35.931,6.38c12.63,0,24.732-2.256,35.931-6.38v-42.922
						h-71.862V263.975z"/>
					<circle fill="#F4B891" cx="239" cy="160.523" r="92.469"/>
					<path fill="#E0A280" d="M146.91,152.361h184.18c-2.835-32.387-22.357-59.971-49.927-74.127h-84.327
						C169.266,92.39,149.744,119.974,146.91,152.361z"/>
					<polygon fill="#986327" points="354.488,138.714 123.512,138.714 146.531,50.958 331.469,50.958 					"/>
					<circle fill="#020202" cx="274.482" cy="165.389" r="6.514"/>
					<circle fill="#020202" cx="203.519" cy="165.389" r="6.514"/>
					
						<path fill="none" stroke="#C38669" stroke-width="4" stroke-linecap="round" stroke-linejoin="round" stroke-miterlimit="10" d="
						M228.112,182.696c1.865,4.16,6.034,7.062,10.888,7.062c4.854,0,9.023-2.903,10.888-7.062"/>
					
						<path fill="none" stroke="#CA6634" stroke-width="4" stroke-linecap="round" stroke-linejoin="round" stroke-miterlimit="10" d="
						M260.649,215.197c-3.709-8.271-11.998-14.042-21.648-14.042c-9.652,0-17.941,5.771-21.649,14.042"/>
				</g>
			</g>
		</g>
		<path fill="#D22D27" d="M416.707,590V439.031c0-70.741-57.347-128.088-128.088-128.088h-41.982h-15.261h-41.982
			c-70.741,0-128.088,57.348-128.088,128.088v28.621V590H416.707z"/>
		<path fill="#EE4823" d="M395.709,590V467.652v-28.621c0-70.741-57.347-128.088-128.088-128.088h-57.243
			c-70.741,0-128.088,57.348-128.088,128.088v28.621V590H395.709z"/>
	</g>
</g>
<g id="_x31__happy" display="none">
	<g display="inline">
		<rect x="45.413" y="29.181" fill="none" stroke="#98D6D8" stroke-miterlimit="10" width="2.131" height="0"/>
		<g>
			<g>
				<circle fill="#76491D" cx="238.999" cy="143.263" r="97.572"/>
				<circle fill="#E0A280" cx="151.947" cy="156.926" r="21.321"/>
				<path fill="#C38669" d="M173.268,156.926c0,11.776-9.546,21.321-21.321,21.321c-0.901,0-1.783-0.074-2.655-0.182
					c-4.672-10.656-7.282-22.421-7.282-34.802c0-1.774,0.07-3.53,0.175-5.278c2.927-1.512,6.241-2.381,9.763-2.381
					C163.722,135.604,173.268,145.15,173.268,156.926z"/>
				<circle fill="#76491D" cx="238.999" cy="143.263" r="97.572"/>
				<path fill="#C38669" d="M151.947,135.604c-3.777,0-7.318,0.992-10.395,2.715c-0.082,1.638-0.125,3.286-0.125,4.944
					c0,12.174,2.248,23.819,6.322,34.566c1.358,0.271,2.761,0.418,4.198,0.418c11.775,0,21.321-9.546,21.321-21.321
					C173.268,145.15,163.722,135.604,151.947,135.604z"/>
				<circle fill="#E0A280" cx="326.052" cy="156.926" r="21.321"/>
				<path fill="#C38669" d="M304.731,156.925c0,11.776,9.546,21.321,21.321,21.321c1.438,0,2.84-0.147,4.198-0.418
					c4.073-10.747,6.322-22.391,6.322-34.566c0-1.658-0.043-3.307-0.125-4.945c-3.077-1.722-6.618-2.714-10.395-2.714
					C314.277,135.604,304.731,145.15,304.731,156.925z"/>
				<rect x="205.282" y="201.056" fill="#F4B891" width="67.435" height="90.298"/>
				<rect x="205.282" y="201.056" fill="#F4B891" width="67.435" height="90.298"/>
				<path fill="#C38669" d="M205.282,240.343c10.509,3.87,21.866,5.987,33.717,5.987c11.852,0,23.209-2.117,33.718-5.987v-40.278
					h-67.435V240.343z"/>
				<circle fill="#F4B891" cx="238.999" cy="143.263" r="86.773"/>
				<path fill="#E0A280" d="M152.582,135.604h172.835c-2.66-30.392-20.98-56.277-46.851-69.561h-79.133
					C173.561,79.327,155.242,105.212,152.582,135.604z"/>
				<polygon fill="#986327" points="347.374,122.798 130.625,122.798 152.226,40.447 325.773,40.447 				"/>
				<circle fill="#020202" cx="272.296" cy="147.83" r="6.113"/>
				<circle fill="#020202" cx="205.704" cy="147.83" r="6.113"/>
				
					<path fill="none" stroke="#C38669" stroke-width="4" stroke-linecap="round" stroke-linejoin="round" stroke-miterlimit="10" d="
					M228.782,164.071c1.75,3.903,5.662,6.627,10.217,6.627c4.555,0,8.467-2.724,10.217-6.627"/>
				
					<path fill="none" stroke="#CA6634" stroke-width="4" stroke-linecap="round" stroke-linejoin="round" stroke-miterlimit="10" d="
					M218.684,181.392c3.48,7.761,11.258,13.177,20.315,13.177c9.057,0,16.836-5.416,20.316-13.177"/>
				<path fill="#EE4823" d="M386.056,472.75H91.943v-70.629c0-65.006,52.698-117.704,117.704-117.704h58.705
					c65.006,0,117.704,52.698,117.704,117.704V472.75z"/>
			</g>
			<g>
				<path fill="#986327" d="M380.213,170.722c2.149-11.333,2.964-23.137,2.268-35.25C378.228,61.492,316.797,2.1,242.718,0.229
					C161.644-1.818,95.277,63.294,95.277,143.906c0,9,0.832,17.805,2.422,26.343c5.158,27.714-3.168,56.248-22.559,76.709
					c-18.175,19.178-36.489,39.536-50.405,55.268C9.229,319.756,0.693,342.334,0.693,365.736v0c0,42.077,34.11,76.186,76.186,76.186
					h324.24c42.077,0,76.187-34.11,76.187-76.187v-0.001c0-23.402-8.536-45.979-24.04-63.508
					c-13.853-15.662-32.066-35.908-50.161-55.009C383.768,226.804,374.975,198.348,380.213,170.722z"/>
				<g>
					<g>
						<circle fill="#76491D" cx="239" cy="160.523" r="103.977"/>
						<circle fill="#E0A280" cx="146.233" cy="175.082" r="22.721"/>
						<path fill="#C38669" d="M168.953,175.082c0,12.549-10.172,22.721-22.721,22.721c-0.96,0-1.9-0.079-2.829-0.194
							c-4.979-11.355-7.76-23.893-7.76-37.086c0-1.89,0.074-3.762,0.186-5.625c3.12-1.611,6.651-2.537,10.404-2.537
							C158.781,152.361,168.953,162.534,168.953,175.082z"/>
						<circle fill="#76491D" cx="239" cy="160.523" r="103.977"/>
						<path fill="#C38669" d="M146.233,152.361c-4.025,0-7.798,1.057-11.077,2.893c-0.087,1.745-0.133,3.502-0.133,5.269
							c0,12.974,2.396,25.383,6.737,36.835c1.447,0.289,2.942,0.445,4.474,0.445c12.548,0,22.721-10.172,22.721-22.721
							C168.954,162.534,158.781,152.361,146.233,152.361z"/>
						<circle fill="#E0A280" cx="331.767" cy="175.082" r="22.721"/>
						<path fill="#C38669" d="M309.046,175.082c0,12.549,10.172,22.721,22.721,22.721c1.532,0,3.026-0.156,4.474-0.446
							c4.34-11.452,6.737-23.861,6.737-36.835c0-1.767-0.046-3.524-0.133-5.269c-3.279-1.835-7.052-2.892-11.077-2.892
							C319.219,152.361,309.046,162.534,309.046,175.082z"/>
						<rect x="203.069" y="222.109" fill="#F4B891" width="71.862" height="96.226"/>
						<rect x="203.069" y="222.109" fill="#F4B891" width="71.862" height="96.226"/>
						<path fill="#C38669" d="M203.069,263.975c11.198,4.124,23.301,6.38,35.931,6.38c12.63,0,24.732-2.256,35.931-6.38v-42.922
							h-71.862V263.975z"/>
						<circle fill="#F4B891" cx="239" cy="160.523" r="92.469"/>
						<path fill="#E0A280" d="M146.91,152.361h184.18c-2.835-32.387-22.357-59.971-49.927-74.127h-84.327
							C169.266,92.39,149.744,119.974,146.91,152.361z"/>
						<polygon fill="#986327" points="354.488,138.714 123.512,138.714 146.531,50.958 331.469,50.958 						"/>
						<circle fill="#020202" cx="274.482" cy="165.389" r="6.514"/>
						<circle fill="#020202" cx="203.519" cy="165.389" r="6.514"/>
						
							<path fill="none" stroke="#C38669" stroke-width="4" stroke-linecap="round" stroke-linejoin="round" stroke-miterlimit="10" d="
							M228.112,182.696c1.865,4.16,6.034,7.062,10.888,7.062c4.854,0,9.023-2.903,10.888-7.062"/>
						
							<path fill="#FFFFFF" stroke="#CA6634" stroke-width="4" stroke-linecap="round" stroke-linejoin="round" stroke-miterlimit="10" d="
							M210.444,206.155c4.892,10.91,15.825,18.523,28.555,18.523c12.731,0,23.665-7.613,28.556-18.523H210.444z"/>
					</g>
				</g>
			</g>
			<path fill="#D22D27" d="M416.707,590V439.031c0-70.741-57.347-128.088-128.088-128.088h-41.982h-15.261h-41.982
				c-70.741,0-128.088,57.348-128.088,128.088v28.621V590H416.707z"/>
			<path fill="#EE4823" d="M395.709,590V467.652v-28.621c0-70.741-57.347-128.088-128.088-128.088h-57.243
				c-70.741,0-128.088,57.348-128.088,128.088v28.621V590H395.709z"/>
		</g>
	</g>
</g>
<g id="_x32__neutral_1_" display="none">
	<g display="inline">
		<g>
			<g>
				<circle fill="#020202" cx="176.351" cy="226.246" r="96.978"/>
				<circle fill="#020202" cx="301.352" cy="226.246" r="96.978"/>
				<circle fill="#020202" cx="239" cy="129.268" r="96.978"/>
				<g>
					<g>
						<circle fill="#513016" cx="146.323" cy="175.133" r="22.699"/>
						<path fill="#C38669" d="M169.022,175.132c0,12.536-10.163,22.699-22.699,22.699c-0.96,0-1.898-0.079-2.827-0.194
							c-4.974-11.344-7.753-23.87-7.753-37.05c0-1.888,0.074-3.759,0.186-5.619c3.117-1.61,6.644-2.535,10.394-2.535
							C158.859,152.433,169.022,162.596,169.022,175.132z"/>
						<path fill="#372012" d="M146.323,152.433c-4.021,0-7.791,1.056-11.066,2.89c-0.087,1.744-0.133,3.498-0.133,5.264
							c0,12.961,2.393,25.358,6.73,36.8c1.445,0.288,2.939,0.445,4.469,0.445c12.536,0,22.699-10.163,22.699-22.698
							C169.022,162.596,158.859,152.433,146.323,152.433z"/>
						<circle fill="#513016" cx="331.677" cy="175.132" r="22.699"/>
						<path fill="#372012" d="M308.979,175.132c0,12.536,10.163,22.699,22.698,22.699c1.531,0,3.023-0.156,4.469-0.445
							c4.336-11.441,6.73-23.838,6.73-36.799c0-1.765-0.046-3.521-0.133-5.264c-3.276-1.834-7.046-2.889-11.066-2.889
							C319.141,152.433,308.979,162.596,308.979,175.132z"/>
						<rect x="203.104" y="222.114" fill="#F4B891" width="71.792" height="96.132"/>
						<rect x="203.104" y="222.114" fill="#7C4D1F" width="71.792" height="96.132"/>
						<path fill="#513016" d="M203.104,263.939c11.188,4.12,23.278,6.374,35.896,6.374c12.618,0,24.708-2.254,35.896-6.374v-42.881
							h-71.792V263.939z"/>
						<circle fill="#7C4D1F" cx="239" cy="160.587" r="92.38"/>
						<circle fill="#020202" cx="274.448" cy="165.449" r="6.508"/>
						<circle fill="#020202" cx="203.554" cy="165.449" r="6.508"/>
						
							<path fill="none" stroke="#513016" stroke-width="4" stroke-linecap="round" stroke-linejoin="round" stroke-miterlimit="10" d="
							M228.123,182.739c1.863,4.156,6.028,7.055,10.877,7.055c4.849,0,9.014-2.9,10.877-7.055"/>
					</g>
				</g>
				<path fill="#020202" d="M146.323,137.692c0,0,65.994-10.6,86.604-34.145c3.225-3.684,8.917-3.679,12.137,0.009
					c20.555,23.535,86.315,34.136,86.315,34.136l-5.452-31.079l-51.031-51.158l-61.815,2.597l-52.446,27.194L146.323,137.692z"/>
			</g>
			<path fill="#513016" d="M126.445,590V466.612h225.11V590h67.557V466.612v-16.371v-11.416
				c0-70.672-57.289-127.964-127.962-127.964H244.04h-10.078h-47.111c-70.673,0-127.963,57.292-127.963,127.964v11.416v16.371V590
				H126.445z"/>
			<g>
				<path fill="#FFD70D" d="M395.557,590V467.419v-28.594c0-70.672-57.291-127.964-127.963-127.964h-57.188
					c-70.673,0-127.964,57.292-127.964,127.964v28.594V590H395.557z"/>
			</g>
		</g>
		<ellipse fill="#CA6634" stroke="#CA6634" stroke-miterlimit="10" cx="239" cy="226.246" rx="14.189" ry="2.75"/>
	</g>
</g>
<g id="_x32__sad_1_">
	<g>
		<g>
			<circle fill="#020202" cx="176.351" cy="226.246" r="96.978"/>
			<circle fill="#020202" cx="301.352" cy="226.246" r="96.978"/>
			<circle fill="#020202" cx="239" cy="129.268" r="96.978"/>
			<g>
				<g>
					<circle fill="#513016" cx="146.323" cy="175.133" r="22.699"/>
					<path fill="#C38669" d="M169.022,175.132c0,12.536-10.163,22.699-22.699,22.699c-0.96,0-1.898-0.079-2.827-0.194
						c-4.974-11.344-7.753-23.87-7.753-37.05c0-1.888,0.074-3.759,0.186-5.619c3.117-1.61,6.644-2.535,10.394-2.535
						C158.859,152.433,169.022,162.596,169.022,175.132z"/>
					<path fill="#372012" d="M146.323,152.433c-4.021,0-7.791,1.056-11.066,2.89c-0.087,1.744-0.133,3.498-0.133,5.264
						c0,12.961,2.393,25.358,6.73,36.8c1.445,0.288,2.939,0.445,4.469,0.445c12.536,0,22.699-10.163,22.699-22.698
						C169.022,162.596,158.859,152.433,146.323,152.433z"/>
					<circle fill="#513016" cx="331.677" cy="175.132" r="22.699"/>
					<path fill="#372012" d="M308.979,175.132c0,12.536,10.163,22.699,22.699,22.699c1.531,0,3.023-0.156,4.469-0.445
						c4.336-11.441,6.73-23.838,6.73-36.799c0-1.765-0.046-3.521-0.133-5.264c-3.276-1.834-7.045-2.889-11.066-2.889
						C319.141,152.433,308.979,162.596,308.979,175.132z"/>
					<rect x="203.104" y="222.114" fill="#F4B891" width="71.792" height="96.132"/>
					<rect x="203.104" y="222.114" fill="#7C4D1F" width="71.792" height="96.132"/>
					<path fill="#513016" d="M203.104,263.939c11.188,4.12,23.278,6.374,35.896,6.374c12.618,0,24.708-2.254,35.896-6.374v-42.881
						h-71.792V263.939z"/>
					<circle fill="#7C4D1F" cx="239" cy="160.587" r="92.38"/>
					<circle fill="#020202" cx="274.448" cy="165.449" r="6.508"/>
					<circle fill="#020202" cx="203.554" cy="165.449" r="6.508"/>
					
						<path fill="none" stroke="#513016" stroke-width="4" stroke-linecap="round" stroke-linejoin="round" stroke-miterlimit="10" d="
						M228.123,182.739c1.863,4.156,6.028,7.055,10.877,7.055c4.849,0,9.014-2.9,10.877-7.055"/>
					
						<path fill="none" stroke="#CA6634" stroke-width="4" stroke-linecap="round" stroke-linejoin="round" stroke-miterlimit="10" d="
						M260.628,215.209c-3.705-8.263-11.986-14.029-21.627-14.029c-9.642,0-17.923,5.766-21.628,14.029"/>
				</g>
			</g>
			<path fill="#020202" d="M146.323,137.692c0,0,65.994-10.6,86.604-34.145c3.225-3.684,8.917-3.679,12.137,0.009
				c20.555,23.535,86.315,34.136,86.315,34.136l-5.452-31.079l-51.031-51.158l-61.815,2.597l-52.446,27.194L146.323,137.692z"/>
		</g>
		<path fill="#513016" d="M126.445,590V466.612h225.11V590h67.557V466.612v-16.371v-11.416c0-70.672-57.289-127.964-127.962-127.964
			H244.04h-10.078h-47.111c-70.673,0-127.963,57.292-127.963,127.964v11.416v16.371V590H126.445z"/>
		<g>
			<path fill="#FFD70D" d="M395.557,590V467.419v-28.594c0-70.672-57.291-127.964-127.963-127.964h-57.187
				c-70.673,0-127.964,57.292-127.964,127.964v28.594V590H395.557z"/>
		</g>
	</g>
</g>
<g id="_x32__happy_1_" display="none">
	<g display="inline">
		<g>
			<circle fill="#020202" cx="176.351" cy="226.246" r="96.978"/>
			<circle fill="#020202" cx="301.352" cy="226.246" r="96.978"/>
			<circle fill="#020202" cx="239" cy="129.268" r="96.978"/>
			<g>
				<g>
					<circle fill="#513016" cx="146.323" cy="175.133" r="22.699"/>
					<path fill="#C38669" d="M169.022,175.132c0,12.536-10.163,22.699-22.699,22.699c-0.96,0-1.898-0.079-2.827-0.194
						c-4.974-11.344-7.753-23.87-7.753-37.05c0-1.888,0.074-3.759,0.186-5.619c3.117-1.61,6.644-2.535,10.394-2.535
						C158.859,152.433,169.022,162.596,169.022,175.132z"/>
					<path fill="#372012" d="M146.323,152.433c-4.021,0-7.791,1.056-11.066,2.89c-0.087,1.744-0.133,3.498-0.133,5.264
						c0,12.961,2.393,25.358,6.73,36.8c1.445,0.288,2.939,0.445,4.469,0.445c12.536,0,22.699-10.163,22.699-22.698
						C169.022,162.596,158.859,152.433,146.323,152.433z"/>
					<circle fill="#513016" cx="331.677" cy="175.132" r="22.699"/>
					<path fill="#372012" d="M308.979,175.132c0,12.536,10.163,22.699,22.698,22.699c1.531,0,3.024-0.156,4.469-0.445
						c4.336-11.441,6.73-23.838,6.73-36.799c0-1.765-0.046-3.521-0.133-5.264c-3.276-1.834-7.045-2.889-11.066-2.889
						C319.141,152.433,308.979,162.596,308.979,175.132z"/>
					<rect x="203.104" y="222.114" fill="#F4B891" width="71.792" height="96.132"/>
					<rect x="203.104" y="222.114" fill="#7C4D1F" width="71.792" height="96.132"/>
					<path fill="#513016" d="M203.104,263.939c11.188,4.12,23.278,6.374,35.896,6.374c12.618,0,24.708-2.254,35.896-6.374v-42.881
						h-71.792V263.939z"/>
					<circle fill="#7C4D1F" cx="239" cy="160.587" r="92.38"/>
					<circle fill="#020202" cx="274.448" cy="165.449" r="6.508"/>
					<circle fill="#020202" cx="203.554" cy="165.449" r="6.508"/>
					
						<path fill="none" stroke="#513016" stroke-width="4" stroke-linecap="round" stroke-linejoin="round" stroke-miterlimit="10" d="
						M228.123,182.739c1.863,4.156,6.028,7.055,10.877,7.055c4.849,0,9.014-2.9,10.877-7.055"/>
					
						<path fill="#FFFFFF" stroke="#CA6634" stroke-width="4" stroke-linecap="round" stroke-linejoin="round" stroke-miterlimit="10" d="
						M260.628,201.18c-3.705,8.263-11.986,14.029-21.628,14.029c-9.642,0-17.922-5.766-21.627-14.029H260.628z"/>
				</g>
			</g>
			<path fill="#020202" d="M146.323,137.692c0,0,65.994-10.6,86.604-34.145c3.225-3.684,8.917-3.679,12.137,0.009
				c20.555,23.535,86.315,34.136,86.315,34.136l-5.452-31.079l-51.031-51.158l-61.815,2.597l-52.446,27.194L146.323,137.692z"/>
		</g>
		<path fill="#513016" d="M126.445,590V466.612h225.11V590h67.557V466.612v-16.371v-11.416c0-70.672-57.289-127.964-127.962-127.964
			H244.04h-10.078h-47.111c-70.673,0-127.963,57.292-127.963,127.964v11.416v16.371V590H126.445z"/>
		<g>
			<path fill="#FFD70D" d="M395.557,590V467.419v-28.594c0-70.672-57.291-127.964-127.963-127.964h-57.187
				c-70.673,0-127.964,57.292-127.964,127.964v28.594V590H395.557z"/>
		</g>
	</g>
</g>
<g id="_x33__neutral" display="none">
	<g display="inline">
		<g>
			<g>
				<path fill="#DDDDDC" d="M48.267,589V439.663c0-71.206,57.724-128.931,128.931-128.931h57.62c1.403,0,2.79,0.061,4.182,0.106
					c1.392-0.045,2.78-0.106,4.182-0.106h57.62c71.206,0,128.93,57.725,128.93,128.931V589H48.267z"/>
				<g>
					<g>
						<circle fill="#E0A280" cx="142.447" cy="173.977" r="22.871"/>
						<path fill="#C38669" d="M165.317,173.977c0,12.631-10.239,22.871-22.87,22.871c-0.967,0-1.913-0.08-2.848-0.196
							c-5.012-11.43-7.812-24.05-7.812-37.33c0-1.902,0.075-3.787,0.187-5.662c3.14-1.622,6.694-2.554,10.472-2.554
							C155.078,151.106,165.317,161.346,165.317,173.977z"/>
						<path fill="#C38669" d="M142.447,151.106c-4.051,0-7.85,1.064-11.15,2.912c-0.088,1.757-0.134,3.525-0.134,5.304
							c0,13.059,2.411,25.55,6.781,37.078c1.456,0.29,2.961,0.448,4.503,0.448c12.631,0,22.871-10.239,22.871-22.87
							C165.317,161.346,155.077,151.106,142.447,151.106z"/>
						<circle fill="#E0A280" cx="329.202" cy="173.977" r="22.871"/>
						<path fill="#C38669" d="M306.332,173.977c0,12.631,10.239,22.871,22.87,22.871c1.542,0,3.046-0.157,4.503-0.449
							c4.369-11.528,6.781-24.018,6.781-37.077c0-1.779-0.046-3.547-0.134-5.304c-3.3-1.847-7.099-2.911-11.15-2.911
							C316.571,151.106,306.332,161.346,306.332,173.977z"/>
						<rect x="199.657" y="221.314" fill="#F4B891" width="72.335" height="96.859"/>
						<rect x="199.657" y="221.314" fill="#F4B891" width="72.335" height="96.859"/>
						<path fill="#C38669" d="M199.657,263.455c11.272,4.152,23.454,6.422,36.167,6.422c12.714,0,24.895-2.271,36.168-6.422V220.25
							h-72.335V263.455z"/>
						<circle fill="#F4B891" cx="235.824" cy="159.322" r="93.078"/>
						<path fill="#606060" d="M237.244,195.705c0.31,5.393,5.618,9.437,11.541,9.437l27.627,0c3.85,0,5.497-4.443,2.442-6.579
							c-8.316-5.811-20.993-13.367-30.687-13.367C241.931,185.196,236.914,189.954,237.244,195.705z"/>
						<path fill="#606060" d="M234.404,195.705c-0.31,5.393-5.618,9.437-11.541,9.437l-27.627,0c-3.85,0-5.497-4.443-2.442-6.579
							c8.316-5.811,20.993-13.367,30.687-13.367C229.718,185.196,234.735,189.954,234.404,195.705z"/>
						<path fill="#E0A280" d="M235.824,66.244c-51.405,0-93.077,41.672-93.077,93.077c0,7.279,10.581,1.396,11.608-13.988
							c0.533,0.018,1.053,0.08,1.59,0.08c19.316,0,35.903-11.559,43.306-28.123c4.518,1.356,8.943,3.011,13.217,5.029l1.18,0.557
							c8.686,4.102,18.882,3.377,26.9-1.911l4.361-2.877c8.663-5.714,20.252-3.903,26.759,4.181
							c7.158,8.894,18.108,13.87,29.515,13.414c9.413-0.377,18.758,7.645,19.118,15.642c0.36,7.996,8.6,15.089,8.6,7.996
							C328.901,107.917,287.23,66.244,235.824,66.244z"/>
						<circle fill="#020202" cx="271.54" cy="164.22" r="6.557"/>
						<circle fill="#020202" cx="200.11" cy="164.22" r="6.557"/>
						
							<path fill="none" stroke="#C38669" stroke-width="4" stroke-linecap="round" stroke-linejoin="round" stroke-miterlimit="10" d="
							M224.865,181.641c1.877,4.187,6.074,7.109,10.959,7.109c4.886,0,9.082-2.922,10.96-7.109"/>
						<path fill="#FFFFFF" d="M264.634,310.731h-57.62c-71.207,0-128.931,57.725-128.931,128.931v28.81V590h315.481V468.472v-28.81
							C393.565,368.456,335.841,310.731,264.634,310.731z"/>
					</g>
				</g>
			</g>
			<path fill="#AEAEAF" d="M324.169,56.534l-8.908-12.795c-7.364-10.578-20.299-15.783-32.937-13.255l-14.276,2.855
				c-6.408,1.282-13.065,0.21-18.747-3.019l-8.681-4.932c-7.603-4.32-17.181-2.824-23.105,3.608l0,0
				c-8.194,8.897-20.967,11.902-32.282,7.628c-7.228-2.73-14.911-5.137-19.533-5.137c-7.179,0-7.704,6.744-7.279,11.165
				c-0.4,0.259-0.769,0.616-1.098,1.088l-8.908,12.795c-11.108,15.955-17.063,34.93-17.063,54.371v37.19
				c0,5.164,4.186,9.35,9.35,9.35c4.591,0,8.503-3.333,9.231-7.866l2.35-22.45c1.495-9.301,9.704-16.018,19.118-15.642
				l11.575-21.964l5.59,0.99c8.269,1.465,16.305,4.024,23.899,7.61l1.18,0.558c8.686,4.102,18.881,3.377,26.9-1.912l4.362-2.877
				c8.663-5.714,20.251-3.903,26.758,4.181l0,0c7.159,8.894,18.108,13.87,29.516,13.414c9.413-0.377,17.623,6.34,19.118,15.642
				l2.35,22.45c0.729,4.533,4.64,7.866,9.231,7.866c5.164,0,9.35-4.186,9.35-9.35v-37.19
				C341.232,91.464,335.277,72.489,324.169,56.534z"/>
			<path fill="#606060" d="M155.945,50.677c-1.207,0-2.39,0.092-3.575,0.18l-3.951,5.676c-11.108,15.955-17.063,34.93-17.063,54.371
				v27.741c5.68,3.454,12.121,5.766,19.037,6.573l1.893-18.091c1.495-9.301,9.705-16.018,19.118-15.642l11.575-21.964l5.59,0.991
				C193.552,91.396,180.888,50.677,155.945,50.677z"/>
			<circle fill="#AEAEAF" cx="155.945" cy="73.769" r="47.447"/>
			<path fill="#606060" d="M209.79,71.148c-1.309-3.506-6.521-2.451-6.416,1.291c0.012,0.442,0.019,0.886,0.019,1.331
				c0,6.889-1.5,13.418-4.141,19.325c4.235,1.278,8.388,2.825,12.414,4.681c0.705-3.254,1.1-6.624,1.1-10.089
				C212.764,81.867,211.712,76.296,209.79,71.148z"/>
		</g>
		<ellipse fill="#CA6634" stroke="#CA6634" stroke-miterlimit="10" cx="235.824" cy="210.945" rx="14.189" ry="2.75"/>
		<g>
			
				<line fill="none" stroke="#C38669" stroke-width="4" stroke-linecap="round" stroke-linejoin="round" stroke-miterlimit="10" x1="284.709" y1="162.418" x2="291.252" y2="159.307"/>
			
				<line fill="none" stroke="#C38669" stroke-width="4" stroke-linecap="round" stroke-linejoin="round" stroke-miterlimit="10" x1="284.709" y1="167.652" x2="291.252" y2="164.542"/>
			
				<line fill="none" stroke="#C38669" stroke-width="4" stroke-linecap="round" stroke-linejoin="round" stroke-miterlimit="10" x1="186.94" y1="162.418" x2="180.397" y2="159.307"/>
			
				<line fill="none" stroke="#C38669" stroke-width="4" stroke-linecap="round" stroke-linejoin="round" stroke-miterlimit="10" x1="186.94" y1="167.652" x2="180.397" y2="164.542"/>
		</g>
	</g>
</g>
<g id="_x33__sad" display="none">
	<g display="inline">
		<g>
			<g>
				<path fill="#DDDDDC" d="M48.267,589V439.663c0-71.206,57.724-128.931,128.931-128.931h57.62c1.403,0,2.79,0.061,4.182,0.106
					c1.392-0.045,2.78-0.106,4.182-0.106h57.62c71.206,0,128.93,57.725,128.93,128.931V589H48.267z"/>
				<g>
					<g>
						<circle fill="#E0A280" cx="142.447" cy="173.977" r="22.871"/>
						<path fill="#C38669" d="M165.317,173.977c0,12.631-10.239,22.871-22.87,22.871c-0.967,0-1.913-0.08-2.848-0.196
							c-5.012-11.43-7.812-24.05-7.812-37.33c0-1.902,0.075-3.787,0.187-5.662c3.14-1.622,6.694-2.554,10.472-2.554
							C155.078,151.106,165.317,161.346,165.317,173.977z"/>
						<path fill="#C38669" d="M142.447,151.106c-4.051,0-7.85,1.064-11.15,2.912c-0.088,1.757-0.134,3.525-0.134,5.304
							c0,13.059,2.411,25.55,6.781,37.078c1.456,0.29,2.961,0.448,4.503,0.448c12.631,0,22.871-10.239,22.871-22.87
							C165.317,161.346,155.077,151.106,142.447,151.106z"/>
						<circle fill="#E0A280" cx="329.202" cy="173.977" r="22.871"/>
						<path fill="#C38669" d="M306.332,173.977c0,12.631,10.239,22.871,22.87,22.871c1.542,0,3.046-0.157,4.503-0.449
							c4.369-11.528,6.781-24.018,6.781-37.077c0-1.779-0.046-3.547-0.134-5.304c-3.3-1.847-7.099-2.911-11.15-2.911
							C316.571,151.106,306.332,161.346,306.332,173.977z"/>
						<rect x="199.657" y="221.314" fill="#F4B891" width="72.335" height="96.859"/>
						<rect x="199.657" y="221.314" fill="#F4B891" width="72.335" height="96.859"/>
						<path fill="#C38669" d="M199.657,263.455c11.272,4.152,23.454,6.422,36.167,6.422c12.714,0,24.895-2.271,36.168-6.422V220.25
							h-72.335V263.455z"/>
						<circle fill="#F4B891" cx="235.824" cy="159.322" r="93.078"/>
						
							<path fill="none" stroke="#CA6634" stroke-width="4" stroke-linecap="round" stroke-linejoin="round" stroke-miterlimit="10" d="
							M257.586,214.119c-3.728-8.315-12.062-14.117-21.764-14.117c-9.703,0-18.036,5.802-21.765,14.117"/>
						<path fill="#606060" d="M237.244,195.705c0.31,5.393,5.618,9.437,11.541,9.437l27.627,0c3.85,0,5.497-4.443,2.442-6.579
							c-8.316-5.811-20.993-13.367-30.687-13.367C241.931,185.196,236.914,189.954,237.244,195.705z"/>
						<path fill="#606060" d="M234.404,195.705c-0.31,5.393-5.618,9.437-11.541,9.437l-27.627,0c-3.85,0-5.497-4.443-2.442-6.579
							c8.316-5.811,20.993-13.367,30.687-13.367C229.718,185.196,234.735,189.954,234.404,195.705z"/>
						<path fill="#E0A280" d="M235.824,66.244c-51.405,0-93.077,41.672-93.077,93.077c0,7.279,10.581,1.396,11.608-13.988
							c0.533,0.018,1.053,0.08,1.59,0.08c19.316,0,35.903-11.559,43.306-28.123c4.518,1.356,8.943,3.011,13.217,5.029l1.18,0.557
							c8.686,4.102,18.882,3.377,26.9-1.911l4.361-2.877c8.663-5.714,20.252-3.903,26.759,4.181
							c7.158,8.894,18.108,13.87,29.515,13.414c9.413-0.377,18.758,7.645,19.118,15.642c0.36,7.996,8.6,15.089,8.6,7.996
							C328.901,107.917,287.23,66.244,235.824,66.244z"/>
						<circle fill="#020202" cx="271.54" cy="164.22" r="6.557"/>
						<circle fill="#020202" cx="200.11" cy="164.22" r="6.557"/>
						
							<path fill="none" stroke="#C38669" stroke-width="4" stroke-linecap="round" stroke-linejoin="round" stroke-miterlimit="10" d="
							M224.865,181.641c1.877,4.187,6.074,7.109,10.959,7.109c4.886,0,9.082-2.922,10.96-7.109"/>
						<path fill="#FFFFFF" d="M264.634,310.731h-57.62c-71.207,0-128.931,57.725-128.931,128.931v28.81V590h315.481V468.472v-28.81
							C393.565,368.456,335.841,310.731,264.634,310.731z"/>
					</g>
				</g>
			</g>
			<path fill="#AEAEAF" d="M324.169,56.534l-8.908-12.795c-7.364-10.578-20.299-15.783-32.937-13.255l-14.276,2.855
				c-6.408,1.282-13.065,0.21-18.747-3.019l-8.681-4.932c-7.603-4.32-17.181-2.824-23.105,3.608l0,0
				c-8.194,8.897-20.967,11.902-32.282,7.628c-7.228-2.73-14.911-5.137-19.533-5.137c-7.179,0-7.704,6.744-7.279,11.165
				c-0.4,0.259-0.769,0.616-1.098,1.088l-8.908,12.795c-11.108,15.955-17.063,34.93-17.063,54.371v37.19
				c0,5.164,4.186,9.35,9.35,9.35c4.591,0,8.503-3.333,9.231-7.866l2.35-22.45c1.495-9.301,9.704-16.018,19.118-15.642
				l11.575-21.964l5.59,0.99c8.269,1.465,16.305,4.024,23.899,7.61l1.18,0.558c8.686,4.102,18.881,3.377,26.9-1.912l4.362-2.877
				c8.663-5.714,20.251-3.903,26.758,4.181l0,0c7.159,8.894,18.108,13.87,29.516,13.414c9.413-0.377,17.623,6.34,19.118,15.642
				l2.35,22.45c0.729,4.533,4.64,7.866,9.231,7.866c5.164,0,9.35-4.186,9.35-9.35v-37.19
				C341.232,91.464,335.277,72.489,324.169,56.534z"/>
			<path fill="#606060" d="M155.945,50.677c-1.207,0-2.39,0.092-3.575,0.18l-3.951,5.676c-11.108,15.955-17.063,34.93-17.063,54.371
				v27.741c5.68,3.454,12.121,5.766,19.037,6.573l1.893-18.091c1.495-9.301,9.705-16.018,19.118-15.642l11.575-21.964l5.59,0.991
				C193.552,91.396,180.888,50.677,155.945,50.677z"/>
			<circle fill="#AEAEAF" cx="155.945" cy="73.769" r="47.447"/>
			<path fill="#606060" d="M209.79,71.148c-1.309-3.506-6.521-2.451-6.416,1.291c0.012,0.442,0.019,0.886,0.019,1.331
				c0,6.889-1.5,13.418-4.141,19.325c4.235,1.278,8.388,2.825,12.414,4.681c0.705-3.254,1.1-6.624,1.1-10.089
				C212.764,81.867,211.712,76.296,209.79,71.148z"/>
		</g>
		<g>
			
				<line fill="none" stroke="#C38669" stroke-width="4" stroke-linecap="round" stroke-linejoin="round" stroke-miterlimit="10" x1="284.709" y1="162.418" x2="291.252" y2="159.307"/>
			
				<line fill="none" stroke="#C38669" stroke-width="4" stroke-linecap="round" stroke-linejoin="round" stroke-miterlimit="10" x1="284.709" y1="167.652" x2="291.252" y2="164.542"/>
			
				<line fill="none" stroke="#C38669" stroke-width="4" stroke-linecap="round" stroke-linejoin="round" stroke-miterlimit="10" x1="186.94" y1="162.418" x2="180.397" y2="159.307"/>
			
				<line fill="none" stroke="#C38669" stroke-width="4" stroke-linecap="round" stroke-linejoin="round" stroke-miterlimit="10" x1="186.94" y1="167.652" x2="180.397" y2="164.542"/>
		</g>
	</g>
</g>
<g id="_x33__happy" display="none">
	<g display="inline">
		<g>
			<g>
				<path fill="#DDDDDC" d="M48.267,589V439.663c0-71.206,57.724-128.931,128.931-128.931h57.62c1.403,0,2.79,0.061,4.182,0.106
					c1.392-0.045,2.78-0.106,4.182-0.106h57.62c71.206,0,128.93,57.725,128.93,128.931V589H48.267z"/>
				<g>
					<g>
						<circle fill="#E0A280" cx="142.447" cy="173.977" r="22.871"/>
						<path fill="#C38669" d="M165.317,173.977c0,12.631-10.239,22.871-22.87,22.871c-0.967,0-1.913-0.08-2.848-0.196
							c-5.012-11.43-7.812-24.05-7.812-37.33c0-1.902,0.075-3.787,0.187-5.662c3.14-1.622,6.694-2.554,10.472-2.554
							C155.078,151.106,165.317,161.346,165.317,173.977z"/>
						<path fill="#C38669" d="M142.447,151.106c-4.051,0-7.85,1.064-11.15,2.912c-0.088,1.757-0.134,3.525-0.134,5.304
							c0,13.059,2.411,25.55,6.781,37.078c1.456,0.29,2.961,0.448,4.503,0.448c12.631,0,22.871-10.239,22.871-22.87
							C165.317,161.346,155.077,151.106,142.447,151.106z"/>
						<circle fill="#E0A280" cx="329.202" cy="173.977" r="22.871"/>
						<path fill="#C38669" d="M306.332,173.977c0,12.631,10.239,22.871,22.87,22.871c1.542,0,3.046-0.157,4.503-0.449
							c4.369-11.528,6.781-24.018,6.781-37.077c0-1.779-0.046-3.547-0.134-5.304c-3.3-1.847-7.099-2.911-11.15-2.911
							C316.571,151.106,306.332,161.346,306.332,173.977z"/>
						<rect x="199.657" y="221.314" fill="#F4B891" width="72.335" height="96.859"/>
						<rect x="199.657" y="221.314" fill="#F4B891" width="72.335" height="96.859"/>
						<path fill="#C38669" d="M199.657,263.455c11.272,4.152,23.454,6.422,36.167,6.422c12.714,0,24.895-2.271,36.168-6.422V220.25
							h-72.335V263.455z"/>
						<circle fill="#F4B891" cx="235.824" cy="159.322" r="93.078"/>
						<path fill="#606060" d="M233.011,199.257c-2.302,4.887-8.736,6.655-14.23,4.443l-25.627-10.319
							c-3.571-1.438-3.44-6.175,0.192-7.014c9.884-2.284,24.467-4.559,33.459-0.938
							C232.589,187.758,235.465,194.045,233.011,199.257z"/>
						<path fill="#606060" d="M237.244,195.705c0.31,5.393,5.618,9.437,11.541,9.437l27.627,0c3.85,0,5.497-4.443,2.442-6.579
							c-8.316-5.811-20.993-13.367-30.687-13.367C241.931,185.196,236.914,189.954,237.244,195.705z"/>
						<path fill="#E0A280" d="M235.824,66.244c-51.405,0-93.077,41.672-93.077,93.077c0,7.279,10.581,1.396,11.608-13.988
							c0.533,0.018,1.053,0.08,1.59,0.08c19.316,0,35.903-11.559,43.306-28.123c4.518,1.356,8.943,3.011,13.217,5.029l1.18,0.557
							c8.686,4.102,18.882,3.377,26.9-1.911l4.361-2.877c8.663-5.714,20.252-3.903,26.759,4.181
							c7.158,8.894,18.108,13.87,29.515,13.414c9.413-0.377,18.758,7.645,19.118,15.642c0.36,7.996,8.6,15.089,8.6,7.996
							C328.901,107.917,287.23,66.244,235.824,66.244z"/>
						<circle fill="#020202" cx="271.54" cy="164.22" r="6.557"/>
						<circle fill="#020202" cx="200.11" cy="164.22" r="6.557"/>
						
							<path fill="none" stroke="#C38669" stroke-width="4" stroke-linecap="round" stroke-linejoin="round" stroke-miterlimit="10" d="
							M224.865,181.641c1.877,4.187,6.074,7.109,10.959,7.109c4.886,0,9.082-2.922,10.96-7.109"/>
						
							<path fill="none" stroke="#CA6634" stroke-width="4" stroke-linecap="round" stroke-linejoin="round" stroke-miterlimit="10" d="
							M214.033,205.659c3.733,8.325,12.076,14.135,21.791,14.135c9.715,0,18.059-5.809,21.792-14.135"/>
						<path fill="#FFFFFF" d="M264.634,310.731h-57.62c-71.207,0-128.931,57.725-128.931,128.931v28.81V590h315.481V468.472v-28.81
							C393.565,368.456,335.841,310.731,264.634,310.731z"/>
					</g>
				</g>
			</g>
			<path fill="#AEAEAF" d="M324.169,56.534l-8.908-12.795c-7.364-10.578-20.299-15.783-32.937-13.255l-14.276,2.855
				c-6.408,1.282-13.065,0.21-18.747-3.019l-8.681-4.932c-7.603-4.32-17.181-2.824-23.105,3.608l0,0
				c-8.194,8.897-20.967,11.902-32.282,7.628c-7.228-2.73-14.911-5.137-19.533-5.137c-7.179,0-7.704,6.744-7.279,11.165
				c-0.4,0.259-0.769,0.616-1.098,1.088l-8.908,12.795c-11.108,15.955-17.063,34.93-17.063,54.371v37.19
				c0,5.164,4.186,9.35,9.35,9.35c4.591,0,8.503-3.333,9.231-7.866l2.35-22.45c1.495-9.301,9.704-16.018,19.118-15.642
				l11.575-21.964l5.59,0.99c8.269,1.465,16.305,4.024,23.899,7.61l1.18,0.558c8.686,4.102,18.881,3.377,26.9-1.912l4.362-2.877
				c8.663-5.714,20.251-3.903,26.758,4.181l0,0c7.159,8.894,18.108,13.87,29.516,13.414c9.413-0.377,17.623,6.34,19.118,15.642
				l2.35,22.45c0.729,4.533,4.64,7.866,9.231,7.866c5.164,0,9.35-4.186,9.35-9.35v-37.19
				C341.232,91.464,335.277,72.489,324.169,56.534z"/>
			<path fill="#606060" d="M155.945,50.677c-1.207,0-2.39,0.092-3.575,0.18l-3.951,5.676c-11.108,15.955-17.063,34.93-17.063,54.371
				v27.741c5.68,3.454,12.121,5.766,19.037,6.573l1.893-18.091c1.495-9.301,9.705-16.018,19.118-15.642l11.575-21.964l5.59,0.991
				C193.552,91.396,180.888,50.677,155.945,50.677z"/>
			<circle fill="#AEAEAF" cx="155.945" cy="73.769" r="47.447"/>
			<path fill="#606060" d="M209.79,71.148c-1.309-3.506-6.521-2.451-6.416,1.291c0.012,0.442,0.019,0.886,0.019,1.331
				c0,6.889-1.5,13.418-4.141,19.325c4.235,1.278,8.388,2.825,12.414,4.681c0.705-3.254,1.1-6.624,1.1-10.089
				C212.764,81.867,211.712,76.296,209.79,71.148z"/>
		</g>
		<path fill="none" stroke="#C38669" stroke-width="4" stroke-linecap="round" stroke-linejoin="round" stroke-miterlimit="10" d="
			M207.811,205.836c-0.974-3.043,0.704-6.3,3.747-7.274s6.3,0.704,7.274,3.747"/>
		
			<line fill="none" stroke="#C38669" stroke-width="4" stroke-linecap="round" stroke-linejoin="round" stroke-miterlimit="10" x1="284.709" y1="162.418" x2="291.252" y2="159.307"/>
		
			<line fill="none" stroke="#C38669" stroke-width="4" stroke-linecap="round" stroke-linejoin="round" stroke-miterlimit="10" x1="284.709" y1="167.652" x2="291.252" y2="164.542"/>
		
			<line fill="none" stroke="#C38669" stroke-width="4" stroke-linecap="round" stroke-linejoin="round" stroke-miterlimit="10" x1="186.94" y1="162.418" x2="180.397" y2="159.307"/>
		
			<line fill="none" stroke="#C38669" stroke-width="4" stroke-linecap="round" stroke-linejoin="round" stroke-miterlimit="10" x1="186.94" y1="167.652" x2="180.397" y2="164.542"/>
	</g>
</g>
</svg>
