<?xml version="1.0" encoding="utf-8"?>
<!-- Generator: Adobe Illustrator 18.0.0, SVG Export Plug-In . SVG Version: 6.00 Build 0)  -->
<!DOCTYPE svg PUBLIC "-//W3C//DTD SVG 1.1//EN" "http://www.w3.org/Graphics/SVG/1.1/DTD/svg11.dtd">
<svg version="1.1" id="Layer_1" xmlns="http://www.w3.org/2000/svg" xmlns:xlink="http://www.w3.org/1999/xlink" x="0px" y="0px"
	 width="478px" height="590px" viewBox="0 0 478 590" enable-background="new 0 0 478 590" xml:space="preserve">
<g>
	<g>
		<g>
			<path fill="#DDDDDC" d="M48.267,589V439.663c0-71.206,57.724-128.931,128.931-128.931h57.62c1.403,0,2.79,0.061,4.182,0.106
				c1.392-0.045,2.78-0.106,4.182-0.106h57.62c71.206,0,128.93,57.725,128.93,128.931V589H48.267z"/>
			<g>
				<g>
					<circle fill="#E0A280" cx="142.447" cy="173.977" r="22.871"/>
					<path fill="#C38669" d="M165.317,173.977c0,12.631-10.239,22.871-22.87,22.871c-0.967,0-1.913-0.08-2.848-0.196
						c-5.012-11.43-7.812-24.05-7.812-37.33c0-1.902,0.075-3.787,0.187-5.662c3.14-1.622,6.694-2.554,10.472-2.554
						C155.078,151.106,165.317,161.346,165.317,173.977z"/>
					<path fill="#C38669" d="M142.447,151.106c-4.051,0-7.85,1.064-11.15,2.912c-0.088,1.757-0.134,3.525-0.134,5.304
						c0,13.059,2.411,25.55,6.781,37.078c1.456,0.29,2.961,0.448,4.503,0.448c12.631,0,22.871-10.239,22.871-22.87
						C165.317,161.346,155.077,151.106,142.447,151.106z"/>
					<circle fill="#E0A280" cx="329.202" cy="173.977" r="22.871"/>
					<path fill="#C38669" d="M306.332,173.977c0,12.631,10.239,22.871,22.87,22.871c1.542,0,3.046-0.157,4.503-0.449
						c4.369-11.528,6.781-24.018,6.781-37.077c0-1.779-0.046-3.547-0.134-5.304c-3.3-1.847-7.099-2.911-11.15-2.911
						C316.571,151.106,306.332,161.346,306.332,173.977z"/>
					<rect x="199.657" y="221.314" fill="#F4B891" width="72.335" height="96.859"/>
					<rect x="199.657" y="221.314" fill="#F4B891" width="72.335" height="96.859"/>
					<path fill="#C38669" d="M199.657,263.455c11.272,4.152,23.454,6.422,36.167,6.422c12.714,0,24.895-2.271,36.168-6.422V220.25
						h-72.335V263.455z"/>
					<circle fill="#F4B891" cx="235.824" cy="159.322" r="93.078"/>
					
						<path fill="none" stroke="#CA6634" stroke-width="4" stroke-linecap="round" stroke-linejoin="round" stroke-miterlimit="10" d="
						M257.586,214.119c-3.728-8.315-12.062-14.117-21.764-14.117c-9.703,0-18.036,5.802-21.765,14.117"/>
					<path fill="#606060" d="M237.244,195.705c0.31,5.393,5.618,9.437,11.541,9.437l27.627,0c3.85,0,5.497-4.443,2.442-6.579
						c-8.316-5.811-20.993-13.367-30.687-13.367C241.931,185.196,236.914,189.954,237.244,195.705z"/>
					<path fill="#606060" d="M234.404,195.705c-0.31,5.393-5.618,9.437-11.541,9.437l-27.627,0c-3.85,0-5.497-4.443-2.442-6.579
						c8.316-5.811,20.993-13.367,30.687-13.367C229.718,185.196,234.735,189.954,234.404,195.705z"/>
					<path fill="#E0A280" d="M235.824,66.244c-51.405,0-93.077,41.672-93.077,93.077c0,7.279,10.581,1.396,11.608-13.988
						c0.533,0.018,1.053,0.08,1.59,0.08c19.316,0,35.903-11.559,43.306-28.123c4.518,1.356,8.943,3.011,13.217,5.029l1.18,0.557
						c8.686,4.102,18.882,3.377,26.9-1.911l4.361-2.877c8.663-5.714,20.252-3.903,26.759,4.181
						c7.158,8.894,18.108,13.87,29.515,13.414c9.413-0.377,18.758,7.645,19.118,15.642c0.36,7.996,8.6,15.089,8.6,7.996
						C328.901,107.917,287.23,66.244,235.824,66.244z"/>
					<circle fill="#020202" cx="271.54" cy="164.22" r="6.557"/>
					<circle fill="#020202" cx="200.11" cy="164.22" r="6.557"/>
					
						<path fill="none" stroke="#C38669" stroke-width="4" stroke-linecap="round" stroke-linejoin="round" stroke-miterlimit="10" d="
						M224.865,181.641c1.877,4.187,6.074,7.109,10.959,7.109c4.886,0,9.082-2.922,10.96-7.109"/>
					<path fill="#FFFFFF" d="M264.634,310.731h-57.62c-71.207,0-128.931,57.725-128.931,128.931v28.81V590h315.481V468.472v-28.81
						C393.565,368.456,335.841,310.731,264.634,310.731z"/>
				</g>
			</g>
		</g>
		<path fill="#AEAEAF" d="M324.169,56.534l-8.908-12.795c-7.364-10.578-20.299-15.783-32.937-13.255l-14.276,2.855
			c-6.408,1.282-13.065,0.21-18.747-3.019l-8.681-4.932c-7.603-4.32-17.181-2.824-23.105,3.608l0,0
			c-8.194,8.897-20.967,11.902-32.282,7.628c-7.228-2.73-14.911-5.137-19.533-5.137c-7.179,0-7.704,6.744-7.279,11.165
			c-0.4,0.259-0.769,0.616-1.098,1.088l-8.908,12.795c-11.108,15.955-17.063,34.93-17.063,54.371v37.19
			c0,5.164,4.186,9.35,9.35,9.35c4.591,0,8.503-3.333,9.231-7.866l2.35-22.45c1.495-9.301,9.704-16.018,19.118-15.642l11.575-21.964
			l5.59,0.99c8.269,1.465,16.305,4.024,23.899,7.61l1.18,0.558c8.686,4.102,18.881,3.377,26.9-1.912l4.362-2.877
			c8.663-5.714,20.251-3.903,26.758,4.181l0,0c7.159,8.894,18.108,13.87,29.516,13.414c9.413-0.377,17.623,6.34,19.118,15.642
			l2.35,22.45c0.729,4.533,4.64,7.866,9.231,7.866c5.164,0,9.35-4.186,9.35-9.35v-37.19
			C341.232,91.464,335.277,72.489,324.169,56.534z"/>
		<path fill="#606060" d="M155.945,50.677c-1.207,0-2.39,0.092-3.575,0.18l-3.951,5.676c-11.108,15.955-17.063,34.93-17.063,54.371
			v27.741c5.68,3.454,12.121,5.766,19.037,6.573l1.893-18.091c1.495-9.301,9.705-16.018,19.118-15.642l11.575-21.964l5.59,0.991
			C193.552,91.396,180.888,50.677,155.945,50.677z"/>
		<circle fill="#AEAEAF" cx="155.945" cy="73.769" r="47.447"/>
		<path fill="#606060" d="M209.79,71.148c-1.309-3.506-6.521-2.451-6.416,1.291c0.012,0.442,0.019,0.886,0.019,1.331
			c0,6.889-1.5,13.418-4.141,19.325c4.235,1.278,8.388,2.825,12.414,4.681c0.705-3.254,1.1-6.624,1.1-10.089
			C212.764,81.867,211.712,76.296,209.79,71.148z"/>
	</g>
	<g>
		
			<line fill="none" stroke="#C38669" stroke-width="4" stroke-linecap="round" stroke-linejoin="round" stroke-miterlimit="10" x1="284.709" y1="162.418" x2="291.252" y2="159.307"/>
		
			<line fill="none" stroke="#C38669" stroke-width="4" stroke-linecap="round" stroke-linejoin="round" stroke-miterlimit="10" x1="284.709" y1="167.652" x2="291.252" y2="164.542"/>
		
			<line fill="none" stroke="#C38669" stroke-width="4" stroke-linecap="round" stroke-linejoin="round" stroke-miterlimit="10" x1="186.94" y1="162.418" x2="180.397" y2="159.307"/>
		
			<line fill="none" stroke="#C38669" stroke-width="4" stroke-linecap="round" stroke-linejoin="round" stroke-miterlimit="10" x1="186.94" y1="167.652" x2="180.397" y2="164.542"/>
	</g>
</g>
</svg>
