<?xml version="1.0" encoding="utf-8"?>
<!-- Generator: Adobe Illustrator 18.0.0, SVG Export Plug-In . SVG Version: 6.00 Build 0)  -->
<!DOCTYPE svg PUBLIC "-//W3C//DTD SVG 1.1//EN" "http://www.w3.org/Graphics/SVG/1.1/DTD/svg11.dtd">
<svg version="1.1" id="Layer_1" xmlns="http://www.w3.org/2000/svg" xmlns:xlink="http://www.w3.org/1999/xlink" x="0px" y="0px"
	 width="478px" height="590px" viewBox="0 0 478 590" enable-background="new 0 0 478 590" xml:space="preserve">
<g>
	<g>
		<circle fill="#76491D" cx="238.999" cy="143.263" r="97.572"/>
		<circle fill="#E0A280" cx="151.947" cy="156.926" r="21.321"/>
		<path fill="#C38669" d="M173.268,156.926c0,11.776-9.546,21.321-21.321,21.321c-0.901,0-1.783-0.074-2.655-0.182
			c-4.672-10.656-7.282-22.421-7.282-34.802c0-1.774,0.07-3.53,0.175-5.278c2.927-1.512,6.241-2.381,9.763-2.381
			C163.722,135.604,173.268,145.15,173.268,156.926z"/>
		<circle fill="#76491D" cx="238.999" cy="143.263" r="97.572"/>
		<path fill="#C38669" d="M151.947,135.604c-3.777,0-7.318,0.992-10.395,2.715c-0.082,1.638-0.125,3.286-0.125,4.944
			c0,12.174,2.248,23.819,6.322,34.566c1.358,0.271,2.761,0.418,4.198,0.418c11.775,0,21.321-9.546,21.321-21.321
			C173.268,145.15,163.722,135.604,151.947,135.604z"/>
		<circle fill="#E0A280" cx="326.052" cy="156.926" r="21.321"/>
		<path fill="#C38669" d="M304.731,156.925c0,11.776,9.546,21.321,21.321,21.321c1.438,0,2.84-0.147,4.198-0.418
			c4.073-10.747,6.322-22.391,6.322-34.566c0-1.658-0.043-3.307-0.125-4.945c-3.077-1.722-6.618-2.714-10.395-2.714
			C314.277,135.604,304.731,145.15,304.731,156.925z"/>
		<rect x="205.282" y="201.056" fill="#F4B891" width="67.435" height="90.298"/>
		<rect x="205.282" y="201.056" fill="#F4B891" width="67.435" height="90.298"/>
		<path fill="#C38669" d="M205.282,240.343c10.509,3.87,21.866,5.987,33.717,5.987c11.852,0,23.209-2.117,33.718-5.987v-40.278
			h-67.435V240.343z"/>
		<circle fill="#F4B891" cx="238.999" cy="143.263" r="86.773"/>
		<path fill="#E0A280" d="M152.582,135.604h172.835c-2.66-30.392-20.98-56.277-46.851-69.561h-79.133
			C173.561,79.327,155.242,105.212,152.582,135.604z"/>
		<polygon fill="#986327" points="347.374,122.798 130.625,122.798 152.226,40.447 325.773,40.447 		"/>
		<circle fill="#020202" cx="272.296" cy="147.83" r="6.113"/>
		<circle fill="#020202" cx="205.704" cy="147.83" r="6.113"/>
		<path fill="none" stroke="#C38669" stroke-width="4" stroke-linecap="round" stroke-linejoin="round" stroke-miterlimit="10" d="
			M228.782,164.071c1.75,3.903,5.662,6.627,10.217,6.627c4.555,0,8.467-2.724,10.217-6.627"/>
		<path fill="none" stroke="#CA6634" stroke-width="4" stroke-linecap="round" stroke-linejoin="round" stroke-miterlimit="10" d="
			M218.684,181.392c3.48,7.761,11.258,13.177,20.315,13.177c9.057,0,16.836-5.416,20.316-13.177"/>
		<path fill="#EE4823" d="M386.056,472.75H91.943v-70.629c0-65.006,52.698-117.704,117.704-117.704h58.705
			c65.006,0,117.704,52.698,117.704,117.704V472.75z"/>
	</g>
	<g>
		<path fill="#986327" d="M380.213,170.722c2.149-11.333,2.964-23.137,2.268-35.25C378.228,61.492,316.797,2.1,242.718,0.229
			C161.644-1.818,95.277,63.294,95.277,143.906c0,9,0.832,17.805,2.422,26.343c5.158,27.714-3.168,56.248-22.559,76.709
			c-18.175,19.178-36.489,39.536-50.405,55.268C9.229,319.756,0.693,342.334,0.693,365.736v0c0,42.077,34.11,76.186,76.186,76.186
			h324.24c42.077,0,76.187-34.11,76.187-76.187v-0.001c0-23.402-8.536-45.979-24.04-63.508
			c-13.853-15.662-32.066-35.908-50.161-55.009C383.768,226.804,374.975,198.348,380.213,170.722z"/>
		<g>
			<g>
				<circle fill="#76491D" cx="239" cy="160.523" r="103.977"/>
				<circle fill="#E0A280" cx="146.233" cy="175.082" r="22.721"/>
				<path fill="#C38669" d="M168.953,175.082c0,12.549-10.172,22.721-22.721,22.721c-0.96,0-1.9-0.079-2.829-0.194
					c-4.979-11.355-7.76-23.893-7.76-37.086c0-1.89,0.074-3.762,0.186-5.625c3.12-1.611,6.651-2.537,10.404-2.537
					C158.781,152.361,168.953,162.534,168.953,175.082z"/>
				<circle fill="#76491D" cx="239" cy="160.523" r="103.977"/>
				<path fill="#C38669" d="M146.233,152.361c-4.025,0-7.798,1.057-11.077,2.893c-0.087,1.745-0.133,3.502-0.133,5.269
					c0,12.974,2.396,25.383,6.737,36.835c1.447,0.289,2.942,0.445,4.474,0.445c12.548,0,22.721-10.172,22.721-22.721
					C168.954,162.534,158.781,152.361,146.233,152.361z"/>
				<circle fill="#E0A280" cx="331.767" cy="175.082" r="22.721"/>
				<path fill="#C38669" d="M309.046,175.082c0,12.549,10.172,22.721,22.721,22.721c1.532,0,3.026-0.156,4.474-0.446
					c4.34-11.452,6.737-23.861,6.737-36.835c0-1.767-0.046-3.524-0.133-5.269c-3.279-1.835-7.052-2.892-11.077-2.892
					C319.219,152.361,309.046,162.534,309.046,175.082z"/>
				<rect x="203.069" y="222.109" fill="#F4B891" width="71.862" height="96.226"/>
				<rect x="203.069" y="222.109" fill="#F4B891" width="71.862" height="96.226"/>
				<path fill="#C38669" d="M203.069,263.975c11.198,4.124,23.301,6.38,35.931,6.38c12.63,0,24.732-2.256,35.931-6.38v-42.922
					h-71.862V263.975z"/>
				<circle fill="#F4B891" cx="239" cy="160.523" r="92.469"/>
				<path fill="#E0A280" d="M146.91,152.361h184.18c-2.835-32.387-22.357-59.971-49.927-74.127h-84.327
					C169.266,92.39,149.744,119.974,146.91,152.361z"/>
				<polygon fill="#986327" points="354.488,138.714 123.512,138.714 146.531,50.958 331.469,50.958 				"/>
				<circle fill="#020202" cx="274.482" cy="165.389" r="6.514"/>
				<circle fill="#020202" cx="203.519" cy="165.389" r="6.514"/>
				
					<path fill="none" stroke="#C38669" stroke-width="4" stroke-linecap="round" stroke-linejoin="round" stroke-miterlimit="10" d="
					M228.112,182.696c1.865,4.16,6.034,7.062,10.888,7.062c4.854,0,9.023-2.903,10.888-7.062"/>
				
					<path fill="none" stroke="#CA6634" stroke-width="4" stroke-linecap="round" stroke-linejoin="round" stroke-miterlimit="10" d="
					M260.649,215.197c-3.709-8.271-11.998-14.042-21.648-14.042c-9.652,0-17.941,5.771-21.649,14.042"/>
			</g>
		</g>
	</g>
	<path fill="#D22D27" d="M416.707,590V439.031c0-70.741-57.347-128.088-128.088-128.088h-41.982h-15.261h-41.982
		c-70.741,0-128.088,57.348-128.088,128.088v28.621V590H416.707z"/>
	<path fill="#EE4823" d="M395.709,590V467.652v-28.621c0-70.741-57.347-128.088-128.088-128.088h-57.243
		c-70.741,0-128.088,57.348-128.088,128.088v28.621V590H395.709z"/>
</g>
</svg>
