<?xml version="1.0" encoding="utf-8"?>
<!-- Generator: Adobe Illustrator 18.0.0, SVG Export Plug-In . SVG Version: 6.00 Build 0)  -->
<!DOCTYPE svg PUBLIC "-//W3C//DTD SVG 1.1//EN" "http://www.w3.org/Graphics/SVG/1.1/DTD/svg11.dtd">
<svg version="1.1" id="Layer_1" xmlns="http://www.w3.org/2000/svg" xmlns:xlink="http://www.w3.org/1999/xlink" x="0px" y="0px"
	 width="478px" height="590px" viewBox="0 0 478 590" enable-background="new 0 0 478 590" xml:space="preserve">
<g>
	<g>
		<circle fill="#020202" cx="176.351" cy="226.246" r="96.978"/>
		<circle fill="#020202" cx="301.352" cy="226.246" r="96.978"/>
		<circle fill="#020202" cx="239" cy="129.268" r="96.978"/>
		<g>
			<g>
				<circle fill="#513016" cx="146.323" cy="175.133" r="22.699"/>
				<path fill="#C38669" d="M169.022,175.132c0,12.536-10.163,22.699-22.699,22.699c-0.96,0-1.898-0.079-2.827-0.194
					c-4.974-11.344-7.753-23.87-7.753-37.05c0-1.888,0.074-3.759,0.186-5.619c3.117-1.61,6.644-2.535,10.394-2.535
					C158.859,152.433,169.022,162.596,169.022,175.132z"/>
				<path fill="#372012" d="M146.323,152.433c-4.021,0-7.791,1.056-11.066,2.89c-0.087,1.744-0.133,3.498-0.133,5.264
					c0,12.961,2.393,25.358,6.73,36.8c1.445,0.288,2.939,0.445,4.469,0.445c12.536,0,22.699-10.163,22.699-22.698
					C169.022,162.596,158.859,152.433,146.323,152.433z"/>
				<circle fill="#513016" cx="331.677" cy="175.132" r="22.699"/>
				<path fill="#372012" d="M308.979,175.132c0,12.536,10.163,22.699,22.698,22.699c1.531,0,3.024-0.156,4.469-0.445
					c4.336-11.441,6.73-23.838,6.73-36.799c0-1.765-0.046-3.521-0.133-5.264c-3.276-1.834-7.045-2.889-11.066-2.889
					C319.141,152.433,308.979,162.596,308.979,175.132z"/>
				<rect x="203.104" y="222.114" fill="#F4B891" width="71.792" height="96.132"/>
				<rect x="203.104" y="222.114" fill="#7C4D1F" width="71.792" height="96.132"/>
				<path fill="#513016" d="M203.104,263.939c11.188,4.12,23.278,6.374,35.896,6.374c12.618,0,24.708-2.254,35.896-6.374v-42.881
					h-71.792V263.939z"/>
				<circle fill="#7C4D1F" cx="239" cy="160.587" r="92.38"/>
				<circle fill="#020202" cx="274.448" cy="165.449" r="6.508"/>
				<circle fill="#020202" cx="203.554" cy="165.449" r="6.508"/>
				
					<path fill="none" stroke="#513016" stroke-width="4" stroke-linecap="round" stroke-linejoin="round" stroke-miterlimit="10" d="
					M228.123,182.739c1.863,4.156,6.028,7.055,10.877,7.055c4.849,0,9.014-2.9,10.877-7.055"/>
				
					<path fill="#FFFFFF" stroke="#CA6634" stroke-width="4" stroke-linecap="round" stroke-linejoin="round" stroke-miterlimit="10" d="
					M260.628,201.18c-3.705,8.263-11.986,14.029-21.628,14.029c-9.642,0-17.922-5.766-21.627-14.029H260.628z"/>
			</g>
		</g>
		<path fill="#020202" d="M146.323,137.692c0,0,65.994-10.6,86.604-34.145c3.225-3.684,8.917-3.679,12.137,0.009
			c20.555,23.535,86.315,34.136,86.315,34.136l-5.452-31.079l-51.031-51.158l-61.815,2.597l-52.446,27.194L146.323,137.692z"/>
	</g>
	<path fill="#513016" d="M126.445,590V466.612h225.11V590h67.557V466.612v-16.371v-11.416c0-70.672-57.289-127.964-127.962-127.964
		H244.04h-10.078h-47.111c-70.673,0-127.963,57.292-127.963,127.964v11.416v16.371V590H126.445z"/>
	<g>
		<path fill="#FFD70D" d="M395.557,590V467.419v-28.594c0-70.672-57.291-127.964-127.963-127.964h-57.187
			c-70.673,0-127.964,57.292-127.964,127.964v28.594V590H395.557z"/>
	</g>
</g>
</svg>
