<?xml version="1.0" encoding="utf-8"?>
<!-- Generator: Adobe Illustrator 18.0.0, SVG Export Plug-In . SVG Version: 6.00 Build 0)  -->
<!DOCTYPE svg PUBLIC "-//W3C//DTD SVG 1.1//EN" "http://www.w3.org/Graphics/SVG/1.1/DTD/svg11.dtd">
<svg version="1.1" id="Layer_1" xmlns="http://www.w3.org/2000/svg" xmlns:xlink="http://www.w3.org/1999/xlink" x="0px" y="0px"
	 viewBox="0 0 1280 1280" enable-background="new 0 0 1280 1280" xml:space="preserve">
<g id="Layer_1_1_">
	<path fill="#54C0D9" d="M648.7,1014.6L648.7,1014.6H0V1280h1143.3C1036.9,1119.5,854.5,1014.6,648.7,1014.6z"/>
	<g>
		<path fill="#1D345C" d="M1280,1275.5l-519-519V599.9H447.8c-89.5,0-156.6,71.6-156.6,156.6v371.4h474.2V1280h514.5L1280,1275.5
			L1280,1275.5z"/>
		<path fill="#F3AAB9" d="M537.3,1083.1l-93.9-93.9v-76.1L600,752h161v237.1l-93.9,93.9L537.3,1083.1L537.3,1083.1z"/>
	</g>
	<path fill="#EA5C42" d="M848.7,1083.8H189.2c-67.6,0-131.8,18-189.2,50.1V1280h1050.6C995.7,1179,905.4,1083.8,848.7,1083.8z"/>
	<g>
		<path fill="#1D345C" d="M355.2,563.8H207.6H59.9v295.3l189-23.6l106.3-124V563.8z"/>
		<path fill="#F3AAB9" d="M266.7,1018.5l88.6-88.6V711.4H207.6L60,859.1V930l88.6,88.6L266.7,1018.5z"/>
		<circle fill="#1D345C" cx="355.2" cy="563.8" r="146.2"/>
	</g>
</g>
<g id="Layer_2">
</g>
<g>
	
		<rect x="250.3" y="792" transform="matrix(0.7071 0.7071 -0.7071 0.7071 694.2736 71.913)" fill="#17FF73" width="20" height="164"/>
	
		<rect x="173.3" y="858.7" transform="matrix(0.7071 -0.7071 0.7071 0.7071 -581.8062 392.8344)" fill="#17FF73" width="20" height="80"/>
</g>
<g>
	
		<rect x="655.7" y="883.9" transform="matrix(0.7071 0.7071 -0.7071 0.7071 877.9581 -187.7832)" fill="#17FF73" width="20" height="164"/>
	
		<rect x="578.6" y="950.6" transform="matrix(0.7071 -0.7071 0.7071 0.7071 -528.0579 706.3519)" fill="#17FF73" width="20" height="80"/>
</g>
</svg>
