<?xml version="1.0" encoding="utf-8"?>
<!-- Generator: Adobe Illustrator 18.0.0, SVG Export Plug-In . SVG Version: 6.00 Build 0)  -->
<!DOCTYPE svg PUBLIC "-//W3C//DTD SVG 1.1//EN" "http://www.w3.org/Graphics/SVG/1.1/DTD/svg11.dtd">
<svg version="1.1" xmlns="http://www.w3.org/2000/svg" xmlns:xlink="http://www.w3.org/1999/xlink" x="0px" y="0px"
	 viewBox="0 0 1280 1280" enable-background="new 0 0 1280 1280" xml:space="preserve">
<g id="Layer_1">
	<path fill="#54C0D9" d="M648.7,1014.6L648.7,1014.6l-648.7,0V1280h1143.3C1036.9,1119.5,854.5,1014.6,648.7,1014.6z"/>
	<g>
		<path fill="#1D345C" d="M1280,1275.5L761,756.5V599.9H447.8c-89.5,0-156.6,71.6-156.6,156.6v371.4h474.2V1280h514.5L1280,1275.5
			L1280,1275.5z"/>
		<path fill="#F3AAB9" d="M537.3,1083.1l-93.9-93.9v-76.1l156.6-161.1H761v237.1l-93.9,93.9L537.3,1083.1L537.3,1083.1z"/>
	</g>
	<path fill="#EA5C42" d="M848.7,1083.8H189.2c-67.6,0-131.8,18-189.2,50.1V1280h1050.6C995.7,1179,905.4,1083.8,848.7,1083.8z"/>
	<g>
		<path fill="#1D345C" d="M355.2,563.8l-147.6,0H59.9l0,295.3l189-23.6l106.3-124L355.2,563.8z"/>
		<path fill="#F3AAB9" d="M266.7,1018.5l88.6-88.6l0-218.5l-147.7,0L60,859.1v70.9l88.6,88.6L266.7,1018.5z"/>
		<circle fill="#1D345C" cx="355.2" cy="563.8" r="146.2"/>
	</g>
</g>
<g id="Layer_2">
</g>
</svg>
