<?xml version="1.0" encoding="utf-8"?>
<!-- Generator: Adobe Illustrator 18.0.0, SVG Export Plug-In . SVG Version: 6.00 Build 0)  -->
<!DOCTYPE svg PUBLIC "-//W3C//DTD SVG 1.1//EN" "http://www.w3.org/Graphics/SVG/1.1/DTD/svg11.dtd">
<svg version="1.1" id="Layer_1" xmlns="http://www.w3.org/2000/svg" xmlns:xlink="http://www.w3.org/1999/xlink" x="0px" y="0px"
	 viewBox="0 0 1280 1280" enable-background="new 0 0 1280 1280" xml:space="preserve">
<g>
	<path fill="#1D345C" d="M328.4,450.4L5.3,519.8l69.4,323.1l203.4-72.3l84.4-161L328.4,450.4z"/>
	<path fill="#B69C89" d="M341.6,971.5l74-120.6l-51.8-241.2l-159.3,34.2l-128.6,199l16.6,77.4l117.1,79.6L341.6,971.5z"/>
</g>
<path fill="#FDCD4D" d="M426.5,950.6L0,1044v236h510.7l-5.1-8.4c57.5-12.3,113.9-8.5,165.1,8.4h474.5
	C1008.1,1030.7,717.7,888,426.5,950.6z"/>
<g>
	<path fill="#1D345C" d="M811.6,494.1l-329.9,17.6l17.6,330l212.3-39.3l109-141L811.6,494.1z"/>
	<path fill="#F3AAB9" d="M499.3,841.8l4.5,83.6l176,153.7l154-171.4l-13.2-246.3l-162.7,8.7L499.3,841.8z"/>
	<circle fill="#1D345C" cx="481.6" cy="511.7" r="162.9"/>
</g>
<path fill="#B69C89" d="M903.2,1056.8l-665.9,35.6C148.1,1097.2,66.6,1137.3,0,1202v78h1274.2
	C1185.3,1137.8,1049.6,1049,903.2,1056.8z"/>
</svg>
