<?xml version="1.0" encoding="utf-8"?>
<!-- Generator: Adobe Illustrator 18.0.0, SVG Export Plug-In . SVG Version: 6.00 Build 0)  -->
<!DOCTYPE svg PUBLIC "-//W3C//DTD SVG 1.1//EN" "http://www.w3.org/Graphics/SVG/1.1/DTD/svg11.dtd">
<svg version="1.1" id="Layer_1" xmlns="http://www.w3.org/2000/svg" xmlns:xlink="http://www.w3.org/1999/xlink" x="0px" y="0px"
	 viewBox="0 0 1280 1280" enable-background="new 0 0 1280 1280" xml:space="preserve">
<g>
	<path fill="#1D345C" d="M514.8,391.4l-318,22l22,318l199.7-40.8l107.1-142.4L514.8,391.4z"/>
	<circle fill="#1D345C" cx="196.9" cy="413.4" r="157.1"/>
	<path fill="#B69C89" d="M218.6,727l5.6,80.6l167.6,145.9l150.4-167.9l-16.4-237.4l-161.2,11.2L218.6,727z"/>
</g>
<path fill="#DBDCDC" d="M754.5,896.6L58.1,944.9l0,0c-19.8,1.4-39.1,3.9-58.1,7.4v258c22.3-8.4,46.2-13.8,71-15.5l5.9,85.2h699.6
	l-9.5-137.8c101.8-3.8,193.1,52.4,236.4,137.8h264.2C1214.3,1048.3,999.7,883.6,754.5,896.6z"/>
<g>
	<path fill="#1D345C" d="M474.7,663.3L496,971.7l302.1-175.9l-10.7-154.2l-158.6,11L474.7,663.3z"/>
	<path fill="#F3AAB9" d="M496,971.7l5.5,79.3l164.9,143.5l147.9-165.2l-16.2-233.5l-158.6,11L496,971.7z"/>
</g>
<path fill="#EA5C42" d="M948.2,1113l-574,39.8c-97.2,6.7-183,54-248.5,127.2H1277C1195.2,1171.9,1076.3,1106.7,948.2,1113z"/>
</svg>
