<?xml version="1.0" encoding="utf-8"?>
<!-- Generator: Adobe Illustrator 18.0.0, SVG Export Plug-In . SVG Version: 6.00 Build 0)  -->
<!DOCTYPE svg PUBLIC "-//W3C//DTD SVG 1.1//EN" "http://www.w3.org/Graphics/SVG/1.1/DTD/svg11.dtd">
<svg version="1.1" xmlns="http://www.w3.org/2000/svg" xmlns:xlink="http://www.w3.org/1999/xlink" x="0px" y="0px" width="202px"
	 height="586px" viewBox="0 0 202 586" enable-background="new 0 0 202 586" xml:space="preserve">
<g id="_x33_" display="none">
	<g display="inline">
		<circle fill="#020202" cx="76.81" cy="87.6" r="37.445"/>
		<circle fill="#020202" cx="125.075" cy="87.6" r="37.445"/>
		<circle fill="#020202" cx="101" cy="50.155" r="37.445"/>
		<g>
			<path fill="#513016" d="M121.136,120.271h-18.189h-3.891h-18.19c-27.288,0-49.408,22.121-49.408,49.408v4.408v6.321v157.657
				c0,7.203,5.839,13.042,13.042,13.042s13.042-5.839,13.042-13.042V180.408h86.917v157.657c0,7.203,5.839,13.042,13.042,13.042
				s13.042-5.839,13.042-13.042V180.408v-6.321v-4.408C170.543,142.392,148.423,120.271,121.136,120.271z"/>
			<path fill="#7C4D1F" d="M49.971,244.51l6.535,300.299h27l12.736-240.844c0.181-6.161,9.336-6.161,9.517,0L117.79,544.81h27
				l7.239-300.299H49.971z"/>
			<path fill="#513016" d="M53.766,418.908h36.397l6.078-114.942c0.181-6.161,9.336-6.161,9.517,0l5.742,114.942h36.325
				l4.204-174.397H49.97L53.766,418.908z"/>
			<g>
				<g>
					<rect x="125.761" y="258.241" fill="#5876AF" width="6.5" height="25.355"/>
					<rect x="69.739" y="258.241" fill="#5876AF" width="6.5" height="25.355"/>
					<circle fill="#513016" cx="65.216" cy="67.864" r="8.764"/>
					<path fill="#C38669" d="M73.981,67.864c0,4.84-3.924,8.764-8.764,8.764c-0.37,0-0.733-0.03-1.091-0.075
						c-1.92-4.38-2.994-9.216-2.994-14.306c0-0.729,0.029-1.451,0.072-2.17c1.203-0.622,2.565-0.979,4.013-0.979
						C70.057,59.1,73.981,63.024,73.981,67.864z"/>
					<path fill="#372012" d="M65.216,59.1c-1.553,0-3.008,0.408-4.273,1.116c-0.034,0.673-0.051,1.351-0.051,2.032
						c0,5.004,0.924,9.791,2.599,14.209c0.558,0.111,1.135,0.172,1.726,0.172c4.84,0,8.764-3.924,8.764-8.764
						C73.981,63.024,70.057,59.1,65.216,59.1z"/>
					<circle fill="#513016" cx="136.784" cy="67.864" r="8.764"/>
					<path fill="#372012" d="M128.02,67.864c0,4.84,3.924,8.764,8.764,8.764c0.591,0,1.167-0.06,1.726-0.172
						c1.674-4.418,2.599-9.204,2.599-14.209c0-0.682-0.018-1.359-0.051-2.033c-1.265-0.708-2.72-1.116-4.273-1.116
						C131.943,59.1,128.02,63.024,128.02,67.864z"/>
					<rect x="87.14" y="86.004" fill="#F4B891" width="27.72" height="37.118"/>
					<rect x="87.14" y="86.004" fill="#7C4D1F" width="27.72" height="37.118"/>
					<path fill="#513016" d="M87.14,102.153c4.32,1.591,8.988,2.461,13.86,2.461c4.872,0,9.54-0.87,13.86-2.461V85.597H87.14
						V102.153z"/>
					<circle fill="#7C4D1F" cx="101" cy="62.248" r="35.669"/>
					<circle fill="#020202" cx="114.687" cy="64.125" r="2.513"/>
					<circle fill="#020202" cx="87.314" cy="64.125" r="2.513"/>
					
						<path fill="none" stroke="#513016" stroke-width="1.2" stroke-linecap="round" stroke-linejoin="round" stroke-miterlimit="10" d="
						M96.8,70.801c0.719,1.605,2.327,2.724,4.2,2.724c1.872,0,3.48-1.12,4.2-2.724"/>
					
						<path fill="none" stroke="#61220C" stroke-width="2" stroke-linecap="round" stroke-linejoin="round" stroke-miterlimit="10" d="
						M92.649,77.921c1.431,3.19,4.628,5.417,8.351,5.417c3.723,0,6.92-2.226,8.351-5.417"/>
					<path fill="#FFD70D" d="M112.041,120.271H89.96c-27.288,0-49.408,22.121-49.408,49.408v11.04v219.189h120.897V180.719v-11.04
						C161.449,142.392,139.328,120.271,112.041,120.271z"/>
				</g>
			</g>
		</g>
		<path fill="#020202" d="M65.216,53.408c0,0,25.481-4.093,33.439-13.184c1.245-1.423,3.443-1.42,4.686,0.004
			c7.937,9.087,33.327,13.18,33.327,13.18l-2.105-12L114.86,21.655l-23.868,1.003l-20.25,10.5L65.216,53.408z"/>
		<g>
			<polygon fill="#CFD9EE" points="54.481,489.241 55.506,544.81 84.506,544.81 87.213,489.241 			"/>
			<polygon fill="#CFD9EE" points="114.245,489.241 116.79,544.81 145.79,544.81 146.945,489.241 			"/>
		</g>
		<path fill="#020202" d="M111.347,549.267v33.686c0,1.462,1.186,2.648,2.648,2.648h11.271c1.024,0,1.957-0.591,2.394-1.517
			l2.564-5.429c1.471-3.114,5.848-3.258,7.52-0.248l2.567,4.621c0.882,1.588,2.557,2.573,4.374,2.573h51.702
			c3.415,0,5.826-3.346,4.746-6.585l-1.095-3.286c-2.095-6.285-7.977-10.524-14.602-10.524h-12.318c-5.4,0-10.483-2.551-13.71-6.882
			l-8.732-11.72c-0.841-1.129-2.167-1.794-3.575-1.794h-31.297C113.343,544.81,111.347,546.806,111.347,549.267z"/>
		<path fill="#020202" d="M90.653,549.267v33.686c0,1.462-1.186,2.648-2.648,2.648H76.734c-1.024,0-1.957-0.591-2.394-1.517
			l-2.564-5.429c-1.471-3.114-5.848-3.258-7.52-0.248l-2.567,4.621c-0.882,1.588-2.557,2.573-4.374,2.573H5.613
			c-3.415,0-5.826-3.346-4.746-6.585l1.095-3.286c2.095-6.285,7.977-10.524,14.602-10.524h12.318c5.4,0,10.483-2.551,13.71-6.882
			l8.732-11.72c0.841-1.129,2.167-1.794,3.575-1.794h31.297C88.657,544.81,90.653,546.806,90.653,549.267z"/>
	</g>
</g>
<g id="_x32_" display="none">
	<g display="inline">
		<g>
			<g>
				<rect x="117.805" y="510.06" fill="#F4B891" width="29" height="52.5"/>
				<path fill="#E0A280" d="M158.517,351.107L158.517,351.107c-7.203,0-13.042-5.839-13.042-13.042V174.087
					c0-1.818,1.474-3.292,3.292-3.292h19.5c1.818,0,3.292,1.474,3.292,3.292v163.978
					C171.559,345.268,165.72,351.107,158.517,351.107z"/>
				<rect x="145.474" y="304.908" fill="#C38669" width="26.085" height="14.06"/>
				<path fill="#E0A280" d="M45.514,351.107L45.514,351.107c-7.203,0-13.042-5.839-13.042-13.042V174.087
					c0-1.818,1.474-3.292,3.292-3.292h19.5c1.818,0,3.292,1.474,3.292,3.292v163.978C58.557,345.268,52.717,351.107,45.514,351.107z
					"/>
				<rect x="32.472" y="304.908" fill="#C38669" width="23.418" height="14.06"/>
				<path fill="#DDDDDC" d="M30.141,306.908V169.679c0-27.287,22.121-49.408,49.408-49.408h22.081c0.538,0,1.069,0.023,1.603,0.041
					c0.533-0.017,1.065-0.041,1.603-0.041h22.081c27.287,0,49.408,22.121,49.408,49.408v137.229h-30.85l-42.242-12.5l-47.343,12.5
					H30.141z"/>
				<rect x="56.521" y="510.06" fill="#F4B891" width="29" height="52.5"/>
				<g>
					<g>
						<path fill="#5876AF" d="M50.986,244.51v287.463h39.311l6.96-228.007c0.181-6.161,9.336-6.161,9.517,0l6.96,228.007h39.311
							V244.51H50.986z"/>
						<path fill="#426496" d="M153.045,324.281c-1.533-0.234-3.101-0.36-4.699-0.36c-15.429,0-28.212,11.324-30.492,26.115
							c-0.384,2.488,1.534,4.738,4.051,4.738l0,0c2.052,0,3.738-1.525,4.057-3.552c1.746-11.09,11.536-19.509,23.209-19.094
							c1.326,0.047,2.619,0.218,3.873,0.489V324.281z"/>
						<rect x="50.986" y="260.951" fill="#7C4D1F" width="102.059" height="18.957"/>
						<rect x="126.776" y="258.241" fill="#5876AF" width="6.5" height="25.355"/>
						<rect x="70.754" y="258.241" fill="#5876AF" width="6.5" height="25.355"/>
						<circle fill="#E0A280" cx="66.232" cy="67.864" r="8.764"/>
						<path fill="#C38669" d="M74.996,67.864c0,4.84-3.924,8.764-8.764,8.764c-0.37,0-0.733-0.03-1.091-0.075
							c-1.92-4.38-2.994-9.216-2.994-14.306c0-0.729,0.029-1.451,0.072-2.17c1.203-0.622,2.565-0.979,4.013-0.979
							C71.072,59.1,74.996,63.024,74.996,67.864z"/>
						<path fill="#C38669" d="M66.232,59.1c-1.553,0-3.008,0.408-4.273,1.116c-0.034,0.673-0.051,1.351-0.051,2.032
							c0,5.004,0.924,9.791,2.599,14.209c0.558,0.111,1.135,0.172,1.726,0.172c4.84,0,8.764-3.924,8.764-8.764
							C74.996,63.024,71.072,59.1,66.232,59.1z"/>
						<circle fill="#E0A280" cx="137.799" cy="67.864" r="8.764"/>
						<path fill="#C38669" d="M129.035,67.864c0,4.84,3.924,8.764,8.764,8.764c0.591,0,1.167-0.06,1.726-0.172
							c1.674-4.418,2.599-9.204,2.599-14.209c0-0.682-0.018-1.359-0.051-2.033c-1.265-0.708-2.72-1.116-4.273-1.116
							C132.959,59.1,129.035,63.024,129.035,67.864z"/>
						<rect x="88.156" y="86.004" fill="#F4B891" width="27.72" height="37.118"/>
						<rect x="88.156" y="86.004" fill="#F4B891" width="27.72" height="37.118"/>
						<path fill="#C38669" d="M88.155,102.153c4.32,1.591,8.988,2.461,13.86,2.461c4.872,0,9.54-0.87,13.86-2.461V85.597h-27.72
							V102.153z"/>
						<circle fill="#F4B891" cx="102.015" cy="62.248" r="35.669"/>
						<path fill="#606060" d="M101.613,76.191c-0.119,2.067-2.153,3.616-4.423,3.616l-10.587,0c-1.475,0-2.107-1.703-0.936-2.521
							c3.187-2.227,8.045-5.123,11.76-5.123C99.817,72.163,101.739,73.987,101.613,76.191z"/>
						<path fill="#606060" d="M102.56,76.191c0.119,2.067,2.153,3.616,4.423,3.616l10.587,0c1.475,0,2.107-1.703,0.936-2.521
							c-3.187-2.227-8.045-5.123-11.76-5.123C104.356,72.163,102.433,73.987,102.56,76.191z"/>
						<path fill="#E0A280" d="M102.015,26.579c-19.699,0-35.669,15.969-35.669,35.669c0,2.79,4.055,0.535,4.448-5.361
							c0.204,0.007,0.404,0.031,0.609,0.031c7.402,0,13.759-4.43,16.596-10.777c1.731,0.52,3.427,1.154,5.065,1.927l0.452,0.214
							c3.329,1.572,7.236,1.294,10.309-0.732l1.671-1.103c3.32-2.19,7.761-1.496,10.254,1.602c2.743,3.408,6.939,5.315,11.311,5.14
							c3.607-0.144,7.188,2.93,7.326,5.994s3.296,5.782,3.296,3.064C137.684,42.549,121.715,26.579,102.015,26.579z"/>
						<circle fill="#020202" cx="115.702" cy="64.125" r="2.513"/>
						<circle fill="#020202" cx="88.329" cy="64.125" r="2.513"/>
						
							<path fill="none" stroke="#C38669" stroke-width="1.2" stroke-linecap="round" stroke-linejoin="round" stroke-miterlimit="10" d="
							M97.816,70.801c0.719,1.605,2.327,2.724,4.2,2.724c1.872,0,3.48-1.12,4.2-2.724"/>
						
							<path fill="none" stroke="#CA6634" stroke-width="1.2" stroke-linecap="round" stroke-linejoin="round" stroke-miterlimit="10" d="
							M93.665,79.921c1.431,3.19,4.628,5.417,8.351,5.417c3.723,0,6.92-2.226,8.351-5.417"/>
						<path fill="#FFFFFF" d="M113.056,120.271H90.975c-27.288,0-49.408,22.121-49.408,49.408v11.04v80.733h120.897v-80.733v-11.04
							C162.464,142.392,140.343,120.271,113.056,120.271z"/>
					</g>
				</g>
				<path fill="#7C4D1F" d="M112.362,549.267v33.686c0,1.462,1.186,2.648,2.648,2.648h11.271c1.024,0,1.957-0.591,2.394-1.517
					l2.564-5.429c1.471-3.114,5.848-3.258,7.52-0.248l2.567,4.621c0.882,1.588,2.557,2.573,4.374,2.573h51.702
					c3.415,0,5.826-3.346,4.746-6.585l-1.095-3.286c-2.095-6.285-7.977-10.524-14.602-10.524h-12.318
					c-5.4,0-10.483-2.551-13.71-6.882l-8.732-11.72c-0.841-1.129-2.167-1.794-3.575-1.794H116.82
					C114.358,544.81,112.362,546.806,112.362,549.267z"/>
				<path fill="#7C4D1F" d="M91.668,549.267v33.686c0,1.462-1.186,2.648-2.648,2.648H77.749c-1.024,0-1.957-0.591-2.394-1.517
					l-2.564-5.429c-1.471-3.114-5.848-3.258-7.52-0.248l-2.567,4.621c-0.882,1.588-2.557,2.573-4.374,2.573H6.629
					c-3.415,0-5.826-3.346-4.746-6.585l1.095-3.286c2.095-6.285,7.977-10.524,14.602-10.524h12.318c5.4,0,10.483-2.551,13.71-6.882
					l8.732-11.72c0.841-1.129,2.167-1.794,3.575-1.794h31.297C89.673,544.81,91.668,546.806,91.668,549.267z"/>
				<g>
					<polygon fill="#426496" points="153.045,485.271 112.362,485.271 113.291,516.897 153.045,516.897 					"/>
					<polygon fill="#426496" points="50.986,516.897 90.74,516.897 91.668,485.271 50.986,485.271 					"/>
				</g>
				<path fill="#CFD9EE" d="M91.584,531.973H50.458c-1.795,0-3.251-1.456-3.251-3.251v-24.387c0-1.795,1.456-3.251,3.251-3.251
					h41.125c1.795,0,3.251,1.456,3.251,3.251v24.387C94.835,530.518,93.379,531.973,91.584,531.973z"/>
				<path fill="#CFD9EE" d="M153.449,531.973h-41.126c-1.795,0-3.251-1.456-3.251-3.251v-24.387c0-1.795,1.456-3.251,3.251-3.251
					h41.126c1.795,0,3.251,1.456,3.251,3.251v24.387C156.7,530.518,155.244,531.973,153.449,531.973z"/>
			</g>
			<path fill="#AEAEAF" d="M135.871,22.858l-3.414-4.903c-2.822-4.054-7.779-6.048-12.622-5.08l-5.471,1.094
				c-2.456,0.491-5.007,0.08-7.184-1.157l-3.327-1.89C100.94,9.267,97.27,9.84,95,12.305l0,0c-3.14,3.409-8.035,4.561-12.371,2.923
				c-2.77-1.046-5.714-1.969-7.485-1.969c-2.751,0-2.952,2.585-2.789,4.279c-0.153,0.099-0.295,0.236-0.421,0.417l-3.414,4.903
				c-4.257,6.114-6.539,13.386-6.539,20.836v14.252c0,1.979,1.604,3.583,3.583,3.583c1.759,0,3.258-1.277,3.538-3.014l0.901-8.603
				c0.573-3.564,3.719-6.138,7.326-5.994l4.436-8.417l2.142,0.38c3.169,0.561,6.248,1.542,9.158,2.916l0.452,0.214
				c3.328,1.572,7.236,1.294,10.308-0.733l1.672-1.103c3.32-2.19,7.761-1.496,10.254,1.602l0,0c2.743,3.408,6.939,5.315,11.311,5.14
				c3.607-0.144,6.753,2.43,7.326,5.994l0.901,8.603c0.279,1.737,1.778,3.014,3.538,3.014c1.979,0,3.583-1.604,3.583-3.583V43.694
				C142.409,36.244,140.127,28.973,135.871,22.858z"/>
			<path fill="#606060" d="M71.404,20.614c-0.462,0-0.916,0.035-1.37,0.069l-1.514,2.175c-4.257,6.114-6.539,13.386-6.539,20.836
				v10.631c2.177,1.324,4.645,2.21,7.295,2.519l0.726-6.933c0.573-3.564,3.719-6.138,7.326-5.994l4.436-8.417l2.142,0.38
				C85.816,36.218,80.963,20.614,71.404,20.614z"/>
			<circle fill="#AEAEAF" cx="71.404" cy="29.463" r="18.183"/>
			<path fill="#606060" d="M92.039,28.458c-0.502-1.344-2.499-0.939-2.459,0.495c0.005,0.169,0.007,0.339,0.007,0.51
				c0,2.64-0.575,5.142-1.587,7.406c1.623,0.49,3.214,1.083,4.757,1.794c0.27-1.247,0.421-2.539,0.421-3.866
				C93.178,32.566,92.775,30.431,92.039,28.458z"/>
			<g>
				<circle fill="none" stroke="#020202" stroke-width="2" stroke-miterlimit="10" cx="33.895" cy="553.027" r="11.619"/>
				<circle fill="none" stroke="#020202" stroke-width="2" stroke-miterlimit="10" cx="52.966" cy="566.439" r="11.619"/>
			</g>
			<g>
				<circle fill="none" stroke="#020202" stroke-width="2" stroke-miterlimit="10" cx="170.888" cy="553.027" r="11.619"/>
				<circle fill="none" stroke="#020202" stroke-width="2" stroke-miterlimit="10" cx="151.818" cy="566.439" r="11.619"/>
			</g>
			<path fill="#D6B429" d="M109.645,283.597H94.386c-2.598,0-4.704-2.106-4.704-4.704v-15.948c0-2.598,2.106-4.704,4.704-4.704
				h15.259c2.598,0,4.704,2.106,4.704,4.704v15.948C114.349,281.491,112.243,283.597,109.645,283.597z"/>
			<path fill="#76491D" d="M105.954,276.617h-7.877c-0.887,0-1.605-0.719-1.605-1.605v-8.187c0-0.887,0.719-1.605,1.605-1.605h7.877
				c0.887,0,1.605,0.719,1.605,1.605v8.187C107.559,275.899,106.84,276.617,105.954,276.617z"/>
		</g>
		
			<line fill="none" stroke="#C38669" stroke-width="1.2" stroke-linecap="round" stroke-linejoin="round" stroke-miterlimit="10" x1="120.693" y1="63.437" x2="123.193" y2="62.248"/>
		
			<line fill="none" stroke="#C38669" stroke-width="1.2" stroke-linecap="round" stroke-linejoin="round" stroke-miterlimit="10" x1="120.693" y1="65.437" x2="123.193" y2="64.248"/>
		
			<line fill="none" stroke="#C38669" stroke-width="1.2" stroke-linecap="round" stroke-linejoin="round" stroke-miterlimit="10" x1="83.338" y1="63.437" x2="80.838" y2="62.248"/>
		
			<line fill="none" stroke="#C38669" stroke-width="1.2" stroke-linecap="round" stroke-linejoin="round" stroke-miterlimit="10" x1="83.338" y1="65.437" x2="80.838" y2="64.248"/>
		<path fill="#FFD70D" d="M163.281,323.921c16.277,0,29.6,12.607,30.761,28.587h0.092v233.094h-8.193V375.705v0v-20.389
			c0-12.287-9.555-22.752-21.835-23.189c-11.674-0.415-21.464,8.004-23.209,19.094c-0.319,2.026-2.005,3.552-4.057,3.552h0
			c-2.517,0-4.435-2.25-4.051-4.738C135.069,335.245,147.852,323.921,163.281,323.921z"/>
		<rect x="155.61" y="321.575" fill="#E0A280" width="9.701" height="23.333"/>
	</g>
</g>
<g id="_x31_">
	<g>
		<rect x="117.276" y="510.06" fill="#F4B891" width="29" height="52.5"/>
		<path fill="#986327" d="M155.958,66.182c0.829-4.371,1.143-8.925,0.875-13.597c-1.64-28.537-25.336-51.447-53.911-52.168
			c-31.274-0.79-56.874,24.326-56.874,55.421c0,3.472,0.321,6.868,0.934,10.161c1.99,10.69-1.222,21.697-8.702,29.59
			c-7.011,7.398-14.075,15.25-19.443,21.319c-5.981,6.762-9.273,15.471-9.273,24.498v0c0,16.231,13.157,29.388,29.388,29.388
			h125.071c16.231,0,29.388-13.158,29.388-29.388v0c0-9.027-3.293-17.736-9.273-24.498c-5.344-6.042-12.369-13.851-19.349-21.219
			C157.329,87.815,153.937,76.839,155.958,66.182z"/>
		<path fill="#E0A280" d="M149.268,351.107L149.268,351.107c-7.203,0-13.042-5.839-13.042-13.042V174.087
			c0-1.818,1.474-3.292,3.292-3.292h19.5c1.818,0,3.292,1.474,3.292,3.292v163.978C162.31,345.268,156.471,351.107,149.268,351.107z
			"/>
		<path fill="#E0A280" d="M53.705,351.107L53.705,351.107c-7.203,0-13.042-5.839-13.042-13.042V174.087
			c0-1.818,1.474-3.292,3.292-3.292h19.5c1.818,0,3.292,1.474,3.292,3.292v163.978C66.747,345.268,60.908,351.107,53.705,351.107z"
			/>
		<path fill="#D22D27" d="M104.432,120.271H82.351c-27.288,0-49.408,22.121-49.408,49.408v11.04V301.12h41.524l79.373-120.401
			v-11.04C153.84,142.392,131.72,120.271,104.432,120.271z"/>
		<path fill="#D22D27" d="M120.626,120.271H98.546c-27.288,0-49.408,22.121-49.408,49.408v11.04l79.369,120.401h41.529V180.719
			v-11.04C170.035,142.392,147.914,120.271,120.626,120.271z"/>
		<rect x="40.663" y="309.789" fill="#C38669" width="16.949" height="14.06"/>
		<rect x="145.361" y="309.789" fill="#C38669" width="16.949" height="14.06"/>
		<rect x="55.992" y="510.06" fill="#F4B891" width="29" height="52.5"/>
		<path fill="#EE4823" d="M172.068,309.789h-24.829c-1.244,0-2.252-1.008-2.252-2.252v-12.833c0-1.244,1.008-2.252,2.252-2.252
			h24.829c1.244,0,2.252,1.008,2.252,2.252v12.833C174.32,308.781,173.312,309.789,172.068,309.789z"/>
		<path fill="#EE4823" d="M55.735,309.789H30.905c-1.244,0-2.252-1.008-2.252-2.252v-12.833c0-1.244,1.008-2.252,2.252-2.252h24.829
			c1.244,0,2.252,1.008,2.252,2.252v12.833C57.986,308.781,56.978,309.789,55.735,309.789z"/>
		<g>
			<g>
				<path fill="#CFD9EE" d="M50.457,244.51v287.463h39.311l6.96-237.007c0.181-6.161,9.336-6.161,9.517,0l6.96,237.007h39.311
					V244.51H50.457z"/>
				<rect x="50.457" y="261.452" fill="#AABBD9" width="102.059" height="16.456"/>
				<circle fill="#76491D" cx="101.486" cy="62.248" r="40.108"/>
				<circle fill="#E0A280" cx="65.703" cy="67.864" r="8.764"/>
				<path fill="#C38669" d="M74.467,67.864c0,4.84-3.924,8.764-8.764,8.764c-0.37,0-0.733-0.03-1.091-0.075
					c-1.92-4.38-2.994-9.216-2.994-14.306c0-0.729,0.029-1.451,0.072-2.17c1.203-0.622,2.565-0.979,4.013-0.979
					C70.543,59.1,74.467,63.024,74.467,67.864z"/>
				<path fill="#C38669" d="M65.703,59.1c-1.553,0-3.008,0.408-4.273,1.116c-0.034,0.673-0.051,1.351-0.051,2.032
					c0,5.004,0.924,9.791,2.599,14.209c0.558,0.111,1.135,0.172,1.726,0.172c4.84,0,8.764-3.924,8.764-8.764
					C74.467,63.024,70.543,59.1,65.703,59.1z"/>
				<circle fill="#E0A280" cx="137.27" cy="67.864" r="8.764"/>
				<path fill="#C38669" d="M128.506,67.864c0,4.84,3.924,8.764,8.764,8.764c0.591,0,1.167-0.06,1.726-0.172
					c1.674-4.418,2.599-9.204,2.599-14.209c0-0.682-0.018-1.359-0.051-2.033c-1.265-0.708-2.72-1.116-4.273-1.116
					C132.43,59.1,128.506,63.024,128.506,67.864z"/>
				<rect x="87.626" y="86.004" fill="#F4B891" width="27.72" height="37.118"/>
				<rect x="87.626" y="86.004" fill="#F4B891" width="27.72" height="37.118"/>
				<path fill="#C38669" d="M87.626,102.153c4.32,1.591,8.988,2.461,13.86,2.461c4.872,0,9.54-0.87,13.86-2.461V85.597h-27.72
					V102.153z"/>
				<circle fill="#F4B891" cx="101.486" cy="62.248" r="35.669"/>
				<path fill="#E0A280" d="M65.964,59.1h71.045c-1.093-12.493-8.624-23.133-19.259-28.593H85.222
					C74.588,35.967,67.057,46.607,65.964,59.1z"/>
				<polygon fill="#986327" points="146.034,53.836 56.938,53.836 65.818,19.985 137.155,19.985 				"/>
				<circle fill="#020202" cx="115.173" cy="64.125" r="2.513"/>
				<circle fill="#020202" cx="87.8" cy="64.125" r="2.513"/>
				
					<path fill="none" stroke="#C38669" stroke-width="1.2" stroke-linecap="round" stroke-linejoin="round" stroke-miterlimit="10" d="
					M97.287,70.801c0.719,1.605,2.327,2.724,4.2,2.724c1.872,0,3.48-1.12,4.2-2.724"/>
				
					<path fill="none" stroke="#CA6634" stroke-width="1.2" stroke-linecap="round" stroke-linejoin="round" stroke-miterlimit="10" d="
					M93.136,77.921c1.431,3.19,4.628,5.417,8.351,5.417c3.723,0,6.92-2.226,8.351-5.417"/>
				<path fill="#EE4823" d="M112.527,120.271H90.446c-27.288,0-49.408,22.121-49.408,49.408v11.04v80.733h120.897v-80.733v-11.04
					C161.935,142.392,139.814,120.271,112.527,120.271z"/>
			</g>
		</g>
		<path fill="#FFD70D" d="M111.833,549.267v33.686c0,1.462,1.186,2.648,2.648,2.648h11.271c1.024,0,1.957-0.591,2.394-1.517
			l2.564-5.429c1.471-3.114,5.848-3.258,7.52-0.248l2.567,4.621c0.882,1.588,2.557,2.573,4.374,2.573h51.702
			c3.415,0,5.826-3.346,4.746-6.585l-1.095-3.286c-2.095-6.285-7.977-10.524-14.602-10.524h-12.318c-5.4,0-10.483-2.551-13.71-6.882
			l-8.732-11.72c-0.841-1.129-2.167-1.794-3.575-1.794h-31.297C113.829,544.81,111.833,546.806,111.833,549.267z"/>
		<path fill="#FFD70D" d="M91.139,549.267v33.686c0,1.462-1.186,2.648-2.648,2.648H77.22c-1.024,0-1.957-0.591-2.394-1.517
			l-2.564-5.429c-1.471-3.114-5.848-3.258-7.52-0.248l-2.567,4.621c-0.882,1.588-2.557,2.573-4.374,2.573H6.1
			c-3.415,0-5.826-3.346-4.746-6.585l1.095-3.286c2.095-6.285,7.977-10.524,14.602-10.524h12.318c5.4,0,10.483-2.551,13.71-6.882
			l8.732-11.72c0.841-1.129,2.167-1.794,3.575-1.794h31.297C89.144,544.81,91.139,546.806,91.139,549.267z"/>
		<g>
			<polygon fill="#AABBD9" points="152.516,485.271 111.833,485.271 112.762,516.897 152.516,516.897 			"/>
			<polygon fill="#AABBD9" points="50.457,516.897 90.211,516.897 91.139,485.271 50.457,485.271 			"/>
		</g>
		<path fill="#CFD9EE" d="M91.055,531.973H49.929c-1.795,0-3.251-1.456-3.251-3.251v-24.387c0-1.795,1.456-3.251,3.251-3.251h41.125
			c1.795,0,3.251,1.456,3.251,3.251v24.387C94.305,530.518,92.85,531.973,91.055,531.973z"/>
		<path fill="#CFD9EE" d="M152.92,531.973h-41.126c-1.795,0-3.251-1.456-3.251-3.251v-24.387c0-1.795,1.456-3.251,3.251-3.251
			h41.126c1.795,0,3.251,1.456,3.251,3.251v24.387C156.171,530.518,154.715,531.973,152.92,531.973z"/>
	</g>
</g>
</svg>
