<?xml version="1.0" encoding="utf-8"?>
<!-- Generator: Adobe Illustrator 18.0.0, SVG Export Plug-In . SVG Version: 6.00 Build 0)  -->
<!DOCTYPE svg PUBLIC "-//W3C//DTD SVG 1.1//EN" "http://www.w3.org/Graphics/SVG/1.1/DTD/svg11.dtd">
<svg version="1.1" id="Layer_1" xmlns="http://www.w3.org/2000/svg" xmlns:xlink="http://www.w3.org/1999/xlink" x="0px" y="0px"
	 viewBox="0 0 1096 1280" enable-background="new 0 0 1096 1280" xml:space="preserve">
<g>
	<g>
		<g>
			<path fill="#1D345C" d="M242.039,1187.704l31.638-23.729l26.365,23.729l19.774,46.145h38.224
				c26.365,0,46.145,21.104,46.145,46.151H242.022v-92.29L242.039,1187.704z M406.84,1187.704l31.638-23.729l26.365,23.729
				l19.774,46.145h38.23c26.365,0,46.145,21.104,46.145,46.151H406.828v-92.29L406.84,1187.704z M383.111,585.2l139.747,58.003
				v544.5H406.84V760.541l-47.457,47.469v379.688H242.039V643.204L383.111,585.2z"/>
			<path fill="#F3AAB9" d="M56.147,82.89v46.139h9.228V53.888c0-10.546,7.91-18.456,18.456-18.456v93.602h9.234v-83.05
				c0-10.546,7.91-18.456,18.456-18.456v102.836h9.228v-93.62c10.546,0,18.456,7.91,18.456,18.456v75.147h9.234v-9.234
				c0-10.546,7.91-18.456,18.456-18.456v56.697l-58.003,58.003l-54.06-39.548L36.373,132.99v-29.002
				c0-13.183,9.234-21.092,19.78-21.092L56.147,82.89z M710.069,736.818v-46.145h-9.228v75.147c0,10.546-7.91,18.456-18.456,18.456
				v-93.602h-9.228v84.369c0,10.546-7.91,18.456-18.456,18.456V690.672h-9.228v93.602c-10.546,0-18.456-7.91-18.456-18.456v-75.147
				h-9.228v9.228c0,10.546-7.91,18.456-18.456,18.456v-56.691l58.003-58.003l54.06,39.548l18.456,44.821v29.002
				c-1.33,11.876-9.24,19.791-19.786,19.791L710.069,736.818z"/>
			<path fill="#54C0D9" d="M522.858,270.106H242.039c-51.418,0-93.608-42.196-93.608-93.614H54.823
				c0,102.836,84.369,187.211,187.211,187.211v280.819h280.819V363.703c51.418,0,93.608,42.184,93.608,93.608v187.211h93.608
				V457.311c0-104.148-84.369-187.211-187.211-187.211L522.858,270.106z"/>
		</g>
		<g>
			<path fill="#1D345C" d="M430.2,127.789l-46.608-0.008l-46.616,0l0.008,93.223l59.658-7.457l33.566-39.159L430.2,127.789z"/>
			<path fill="#F3AAB9" d="M402.236,271.349l27.965-27.965l0.004-68.992l-46.616,0.008l-46.608,46.608l0,22.372l27.965,27.965
				L402.236,271.349z"/>
			<circle fill="#1D345C" cx="430.2" cy="127.781" r="46.145"/>
		</g>
	</g>
	<g>
		<path fill="#1D345C" d="M913.271,325.467L760.324,172.549v-46.145h-92.29c-26.365,0-46.139,21.092-46.139,46.145v109.427h139.747
			v44.821h151.612v-1.312L913.271,325.467z"/>
		<path fill="#F3AAB9" d="M694.411,268.782l-27.683-27.683v-22.41l46.145-47.457h47.457v69.868l-27.683,27.683H694.411z"/>
		<path fill="#F3AAB9" d="M1041.148,82.89v46.145h-9.228V53.888c0-10.546-7.909-18.456-18.456-18.456v93.602h-9.222V44.666
			c0-10.546-7.909-18.456-18.456-18.456v102.824h-10.546V35.432c-10.546,0-18.456,7.91-18.456,18.456v75.147h-9.228v-9.228
			c0-10.546-7.909-18.456-18.456-18.456v56.691l58.015,58.003l54.055-39.548l18.456-44.821v-29.002
			c-0.012-11.864-9.24-19.78-18.467-19.78L1041.148,82.89z"/>
		<path fill="#EA5C42" d="M947.546,175.186c0,51.412-42.184,93.602-93.614,93.602H573.113
			c-102.824,0-187.205,84.369-187.205,187.211c0,102.824,84.369,187.205,187.211,187.205h280.819V362.385
			c102.836,0,187.211-84.369,187.211-187.211h-93.602V175.186z M573.119,549.601c-51.412,0-93.608-42.184-93.608-93.608
			c0-51.418,42.184-93.608,93.608-93.608v187.222V549.601z"/>
		<g>
			<g>
				<path fill="#EA5C42" d="M573.124,1187.71l-1.312,92.29h163.464c0-25.047-19.78-46.151-46.145-46.151h-38.23l-19.78-46.145
					l-26.365-23.729l-31.638,23.729L573.124,1187.71z M736.607,1187.71h-1.33V1280h163.482c0-25.047-19.78-46.151-46.145-46.151
					h-38.23l-19.78-46.145l-26.365-23.729l-31.638,23.729L736.607,1187.71z"/>
				<path fill="#F3AAB9" d="M794.61,1187.704h-59.327V732.857h59.327V1187.704z M631.122,1187.704H571.8V732.857h59.327
					L631.122,1187.704z"/>
			</g>
			<path fill="#1D345C" d="M852.625,958.297H571.806V643.204h280.819L852.625,958.297z"/>
		</g>
		<path fill="#F3AAB9" d="M703.638,606.286c10.546,0,18.456-7.91,18.456-18.456H619.258v-10.546h93.608
			c0-10.546-7.909-18.456-18.456-18.456H619.27v-9.222h9.222c10.546,0,18.456-7.91,18.456-18.456h-56.691L571.8,549.607v93.608
			l44.821,18.456h29.002c10.546,0,18.456-7.91,18.456-18.456h-44.821v-9.228h75.147c10.546,0,18.456-7.91,18.456-18.456h-93.602
			v-9.228h84.38V606.286z"/>
	</g>
</g>
</svg>
