<?xml version="1.0" encoding="utf-8"?>
<!-- Generator: Adobe Illustrator 18.0.0, SVG Export Plug-In . SVG Version: 6.00 Build 0)  -->
<!DOCTYPE svg PUBLIC "-//W3C//DTD SVG 1.1//EN" "http://www.w3.org/Graphics/SVG/1.1/DTD/svg11.dtd">
<svg version="1.1" id="Layer_1" xmlns="http://www.w3.org/2000/svg" xmlns:xlink="http://www.w3.org/1999/xlink" x="0px" y="0px"
	 viewBox="0 0 1096 1280" enable-background="new 0 0 1096 1280" xml:space="preserve">
<g>
	<g>
		<path fill="#B69C89" d="M629.521,965.699l-43.76,51.716v123.34l43.76,33.823l43.76-33.823v-123.34L629.521,965.699z
			 M822.48,973.655l-43.76,43.76v123.34l43.76,43.76l43.76-43.76v-123.34L822.48,973.655z"/>
		<path fill="#1D345C" d="M866.248,1279.991v-141.233h-87.52l-29.845,69.627h-5.967c-39.781,0-69.626,31.825-69.626,69.627
			L866.24,1280L866.248,1279.991z M673.299,1279.991v-141.233h-87.537l-29.836,69.627h-5.976c-39.782,0-69.618,31.825-69.618,69.627
			L673.29,1280L673.299,1279.991z"/>
		<path fill="#9F9F9F" d="M742.917,824.448H866.24v192.967H742.917V824.448z"/>
		<path fill="#EA5C42" d="M866.248,824.448L709.094,665.322L549.941,824.448v192.967h316.29L866.248,824.448z"/>
		<path fill="#1D345C" d="M637.496,323.166l51.716,59.672l89.508,11.935V253.539H637.496V323.166z"/>
		<circle fill="#1D345C" cx="778.72" cy="253.539" r="69.627"/>
		<path fill="#B69C89" d="M709.102,323.166h-71.607v105.43l71.607,69.627l69.618-69.627v-35.803L709.102,323.166z M979.643,780.688
			v-15.913h13.924v69.635h69.626l27.847-27.847V693.169l-55.694-55.694l-83.559,83.541v83.541
			c13.924,3.978,27.847-9.936,27.847-23.869L979.643,780.688z M440.533,780.688v-15.913h-13.914v69.635h-69.618l-27.847-27.847
			V693.169l55.694-55.694l83.559,83.541v83.541c-15.913,3.978-27.847-9.936-27.847-23.869L440.533,780.688z"/>
		<path fill="#DBDCDC" d="M866.248,470.366H549.94c-123.323,1.998-222.794,101.46-222.794,224.792h113.386
			c0-61.67,49.736-111.406,111.406-113.386V824.44h316.29V583.744c61.67,0,113.386,49.736,113.386,113.386H1095
			c-3.96-125.321-103.432-226.781-228.752-226.781L866.248,470.366z"/>
	</g>
	<g>
		<path fill="#F3AAB9" d="M248.25,1022.991l-35.783,42.289v100.858l35.783,27.658l35.797-27.651v-100.858L248.25,1022.991z
			 M406.042,1029.497l-35.783,35.783v100.858l35.783,35.783l35.783-35.783V1065.28L406.042,1029.497z"/>
		<path fill="#DBDCDC" d="M441.833,1280v-115.489h-71.566l-24.405,56.935h-4.879c-32.53,0-56.935,26.024-56.935,56.935L441.825,1280
			L441.833,1280z M284.055,1280v-115.489h-71.581l-24.398,56.935h-4.887c-32.53,0-56.928,26.024-56.928,56.935L284.047,1280
			L284.055,1280z"/>
		<path fill="#9F9F9F" d="M340.982,907.495h100.843v157.785H340.982V907.495z"/>
		<path fill="#1D345C" d="M441.833,907.495L313.317,777.36L183.182,907.495v157.785h100.865v-56.935l56.928,56.935h100.843
			L441.833,907.495z M313.317,440.645h-58.554v56.935l115.489,56.935V440.66L313.317,440.645z"/>
		<path fill="#F3AAB9" d="M313.317,497.573h-58.554v86.219l58.554,56.935l56.935-56.935v-29.277L313.317,497.573z M534.55,871.711
			v-11.386h11.386v56.942h56.935l22.771-22.771v-92.732L580.1,756.223l-68.328,68.313v68.313c11.4,1.634,22.786-9.759,22.786-21.137
			L534.55,871.711z M93.718,871.711v-11.386H82.332v56.942H25.397L2.626,894.497v-92.732l45.542-45.542l68.313,68.313v68.313
			c-13.012,1.634-22.771-9.759-22.771-21.137L93.718,871.711z"/>
		<path fill="#EA5C42" d="M441.833,617.948h-258.65C82.339,619.575,1,700.907,1,801.765h92.718c0-50.436,40.67-91.099,91.099-92.718
			v196.828h258.636V709.047c50.429,0,92.718,40.663,92.718,92.718h92.718C625.634,700.907,544.309,617.948,441.833,617.948
			L441.833,617.948z"/>
	</g>
</g>
</svg>
