<?xml version="1.0" encoding="utf-8"?>
<!-- Generator: Adobe Illustrator 18.0.0, SVG Export Plug-In . SVG Version: 6.00 Build 0)  -->
<!DOCTYPE svg PUBLIC "-//W3C//DTD SVG 1.1//EN" "http://www.w3.org/Graphics/SVG/1.1/DTD/svg11.dtd">
<svg version="1.1" xmlns="http://www.w3.org/2000/svg" xmlns:xlink="http://www.w3.org/1999/xlink" x="0px" y="0px" width="556px"
	 height="556px" viewBox="0 0 556 556" enable-background="new 0 0 556 556" xml:space="preserve">
<g id="round">
	<g>
		<g>
			<circle fill="#D3D3D3" cx="278" cy="278" r="235.499"/>
			<circle fill="#E9E9E7" cx="278" cy="278" r="223.807"/>
			<circle fill="#C4C3C3" cx="278" cy="278" r="143.638"/>
			<circle fill="#E9E9E7" cx="278" cy="278" r="123.038"/>
			<path fill="#FFFFFF" d="M312.211,152.295c54.138,15.98,94.019,65.199,96,124.033c0.086,2.563,2.189,4.595,4.753,4.595h0.002
				c2.692,0,4.862-2.231,4.772-4.922c-2.122-63.014-44.837-115.73-102.821-132.847c-3.038-0.897-6.081,1.419-6.081,4.587v0
				C308.836,149.837,310.201,151.702,312.211,152.295z"/>
			<path fill="#B3D346" d="M325.657,208.414l0.233,0.209c9.647,8.658,25.046,3.764,27.924-8.875v0
				c2.38-10.452,9.273-19.31,18.82-24.185l2.453-1.253c15.11-7.716,17.069-28.524,3.666-38.925l-2.172-1.686
				c-6.314-4.9-8.657-13.366-5.761-20.815l2.712-6.973c4.235-10.892-6.455-21.642-17.37-17.468l0,0
				c-14.143,5.408-29.98,4.075-43.02-3.622l-34.298-20.245c-13.75-8.116-31.305,0.582-33.177,16.439v0
				c-2.342,19.835-17.405,35.792-37.073,39.271l-6.42,1.136c-18.532,3.278-23.857,27.32-8.444,38.117l10.586,7.416
				c6.053,4.24,7.904,12.379,4.282,18.821l0,0c-5.971,10.617,3.852,23.161,15.591,19.909l14.552-4.031
				c15.787-4.374,32.682,0.722,43.418,13.096l5.936,6.842c4.672,5.385,13.516,2.663,14.352-4.417v0
				C303.773,205.928,317.228,200.849,325.657,208.414z"/>
			<path fill="#8BC33F" d="M286.187,87.277l-40.585-5.79c-2.523,19.616-17.497,35.35-37.008,38.801l-5.794,1.025
				c6.881,5.284,15.167,8.933,24.368,10.245C255.693,135.627,282.117,115.802,286.187,87.277z"/>
			<g>
				
					<ellipse transform="matrix(0.6974 -0.7167 0.7167 0.6974 -3.0668 198.67)" fill="#A257A1" cx="233.733" cy="102.967" rx="18.98" ry="26.213"/>
				
					<ellipse transform="matrix(0.6974 -0.7167 0.7167 0.6974 -3.0668 198.67)" fill="#A257A1" cx="233.733" cy="102.967" rx="18.98" ry="26.213"/>
				<path fill="#7F2A8F" d="M244.49,87.183c-3.374,12.9-12.26,23.571-24.091,29.287c0.033,0.033,0.064,0.066,0.098,0.099
					c10.375,10.096,24.713,12.191,32.023,4.678s4.826-21.787-5.55-31.883C246.168,88.583,245.335,87.867,244.49,87.183z"/>
				
					<ellipse transform="matrix(0.6974 -0.7167 0.7167 0.6974 3.3077 182.3441)" fill="#7F2A8F" cx="217.587" cy="87.255" rx="4.25" ry="1.409"/>
			</g>
			<circle fill="#FFFFFF" cx="412.123" cy="289.136" r="4.742"/>
		</g>
		<path fill="#B3D346" d="M477.429,290.377l0.246-0.195c10.151-8.061,7.903-24.062-4.075-29.016l0,0
			c-9.906-4.096-17.485-12.375-20.694-22.603l-0.824-2.628c-5.078-16.188-25.264-21.603-37.762-10.129l-2.026,1.86
			c-5.887,5.405-14.627,6.298-21.485,2.195l-6.421-3.841c-10.029-5.999-22.417,2.741-20.129,14.201v0
			c2.965,14.849-1.001,30.239-10.772,41.807l-25.7,30.425c-10.303,12.198-4.666,30.961,10.653,35.461l0,0
			c19.163,5.629,32.374,23.151,32.511,43.124l0.045,6.52c0.13,18.819,22.941,28.094,36.166,14.705l9.083-9.195
			c5.194-5.258,13.528-5.721,19.272-1.071l0,0c9.468,7.664,23.479,0.079,22.238-12.039l-1.539-15.021
			c-1.669-16.296,6.183-32.1,20.179-40.613l7.739-4.707c6.091-3.705,4.888-12.879-1.952-14.888h0
			C471.315,311.535,468.56,297.42,477.429,290.377z"/>
		<path fill="#8BC33F" d="M367.978,188.91l-0.029-0.312c-1.193-12.907-15.815-19.782-26.516-12.467l0,0
			c-8.849,6.05-19.926,7.863-30.242,4.952l-2.651-0.748c-16.328-4.608-31.907,9.324-29.142,26.064l0.448,2.713
			c1.302,7.885-2.733,15.689-9.919,19.184l-6.728,3.273c-10.509,5.112-9.973,20.263,0.872,24.619h0
			c14.051,5.644,24.762,17.385,29.097,31.893l11.402,38.16c4.571,15.298,23.36,20.848,35.51,10.488l0,0
			c15.198-12.96,37.093-14.428,53.885-3.614l5.482,3.53c15.822,10.189,36.068-3.828,32.099-22.224l-2.726-12.634
			c-1.559-7.224,2.614-14.453,9.649-16.716h0c11.596-3.73,12.914-19.609,2.093-25.2l-13.415-6.932
			c-14.553-7.52-23.484-22.741-22.951-39.114l0.295-9.053c0.232-7.125-8.105-11.139-13.53-6.513l0,0
			C382.341,205.606,369.02,200.188,367.978,188.91z"/>
		<path fill="#FFD70D" d="M416.169,290.251l-2.009,6.742c-0.516,1.731-2.337,2.716-4.068,2.2l-5.547-1.653
			c-1.731-0.516-2.716-2.337-2.2-4.068l2.009-6.742c0.516-1.731,2.337-2.716,4.068-2.2l5.547,1.653
			C415.699,286.699,416.685,288.52,416.169,290.251z"/>
		<path fill="#FFD70D" d="M432.754,262.173l1.906,6.772c0.489,1.739-0.523,3.545-2.262,4.034l-5.572,1.569
			c-1.739,0.489-3.545-0.523-4.034-2.262l-1.906-6.772c-0.489-1.739,0.523-3.545,2.262-4.034l5.572-1.569
			C430.459,259.422,432.265,260.434,432.754,262.173z"/>
		<path fill="#FFD70D" d="M425.168,239.721l6.406,2.906c1.645,0.746,2.373,2.684,1.627,4.329l-2.391,5.271
			c-0.746,1.645-2.684,2.373-4.329,1.627l-6.406-2.906c-1.645-0.746-2.373-2.684-1.627-4.329l2.391-5.271
			C421.585,239.703,423.523,238.975,425.168,239.721z"/>
		<path fill="#FFD70D" d="M411.752,267.717l5.289,4.639c1.358,1.191,1.493,3.257,0.302,4.615l-3.817,4.351
			c-1.191,1.358-3.257,1.493-4.615,0.302l-5.289-4.639c-1.358-1.191-1.493-3.257-0.302-4.615l3.817-4.351
			C408.328,266.661,410.394,266.526,411.752,267.717z"/>
		<path fill="#8BC33F" d="M312.495,131.28l-0.029-0.312c-1.193-12.907-15.815-19.782-26.516-12.467l0,0
			c-8.849,6.05-19.926,7.863-30.242,4.952l-2.651-0.748c-16.328-4.608-31.907,9.324-29.142,26.064l0.448,2.713
			c1.302,7.885-2.733,15.689-9.919,19.184l-6.728,3.273c-10.509,5.112-9.973,20.263,0.872,24.619l0,0
			c14.051,5.644,24.762,17.385,29.097,31.893l11.402,38.16c4.571,15.298,23.36,20.848,35.51,10.488l0,0
			c15.198-12.96,37.093-14.428,53.885-3.614l5.482,3.53c15.822,10.189,36.068-3.828,32.099-22.224l-2.726-12.634
			c-1.559-7.224,2.614-14.453,9.649-16.716l0,0c11.596-3.73,12.914-19.609,2.093-25.2l-13.415-6.932
			c-14.553-7.52-23.484-22.741-22.951-39.114l0.295-9.053c0.232-7.125-8.105-11.139-13.53-6.513l0,0
			C326.859,147.976,313.538,142.557,312.495,131.28z"/>
		<circle fill="#EE4823" cx="402.532" cy="195.416" r="40.454"/>
		<path fill="#D22D27" d="M402.532,235.87c2.292,0,4.537-0.2,6.725-0.567c-3.479-6.47-5.311-13.843-5.062-21.479l0.295-9.053
			c0.232-7.125-8.105-11.139-13.53-6.513c-8.618,7.349-21.939,1.93-22.981-9.347l-0.029-0.312c-0.289-3.123-1.369-5.888-2.984-8.189
			c-1.856,4.642-2.888,9.703-2.888,15.007C362.077,217.758,380.189,235.87,402.532,235.87z"/>
		<path fill="#729E40" d="M338.08,157.702l-0.029-0.312c-1.193-12.907-15.815-19.782-26.516-12.467l0,0
			c-8.849,6.05-19.926,7.863-30.242,4.952l-2.651-0.748c-16.328-4.608-31.907,9.324-29.142,26.064l0.448,2.713
			c1.302,7.885-2.733,15.689-9.919,19.184l-6.728,3.273c-10.509,5.112-9.973,20.263,0.872,24.619l0,0
			c14.051,5.644,24.762,17.385,29.097,31.893l11.402,38.16c4.571,15.298,23.36,20.848,35.51,10.488l0,0
			c15.198-12.96,37.093-14.428,53.885-3.614l5.482,3.53c15.822,10.189,36.068-3.828,32.099-22.224l-2.726-12.634
			c-1.559-7.224,2.614-14.453,9.649-16.716l0,0c11.596-3.73,12.914-19.609,2.093-25.2l-13.415-6.932
			c-14.553-7.52-23.484-22.741-22.951-39.114l0.295-9.053c0.232-7.125-8.105-11.139-13.53-6.513l0,0
			C352.444,174.397,339.122,168.979,338.08,157.702z"/>
		<path fill="#FFD70D" d="M413.625,241.194l2.67,6.508c0.686,1.671-0.113,3.581-1.784,4.267l-5.355,2.197
			c-1.671,0.686-3.581-0.113-4.267-1.784l-2.67-6.508c-0.686-1.671,0.113-3.581,1.784-4.267l5.355-2.197
			C411.029,238.724,412.939,239.523,413.625,241.194z"/>
		<path fill="#5B8039" d="M307.632,278.612l-1.619-3.314c12.709-2.552,17.998-17.819,9.592-27.686l0,0
			c-6.952-8.16-9.927-18.982-8.123-29.549l0.464-2.715c2.855-16.724-12.648-30.741-29.001-26.221l-2.65,0.733
			c-7.703,2.129-15.89-1.058-20.126-7.834l-3.966-6.344c-6.195-9.909-21.205-7.773-24.389,3.471l0,0
			c-4.126,14.569-14.668,26.463-28.636,32.308l-36.739,15.375c-14.729,6.164-18.259,25.435-6.672,36.42l0,0
			c14.495,13.741,18.271,35.358,9.295,53.2l-2.93,5.825c-8.458,16.811,7.622,35.46,25.495,29.567L199.9,347.8
			c7.019-2.314,14.648,1.07,17.643,7.827l0,0c4.936,11.136,20.865,10.767,25.28-0.585l52.786,14.26
			c5.939-15.267-1.813-55.958-1.813-55.958c7.11-0.523,10.219-9.238,5.045-14.143l0,0
			C290.623,291.409,296.528,280.841,307.632,278.612z"/>
		<circle fill="#5B8039" cx="362.054" cy="288.963" r="40.454"/>
		<path fill="#FDE863" d="M358.95,287.328l-7.016-0.514c-1.801-0.132-3.155-1.699-3.023-3.501l0.423-5.773
			c0.132-1.801,1.699-3.155,3.501-3.023l7.016,0.514c1.801,0.132,3.155,1.699,3.023,3.501l-0.423,5.773
			C362.319,286.107,360.751,287.46,358.95,287.328z"/>
		<path fill="#FDE863" d="M407.211,281.05l-2.226,6.673c-0.572,1.713-2.424,2.639-4.137,2.068l-5.491-1.831
			c-1.713-0.572-2.639-2.424-2.068-4.137l2.226-6.673c0.572-1.713,2.424-2.639,4.137-2.068l5.491,1.831
			C406.857,277.484,407.783,279.336,407.211,281.05z"/>
		<path fill="#FFD70D" d="M388.025,268.223l5.289,4.639c1.358,1.191,1.493,3.257,0.302,4.615l-3.817,4.351
			c-1.191,1.358-3.257,1.493-4.615,0.302l-5.289-4.639c-1.358-1.191-1.493-3.257-0.302-4.615l3.817-4.351
			C384.601,267.167,386.667,267.032,388.025,268.223z"/>
		<g>
			
				<ellipse transform="matrix(0.7531 0.6579 -0.6579 0.7531 215.9603 -144.4257)" fill="#A257A1" cx="300.4" cy="215.513" rx="18.98" ry="26.213"/>
			
				<ellipse transform="matrix(0.7531 0.6579 -0.6579 0.7531 215.9603 -144.4257)" fill="#A257A1" cx="300.4" cy="215.513" rx="18.98" ry="26.213"/>
			<path fill="#7F2A8F" d="M307.481,218.063l0.463-2.715c1.501-8.792-2.076-16.832-8.178-21.827
				c-4.83,1.691-9.652,4.917-13.66,9.506c-9.525,10.903-10.846,25.331-2.952,32.228c6.257,5.466,16.423,4.554,25.114-1.485
				C306.874,228.714,306.577,223.356,307.481,218.063z"/>
			
				<ellipse transform="matrix(0.7531 0.6579 -0.6579 0.7531 208.4575 -158.3666)" fill="#7F2A8F" cx="315.222" cy="198.547" rx="4.25" ry="1.409"/>
		</g>
		<path fill="#5B8039" d="M346.616,324.086c-8.003,27.58-52.234,96.469-79.813,88.466c-27.58-8.003-28.064-89.868-20.061-117.448
			c8.003-27.58,36.848-43.449,64.428-35.446C338.749,267.661,354.619,296.506,346.616,324.086z"/>
		<circle fill="#EE4823" cx="375.532" cy="310.815" r="40.454"/>
		<path fill="#D22D27" d="M353.922,276.623c-11.322,7.171-18.845,19.799-18.845,34.192c0,20.641,15.463,37.66,35.435,40.133
			c2.814-5.87,4.947-11.183,6.197-15.489C383.388,312.441,373.43,288.552,353.922,276.623z"/>
		<path fill="#DBAC4D" d="M319.073,371.537c-2.484,1.235-2.93,5.017-1.013,8.036c17.192,27.09,52.234,37.443,81.367,22.966
			c29.209-14.516,42.11-48.839,30.745-78.959c-1.227-3.252-4.51-5.011-6.925-3.811L319.073,371.537z"/>
		<path fill="#BB852C" d="M318.06,379.573c14.336,22.59,41.082,33.527,66.466,28.148c-9.351-11.055-22.634-21.495-38.669-29.547
			c-7.441-3.737-14.94-6.688-22.286-8.871l-4.498,2.235C316.589,372.772,316.144,376.554,318.06,379.573z"/>
		<path fill="#BB852C" d="M373.406,344.536l-54.333,27c-2.484,1.235-2.929,5.017-1.013,8.036
			c5.351,8.432,12.433,15.24,20.526,20.185C353.355,382.743,366.697,360.459,373.406,344.536z"/>
		<path fill="#B3D346" d="M283.425,284.394l-1.619-3.314c12.709-2.552,17.998-17.819,9.592-27.686l0,0
			c-6.952-8.16-9.927-18.982-8.123-29.549l0.464-2.715c2.855-16.724-12.648-30.741-29.001-26.221l-2.65,0.732
			c-7.703,2.129-15.89-1.058-20.126-7.834l-3.966-6.344c-6.195-9.909-21.205-7.773-24.389,3.471l0,0
			c-4.126,14.569-14.668,26.463-28.636,32.308l-36.739,15.375c-14.729,6.164-18.259,25.435-6.672,36.42l0,0
			c14.495,13.741,18.271,35.358,9.295,53.2l-2.93,5.824c-8.458,16.811,7.622,35.46,25.495,29.567l12.275-4.047
			c7.019-2.314,14.648,1.07,17.643,7.827l0,0c4.936,11.136,20.865,10.767,25.28-0.585l52.786,14.26
			c5.939-15.267-1.813-55.958-1.813-55.958c7.11-0.523,10.219-9.238,5.045-14.143l0,0
			C266.416,297.191,272.321,286.623,283.425,284.394z"/>
		<path fill="#ED7D27" d="M158.218,146.724l-6.936,4.473c-26.875,17.333-47.663,42.63-59.456,72.356l-3.36,8.469
			c-11.272,28.411-16.071,58.976-14.049,89.474l1.763,26.596c0.948,14.305,8.809,27.251,21.063,34.691l0,0
			c15.086,9.159,34.185,8.416,48.513-1.889l18.267-13.138c22.665-16.3,38.132-40.75,43.152-68.213v0
			c0.332-1.816,1.184-17.691,2.046-35.172c1.38-27.976,23.377-50.547,51.308-52.637h0c16.434-1.23,29.396-14.477,30.268-30.933v0
			c0.862-16.268-10.36-30.697-26.339-33.866l-52.633-10.439C193.307,132.824,174.085,136.491,158.218,146.724z"/>
		<path fill="#DB6D27" d="M224.656,168.815c18.934,2.702,36.933-5.132,48.093-19.042c-2.572-1.287-5.349-2.254-8.289-2.837
			l-52.633-10.439c-9.415-1.867-19.01-1.828-28.256-0.003C190.277,153.259,205.497,166.082,224.656,168.815z"/>
		<path fill="#DB6D27" d="M184.706,327.492c-31.277,0-56.632,22.963-56.632,51.291c0,3.233,0.346,6.391,0.977,9.458
			c5.908-1.23,11.61-3.679,16.706-7.345l18.267-13.137c14.199-10.212,25.572-23.622,33.322-38.967
			C193.28,327.951,189.053,327.492,184.706,327.492z"/>
		<path fill="#8BC33F" d="M269.59,319.126c7.11-0.523,10.219-9.238,5.045-14.143c-8.219-7.792-2.314-18.36,8.79-20.589l-1.619-3.314
			c10.985-2.205,16.418-13.909,12.264-23.416c-21.532,1.081-40.983,15.573-47.328,37.44c-4.357,15.015-6.197,46.12-2.52,72.637
			l27.181,7.343C277.342,359.816,269.59,319.126,269.59,319.126z"/>
		<g>
			<g>
				<path fill="#FFD70D" d="M286.929,106.644c-4.07,28.525-30.493,48.35-59.019,44.281c-28.526-4.07-48.351-30.493-44.281-59.018
					L286.929,106.644z"/>
				<path fill="#F4F5F5" d="M281.132,105.817c-3.613,25.324-27.071,42.923-52.395,39.31c-25.324-3.613-42.924-27.07-39.311-52.394
					L281.132,105.817z"/>
			</g>
			<path fill="#F4F5F5" d="M240.468,100.016c-0.409,2.866-3.063,4.858-5.929,4.449c-2.866-0.409-4.858-3.064-4.449-5.929"/>
			<g>
				<path fill="#FDE863" d="M227.647,144.972l6.086-42.659l-35.34,24.988C205.302,136.397,215.555,142.958,227.647,144.972z"/>
				<path fill="#FDE863" d="M261.21,137.665l-25.209-35.653l-6.173,43.271C241.284,146.646,252.303,143.688,261.21,137.665z"/>
				<path fill="#FDE863" d="M280.766,108.003L238.689,102l24.315,34.389C271.974,129.685,278.525,119.749,280.766,108.003z"/>
				<path fill="#FDE863" d="M197.104,125.516l34.656-24.504l-42.593-6.077C188.101,106.123,191.14,116.841,197.104,125.516z"/>
			</g>
		</g>
		<g>
			<circle fill="#BB852C" cx="371.051" cy="358.183" r="2.786"/>
			<circle fill="#BB852C" cx="411.494" cy="373.973" r="2.786"/>
			<circle fill="#BB852C" cx="387.165" cy="375.996" r="2.786"/>
			<circle fill="#BB852C" cx="399.613" cy="348.738" r="2.786"/>
			<circle fill="#BB852C" cx="419.45" cy="356.953" r="2.786"/>
			<circle fill="#BB852C" cx="381.838" cy="398.252" r="2.786"/>
		</g>
		
			<ellipse transform="matrix(0.8937 0.4488 -0.4488 0.8937 224.5135 -94.4271)" fill="#DBAC4D" cx="311.487" cy="426.485" rx="79.661" ry="45.221"/>
		
			<ellipse transform="matrix(0.8937 0.4488 -0.4488 0.8937 224.5404 -94.4592)" fill="#FFEED2" cx="311.569" cy="426.525" rx="75.796" ry="41.523"/>
		<path fill="#FCE1AD" d="M330.202,389.419c-19.873-9.979-40.101-14.267-56.241-13.021c2.879,23.339,9.861,43.734,22.935,47.528
			c13.097,3.8,29.947-9.742,44.891-27.963C338.116,393.651,334.256,391.454,330.202,389.419z"/>
		<path fill="#DB6D27" d="M188.319,253.096c-22.805,17.612-27.015,50.377-9.403,73.182c3.74,4.843,8.168,8.838,13.034,11.972
			c7.468-11.687,12.687-24.809,15.227-38.705l0,0c0.233-1.277,0.724-9.507,1.294-20.355L188.319,253.096z"/>
		<path fill="#FFD70D" d="M271.403,335.88c-22.805,17.612-55.57,13.402-73.182-9.403c-17.612-22.805-13.402-55.57,9.403-73.182
			L271.403,335.88z"/>
		<path fill="#CEA72C" d="M245.07,301.782c-2.191,11.625-3.294,28.141-2.632,44.893c10.175-0.562,20.291-4.095,28.966-10.795
			L245.07,301.782z"/>
		<g>
			<g>
				<path fill="#F4F5F5" d="M267.824,331.245c-20.246,15.635-49.332,11.898-64.968-8.348c-15.635-20.246-11.898-49.332,8.347-64.968
					L267.824,331.245z"/>
				<path fill="#DBDBDA" d="M245.144,301.878c-1.959,10.188-3.073,24.241-2.872,38.944c8.978-0.527,17.897-3.665,25.552-9.577
					L245.144,301.878z"/>
				<path fill="#FDE863" d="M266.037,332.558l-25.979-33.639l-6.544,41.605C244.618,341.971,256.242,339.416,266.037,332.558z"/>
				<path fill="#FFD70D" d="M244.622,304.828c-1.631,9.867-2.532,22.658-2.351,35.994c1.638-0.096,3.274-0.282,4.902-0.553
					c0.076-0.013,0.153-0.025,0.229-0.038c0.49-0.084,0.979-0.177,1.468-0.277c0.104-0.021,0.208-0.045,0.312-0.067
					c1.458-0.31,2.905-0.693,4.338-1.147c0.16-0.051,0.32-0.098,0.48-0.15c0.368-0.121,0.734-0.252,1.101-0.383
					c0.251-0.09,0.503-0.18,0.753-0.275c0.334-0.126,0.667-0.256,0.999-0.39c0.295-0.119,0.588-0.244,0.881-0.369
					c0.295-0.126,0.591-0.251,0.885-0.384c0.469-0.213,0.936-0.437,1.4-0.666c0.242-0.12,0.482-0.243,0.723-0.367
					c0.448-0.232,0.894-0.468,1.336-0.715c0.208-0.116,0.413-0.238,0.619-0.358c0.391-0.227,0.78-0.458,1.167-0.698
					c0.199-0.123,0.397-0.248,0.595-0.375c0.423-0.271,0.842-0.551,1.259-0.837c0.106-0.073,0.213-0.144,0.318-0.218
					L244.622,304.828z"/>
			</g>
			<path fill="#F4F5F5" d="M242.717,298.736c-2.291,1.769-5.583,1.347-7.352-0.945c-1.769-2.291-1.346-5.583,0.945-7.352"/>
			<g>
				<path fill="#FDE863" d="M202.183,322.026l34.105-26.338l-42.756-6.725C192.142,300.3,194.918,312.152,202.183,322.026z"/>
				<path fill="#FDE863" d="M231.338,340.187l6.785-43.135l-34.594,26.716C210.792,332.733,220.754,338.296,231.338,340.187z"/>
				<ellipse fill="#DBAC4D" cx="210.065" cy="386.202" rx="56.632" ry="51.291"/>
				<path fill="#BB852C" d="M242.344,344.067c0.718,26.844,5.886,55.018,18.315,65.174c3.854-6.929,6.039-14.751,6.039-23.04
					C266.697,368.742,257.058,353.33,242.344,344.067z"/>
				<ellipse fill="#FFEED2" cx="210.065" cy="386.202" rx="52.689" ry="47.096"/>
				<path fill="#FCE1AD" d="M242.531,349.123c1.099,23.003,5.571,46.095,15.167,57.22c3.238-6.107,5.056-12.934,5.056-20.142
					C262.754,371.142,254.837,357.744,242.531,349.123z"/>
				<path fill="#FDE863" d="M193.852,286.784l41.928,6.595l-26.298-34.052C200.918,266.605,195.625,276.407,193.852,286.784z"/>
			</g>
		</g>
		<g>
			<g>
				<path fill="#F1BF65" d="M359.98,338.566c-8.003,27.58-52.234,96.469-79.813,88.466c-27.58-8.003-28.064-89.868-20.061-117.448
					c8.003-27.58,36.848-43.449,64.428-35.446C352.113,282.141,367.983,310.986,359.98,338.566z"/>
				<circle fill="#D09C49" cx="338.449" cy="335.389" r="2.786"/>
				<circle fill="#D09C49" cx="338.449" cy="361.508" r="2.786"/>
				<circle fill="#D09C49" cx="330.091" cy="334.345" r="2.786"/>
				<circle fill="#D09C49" cx="293.525" cy="345.837" r="2.786"/>
				<circle fill="#D09C49" cx="289.346" cy="309.27" r="2.786"/>
				<circle fill="#D09C49" cx="322.778" cy="295.688" r="2.786"/>
				<circle fill="#D09C49" cx="339.494" cy="303.002" r="2.786"/>
				<circle fill="#D09C49" cx="286.211" cy="400.164" r="2.786"/>
			</g>
			<circle fill="#D09C49" cx="305.017" cy="352.105" r="2.786"/>
			<circle fill="#D09C49" cx="348.2" cy="314.842" r="2.786"/>
		</g>
		<g>
			<ellipse fill="#A257A1" cx="308.325" cy="158.3" rx="18.98" ry="26.213"/>
			<ellipse fill="#7F2A8F" cx="308.325" cy="135.771" rx="4.25" ry="1.409"/>
		</g>
		<g>
			
				<ellipse transform="matrix(0.5423 0.8402 -0.8402 0.5423 254.1041 -144.5444)" fill="#A257A1" cx="259.727" cy="160.967" rx="18.98" ry="26.213"/>
			
				<ellipse transform="matrix(0.5423 0.8402 -0.8402 0.5423 252.5012 -166.0387)" fill="#7F2A8F" cx="278.655" cy="148.748" rx="4.25" ry="1.409"/>
		</g>
		<path fill="#FDE863" d="M426.291,284.394h-7.035c-1.806,0-3.27-1.464-3.27-3.27v-5.788c0-1.806,1.464-3.27,3.27-3.27h7.035
			c1.806,0,3.27,1.464,3.27,3.27v5.788C429.561,282.929,428.097,284.394,426.291,284.394z"/>
		<path fill="#FDE863" d="M395.9,269.719l-4.175-5.662c-1.072-1.454-0.762-3.501,0.691-4.573l4.659-3.435
			c1.454-1.072,3.501-0.762,4.573,0.691l4.175,5.662c1.072,1.454,0.762,3.501-0.691,4.573l-4.659,3.435
			C399.019,271.482,396.972,271.172,395.9,269.719z"/>
		<path fill="#FDE863" d="M419.689,255.63l-2.02,6.738c-0.519,1.73-2.342,2.712-4.072,2.194l-5.544-1.662
			c-1.73-0.519-2.712-2.342-2.194-4.072l2.02-6.738c0.519-1.73,2.342-2.712,4.072-2.194l5.544,1.662
			C419.225,252.077,420.207,253.9,419.689,255.63z"/>
		<path fill="#FDE863" d="M435.754,249.173l1.906,6.772c0.489,1.739-0.523,3.545-2.262,4.034l-5.572,1.569
			c-1.739,0.489-3.545-0.523-4.034-2.262l-1.906-6.772c-0.489-1.739,0.523-3.545,2.262-4.034l5.572-1.568
			C433.459,246.421,435.265,247.434,435.754,249.173z"/>
		<path fill="#FFD70D" d="M399.562,227.031l6.612-2.403c1.698-0.617,3.574,0.259,4.191,1.957l1.977,5.44
			c0.617,1.698-0.259,3.574-1.957,4.191l-6.612,2.403c-1.698,0.617-3.574-0.259-4.191-1.957l-1.977-5.44
			C396.988,229.525,397.864,227.649,399.562,227.031z"/>
		<path fill="#FFD70D" d="M413.231,252.705l5.873,3.872c1.508,0.994,1.924,3.023,0.93,4.531l-3.186,4.832
			c-0.994,1.508-3.023,1.924-4.531,0.93l-5.873-3.872c-1.508-0.994-1.924-3.023-0.93-4.531l3.186-4.832
			C409.694,252.127,411.723,251.711,413.231,252.705z"/>
		<path fill="#FFD70D" d="M431.153,282.727l4.019,5.773c1.032,1.482,0.667,3.521-0.815,4.553l-4.75,3.307
			c-1.482,1.032-3.521,0.667-4.553-0.815l-4.019-5.773c-1.032-1.482-0.667-3.521,0.815-4.553l4.75-3.307
			C428.083,280.88,430.121,281.245,431.153,282.727z"/>
		<path fill="#FFD70D" d="M434.991,272.031l6.612-2.403c1.698-0.617,3.574,0.259,4.191,1.957l1.977,5.44
			c0.617,1.698-0.259,3.574-1.957,4.191l-6.612,2.403c-1.698,0.617-3.574-0.259-4.191-1.957l-1.977-5.44
			C432.418,274.524,433.294,272.648,434.991,272.031z"/>
		<path fill="#FDE863" d="M437.127,263.721l6.406,2.906c1.645,0.746,2.373,2.685,1.627,4.329l-2.391,5.271
			c-0.746,1.645-2.684,2.373-4.329,1.627l-6.406-2.906c-1.645-0.746-2.373-2.685-1.627-4.329l2.391-5.271
			C433.544,263.703,435.482,262.975,437.127,263.721z"/>
		<path fill="#FFD70D" d="M446.614,251.979l3.469,6.12c0.891,1.571,0.339,3.567-1.232,4.458l-5.035,2.854
			c-1.571,0.891-3.567,0.339-4.458-1.232l-3.469-6.12c-0.891-1.571-0.339-3.567,1.232-4.458l5.035-2.854
			C443.728,249.856,445.724,250.407,446.614,251.979z"/>
		<g>
			<path fill="#FFD70D" d="M374.265,239.171l6.382,2.959c1.639,0.76,2.351,2.704,1.592,4.343l-2.434,5.251
				c-0.76,1.639-2.704,2.351-4.343,1.592l-6.382-2.959c-1.639-0.76-2.351-2.704-1.592-4.343l2.434-5.251
				C370.682,239.124,372.627,238.412,374.265,239.171z"/>
			<path fill="#FFD70D" d="M352.28,230.323l6.375-2.974c1.637-0.764,3.583-0.055,4.346,1.581l2.447,5.246
				c0.764,1.637,0.056,3.583-1.581,4.346l-6.375,2.974c-1.637,0.764-3.583,0.055-4.346-1.581l-2.447-5.246
				C349.935,233.032,350.643,231.086,352.28,230.323z"/>
			<path fill="#FFD70D" d="M364.809,258.727l6.964-0.997c1.788-0.256,3.445,0.986,3.701,2.774l0.821,5.73
				c0.256,1.788-0.986,3.445-2.774,3.701l-6.964,0.997c-1.788,0.256-3.445-0.986-3.701-2.774l-0.821-5.73
				C361.779,260.64,363.021,258.983,364.809,258.727z"/>
			<path fill="#FFD70D" d="M345.888,240.046l6.679,2.207c1.715,0.567,2.646,2.416,2.079,4.131l-1.816,5.496
				c-0.567,1.715-2.416,2.646-4.131,2.079l-6.679-2.207c-1.715-0.567-2.646-2.416-2.079-4.131l1.816-5.496
				C342.323,240.41,344.173,239.48,345.888,240.046z"/>
			<path fill="#FDE863" d="M386.933,258.538l-4.577,5.342c-1.175,1.372-3.24,1.531-4.611,0.355l-4.395-3.766
				c-1.372-1.175-1.531-3.24-0.355-4.611l4.577-5.342c1.175-1.372,3.24-1.531,4.611-0.355l4.395,3.766
				C387.949,255.102,388.108,257.167,386.933,258.538z"/>
			<path fill="#FDE863" d="M356.014,272.067l-7.016-0.514c-1.801-0.132-3.155-1.699-3.023-3.501l0.423-5.773
				c0.132-1.801,1.699-3.155,3.501-3.023l7.016,0.514c1.801,0.132,3.155,1.699,3.023,3.501l-0.423,5.773
				C359.383,270.845,357.815,272.199,356.014,272.067z"/>
			<path fill="#FDE863" d="M360.795,244.835l3.802,5.919c0.976,1.52,0.536,3.543-0.984,4.519l-4.87,3.129
				c-1.52,0.976-3.543,0.536-4.519-0.984l-3.802-5.919c-0.976-1.52-0.536-3.543,0.984-4.519l4.87-3.129
				C357.796,242.875,359.819,243.316,360.795,244.835z"/>
			<path fill="#FDE863" d="M366.346,228.434l6.382,2.959c1.639,0.76,2.351,2.704,1.592,4.343l-2.434,5.251
				c-0.76,1.639-2.704,2.351-4.343,1.592l-6.382-2.959c-1.639-0.76-2.351-2.704-1.592-4.343l2.434-5.251
				C362.763,228.387,364.707,227.675,366.346,228.434z"/>
			<path fill="#FFD70D" d="M334.675,270.717l2.477-6.584c0.636-1.69,2.522-2.545,4.213-1.909l5.417,2.038
				c1.691,0.636,2.545,2.522,1.909,4.213l-2.477,6.584c-0.636,1.69-2.522,2.545-4.213,1.909l-5.417-2.038
				C334.894,274.293,334.039,272.407,334.675,270.717z"/>
			<path fill="#FFD70D" d="M354.372,247.836l6.762-1.94c1.736-0.498,3.547,0.506,4.046,2.242l1.596,5.564
				c0.498,1.736-0.506,3.547-2.242,4.045l-6.762,1.94c-1.736,0.498-3.547-0.506-4.045-2.242l-1.596-5.564
				C351.632,250.145,352.636,248.334,354.372,247.836z"/>
			<path fill="#FFD70D" d="M388.831,253.762l6.999,0.705c1.797,0.181,3.107,1.784,2.926,3.582l-0.58,5.759
				c-0.181,1.797-1.784,3.107-3.582,2.926l-6.999-0.705c-1.797-0.181-3.107-1.784-2.926-3.582l0.58-5.759
				C385.431,254.891,387.034,253.581,388.831,253.762z"/>
			<path fill="#FFD70D" d="M383.207,243.887l2.477-6.584c0.636-1.691,2.522-2.545,4.213-1.909l5.417,2.038
				c1.691,0.636,2.545,2.522,1.909,4.213l-2.477,6.584c-0.636,1.691-2.522,2.545-4.213,1.909l-5.417-2.038
				C383.425,247.464,382.571,245.578,383.207,243.887z"/>
			<path fill="#FDE863" d="M378.286,236.858l6.375-2.974c1.637-0.764,3.583-0.055,4.346,1.581l2.447,5.246
				c0.764,1.637,0.055,3.583-1.581,4.346l-6.375,2.974c-1.637,0.764-3.583,0.055-4.346-1.581l-2.447-5.246
				C375.941,239.568,376.649,237.622,378.286,236.858z"/>
			<path fill="#FFD70D" d="M375.543,222.014l6.904,1.348c1.773,0.346,2.929,2.064,2.583,3.837l-1.109,5.681
				c-0.346,1.773-2.064,2.929-3.837,2.583l-6.904-1.348c-1.773-0.346-2.929-2.064-2.583-3.837l1.109-5.681
				C372.053,222.824,373.77,221.668,375.543,222.014z"/>
		</g>
		<path fill="#FDE863" d="M370.242,220.958l-7.016-0.514c-1.801-0.132-3.155-1.699-3.023-3.501l0.423-5.773
			c0.132-1.801,1.699-3.155,3.501-3.023l7.016,0.514c1.801,0.132,3.155,1.699,3.023,3.501l-0.423,5.773
			C373.611,219.737,372.043,221.09,370.242,220.958z"/>
	</g>
</g>
<g id="angular">
	<g>
		<g>
			<circle fill="#D3D3D3" cx="278" cy="278" r="235.499"/>
			<circle fill="#E9E9E7" cx="278" cy="278" r="223.807"/>
			<circle fill="#C4C3C3" cx="278" cy="278" r="143.638"/>
			<circle fill="#E9E9E7" cx="278" cy="278" r="123.038"/>
			<path fill="#FFFFFF" d="M312.211,152.295c54.138,15.98,94.019,65.199,96,124.033c0.086,2.563,2.189,4.595,4.753,4.595h0.002
				c2.692,0,4.862-2.231,4.772-4.922c-2.122-63.014-44.837-115.73-102.821-132.847c-3.038-0.897-6.081,1.419-6.081,4.587v0
				C308.836,149.837,310.201,151.702,312.211,152.295z"/>
			<circle fill="#FFFFFF" cx="412.123" cy="289.136" r="4.742"/>
		</g>
		<g>
			<path fill="#9F8038" d="M203.124,171.137l26.878-15.129c2.719-1.531,5.781-1.879,8.55-0.973l106.245,34.767
				c2.035,0.666,2.1,3.831,0.102,4.955l-26.878,15.129c-2.719,1.531-5.781,1.879-8.55,0.973l-106.245-34.767
				C201.191,175.427,201.126,172.262,203.124,171.137z"/>
			<path fill="#B99C53" d="M230.744,155.637l115.363,37.75c-0.236,0.553-0.634,1.047-1.208,1.37l-0.085,0.048l-116.19-38.021
				l1.379-0.776C230.246,155.871,230.496,155.755,230.744,155.637z"/>
			<polygon fill="#B99C53" points="341.12,196.884 339.052,198.049 222.862,160.028 224.93,158.863 			"/>
			<polygon fill="#B99C53" points="335.358,200.128 333.289,201.293 217.099,163.272 219.167,162.107 			"/>
			<polygon fill="#B99C53" points="329.595,203.372 327.526,204.536 211.336,166.515 213.405,165.351 			"/>
			<polygon fill="#B99C53" points="323.832,206.615 321.764,207.78 205.574,169.759 207.642,168.594 			"/>
			<path fill="#B99C53" d="M202.222,171.95l115.848,37.909l-0.049,0.027c-0.778,0.438-1.587,0.768-2.406,1.011L201.67,173.611
				C201.691,173.03,201.871,172.442,202.222,171.95z"/>
		</g>
		<g>
			<path fill="#9F8038" d="M119.496,244.225l24.811-21.673c2.51-2.193,5.768-3.335,9.097-3.189l127.748,5.596
				c2.447,0.107,3.511,3.144,1.667,4.756l-24.811,21.673c-2.51,2.193-5.768,3.335-9.097,3.189l-127.748-5.596
				C118.716,248.874,117.652,245.837,119.496,244.225z"/>
			<path fill="#B99C53" d="M145.005,221.998l138.713,6.076c-0.086,0.595-0.369,1.177-0.899,1.64l-0.078,0.068l-139.707-6.119
				l1.273-1.112C144.532,222.356,144.769,222.178,145.005,221.998z"/>
			<polygon fill="#B99C53" points="279.331,232.762 277.422,234.43 137.715,228.31 139.624,226.642 			"/>
			<polygon fill="#B99C53" points="274.012,237.408 272.102,239.076 132.395,232.957 134.305,231.289 			"/>
			<polygon fill="#B99C53" points="268.693,242.055 266.783,243.723 127.076,237.604 128.986,235.936 			"/>
			<polygon fill="#B99C53" points="263.373,246.702 261.464,248.37 121.757,242.251 123.666,240.582 			"/>
			<path fill="#B99C53" d="M118.758,245.247l139.295,6.101l-0.045,0.039c-0.719,0.628-1.504,1.158-2.329,1.608l-137.007-6.001
				C118.514,246.429,118.527,245.814,118.758,245.247z"/>
		</g>
		<g>
			<path fill="#9F8038" d="M104.875,270.005l24.789,21.697c2.508,2.195,5.765,3.34,9.094,3.198l127.754-5.471
				c2.447-0.105,3.514-3.141,1.671-4.754l-24.789-21.697c-2.508-2.195-5.765-3.34-9.094-3.198l-127.754,5.471
				C104.099,265.355,103.032,268.392,104.875,270.005z"/>
			<path fill="#B99C53" d="M130.363,292.256l138.719-5.941c-0.085-0.596-0.367-1.178-0.897-1.641l-0.078-0.069l-139.713,5.983
				l1.271,1.113C129.889,291.898,130.126,292.077,130.363,292.256z"/>
			<polygon fill="#B99C53" points="264.699,281.624 262.791,279.954 123.078,285.937 124.986,287.607 			"/>
			<polygon fill="#B99C53" points="259.384,276.972 257.476,275.302 117.763,281.285 119.671,282.955 			"/>
			<polygon fill="#B99C53" points="254.069,272.32 252.161,270.65 112.448,276.633 114.356,278.303 			"/>
			<polygon fill="#B99C53" points="248.754,267.668 246.846,265.998 107.134,271.982 109.042,273.651 			"/>
			<path fill="#B99C53" d="M104.138,268.982l139.301-5.966l-0.045-0.039c-0.718-0.628-1.503-1.16-2.327-1.611l-137.013,5.868
				C103.895,267.8,103.907,268.415,104.138,268.982z"/>
		</g>
		<g>
			<path fill="#9F8038" d="M159.66,304.551l29.027,15.58c2.937,1.576,5.153,4.223,6.191,7.39l39.789,121.523
				c0.762,2.327-1.705,4.394-3.863,3.236l-29.027-15.58c-2.937-1.576-5.153-4.223-6.191-7.39l-39.789-121.523
				C155.035,305.46,157.502,303.393,159.66,304.551z"/>
			<path fill="#B99C53" d="M189.451,320.59l43.204,131.953c-0.587,0.13-1.231,0.07-1.852-0.263l-0.092-0.049l-43.514-132.899
				l1.489,0.799C188.95,320.272,189.2,320.432,189.451,320.59z"/>
			<polygon fill="#B99C53" points="226.722,450.089 224.488,448.89 180.975,315.992 183.209,317.191 			"/>
			<polygon fill="#B99C53" points="220.499,446.749 218.265,445.55 174.751,312.651 176.985,313.85 			"/>
			<polygon fill="#B99C53" points="214.275,443.409 212.041,442.21 168.528,309.311 170.762,310.51 			"/>
			<polygon fill="#B99C53" points="208.052,440.069 205.818,438.869 162.305,305.971 164.539,307.17 			"/>
			<path fill="#B99C53" d="M158.443,304.221l43.385,132.507l-0.053-0.028c-0.841-0.451-1.614-0.999-2.326-1.613l-42.673-130.33
				C157.251,304.409,157.831,304.204,158.443,304.221z"/>
		</g>
		<g>
			<path fill="#9F8038" d="M210.758,399.347l20.659-25.661c2.09-2.596,5.099-4.288,8.403-4.724l126.772-16.728
				c2.428-0.32,4.005,2.485,2.469,4.393l-20.659,25.661c-2.09,2.596-5.099,4.288-8.404,4.724L213.228,403.74
				C210.799,404.061,209.223,401.255,210.758,399.347z"/>
			<path fill="#B99C53" d="M232.009,373.019l137.652-18.164c0.019,0.601-0.158,1.223-0.6,1.772l-0.065,0.081l-138.639,18.294
				l1.06-1.316C231.605,373.454,231.807,373.237,232.009,373.019z"/>
			<polygon fill="#B99C53" points="366.157,360.235 364.567,362.21 225.929,380.504 227.518,378.529 			"/>
			<polygon fill="#B99C53" points="361.728,365.737 360.138,367.712 221.499,386.006 223.089,384.031 			"/>
			<polygon fill="#B99C53" points="357.299,371.238 355.709,373.213 217.07,391.508 218.66,389.533 			"/>
			<polygon fill="#B99C53" points="352.87,376.74 351.28,378.715 212.641,397.009 214.231,395.034 			"/>
			<path fill="#B99C53" d="M210.21,400.482l138.231-18.24l-0.037,0.047c-0.598,0.743-1.279,1.403-2.013,1.989l-135.96,17.941
				C210.175,401.689,210.081,401.081,210.21,400.482z"/>
		</g>
		<g>
			<path fill="#9F8038" d="M186.29,347.488l26.947,18.951c2.726,1.917,6.086,2.711,9.382,2.217l126.456-18.967
				c2.422-0.363,3.162-3.495,1.159-4.904l-26.947-18.951c-2.726-1.917-6.086-2.711-9.382-2.217l-126.456,18.967
				C185.026,342.947,184.286,346.079,186.29,347.488z"/>
			<path fill="#B99C53" d="M213.99,366.916l137.31-20.595c-0.148-0.583-0.49-1.132-1.066-1.537l-0.085-0.06l-138.294,20.743
				l1.382,0.972C213.481,366.611,213.736,366.762,213.99,366.916z"/>
			<polygon fill="#B99C53" points="346.445,342.12 344.371,340.661 206.078,361.404 208.151,362.862 			"/>
			<polygon fill="#B99C53" points="340.668,338.057 338.594,336.598 200.3,357.341 202.374,358.799 			"/>
			<polygon fill="#B99C53" points="334.89,333.994 332.816,332.535 194.523,353.278 196.597,354.736 			"/>
			<polygon fill="#B99C53" points="329.113,329.931 327.039,328.472 188.745,349.215 190.819,350.673 			"/>
			<path fill="#B99C53" d="M185.449,346.549l137.887-20.682l-0.049-0.034c-0.78-0.549-1.617-0.994-2.485-1.355L185.18,344.82
				C185.082,345.4,185.159,346.01,185.449,346.549z"/>
		</g>
		<g>
			<path fill="#9F8038" d="M192.346,301.275l24.789,21.697c2.508,2.195,5.765,3.34,9.094,3.198l127.754-5.471
				c2.447-0.105,3.514-3.141,1.671-4.754l-24.789-21.697c-2.508-2.195-5.765-3.34-9.094-3.198l-127.754,5.471
				C191.57,296.626,190.503,299.662,192.346,301.275z"/>
			<path fill="#B99C53" d="M217.833,323.527l138.719-5.941c-0.085-0.596-0.367-1.178-0.897-1.641l-0.078-0.069l-139.713,5.983
				l1.271,1.113C217.36,323.169,217.597,323.348,217.833,323.527z"/>
			<polygon fill="#B99C53" points="352.169,312.895 350.261,311.225 210.549,317.208 212.456,318.878 			"/>
			<polygon fill="#B99C53" points="346.854,308.243 344.947,306.573 205.234,312.556 207.142,314.226 			"/>
			<polygon fill="#B99C53" points="341.54,303.591 339.632,301.921 199.919,307.904 201.827,309.574 			"/>
			<polygon fill="#B99C53" points="336.225,298.939 334.317,297.269 194.604,303.252 196.512,304.922 			"/>
			<path fill="#B99C53" d="M191.609,300.253l139.301-5.966l-0.045-0.039c-0.718-0.628-1.503-1.16-2.327-1.611l-137.013,5.868
				C191.366,299.071,191.378,299.686,191.609,300.253z"/>
		</g>
		<g>
			<path fill="#9F8038" d="M132.44,218.2l22.915-23.669c2.318-2.394,5.469-3.804,8.8-3.937l127.77-5.088
				c2.447-0.097,3.762,2.84,2.058,4.6l-22.915,23.669c-2.318,2.394-5.469,3.804-8.8,3.937l-127.77,5.088
				C132.051,222.898,130.737,219.96,132.44,218.2z"/>
			<path fill="#B99C53" d="M156.005,193.922l138.736-5.524c-0.036,0.601-0.269,1.204-0.759,1.71l-0.072,0.075l-139.73,5.564
				l1.175-1.214C155.563,194.317,155.784,194.12,156.005,193.922z"/>
			<polygon fill="#B99C53" points="290.76,193.435 288.997,195.256 149.267,200.82 151.03,198.999 			"/>
			<polygon fill="#B99C53" points="285.847,198.509 284.084,200.331 144.354,205.895 146.117,204.073 			"/>
			<polygon fill="#B99C53" points="280.935,203.583 279.171,205.405 139.441,210.969 141.205,209.148 			"/>
			<polygon fill="#B99C53" points="276.022,208.658 274.258,210.48 134.528,216.044 136.292,214.222 			"/>
			<path fill="#B99C53" d="M131.79,219.28l139.319-5.548l-0.042,0.043c-0.664,0.686-1.402,1.28-2.187,1.797l-137.03,5.456
				C131.645,220.478,131.607,219.865,131.79,219.28z"/>
		</g>
		<g>
			<path fill="#9F8038" d="M289.487,99.773l8.998,31.691c0.91,3.206,0.551,6.64-1.003,9.588l-59.628,113.117
				c-1.142,2.166-4.343,1.832-5.012-0.524l-8.998-31.691c-0.91-3.206-0.551-6.64,1.003-9.588l59.628-113.117
				C285.617,97.082,288.818,97.417,289.487,99.773z"/>
			<path fill="#B99C53" d="M298.687,132.332l-64.746,122.825c-0.502-0.332-0.907-0.836-1.099-1.513l-0.028-0.1l65.21-123.706
				l0.462,1.625C298.566,131.751,298.626,132.042,298.687,132.332z"/>
			<polygon fill="#B99C53" points="231.577,249.188 230.884,246.749 296.094,123.044 296.787,125.483 			"/>
			<polygon fill="#B99C53" points="229.647,242.394 228.955,239.955 294.165,116.249 294.857,118.688 			"/>
			<polygon fill="#B99C53" points="227.718,235.6 227.026,233.16 292.236,109.455 292.928,111.894 			"/>
			<polygon fill="#B99C53" points="225.789,228.805 225.097,226.366 290.306,102.66 290.999,105.099 			"/>
			<path fill="#B99C53" d="M288.878,98.669L223.86,222.01l-0.016-0.057c-0.261-0.918-0.405-1.855-0.459-2.793l63.95-121.315
				C287.914,97.943,288.464,98.218,288.878,98.669z"/>
		</g>
		<g>
			<path fill="#9F8038" d="M355.75,124.098l27.751,17.753c2.807,1.796,4.816,4.604,5.607,7.841l30.381,124.209
				c0.582,2.379-2.036,4.251-4.099,2.931L387.64,259.08c-2.807-1.796-4.816-4.604-5.607-7.841l-30.381-124.209
				C351.069,124.65,353.687,122.778,355.75,124.098z"/>
			<path fill="#B99C53" d="M384.228,142.367l32.989,134.87c-0.596,0.084-1.233-0.024-1.826-0.404l-0.088-0.056l-33.225-135.836
				l1.423,0.911C383.753,142.013,383.99,142.191,384.228,142.367z"/>
			<polygon fill="#B99C53" points="411.489,274.337 409.353,272.971 376.128,137.135 378.264,138.501 			"/>
			<polygon fill="#B99C53" points="405.54,270.531 403.404,269.165 370.178,133.328 372.314,134.695 			"/>
			<polygon fill="#B99C53" points="399.59,266.725 397.454,265.359 364.229,129.522 366.364,130.889 			"/>
			<polygon fill="#B99C53" points="393.64,262.919 391.504,261.552 358.279,125.716 360.415,127.082 			"/>
			<path fill="#B99C53" d="M354.563,123.676l33.128,135.436l-0.05-0.032c-0.804-0.514-1.533-1.119-2.196-1.786l-32.583-133.211
				C353.36,123.772,353.954,123.613,354.563,123.676z"/>
		</g>
		<g>
			<path fill="#9F8038" d="M205.929,253.821l31.29-10.305c3.166-1.043,6.611-0.826,9.621,0.604l115.494,54.883
				c2.212,1.051,2.01,4.263-0.316,5.029l-31.29,10.305c-3.165,1.043-6.611,0.826-9.621-0.604l-115.494-54.883
				C203.401,257.799,203.602,254.587,205.929,253.821z"/>
			<path fill="#B99C53" d="M238.078,243.278l125.406,59.594c-0.311,0.515-0.798,0.941-1.466,1.161l-0.099,0.033l-126.305-60.021
				l1.605-0.529C237.503,243.422,237.791,243.351,238.078,243.278z"/>
			<polygon fill="#B99C53" points="357.619,305.482 355.21,306.275 228.906,246.254 231.314,245.461 			"/>
			<polygon fill="#B99C53" points="350.91,307.691 348.502,308.484 222.197,248.463 224.605,247.67 			"/>
			<polygon fill="#B99C53" points="344.201,309.901 341.793,310.694 215.488,250.673 217.897,249.88 			"/>
			<polygon fill="#B99C53" points="337.493,312.11 335.085,312.903 208.78,252.882 211.188,252.089 			"/>
			<path fill="#B99C53" d="M204.851,254.475l125.933,59.844l-0.057,0.019c-0.906,0.298-1.836,0.482-2.771,0.575l-123.864-58.861
				C204.166,255.469,204.417,254.908,204.851,254.475z"/>
		</g>
		<g>
			<path fill="#9F8038" d="M386.015,434.517l-28.111-17.178c-2.844-1.738-4.909-4.504-5.768-7.724l-32.934-123.557
				c-0.631-2.366,1.948-4.292,4.038-3.015l28.111,17.178c2.844,1.738,4.909,4.504,5.768,7.724l32.934,123.557
				C390.684,433.869,388.105,435.794,386.015,434.517z"/>
			<path fill="#B99C53" d="M357.167,416.838l-35.76-134.162c0.594-0.097,1.233-0.001,1.834,0.366l0.089,0.054l36.017,135.123
				l-1.442-0.881C357.65,417.184,357.409,417.01,357.167,416.838z"/>
			<polygon fill="#B99C53" points="327.193,285.458 329.356,286.78 365.373,421.903 363.21,420.581 			"/>
			<polygon fill="#B99C53" points="333.22,289.141 335.383,290.463 371.4,425.586 369.236,424.264 			"/>
			<polygon fill="#B99C53" points="339.247,292.824 341.41,294.146 377.427,429.269 375.263,427.947 			"/>
			<polygon fill="#B99C53" points="345.273,296.507 347.437,297.829 383.454,432.952 381.29,431.63 			"/>
			<path fill="#B99C53" d="M387.211,434.915L351.3,300.19l0.051,0.031c0.814,0.498,1.556,1.088,2.232,1.74l35.321,132.512
				C388.412,434.794,387.821,434.966,387.211,434.915z"/>
		</g>
		<g>
			<path fill="#9F8038" d="M371.908,236.462l-25.261,13.211c-2.556,1.337-5.254,1.524-7.537,0.522l-87.558-38.413
				c-1.677-0.736-1.322-3.772,0.556-4.754l25.261-13.211c2.556-1.337,5.254-1.524,7.537-0.522l87.558,38.413
				C374.141,232.443,373.786,235.48,371.908,236.462z"/>
			<path fill="#B99C53" d="M345.956,249.993l-95.072-41.71c0.276-0.518,0.685-0.973,1.225-1.255l0.08-0.042l95.754,42.009
				l-1.296,0.678C346.418,249.793,346.187,249.892,345.956,249.993z"/>
			<polygon fill="#B99C53" points="255.661,205.17 257.605,204.154 353.359,246.163 351.415,247.18 			"/>
			<polygon fill="#B99C53" points="261.077,202.338 263.021,201.321 358.775,243.33 356.83,244.347 			"/>
			<polygon fill="#B99C53" points="266.492,199.505 268.437,198.489 364.19,240.498 362.246,241.515 			"/>
			<polygon fill="#B99C53" points="271.908,196.673 273.853,195.656 369.606,237.665 367.662,238.682 			"/>
			<path fill="#B99C53" d="M372.796,235.726l-95.472-41.886l0.046-0.024c0.732-0.383,1.475-0.66,2.217-0.853l93.903,41.197
				C373.396,234.716,373.164,235.271,372.796,235.726z"/>
		</g>
		<g>
			<path fill="#9F8038" d="M284.723,250.624l27.056-8.979c2.737-0.908,5.431-0.659,7.522,0.696l80.246,51.986
				c1.537,0.996,0.698,3.935-1.313,4.603l-27.056,8.979c-2.737,0.908-5.431,0.659-7.522-0.696l-80.246-51.986
				C281.873,254.231,282.712,251.291,284.723,250.624z"/>
			<path fill="#B99C53" d="M312.512,241.439l87.133,56.448c-0.356,0.467-0.833,0.85-1.411,1.042l-0.085,0.028l-87.757-56.853
				l1.388-0.461C312.024,241.563,312.268,241.502,312.512,241.439z"/>
			<polygon fill="#B99C53" points="394.43,300.192 392.348,300.883 304.59,244.03 306.673,243.339 			"/>
			<polygon fill="#B99C53" points="388.629,302.117 386.547,302.808 298.79,245.955 300.872,245.264 			"/>
			<polygon fill="#B99C53" points="382.829,304.042 380.746,304.733 292.989,247.881 295.071,247.189 			"/>
			<polygon fill="#B99C53" points="377.028,305.967 374.946,306.658 287.188,249.806 289.271,249.115 			"/>
			<path fill="#B99C53" d="M283.728,251.207l87.499,56.685l-0.049,0.016c-0.784,0.26-1.562,0.414-2.325,0.486l-86.061-55.754
				C282.974,252.107,283.292,251.597,283.728,251.207z"/>
		</g>
		<g>
			<path fill="#9F8038" d="M168.384,276.688l31.48,9.711c3.185,0.982,5.869,3.153,7.495,6.062l62.402,111.61
				c1.195,2.138-0.829,4.64-3.169,3.918l-31.48-9.711c-3.185-0.982-5.869-3.153-7.495-6.062l-62.402-111.61
				C164.02,278.469,166.044,275.966,168.384,276.688z"/>
			<path fill="#B99C53" d="M200.703,286.702l67.758,121.19c-0.552,0.24-1.195,0.305-1.868,0.098l-0.099-0.031L198.25,285.901
				l1.615,0.498C200.15,286.487,200.426,286.595,200.703,286.702z"/>
			<polygon fill="#B99C53" points="262.167,406.624 259.744,405.877 191.501,283.819 193.923,284.566 			"/>
			<polygon fill="#B99C53" points="255.418,404.543 252.995,403.795 184.751,281.737 187.174,282.484 			"/>
			<polygon fill="#B99C53" points="248.669,402.461 246.246,401.713 178.002,279.655 180.425,280.402 			"/>
			<polygon fill="#B99C53" points="241.92,400.379 239.497,399.631 171.253,277.573 173.676,278.32 			"/>
			<path fill="#B99C53" d="M167.127,276.598l68.043,121.699l-0.057-0.018c-0.912-0.281-1.776-0.67-2.593-1.136l-66.925-119.699
				C165.994,277.011,166.523,276.699,167.127,276.598z"/>
		</g>
		<g>
			<path fill="#9F8038" d="M387.625,344.785l-20.676-22.887c-2.092-2.315-3.106-5.225-2.832-8.126l10.519-111.292
				c0.201-2.131,3.274-2.892,4.811-1.19l20.676,22.887c2.092,2.315,3.106,5.225,2.832,8.126l-10.519,111.292
				C392.235,345.727,389.162,346.487,387.625,344.785z"/>
			<path fill="#B99C53" d="M366.423,321.256l11.421-120.844c0.591,0.108,1.161,0.388,1.603,0.877l0.065,0.072l-11.503,121.711
				l-1.061-1.174C366.761,321.69,366.593,321.473,366.423,321.256z"/>
			<polygon fill="#B99C53" points="382.354,204.507 383.945,206.268 372.442,327.979 370.851,326.217 			"/>
			<polygon fill="#B99C53" points="386.787,209.414 388.378,211.175 376.875,332.886 375.284,331.124 			"/>
			<polygon fill="#B99C53" points="391.22,214.321 392.811,216.082 381.308,337.793 379.717,336.031 			"/>
			<polygon fill="#B99C53" points="395.653,219.228 397.244,220.989 385.741,342.7 384.15,340.938 			"/>
			<path fill="#B99C53" d="M388.616,345.487l11.469-121.352l0.038,0.042c0.599,0.663,1.098,1.379,1.516,2.125l-11.281,119.358
				C389.787,345.766,389.174,345.721,388.616,345.487z"/>
		</g>
		<g>
			<path fill="#B99C53" d="M422.029,146.493l-20.64-22.92c-2.088-2.319-4.879-3.627-7.792-3.652l-111.784-0.979
				c-2.141-0.019-3.213,2.96-1.679,4.664l20.64,22.92c2.088,2.319,4.879,3.627,7.792,3.652l111.784,0.979
				C422.492,151.176,423.564,148.197,422.029,146.493z"/>
			<path fill="#DFBE64" d="M400.805,122.985l-121.378-1.063c0.047,0.599,0.266,1.195,0.708,1.684l0.065,0.072l122.248,1.071
				l-1.059-1.176C401.202,123.366,401.003,123.176,400.805,122.985z"/>
			<polygon fill="#DFBE64" points="283.036,126.828 284.625,128.592 406.873,129.663 405.284,127.899 			"/>
			<polygon fill="#DFBE64" points="287.461,131.742 289.05,133.506 411.298,134.577 409.71,132.813 			"/>
			<polygon fill="#DFBE64" points="291.886,136.656 293.475,138.42 415.723,139.491 414.135,137.727 			"/>
			<polygon fill="#DFBE64" points="296.312,141.57 297.9,143.334 420.148,144.405 418.56,142.641 			"/>
			<path fill="#DFBE64" d="M422.625,147.552l-121.888-1.068l0.037,0.042c0.598,0.664,1.258,1.234,1.958,1.726l119.886,1.05
				C422.783,148.745,422.801,148.13,422.625,147.552z"/>
		</g>
		<g>
			<path fill="#B99C53" d="M443.225,244.024l-24.811-21.673c-2.51-2.193-5.768-3.335-9.097-3.189l-127.748,5.596
				c-2.447,0.107-3.511,3.144-1.667,4.756l24.811,21.673c2.51,2.193,5.768,3.335,9.097,3.189l127.748-5.596
				C444.005,248.672,445.07,245.635,443.225,244.024z"/>
			<path fill="#DFBE64" d="M417.716,221.797l-138.713,6.076c0.086,0.595,0.369,1.177,0.899,1.64l0.078,0.068l139.707-6.119
				l-1.273-1.112C418.19,222.154,417.952,221.976,417.716,221.797z"/>
			<polygon fill="#DFBE64" points="283.39,232.56 285.3,234.228 425.006,228.109 423.097,226.441 			"/>
			<polygon fill="#DFBE64" points="288.709,237.207 290.619,238.875 430.326,232.756 428.416,231.088 			"/>
			<polygon fill="#DFBE64" points="294.029,241.854 295.938,243.522 435.645,237.402 433.736,235.734 			"/>
			<polygon fill="#DFBE64" points="299.348,246.5 301.258,248.168 440.964,242.049 439.055,240.381 			"/>
			<path fill="#DFBE64" d="M443.963,245.046l-139.295,6.101l0.045,0.039c0.719,0.628,1.504,1.158,2.329,1.608l137.007-6.001
				C444.207,246.228,444.194,245.613,443.963,245.046z"/>
		</g>
		<g>
			<path fill="#B99C53" d="M457.846,269.803L433.057,291.5c-2.508,2.195-5.765,3.34-9.094,3.198l-127.754-5.471
				c-2.447-0.105-3.514-3.141-1.671-4.754l24.789-21.697c2.508-2.195,5.765-3.34,9.094-3.198l127.754,5.471
				C458.622,265.154,459.689,268.19,457.846,269.803z"/>
			<path fill="#DFBE64" d="M432.359,292.055l-138.719-5.941c0.085-0.596,0.367-1.177,0.897-1.641l0.078-0.069l139.713,5.983
				l-1.271,1.113C432.832,291.697,432.595,291.875,432.359,292.055z"/>
			<polygon fill="#DFBE64" points="298.023,281.422 299.931,279.752 439.643,285.736 437.735,287.405 			"/>
			<polygon fill="#DFBE64" points="303.337,276.77 305.245,275.1 444.958,281.084 443.05,282.754 			"/>
			<polygon fill="#DFBE64" points="308.652,272.118 310.56,270.448 450.273,276.432 448.365,278.102 			"/>
			<polygon fill="#DFBE64" points="313.967,267.466 315.875,265.797 455.588,271.78 453.68,273.45 			"/>
			<path fill="#DFBE64" d="M458.583,268.78l-139.301-5.966l0.045-0.039c0.718-0.628,1.503-1.16,2.327-1.611l137.013,5.868
				C458.826,267.598,458.814,268.213,458.583,268.78z"/>
		</g>
		<g>
			<path fill="#B99C53" d="M500.807,233.57l-32.942,0.337c-3.333,0.034-6.524,1.35-8.912,3.675l-91.621,89.199
				c-1.755,1.708-0.528,4.684,1.921,4.659l32.942-0.337c3.333-0.034,6.524-1.35,8.912-3.675l91.621-89.199
				C504.483,236.52,503.256,233.545,500.807,233.57z"/>
			<path fill="#DFBE64" d="M466.975,233.959l-99.485,96.855c0.46,0.387,1.058,0.633,1.763,0.626l0.104-0.001l100.198-97.549
				l-1.69,0.017C467.566,233.91,467.27,233.935,466.975,233.959z"/>
			<polygon fill="#DFBE64" points="373.884,331.392 376.419,331.367 476.617,233.817 474.082,233.843 			"/>
			<polygon fill="#DFBE64" points="380.947,331.32 383.482,331.294 483.68,233.745 481.144,233.771 			"/>
			<polygon fill="#DFBE64" points="388.009,331.248 390.545,331.222 490.742,233.673 488.207,233.699 			"/>
			<polygon fill="#DFBE64" points="395.072,331.176 397.607,331.15 497.805,233.601 495.27,233.627 			"/>
			<path fill="#DFBE64" d="M502.037,233.842l-99.903,97.262l0.06-0.001c0.954-0.01,1.893-0.136,2.809-0.35l98.261-95.664
				C503.006,234.561,502.587,234.111,502.037,233.842z"/>
		</g>
		<g>
			<path fill="#B99C53" d="M370.981,401.06l-20.659-25.661c-2.09-2.596-5.099-4.288-8.403-4.724l-126.772-16.728
				c-2.428-0.32-4.005,2.485-2.469,4.393l20.659,25.661c2.09,2.596,5.099,4.288,8.403,4.724l126.772,16.728
				C370.94,405.774,372.517,402.968,370.981,401.06z"/>
			<path fill="#DFBE64" d="M349.731,374.732l-137.652-18.164c-0.019,0.601,0.158,1.223,0.6,1.772l0.065,0.081l138.639,18.294
				l-1.06-1.316C350.135,375.167,349.932,374.95,349.731,374.732z"/>
			<polygon fill="#DFBE64" points="215.583,361.948 217.173,363.923 355.811,382.217 354.222,380.242 			"/>
			<polygon fill="#DFBE64" points="220.012,367.45 221.602,369.425 360.241,387.719 358.651,385.744 			"/>
			<polygon fill="#DFBE64" points="224.441,372.951 226.031,374.926 364.67,393.22 363.08,391.246 			"/>
			<polygon fill="#DFBE64" points="228.87,378.453 230.46,380.428 369.099,398.722 367.509,396.747 			"/>
			<path fill="#DFBE64" d="M371.53,402.195l-138.231-18.24l0.037,0.047c0.598,0.743,1.279,1.403,2.013,1.989l135.96,17.941
				C371.565,403.401,371.659,402.794,371.53,402.195z"/>
		</g>
		<g>
			<path fill="#B99C53" d="M376.432,347.287l-26.947,18.951c-2.726,1.917-6.086,2.711-9.382,2.217l-126.456-18.967
				c-2.422-0.363-3.162-3.495-1.159-4.904l26.947-18.951c2.726-1.917,6.086-2.711,9.382-2.217l126.456,18.967
				C377.695,342.746,378.435,345.878,376.432,347.287z"/>
			<path fill="#DFBE64" d="M348.731,366.715l-137.31-20.595c0.148-0.583,0.49-1.132,1.066-1.537l0.085-0.06l138.294,20.743
				l-1.382,0.972C349.24,366.409,348.985,366.561,348.731,366.715z"/>
			<polygon fill="#DFBE64" points="216.276,341.918 218.35,340.46 356.644,361.202 354.57,362.661 			"/>
			<polygon fill="#DFBE64" points="222.053,337.855 224.127,336.397 362.421,357.139 360.347,358.598 			"/>
			<polygon fill="#DFBE64" points="227.831,333.792 229.905,332.334 368.199,353.076 366.125,354.535 			"/>
			<polygon fill="#DFBE64" points="233.608,329.729 235.683,328.271 373.976,349.013 371.902,350.472 			"/>
			<path fill="#DFBE64" d="M377.273,346.348l-137.887-20.682l0.049-0.034c0.78-0.549,1.617-0.994,2.485-1.355l135.621,20.342
				C377.639,345.198,377.562,345.808,377.273,346.348z"/>
		</g>
		<g>
			<path fill="#B99C53" d="M370.376,301.074l-24.789,21.697c-2.508,2.195-5.765,3.34-9.094,3.198l-127.754-5.471
				c-2.447-0.105-3.514-3.141-1.671-4.754l24.789-21.697c2.508-2.195,5.765-3.34,9.094-3.198l127.754,5.471
				C371.151,296.425,372.219,299.461,370.376,301.074z"/>
			<path fill="#DFBE64" d="M344.888,323.326l-138.719-5.941c0.085-0.596,0.367-1.177,0.897-1.641l0.078-0.069l139.713,5.983
				l-1.271,1.113C345.362,322.968,345.124,323.146,344.888,323.326z"/>
			<polygon fill="#DFBE64" points="210.552,312.693 212.46,311.023 352.172,317.007 350.265,318.676 			"/>
			<polygon fill="#DFBE64" points="215.867,308.041 217.775,306.371 357.487,312.355 355.58,314.025 			"/>
			<polygon fill="#DFBE64" points="221.182,303.389 223.089,301.719 362.802,307.703 360.894,309.373 			"/>
			<polygon fill="#DFBE64" points="226.496,298.737 228.404,297.068 368.117,303.051 366.209,304.721 			"/>
			<path fill="#DFBE64" d="M371.113,300.051l-139.301-5.966l0.045-0.039c0.718-0.628,1.503-1.16,2.327-1.611l137.013,5.868
				C371.356,298.869,371.343,299.484,371.113,300.051z"/>
		</g>
		<g>
			<path fill="#B99C53" d="M458.319,194.088l-22.915-23.669c-2.318-2.394-5.469-3.804-8.8-3.937l-127.77-5.088
				c-2.447-0.097-3.762,2.84-2.058,4.6l22.915,23.669c2.318,2.394,5.469,3.804,8.8,3.937l127.77,5.088
				C458.709,198.786,460.023,195.848,458.319,194.088z"/>
			<path fill="#DFBE64" d="M434.754,169.81l-138.736-5.524c0.036,0.601,0.269,1.204,0.759,1.71l0.072,0.075l139.73,5.564
				l-1.175-1.214C435.197,170.205,434.975,170.008,434.754,169.81z"/>
			<polygon fill="#DFBE64" points="299.999,169.323 301.763,171.144 441.493,176.708 439.729,174.887 			"/>
			<polygon fill="#DFBE64" points="304.912,174.397 306.676,176.219 446.406,181.783 444.642,179.961 			"/>
			<polygon fill="#DFBE64" points="309.825,179.472 311.588,181.293 451.318,186.857 449.555,185.036 			"/>
			<polygon fill="#DFBE64" points="314.738,184.546 316.501,186.368 456.231,191.932 454.468,190.11 			"/>
			<path fill="#DFBE64" d="M458.969,195.168l-139.319-5.548l0.042,0.043c0.664,0.686,1.402,1.28,2.187,1.797l137.03,5.456
				C459.114,196.366,459.152,195.753,458.969,195.168z"/>
		</g>
		<g>
			<path fill="#B99C53" d="M238.356,87.309L229.358,119c-0.91,3.206-0.551,6.64,1.003,9.588l59.628,113.117
				c1.142,2.166,4.343,1.832,5.012-0.524l8.998-31.691c0.91-3.206,0.551-6.64-1.003-9.588L243.368,86.785
				C242.226,84.618,239.025,84.953,238.356,87.309z"/>
			<path fill="#DFBE64" d="M229.155,119.868l64.746,122.825c0.502-0.332,0.907-0.836,1.099-1.513l0.028-0.1l-65.21-123.706
				L229.358,119C229.276,119.287,229.217,119.578,229.155,119.868z"/>
			<polygon fill="#DFBE64" points="296.266,236.725 296.958,234.286 231.748,110.58 231.056,113.019 			"/>
			<polygon fill="#DFBE64" points="298.195,229.93 298.888,227.491 233.678,103.785 232.985,106.225 			"/>
			<polygon fill="#DFBE64" points="300.124,223.136 300.817,220.697 235.607,96.991 234.914,99.43 			"/>
			<polygon fill="#DFBE64" points="302.054,216.341 302.746,213.902 237.536,90.197 236.844,92.636 			"/>
			<path fill="#DFBE64" d="M238.965,86.205l65.018,123.341l0.016-0.057c0.261-0.918,0.405-1.855,0.459-2.793l-63.95-121.315
				C239.929,85.48,239.379,85.754,238.965,86.205z"/>
		</g>
		<g>
			<path fill="#B99C53" d="M206.971,123.897L179.22,141.65c-2.807,1.796-4.816,4.604-5.607,7.841l-30.381,124.209
				c-0.582,2.379,2.036,4.251,4.099,2.931l27.751-17.753c2.807-1.796,4.816-4.604,5.607-7.841l30.381-124.209
				C211.652,124.449,209.034,122.577,206.971,123.897z"/>
			<path fill="#DFBE64" d="M178.493,142.166l-32.989,134.87c0.596,0.084,1.233-0.024,1.826-0.404l0.088-0.056l33.225-135.836
				l-1.423,0.911C178.969,141.811,178.731,141.989,178.493,142.166z"/>
			<polygon fill="#DFBE64" points="151.232,274.136 153.368,272.77 186.593,136.933 184.457,138.3 			"/>
			<polygon fill="#DFBE64" points="157.182,270.33 159.318,268.963 192.543,133.127 190.407,134.493 			"/>
			<polygon fill="#DFBE64" points="163.131,266.523 165.267,265.157 198.493,129.321 196.357,130.687 			"/>
			<polygon fill="#DFBE64" points="169.081,262.717 171.217,261.351 204.442,125.514 202.307,126.881 			"/>
			<path fill="#DFBE64" d="M208.158,123.474l-33.128,135.436l0.05-0.032c0.804-0.514,1.533-1.119,2.196-1.786l32.583-133.211
				C209.361,123.571,208.768,123.411,208.158,123.474z"/>
		</g>
		<g>
			<path fill="#B99C53" d="M333.612,405.435l-31.437-9.85c-3.18-0.996-6.622-0.73-9.611,0.744l-114.684,56.557
				c-2.196,1.083-1.948,4.292,0.389,5.024l31.437,9.85c3.18,0.996,6.622,0.73,9.611-0.744l114.683-56.557
				C336.198,409.375,335.949,406.167,333.612,405.435z"/>
			<path fill="#DFBE64" d="M301.313,395.359L176.786,456.77c0.318,0.511,0.811,0.929,1.483,1.14l0.099,0.031l125.419-61.851
				l-1.612-0.505C301.891,395.496,301.602,395.429,301.313,395.359z"/>
			<polygon fill="#DFBE64" points="182.689,459.295 185.109,460.053 310.528,398.202 308.108,397.444 			"/>
			<polygon fill="#DFBE64" points="189.429,461.406 191.849,462.164 317.268,400.314 314.848,399.556 			"/>
			<polygon fill="#DFBE64" points="196.169,463.518 198.589,464.276 324.008,402.425 321.588,401.667 			"/>
			<polygon fill="#DFBE64" points="202.909,465.63 205.329,466.388 330.748,404.537 328.328,403.779 			"/>
			<path fill="#DFBE64" d="M334.699,406.073l-125.05,61.669l0.057,0.018c0.911,0.285,1.843,0.455,2.779,0.535l122.995-60.655
				C335.399,407.056,335.139,406.499,334.699,406.073z"/>
		</g>
		<g>
			<path fill="#B99C53" d="M81.974,360.743l27.766,17.729c2.809,1.794,6.201,2.437,9.471,1.796l125.484-24.59
				c2.403-0.471,3.003-3.633,0.939-4.951l-27.766-17.729c-2.809-1.794-6.201-2.437-9.471-1.796l-125.484,24.59
				C80.509,356.263,79.91,359.426,81.974,360.743z"/>
			<path fill="#DFBE64" d="M110.513,378.916l136.254-26.701c-0.174-0.576-0.54-1.109-1.133-1.488l-0.088-0.056l-137.231,26.892
				l1.424,0.909C109.992,378.634,110.253,378.774,110.513,378.916z"/>
			<polygon fill="#DFBE64" points="241.73,348.235 239.593,346.87 102.363,373.762 104.5,375.127 			"/>
			<polygon fill="#DFBE64" points="235.778,344.434 233.641,343.069 96.41,369.961 98.547,371.326 			"/>
			<polygon fill="#DFBE64" points="229.825,340.633 227.688,339.268 90.457,366.16 92.594,367.525 			"/>
			<polygon fill="#DFBE64" points="223.872,336.831 221.734,335.467 84.504,362.359 86.641,363.723 			"/>
			<path fill="#DFBE64" d="M81.092,359.843l136.827-26.813l-0.05-0.032c-0.804-0.513-1.66-0.921-2.543-1.243L80.747,358.128
				C80.674,358.711,80.779,359.317,81.092,359.843z"/>
		</g>
		<g>
			<path fill="#B99C53" d="M190.813,236.26l25.261,13.211c2.556,1.337,5.254,1.524,7.537,0.522l87.558-38.413
				c1.677-0.736,1.322-3.772-0.556-4.754l-25.261-13.211c-2.556-1.337-5.254-1.524-7.536-0.522l-87.558,38.413
				C188.58,232.242,188.935,235.278,190.813,236.26z"/>
			<path fill="#DFBE64" d="M216.765,249.792l95.072-41.71c-0.276-0.518-0.685-0.973-1.225-1.255l-0.08-0.042l-95.754,42.009
				l1.296,0.678C216.303,249.591,216.534,249.691,216.765,249.792z"/>
			<polygon fill="#DFBE64" points="307.06,204.969 305.116,203.952 209.363,245.961 211.307,246.978 			"/>
			<polygon fill="#DFBE64" points="301.645,202.136 299.7,201.12 203.947,243.129 205.891,244.146 			"/>
			<polygon fill="#DFBE64" points="296.229,199.304 294.285,198.287 198.531,240.296 200.475,241.313 			"/>
			<polygon fill="#DFBE64" points="290.813,196.471 288.869,195.455 193.115,237.464 195.059,238.481 			"/>
			<path fill="#DFBE64" d="M189.925,235.525l95.472-41.886l-0.046-0.024c-0.732-0.383-1.475-0.66-2.217-0.853l-93.903,41.197
				C189.325,234.515,189.557,235.07,189.925,235.525z"/>
		</g>
		<g>
			<path fill="#B99C53" d="M277.998,250.422l-27.056-8.979c-2.737-0.908-5.431-0.659-7.523,0.696l-80.246,51.986
				c-1.537,0.996-0.698,3.935,1.313,4.603l27.056,8.979c2.737,0.908,5.431,0.659,7.522-0.696l80.246-51.986
				C280.848,254.03,280.009,251.09,277.998,250.422z"/>
			<path fill="#DFBE64" d="M250.209,241.238l-87.133,56.448c0.356,0.467,0.833,0.85,1.411,1.042l0.085,0.028l87.757-56.853
				l-1.388-0.461C250.697,241.362,250.453,241.3,250.209,241.238z"/>
			<polygon fill="#DFBE64" points="168.291,299.99 170.374,300.681 258.131,243.829 256.049,243.138 			"/>
			<polygon fill="#DFBE64" points="174.092,301.915 176.174,302.606 263.932,245.754 261.849,245.063 			"/>
			<polygon fill="#DFBE64" points="179.893,303.84 181.975,304.532 269.732,247.679 267.65,246.988 			"/>
			<polygon fill="#DFBE64" points="185.693,305.766 187.776,306.457 275.533,249.604 273.451,248.913 			"/>
			<path fill="#DFBE64" d="M278.993,251.006l-87.499,56.685l0.049,0.016c0.784,0.26,1.562,0.414,2.325,0.486l86.061-55.754
				C279.747,251.906,279.429,251.395,278.993,251.006z"/>
		</g>
		<g>
			<path fill="#B99C53" d="M478.184,293.129l-31.48,9.711c-3.185,0.982-5.869,3.153-7.495,6.062l-62.402,111.61
				c-1.195,2.138,0.829,4.64,3.169,3.918l31.48-9.711c3.185-0.982,5.869-3.153,7.495-6.062l62.402-111.61
				C482.548,294.91,480.524,292.407,478.184,293.129z"/>
			<path fill="#DFBE64" d="M445.866,303.143l-67.758,121.19c0.552,0.24,1.195,0.305,1.868,0.098l0.099-0.031l68.244-122.058
				l-1.615,0.498C446.419,302.928,446.142,303.036,445.866,303.143z"/>
			<polygon fill="#DFBE64" points="384.401,423.065 386.824,422.318 455.068,300.26 452.645,301.007 			"/>
			<polygon fill="#DFBE64" points="391.15,420.984 393.573,420.236 461.817,298.178 459.394,298.925 			"/>
			<polygon fill="#DFBE64" points="397.9,418.902 400.322,418.154 468.566,296.096 466.143,296.843 			"/>
			<polygon fill="#DFBE64" points="404.649,416.82 407.072,416.072 475.316,294.014 472.893,294.762 			"/>
			<path fill="#DFBE64" d="M479.441,293.039l-68.043,121.699l0.057-0.018c0.912-0.281,1.776-0.67,2.593-1.136l66.925-119.699
				C480.575,293.452,480.045,293.14,479.441,293.039z"/>
		</g>
		<g>
			<path fill="#B99C53" d="M121.248,334.393l20.676-22.887c2.092-2.315,3.106-5.225,2.832-8.126l-10.519-111.292
				c-0.201-2.131-3.274-2.892-4.812-1.19l-20.676,22.887c-2.092,2.315-3.106,5.225-2.832,8.126l10.519,111.292
				C116.638,335.335,119.711,336.095,121.248,334.393z"/>
			<path fill="#DFBE64" d="M142.45,310.865L131.029,190.02c-0.591,0.108-1.161,0.388-1.603,0.877l-0.065,0.072l11.503,121.711
				l1.061-1.174C142.112,311.299,142.28,311.081,142.45,310.865z"/>
			<polygon fill="#DFBE64" points="126.519,194.115 124.928,195.876 136.431,317.587 138.023,315.826 			"/>
			<polygon fill="#DFBE64" points="122.086,199.022 120.495,200.783 131.998,322.494 133.59,320.732 			"/>
			<polygon fill="#DFBE64" points="117.653,203.929 116.062,205.69 127.565,327.401 129.157,325.639 			"/>
			<polygon fill="#DFBE64" points="113.22,208.836 111.629,210.597 123.132,332.308 124.724,330.546 			"/>
			<path fill="#DFBE64" d="M120.257,335.095l-11.469-121.352l-0.038,0.041c-0.599,0.663-1.098,1.379-1.516,2.125l11.281,119.358
				C119.087,335.375,119.7,335.329,120.257,335.095z"/>
		</g>
		<g>
			<path fill="#DFBE64" d="M264.952,70.764l-29.59,8.705c-2.994,0.881-5.379,2.832-6.661,5.448l-49.203,100.378
				c-0.942,1.922,1.28,4.177,3.48,3.53l29.59-8.705c2.994-0.881,5.379-2.832,6.661-5.448l49.203-100.378
				C269.374,72.371,267.151,70.117,264.952,70.764z"/>
			<path fill="#F8D680" d="M234.578,79.741l-53.426,108.993c0.56,0.217,1.192,0.276,1.825,0.09l0.093-0.027l53.809-109.774
				l-1.518,0.446C235.094,79.548,234.836,79.645,234.578,79.741z"/>
			<polygon fill="#F8D680" points="187.138,187.6 189.415,186.93 243.223,77.156 240.946,77.826 			"/>
			<polygon fill="#F8D680" points="193.482,185.734 195.759,185.064 249.568,75.29 247.29,75.96 			"/>
			<polygon fill="#F8D680" points="199.825,183.868 202.103,183.198 255.911,73.423 253.634,74.093 			"/>
			<polygon fill="#F8D680" points="206.169,182.001 208.447,181.331 262.255,71.557 259.978,72.227 			"/>
			<path fill="#F8D680" d="M266.164,70.684l-53.65,109.451l0.054-0.016c0.857-0.252,1.657-0.601,2.403-1.019l52.769-107.653
				C267.308,71.057,266.761,70.776,266.164,70.684z"/>
		</g>
		<g>
			<path fill="#DFBE64" d="M366.323,139.79l-32.836,2.658c-3.322,0.269-6.413,1.807-8.631,4.294l-85.105,95.437
				c-1.63,1.828-0.196,4.709,2.245,4.512l32.836-2.658c3.322-0.269,6.413-1.807,8.631-4.294l85.105-95.437
				C370.198,142.473,368.764,139.592,366.323,139.79z"/>
			<path fill="#F8D680" d="M332.602,142.562L240.193,246.19c0.486,0.354,1.1,0.557,1.802,0.5l0.104-0.008l93.071-104.37
				l-1.684,0.136C333.189,142.472,332.896,142.518,332.602,142.562z"/>
			<polygon fill="#F8D680" points="246.612,246.317 249.14,246.112 342.211,141.742 339.684,141.946 			"/>
			<polygon fill="#F8D680" points="253.652,245.747 256.18,245.542 349.251,141.172 346.724,141.376 			"/>
			<polygon fill="#F8D680" points="260.692,245.177 263.22,244.972 356.291,140.602 353.764,140.806 			"/>
			<polygon fill="#F8D680" points="267.732,244.607 270.26,244.402 363.331,140.032 360.804,140.236 			"/>
			<path fill="#F8D680" d="M367.57,139.974l-92.797,104.063l0.06-0.005c0.951-0.077,1.879-0.269,2.777-0.547l91.272-102.353
				C368.587,140.623,368.137,140.203,367.57,139.974z"/>
		</g>
		<g>
			<path fill="#DFBE64" d="M394.993,147.296l-1.746,32.897c-0.177,3.328-1.628,6.46-4.053,8.747l-93.038,87.721
				c-1.782,1.68-4.702,0.327-4.572-2.119l1.746-32.897c0.177-3.328,1.628-6.46,4.053-8.747l93.038-87.721
				C392.203,143.497,395.123,144.85,394.993,147.296z"/>
			<path fill="#F8D680" d="M393.157,181.08L292.134,276.33c-0.367-0.476-0.587-1.085-0.55-1.788l0.005-0.104l101.747-95.932
				l-0.09,1.687C393.231,180.492,393.193,180.786,393.157,181.08z"/>
			<polygon fill="#F8D680" points="291.83,269.917 291.964,267.385 393.711,171.453 393.577,173.985 			"/>
			<polygon fill="#F8D680" points="292.204,262.864 292.338,260.332 394.086,164.4 393.951,166.932 			"/>
			<polygon fill="#F8D680" points="292.578,255.811 292.713,253.279 394.46,157.347 394.325,159.879 			"/>
			<polygon fill="#F8D680" points="292.953,248.758 293.087,246.226 394.834,150.294 394.7,152.826 			"/>
			<path fill="#F8D680" d="M394.775,146.055l-101.447,95.65l0.003-0.06c0.051-0.953,0.217-1.886,0.469-2.791l99.781-94.078
				C394.097,145.056,394.529,145.494,394.775,146.055z"/>
		</g>
		<g>
			<path fill="#DFBE64" d="M399,91.239l-22.738,23.838c-2.3,2.412-3.584,5.616-3.584,8.949v127.871c0,2.449,2.988,3.646,4.678,1.873
				l22.738-23.838c2.3-2.412,3.584-5.616,3.584-8.949V93.113C403.678,90.663,400.69,89.467,399,91.239z"/>
			<path fill="#F8D680" d="M375.678,115.751v138.846c0.599-0.06,1.192-0.317,1.678-0.826l0.072-0.075V113.855l-1.166,1.223
				C376.056,115.294,375.868,115.523,375.678,115.751z"/>
			<polygon fill="#F8D680" points="380.553,250.419 382.303,248.585 382.303,108.744 380.553,110.579 			"/>
			<polygon fill="#F8D680" points="385.428,245.309 387.178,243.474 387.178,103.633 385.428,105.468 			"/>
			<polygon fill="#F8D680" points="390.303,240.198 392.053,238.363 392.053,98.522 390.303,100.357 			"/>
			<polygon fill="#F8D680" points="395.178,235.087 396.928,233.252 396.928,93.411 395.178,95.246 			"/>
			<path fill="#F8D680" d="M400.053,90.547v139.429l0.041-0.043c0.659-0.69,1.223-1.452,1.709-2.256V90.538
				C401.244,90.354,400.63,90.341,400.053,90.547z"/>
		</g>
		<g>
			<path fill="#DFBE64" d="M413.808,313.389l-32.798-3.098c-3.318-0.313-6.629,0.663-9.247,2.726l-100.419,79.165
				c-1.923,1.516-1.013,4.603,1.425,4.834l32.798,3.098c3.318,0.313,6.629-0.663,9.247-2.726l100.419-79.165
				C417.156,316.706,416.246,313.62,413.808,313.389z"/>
			<path fill="#F8D680" d="M380.119,310.25l-109.037,85.959c0.417,0.433,0.987,0.74,1.688,0.806l0.104,0.01l109.819-86.575
				l-1.682-0.159C380.713,310.263,380.416,310.257,380.119,310.25z"/>
			<polygon fill="#F8D680" points="277.381,397.451 279.905,397.689 389.724,311.114 387.2,310.876 			"/>
			<polygon fill="#F8D680" points="284.413,398.115 286.937,398.353 396.756,311.778 394.232,311.54 			"/>
			<polygon fill="#F8D680" points="291.444,398.779 293.969,399.018 403.788,312.443 401.263,312.204 			"/>
			<polygon fill="#F8D680" points="298.476,399.444 301,399.682 410.819,313.107 408.295,312.868 			"/>
			<path fill="#F8D680" d="M415.003,313.788l-109.496,86.32l0.059,0.006c0.95,0.09,1.897,0.062,2.83-0.055l107.697-84.902
				C415.892,314.604,415.522,314.113,415.003,313.788z"/>
		</g>
		<g>
			<path fill="#DFBE64" d="M393.719,259.681l-5.219,32.528c-0.528,3.291-2.303,6.252-4.956,8.268L281.74,377.854
				c-1.95,1.482-4.71-0.173-4.322-2.591l5.219-32.528c0.528-3.291,2.303-6.252,4.956-8.268l101.803-77.377
				C391.346,255.608,394.107,257.263,393.719,259.681z"/>
			<path fill="#F8D680" d="M388.316,293.081l-110.54,84.018c-0.315-0.513-0.469-1.141-0.358-1.836l0.016-0.103l111.333-84.62
				l-0.268,1.668C388.452,292.504,388.383,292.792,388.316,293.081z"/>
			<polygon fill="#F8D680" points="278.152,370.69 278.553,368.186 389.886,283.567 389.484,286.07 			"/>
			<polygon fill="#F8D680" points="279.271,363.716 279.672,361.213 391.005,276.593 390.603,279.096 			"/>
			<polygon fill="#F8D680" points="280.39,356.742 280.791,354.239 392.124,269.619 391.722,272.122 			"/>
			<polygon fill="#F8D680" points="281.509,349.768 281.911,347.265 393.243,262.645 392.841,265.149 			"/>
			<path fill="#F8D680" d="M393.633,258.424l-111.005,84.371l0.009-0.059c0.151-0.942,0.416-1.852,0.762-2.726l109.181-82.984
				C393.065,257.359,393.448,257.84,393.633,258.424z"/>
		</g>
		<g>
			<path fill="#DFBE64" d="M356.382,231.784l-1.746,32.897c-0.177,3.328-1.628,6.46-4.053,8.747l-93.038,87.721
				c-1.782,1.68-4.702,0.327-4.572-2.119l1.746-32.897c0.177-3.328,1.628-6.46,4.053-8.747l93.038-87.721
				C353.592,227.985,356.512,229.338,356.382,231.784z"/>
			<path fill="#F8D680" d="M354.546,265.568l-101.023,95.25c-0.367-0.476-0.587-1.085-0.55-1.788l0.005-0.104l101.747-95.932
				l-0.09,1.687C354.62,264.979,354.582,265.274,354.546,265.568z"/>
			<polygon fill="#F8D680" points="253.219,354.405 253.353,351.873 355.1,255.941 354.966,258.472 			"/>
			<polygon fill="#F8D680" points="253.593,347.352 253.727,344.82 355.474,248.887 355.34,251.419 			"/>
			<polygon fill="#F8D680" points="253.967,340.298 254.102,337.767 355.849,241.834 355.714,244.366 			"/>
			<polygon fill="#F8D680" points="254.342,333.245 254.476,330.713 356.223,234.781 356.089,237.313 			"/>
			<path fill="#F8D680" d="M356.163,230.542l-101.447,95.65l0.003-0.06c0.051-0.953,0.217-1.886,0.469-2.791l99.781-94.078
				C355.486,229.544,355.918,229.981,356.163,230.542z"/>
		</g>
		<g>
			<path fill="#DFBE64" d="M341.073,94.141l-32.944-0.092c-3.333-0.009-6.541,1.265-8.959,3.559l-92.774,88
				c-1.777,1.685-0.589,4.676,1.86,4.683l32.944,0.092c3.333,0.009,6.541-1.265,8.959-3.559l92.774-88
				C344.71,97.138,343.522,94.147,341.073,94.141z"/>
			<path fill="#F8D680" d="M307.238,94.089l-100.737,95.552c0.455,0.393,1.05,0.647,1.754,0.649l0.104,0l101.459-96.237l-1.69-0.005
				C307.83,94.048,307.534,94.07,307.238,94.089z"/>
			<polygon fill="#F8D680" points="212.888,190.303 215.423,190.31 316.882,94.073 314.346,94.066 			"/>
			<polygon fill="#F8D680" points="219.951,190.323 222.486,190.33 323.945,94.093 321.409,94.086 			"/>
			<polygon fill="#F8D680" points="227.014,190.343 229.549,190.35 331.008,94.113 328.472,94.106 			"/>
			<polygon fill="#F8D680" points="234.077,190.362 236.612,190.369 338.071,94.132 335.535,94.125 			"/>
			<path fill="#F8D680" d="M342.3,94.428l-101.16,95.954l0.06,0c0.954,0.003,1.895-0.112,2.813-0.313l99.498-94.377
				C343.259,95.16,342.846,94.705,342.3,94.428z"/>
		</g>
		<g>
			<path fill="#DFBE64" d="M96.477,141.096l16.43,28.554c1.662,2.889,4.373,5.027,7.569,5.97l122.645,36.183
				c2.349,0.693,4.342-1.834,3.12-3.957l-16.43-28.554c-1.662-2.889-4.373-5.027-7.569-5.97L99.597,137.139
				C97.248,136.446,95.255,138.973,96.477,141.096z"/>
			<path fill="#F8D680" d="M113.388,170.401l133.171,39.288c0.112-0.591,0.034-1.233-0.318-1.843l-0.052-0.09l-134.126-39.57
				l0.843,1.465C113.056,169.909,113.223,170.154,113.388,170.401z"/>
			<polygon fill="#F8D680" points="243.932,203.831 242.667,201.634 108.542,162.064 109.806,164.261 			"/>
			<polygon fill="#F8D680" points="240.409,197.709 239.145,195.512 105.019,155.942 106.284,158.139 			"/>
			<polygon fill="#F8D680" points="236.887,191.587 235.622,189.39 101.497,149.82 102.761,152.017 			"/>
			<polygon fill="#F8D680" points="233.364,185.465 232.099,183.268 97.974,143.698 99.239,145.895 			"/>
			<path fill="#F8D680" d="M96.111,139.89l133.731,39.454l-0.03-0.052c-0.476-0.827-1.046-1.584-1.681-2.277L96.598,138.209
				C96.263,138.693,96.076,139.278,96.111,139.89z"/>
		</g>
		<g>
			<path fill="#DFBE64" d="M115.446,225.271l-6.638,32.268c-0.672,3.264-0.06,6.662,1.707,9.488l67.804,108.414
				c1.299,2.076,4.466,1.507,4.96-0.892l6.638-32.268c0.672-3.264,0.06-6.662-1.707-9.488l-67.804-108.414
				C119.106,222.302,115.939,222.872,115.446,225.271z"/>
			<path fill="#F8D680" d="M108.67,258.42l73.624,117.719c0.476-0.368,0.843-0.901,0.985-1.59l0.021-0.102l-74.151-118.562
				l-0.34,1.655C108.748,257.832,108.71,258.126,108.67,258.42z"/>
			<polygon fill="#F8D680" points="184.212,370.012 184.723,367.528 110.571,248.966 110.06,251.45 			"/>
			<polygon fill="#F8D680" points="185.635,363.094 186.146,360.61 111.994,242.048 111.484,244.531 			"/>
			<polygon fill="#F8D680" points="187.058,356.176 187.569,353.692 113.418,235.13 112.907,237.613 			"/>
			<polygon fill="#F8D680" points="188.481,349.257 188.992,346.774 114.841,228.212 114.33,230.695 			"/>
			<path fill="#F8D680" d="M115.971,224.126l73.933,118.213l0.012-0.059c0.192-0.935,0.267-1.879,0.252-2.819L117.45,223.19
				C116.879,223.331,116.351,223.645,115.971,224.126z"/>
		</g>
		<g>
			<path fill="#DFBE64" d="M412.131,339.971l-29.211,15.231c-2.955,1.541-5.204,4.161-6.279,7.315l-41.241,121.038
				c-0.79,2.318,1.652,4.414,3.824,3.282l29.211-15.231c2.955-1.541,5.204-4.16,6.279-7.315l41.241-121.038
				C416.745,340.935,414.303,338.839,412.131,339.971z"/>
			<path fill="#F8D680" d="M382.15,355.652l-44.78,131.426c0.586,0.137,1.231,0.085,1.855-0.241l0.092-0.048l45.101-132.368
				l-1.498,0.781C382.655,355.34,382.403,355.497,382.15,355.652z"/>
			<polygon fill="#F8D680" points="343.332,484.696 345.58,483.523 390.681,351.155 388.433,352.327 			"/>
			<polygon fill="#F8D680" points="349.595,481.43 351.843,480.258 396.944,347.89 394.696,349.062 			"/>
			<polygon fill="#F8D680" points="355.857,478.165 358.106,476.993 403.207,344.624 400.958,345.797 			"/>
			<polygon fill="#F8D680" points="362.12,474.899 364.369,473.727 409.47,341.359 407.221,342.531 			"/>
			<path fill="#F8D680" d="M413.351,339.655l-44.968,131.978l0.053-0.028c0.846-0.441,1.626-0.98,2.345-1.585l44.229-129.81
				C414.541,339.857,413.964,339.646,413.351,339.655z"/>
		</g>
		<g>
			<path fill="#DFBE64" d="M319.415,463.772l-11.233-30.969c-1.136-3.133-3.436-5.708-6.42-7.191l-114.519-56.888
				c-2.193-1.09-4.594,1.054-3.759,3.356l11.233,30.969c1.136,3.133,3.436,5.708,6.42,7.191l114.519,56.888
				C317.85,468.217,320.25,466.074,319.415,463.772z"/>
			<path fill="#F8D680" d="M307.838,431.98l-124.348-61.771c-0.213,0.563-0.247,1.209-0.007,1.87l0.035,0.098l125.24,62.213
				l-0.576-1.588C308.08,432.521,307.958,432.251,307.838,431.98z"/>
			<polygon fill="#F8D680" points="185.062,376.434 185.927,378.817 311.166,441.03 310.302,438.647 			"/>
			<polygon fill="#F8D680" points="187.471,383.073 188.335,385.457 313.575,447.67 312.71,445.287 			"/>
			<polygon fill="#F8D680" points="189.879,389.713 190.744,392.097 315.983,454.31 315.119,451.926 			"/>
			<polygon fill="#F8D680" points="192.287,396.353 193.152,398.737 318.392,460.95 317.527,458.566 			"/>
			<path fill="#F8D680" d="M319.567,465.023l-124.871-62.03l0.02,0.056c0.325,0.897,0.756,1.741,1.261,2.534l122.819,61.011
				C319.209,466.175,319.495,465.631,319.567,465.023z"/>
		</g>
		<g>
			<path fill="#DFBE64" d="M184.684,315.23l27.087-8.884c2.74-0.899,4.757-2.702,5.632-5.036l33.554-89.532
				c0.643-1.715-1.781-3.578-3.794-2.918l-27.087,8.884c-2.74,0.899-4.757,2.702-5.632,5.036l-33.554,89.532
				C180.247,314.027,182.671,315.891,184.684,315.23z"/>
			<path fill="#F8D680" d="M212.483,306.075l36.434-97.217c-0.564-0.164-1.175-0.188-1.754,0.002l-0.086,0.028l-36.695,97.913
				l1.389-0.456C212.017,306.266,212.249,306.17,212.483,306.075z"/>
			<polygon fill="#F8D680" points="243.354,210.11 241.27,210.793 204.575,308.707 206.659,308.023 			"/>
			<polygon fill="#F8D680" points="237.547,212.014 235.462,212.698 198.767,310.611 200.852,309.928 			"/>
			<polygon fill="#F8D680" points="231.74,213.919 229.655,214.603 192.96,312.516 195.045,311.832 			"/>
			<polygon fill="#F8D680" points="225.932,215.824 223.847,216.507 187.152,314.421 189.237,313.737 			"/>
			<path fill="#F8D680" d="M183.538,315.353l36.587-97.625l-0.049,0.016c-0.785,0.257-1.502,0.596-2.158,0.993l-35.986,96.021
				C182.396,315.079,182.955,315.3,183.538,315.353z"/>
		</g>
		<g>
			<path fill="#DFBE64" d="M255.649,262.64l-25.307,13.122c-2.56,1.327-4.261,3.431-4.749,5.875l-18.728,93.761
				c-0.359,1.796,2.333,3.246,4.214,2.27l25.307-13.122c2.56-1.327,4.261-3.431,4.749-5.875l18.728-93.761
				C260.222,263.115,257.531,261.665,255.649,262.64z"/>
			<path fill="#F8D680" d="M229.684,276.144l-20.336,101.808c0.583,0.071,1.19-0.004,1.731-0.284l0.08-0.041l20.482-102.538
				l-1.298,0.673C230.113,275.881,229.899,276.013,229.684,276.144z"/>
			<polygon fill="#F8D680" points="214.637,375.824 216.585,374.814 237.066,272.276 235.118,273.286 			"/>
			<polygon fill="#F8D680" points="220.063,373.01 222.01,372.001 242.492,269.462 240.544,270.472 			"/>
			<polygon fill="#F8D680" points="225.488,370.197 227.436,369.187 247.918,266.649 245.97,267.659 			"/>
			<polygon fill="#F8D680" points="230.914,367.384 232.862,366.374 253.344,263.836 251.396,264.846 			"/>
			<path fill="#F8D680" d="M256.761,262.334L236.34,364.571l0.046-0.024c0.733-0.38,1.386-0.83,1.97-1.327l20.086-100.556
				C257.933,262.422,257.345,262.294,256.761,262.334z"/>
		</g>
		<g>
			<path fill="#DFBE64" d="M425.894,148.996l-15.002,29.33c-1.518,2.967-1.835,6.405-0.885,9.599l36.44,122.569
				c0.698,2.347,3.903,2.643,5.018,0.462l15.002-29.33c1.518-2.967,1.835-6.405,0.885-9.599l-36.44-122.569
				C430.214,147.111,427.009,146.815,425.894,148.996z"/>
			<path fill="#F8D680" d="M410.524,179.138l39.568,133.088c0.557-0.228,1.052-0.643,1.373-1.27l0.047-0.093l-39.851-134.042
				l-0.769,1.504C410.756,178.591,410.641,178.865,410.524,179.138z"/>
			<polygon fill="#F8D680" points="453.574,306.832 454.729,304.575 414.878,170.533 413.723,172.79 			"/>
			<polygon fill="#F8D680" points="456.791,300.544 457.945,298.287 418.094,164.245 416.94,166.502 			"/>
			<polygon fill="#F8D680" points="460.007,294.256 461.162,291.999 421.311,157.956 420.156,160.214 			"/>
			<polygon fill="#F8D680" points="463.224,287.968 464.378,285.71 424.527,151.668 423.372,153.926 			"/>
			<path fill="#F8D680" d="M426.706,148.032l39.734,133.648l0.027-0.053c0.435-0.849,0.759-1.74,0.995-2.65l-39.081-131.452
				C427.793,147.508,427.2,147.67,426.706,148.032z"/>
		</g>
		<g>
			<path fill="#DFBE64" d="M191.823,446.432l-1.976-30.78c-0.2-3.114-1.578-5.871-3.847-7.698l-87.08-70.098
				c-1.668-1.342-4.356,0.329-4.209,2.617l1.976,30.78c0.2,3.114,1.578,5.871,3.847,7.698l87.08,70.098
				C189.282,450.392,191.97,448.72,191.823,446.432z"/>
			<path fill="#F8D680" d="M189.754,414.827L95.2,338.713c-0.335,0.499-0.532,1.102-0.49,1.76l0.006,0.097l95.232,76.66
				l-0.101-1.579C189.829,415.372,189.791,415.1,189.754,414.827z"/>
			<polygon fill="#F8D680" points="94.988,344.801 95.14,347.17 190.372,423.829 190.22,421.46 			"/>
			<polygon fill="#F8D680" points="95.412,351.4 95.564,353.769 190.796,430.429 190.644,428.06 			"/>
			<polygon fill="#F8D680" points="95.835,357.999 95.988,360.368 191.219,437.028 191.067,434.659 			"/>
			<polygon fill="#F8D680" points="96.259,364.598 96.411,366.967 191.643,443.627 191.491,441.258 			"/>
			<path fill="#F8D680" d="M191.634,447.632l-94.951-76.434l0.004,0.056c0.057,0.891,0.222,1.749,0.465,2.568L190.543,449
				C191.018,448.665,191.413,448.194,191.634,447.632z"/>
		</g>
		<g>
			<path fill="#A7CF4E" d="M280.564,199.823l-2.577-2.948c-3.932-4.499-6.931-9.735-8.823-15.403l-5.89-17.65
				c-2.494-7.472-9.834-12.218-17.671-11.424h0c-6.059,0.613-11.936-2.285-15.138-7.465l-2.527-4.088
				c-2.719-4.398-7.158-7.511-12.176-8.354c-4.658-0.782-10.798,1.91-13.379,5.866c-2.78,4.262-3.498,9.636-2.104,14.615
				l1.295,4.628c1.641,5.864-0.209,12.151-4.765,16.192l0,0c-5.893,5.227-7.375,13.841-3.569,20.738l8.992,16.291
				c2.887,5.231,4.707,10.984,5.352,16.924l0.423,3.893c0.859,7.91,6.687,14.381,14.464,16.06l25.163,5.433
				c8.523,1.84,17.266-1.97,21.72-9.466c5.937-9.993,13.223-22.323,13.223-22.323C286.611,214.484,285.8,205.813,280.564,199.823z"
				/>
			
				<line fill="none" stroke="#D3E38F" stroke-width="3" stroke-linecap="round" stroke-linejoin="round" stroke-miterlimit="10" x1="209.788" y1="137.057" x2="261.322" y2="254.583"/>
			<path fill="none" stroke="#D3E38F" stroke-width="3" stroke-linecap="round" stroke-linejoin="round" stroke-miterlimit="10" d="
				M200.705,182.961c0,0,14.958-6.559,31.729,5.742"/>
			<path fill="none" stroke="#D3E38F" stroke-width="3" stroke-linecap="round" stroke-linejoin="round" stroke-miterlimit="10" d="
				M249.352,227.284c0,0-11.456-9.311-27.765,3.3"/>
			<path fill="none" stroke="#D3E38F" stroke-width="3" stroke-linecap="round" stroke-linejoin="round" stroke-miterlimit="10" d="
				M249.707,161.474c0,0-14.958,6.559-17.272,27.228"/>
			<path fill="none" stroke="#D3E38F" stroke-width="3" stroke-linecap="round" stroke-linejoin="round" stroke-miterlimit="10" d="
				M249.352,227.284c0,0,0.913-14.734,21.237-18.187"/>
		</g>
		<g>
			<path fill="#DFBE64" d="M128.382,138.415l28.995,15.638c2.933,1.582,5.145,4.233,6.176,7.402l39.543,121.603
				c0.757,2.329-1.714,4.391-3.87,3.228l-28.995-15.638c-2.933-1.582-5.145-4.233-6.176-7.402l-39.543-121.603
				C123.755,139.314,126.226,137.252,128.382,138.415z"/>
			<path fill="#F8D680" d="M158.141,154.514l42.937,132.04c-0.588,0.128-1.232,0.068-1.851-0.267l-0.092-0.049L155.89,153.251
				l1.487,0.802C157.64,154.195,157.89,154.355,158.141,154.514z"/>
			<polygon fill="#F8D680" points="195.15,284.088 192.918,282.884 149.674,149.898 151.905,151.102 			"/>
			<polygon fill="#F8D680" points="188.933,280.735 186.701,279.532 143.457,146.545 145.689,147.749 			"/>
			<polygon fill="#F8D680" points="182.717,277.383 180.485,276.179 137.24,143.193 139.472,144.396 			"/>
			<polygon fill="#F8D680" points="176.5,274.03 174.268,272.826 131.024,139.84 133.255,141.043 			"/>
			<path fill="#F8D680" d="M127.166,138.082l43.117,132.595l-0.053-0.028c-0.84-0.453-1.612-1.002-2.323-1.617l-42.409-130.416
				C125.974,138.268,126.554,138.064,127.166,138.082z"/>
		</g>
		<g>
			<path fill="#A7CF4E" d="M384.78,392.458l3.318-2.079c5.064-3.173,10.707-5.307,16.603-6.28l18.359-3.029
				c7.772-1.282,13.617-7.781,14.072-15.645v0c0.351-6.08,4.141-11.425,9.762-13.769l4.436-1.85
				c4.773-1.99,8.547-5.882,10.172-10.704c1.508-4.476-0.181-10.965-3.68-14.137c-3.77-3.418-8.962-4.975-14.1-4.386l-4.774,0.548
				c-6.05,0.694-11.966-2.125-15.236-7.262v0c-4.231-6.645-12.503-9.469-19.914-6.799l-17.507,6.307
				c-5.621,2.025-11.589,2.913-17.557,2.612l-3.911-0.197c-7.946-0.401-15.256,4.332-18.143,11.746l-9.339,23.99
				c-3.163,8.125-0.781,17.361,5.917,22.942c8.93,7.44,19.954,16.583,19.954,16.583C369.348,396.114,378.038,396.682,384.78,392.458
				z"/>
			
				<line fill="none" stroke="#D3E38F" stroke-width="3" stroke-linecap="round" stroke-linejoin="round" stroke-miterlimit="10" x1="457.935" y1="332.482" x2="333.745" y2="364.81"/>
			<path fill="none" stroke="#D3E38F" stroke-width="3" stroke-linecap="round" stroke-linejoin="round" stroke-miterlimit="10" d="
				M414.041,316.264c0,0,4.115,15.807-10.68,30.424"/>
			<path fill="none" stroke="#D3E38F" stroke-width="3" stroke-linecap="round" stroke-linejoin="round" stroke-miterlimit="10" d="
				M362.592,357.301c0,0,11.003-9.842,1.126-27.937"/>
			<path fill="none" stroke="#D3E38F" stroke-width="3" stroke-linecap="round" stroke-linejoin="round" stroke-miterlimit="10" d="
				M427.52,368.044c0,0-4.115-15.807-24.159-21.356"/>
			<path fill="none" stroke="#D3E38F" stroke-width="3" stroke-linecap="round" stroke-linejoin="round" stroke-miterlimit="10" d="
				M362.592,357.301c0,0,14.405,3.228,14.605,23.842"/>
		</g>
		<g>
			<path fill="#729E40" d="M328.872,248.516l0.885-2.243c1.351-3.424,3.369-6.545,5.936-9.182l7.995-8.212
				c3.385-3.477,3.907-8.835,1.258-12.9v0c-2.048-3.143-2.123-7.178-0.193-10.395l1.523-2.538c1.639-2.731,2.088-6.04,1.131-9.025
				c-0.888-2.77-4.097-5.37-6.992-5.664c-3.118-0.317-6.262,0.809-8.594,2.979l-2.167,2.017c-2.746,2.555-6.709,3.32-10.208,1.968
				l0,0c-4.526-1.748-9.66-0.125-12.358,3.908l-6.375,9.526c-2.047,3.059-4.681,5.68-7.75,7.712l-2.011,1.331
				c-4.086,2.706-5.981,7.724-4.702,12.455l4.138,15.307c1.402,5.185,5.958,8.893,11.319,9.212
				c7.147,0.425,15.954,0.928,15.954,0.928C322.557,255.969,327.073,253.074,328.872,248.516z"/>
			
				<line fill="none" stroke="#B7D880" stroke-width="3" stroke-linecap="round" stroke-linejoin="round" stroke-miterlimit="10" x1="343.221" y1="192.042" x2="293.464" y2="253.461"/>
			<path fill="none" stroke="#B7D880" stroke-width="3" stroke-linecap="round" stroke-linejoin="round" stroke-miterlimit="10" d="
				M315.531,200.044c0,0,7.817,6.333,5.825,18.988"/>
			<path fill="none" stroke="#B7D880" stroke-width="3" stroke-linecap="round" stroke-linejoin="round" stroke-miterlimit="10" d="
				M305.022,239.195c0,0,1.858-8.901-9.653-14.263"/>
			<path fill="none" stroke="#B7D880" stroke-width="3" stroke-linecap="round" stroke-linejoin="round" stroke-miterlimit="10" d="
				M341.139,220.79c0,0-7.817-6.333-19.783-1.758"/>
			<path fill="none" stroke="#B7D880" stroke-width="3" stroke-linecap="round" stroke-linejoin="round" stroke-miterlimit="10" d="
				M305.022,239.195c0,0,8.322-3.665,15.955,6.483"/>
		</g>
	</g>
</g>
<g id="default">
	<g>
		<circle fill="#D3D3D3" cx="278" cy="278" r="235.499"/>
		<circle fill="#E9E9E7" cx="278" cy="278" r="223.807"/>
		<circle fill="#D3D3D3" cx="278" cy="278" r="143.638"/>
		<circle fill="#E9E9E7" cx="278" cy="278" r="123.038"/>
		<path fill="#FFFFFF" d="M312.211,152.295c54.138,15.98,94.019,65.199,96,124.033c0.086,2.563,2.189,4.595,4.753,4.595h0.002
			c2.692,0,4.862-2.231,4.772-4.922c-2.122-63.014-44.837-115.73-102.821-132.847c-3.038-0.897-6.081,1.419-6.081,4.587v0
			C308.836,149.837,310.201,151.702,312.211,152.295z"/>
		<circle fill="#FFFFFF" cx="412.123" cy="289.136" r="4.742"/>
	</g>
	<g>
		<path fill="#DDDDDC" d="M123.074,206.036c-1.12-3.121-0.982-6.61,0.611-9.517c0.488-0.891,1.053-1.741,1.691-2.541l28.431-35.652
			c15.336-19.231,32.39-37.013,50.932-53.147c3.52-3.063,7.088-6.073,10.714-9.015c0.587-0.476,1.173-0.952,1.758-1.428
			c17.554-14.27,34.181-28.189,38.396-33.036c0.141-0.162,0.267-0.313,0.38-0.454c1.489-1.867,2.641-3.894,3.465-6.008
			c3.433-8.807,1.164-19.12-6.207-25.636c-0.295-0.261-0.598-0.515-0.909-0.763c-0.311-0.248-0.627-0.487-0.947-0.716
			c-7.993-5.737-18.552-5.654-26.374-0.347c-1.877,1.274-3.597,2.848-5.086,4.715c-0.112,0.141-0.232,0.298-0.358,0.471
			c-3.787,5.188-13.658,24.496-23.663,44.785c-0.333,0.676-0.667,1.354-1.001,2.032c-2.061,4.19-4.202,8.338-6.405,12.451
			c-11.604,21.667-25.145,42.25-40.481,61.481L10.814,325.762c-2.656,3.331-2.11,8.185,1.222,10.842l0,0
			c2.713,2.164,6.537,2.249,9.344,0.21l3.891-2.827C46.118,318.841,68,299.938,84.066,279.791l36.592-44.404
			C126.871,227.597,126.438,215.415,123.074,206.036L123.074,206.036z"/>
		<path fill="#C0C0C0" d="M122.379,202.667c-0.141-2.121,0.27-4.257,1.306-6.148c0.488-0.891,1.053-1.741,1.691-2.541l9.718-12.186
			l-5.787-4.615l-15.119,18.959L122.379,202.667z"/>
		
			<line fill="none" stroke="#FFFFFF" stroke-width="1.9949" stroke-linecap="round" stroke-linejoin="round" stroke-miterlimit="10" x1="25.436" y1="315.585" x2="107.722" y2="212.401"/>
		
			<path fill="none" stroke="#FFFFFF" stroke-width="1.9949" stroke-linecap="round" stroke-linejoin="round" stroke-miterlimit="10" d="
			M244.631,63.556c2.514-2.234,4.395-4.011,5.358-5.119c0.1-0.115,0.19-0.223,0.27-0.323c1.06-1.329,1.881-2.773,2.467-4.278
			c2.444-6.271,0.829-13.614-4.42-18.254c-0.21-0.186-0.426-0.367-0.647-0.544c-0.222-0.177-0.446-0.347-0.674-0.51
			c-5.691-4.085-13.21-4.026-18.78-0.247c-1.337,0.907-2.561,2.028-3.622,3.358c-0.08,0.1-0.165,0.212-0.255,0.335
			c-0.865,1.186-2.18,3.414-3.798,6.363"/>
	</g>
	<g>
		<path fill="#DDDDDC" d="M510.569,492.647c-1.692-6.453-10.761-27.07-20.532-48.44c-0.326-0.712-0.652-1.425-0.979-2.139
			c-2.021-4.409-3.956-8.855-5.822-13.327c-9.831-23.56-17.519-47.97-22.94-72.937l-10.05-46.286
			c-0.676-3.115-0.534-6.353,0.412-9.397l8.23-20.842c1.732-5.475,2.002-11.308,0.784-16.92l-2.846-13.109l-0.014,0.003
			c-0.91-4.19-23.574-84.194-23.574-84.194c-0.33-1.229-1.593-1.958-2.822-1.629c-1.229,0.33-1.958,1.593-1.629,2.822l22.322,79.528
			c0.65,2.422-0.858,4.896-3.309,5.428h0c-2.37,0.515-4.708-0.989-5.222-3.359l-19.432-80.454c-0.225-1.038-1.099-1.866-2.161-1.9
			c-1.576-0.05-2.672,1.361-2.361,2.794l19.246,79.601c0.833,3.839-1.831,5.872-3.582,6.252s-5.006-0.307-5.852-4.204
			l-15.478-80.331c-0.225-1.038-1.099-1.866-2.161-1.9c-1.576-0.05-2.672,1.361-2.361,2.794l15.699,81.352
			c0.515,2.37-0.989,4.708-3.359,5.222l0,0c-2.451,0.532-4.849-1.093-5.262-3.567l-12.667-81.625
			c-0.21-1.255-1.397-2.103-2.652-1.893c-1.255,0.21-2.103,1.397-1.893,2.652c0,0,12.553,82.199,13.463,86.389l-0.014,0.003
			l2.846,13.109c1.218,5.612,4.821,10.604,8.668,14.868l15.195,15.756c2.124,2.377,3.596,5.264,4.272,8.38l10.05,46.286
			c5.421,24.967,8.548,50.367,9.372,75.883c0.156,4.844,0.239,9.692,0.229,14.542c-0.002,0.785-0.003,1.569-0.004,2.352
			c-0.029,23.497,0.268,46.019,1.404,52.593c0.038,0.219,0.077,0.421,0.116,0.604c0.526,2.424,1.402,4.682,2.564,6.732
			c4.839,8.543,14.631,13.484,24.714,11.824c0.403-0.066,0.807-0.143,1.211-0.231s0.803-0.185,1.198-0.292
			c9.864-2.671,16.726-11.228,17.586-21.008c0.206-2.347,0.067-4.765-0.459-7.189C510.674,493.061,510.626,492.862,510.569,492.647z
			"/>
		<g>
			<path fill="#C0C0C0" d="M449.43,258.71c2.451-0.532,3.959-3.006,3.309-5.428l-1.563-5.567c-0.313,1.681-1.588,3.106-3.375,3.494
				l0,0c-2.37,0.515-4.708-0.989-5.223-3.359l-0.001-0.005l1.63,7.506C444.722,257.721,447.06,259.225,449.43,258.71z"/>
			<path fill="#C0C0C0" d="M439.5,255.392l-1.474-6.096c-0.002,2.933-2.214,4.516-3.736,4.846c-1.523,0.331-4.183-0.148-5.406-2.844
				l1.183,6.141c0.846,3.897,4.102,4.584,5.852,4.204C437.669,261.264,440.334,259.23,439.5,255.392z"/>
			<path fill="#C0C0C0" d="M416.259,255.296l0.886,5.714c0.413,2.474,2.811,4.099,5.262,3.567c2.37-0.515,3.874-2.853,3.359-5.222
				l-1.629-7.501c0.515,2.37-0.989,4.708-3.359,5.222C418.991,257.464,417.24,256.696,416.259,255.296z"/>
		</g>
		<path fill="#C0C0C0" d="M438.532,302.854c2.084,2.361,3.532,5.215,4.201,8.294l3.435,15.821l7.514-1.631l-3.435-15.821
			c-0.669-3.079-0.534-6.277,0.383-9.29L438.532,302.854z"/>
		
			<path fill="none" stroke="#FFFFFF" stroke-width="2.0721" stroke-linecap="round" stroke-linejoin="round" stroke-miterlimit="10" d="
			M424.087,279.235c0.738,0.965,1.518,1.894,2.317,2.779l8.265,8.57c2.111,2.19,5.206,3.13,8.179,2.484
			c2.862-0.621,5.225-2.629,6.301-5.353l4.595-11.637c0.359-1.136,0.629-2.293,0.825-3.461"/>
		
			<path fill="none" stroke="#FFFFFF" stroke-width="2.0721" stroke-linecap="round" stroke-linejoin="round" stroke-miterlimit="10" d="
			M469.704,492.703c0.149,3.49,0.346,6.171,0.606,7.673c0.027,0.156,0.055,0.299,0.083,0.43c0.375,1.726,0.998,3.334,1.825,4.794
			c3.445,6.083,10.418,9.601,17.598,8.419c0.287-0.047,0.575-0.102,0.862-0.164c0.288-0.062,0.572-0.132,0.853-0.208
			c7.024-1.902,11.91-7.995,12.522-14.959c0.147-1.671,0.048-3.393-0.327-5.119c-0.028-0.13-0.063-0.272-0.103-0.425
			c-0.387-1.475-1.318-3.996-2.631-7.233"/>
	</g>
</g>
</svg>
