<?xml version="1.0" encoding="utf-8"?>
<!-- Generator: Adobe Illustrator 18.0.0, SVG Export Plug-In . SVG Version: 6.00 Build 0)  -->
<!DOCTYPE svg PUBLIC "-//W3C//DTD SVG 1.1//EN" "http://www.w3.org/Graphics/SVG/1.1/DTD/svg11.dtd">
<svg version="1.1" xmlns="http://www.w3.org/2000/svg" xmlns:xlink="http://www.w3.org/1999/xlink" x="0px" y="0px" width="472px"
	 height="472px" viewBox="0 0 472 472" enable-background="new 0 0 472 472" xml:space="preserve">
<g id="round">
	<g>
		<g>
			<circle fill="#D3D3D3" cx="236" cy="236" r="235.499"/>
			<circle fill="#E9E9E7" cx="236" cy="236" r="223.807"/>
			<circle fill="#C4C3C3" cx="236" cy="236" r="143.638"/>
			<circle fill="#E9E9E7" cx="236" cy="236" r="123.038"/>
			<path fill="#FFFFFF" d="M270.211,110.295c54.138,15.98,94.019,65.199,96,124.033c0.086,2.563,2.189,4.595,4.753,4.595h0.002
				c2.692,0,4.862-2.231,4.772-4.922c-2.122-63.014-44.837-115.731-102.821-132.847c-3.038-0.897-6.081,1.419-6.081,4.587v0
				C266.836,107.837,268.201,109.702,270.211,110.295z"/>
			<path fill="#B3D346" d="M283.657,166.414l0.233,0.209c9.647,8.658,25.046,3.764,27.924-8.875v0
				c2.38-10.452,9.273-19.31,18.82-24.185l2.453-1.253c15.11-7.716,17.069-28.524,3.666-38.925l-2.172-1.686
				c-6.314-4.9-8.657-13.366-5.761-20.815l2.712-6.973c4.235-10.892-6.455-21.642-17.37-17.468l0,0
				c-14.143,5.408-29.98,4.075-43.02-3.622l-34.298-20.245c-13.75-8.116-31.305,0.582-33.177,16.439v0
				c-2.342,19.835-17.405,35.792-37.073,39.271l-6.42,1.136c-18.532,3.278-23.857,27.32-8.444,38.117l10.586,7.416
				c6.053,4.24,7.904,12.379,4.282,18.821l0,0c-5.971,10.617,3.852,23.161,15.591,19.909l14.552-4.031
				c15.787-4.374,32.682,0.722,43.418,13.096l5.936,6.842c4.672,5.385,13.516,2.663,14.352-4.417v0
				C261.773,163.928,275.228,158.849,283.657,166.414z"/>
			<path fill="#8BC33F" d="M244.187,45.277l-40.585-5.79c-2.523,19.616-17.497,35.35-37.008,38.801l-5.794,1.025
				c6.881,5.284,15.167,8.933,24.368,10.245C213.693,93.627,240.117,73.802,244.187,45.277z"/>
			<g>
				
					<ellipse transform="matrix(0.6974 -0.7167 0.7167 0.6974 14.3247 155.8603)" fill="#A257A1" cx="191.733" cy="60.967" rx="18.98" ry="26.213"/>
				
					<ellipse transform="matrix(0.6974 -0.7167 0.7167 0.6974 14.3247 155.8603)" fill="#A257A1" cx="191.733" cy="60.967" rx="18.98" ry="26.213"/>
				<path fill="#7F2A8F" d="M202.49,45.183c-3.374,12.9-12.26,23.571-24.091,29.287c0.033,0.033,0.064,0.066,0.098,0.099
					c10.375,10.096,24.713,12.191,32.023,4.678s4.826-21.787-5.55-31.883C204.168,46.583,203.335,45.867,202.49,45.183z"/>
				
					<ellipse transform="matrix(0.6974 -0.7167 0.7167 0.6974 20.6992 139.5343)" fill="#7F2A8F" cx="175.587" cy="45.255" rx="4.25" ry="1.409"/>
			</g>
			<circle fill="#FFFFFF" cx="370.123" cy="247.136" r="4.742"/>
		</g>
		<path fill="#B3D346" d="M435.429,248.377l0.246-0.195c10.151-8.061,7.903-24.062-4.075-29.016l0,0
			c-9.906-4.096-17.485-12.375-20.694-22.603l-0.824-2.628c-5.078-16.188-25.264-21.603-37.762-10.129l-2.026,1.86
			c-5.887,5.405-14.627,6.298-21.485,2.195l-6.421-3.841c-10.029-5.999-22.417,2.741-20.129,14.201v0
			c2.965,14.849-1.001,30.239-10.772,41.807l-25.7,30.425c-10.303,12.198-4.666,30.961,10.653,35.461l0,0
			c19.163,5.629,32.374,23.151,32.511,43.124l0.045,6.52c0.13,18.819,22.941,28.094,36.166,14.705l9.083-9.195
			c5.194-5.258,13.528-5.721,19.272-1.071l0,0c9.468,7.664,23.479,0.079,22.238-12.039l-1.539-15.021
			c-1.669-16.296,6.183-32.1,20.179-40.613l7.739-4.707c6.091-3.705,4.888-12.879-1.952-14.888h0
			C429.315,269.535,426.56,255.42,435.429,248.377z"/>
		<path fill="#8BC33F" d="M325.978,146.91l-0.029-0.312c-1.193-12.907-15.815-19.782-26.516-12.467l0,0
			c-8.849,6.05-19.926,7.863-30.242,4.952l-2.651-0.748c-16.328-4.608-31.907,9.324-29.142,26.064l0.448,2.713
			c1.302,7.885-2.733,15.689-9.919,19.184l-6.728,3.273c-10.509,5.112-9.973,20.263,0.872,24.619l0,0
			c14.051,5.644,24.762,17.385,29.097,31.893l11.402,38.16c4.571,15.298,23.36,20.848,35.51,10.488l0,0
			c15.198-12.96,37.093-14.428,53.885-3.614l5.482,3.53c15.822,10.189,36.068-3.828,32.099-22.224l-2.726-12.634
			c-1.559-7.224,2.614-14.453,9.649-16.716l0,0c11.596-3.73,12.914-19.609,2.093-25.2l-13.415-6.932
			c-14.553-7.52-23.484-22.741-22.951-39.114l0.295-9.053c0.232-7.125-8.105-11.139-13.53-6.513l0,0
			C340.341,163.606,327.02,158.188,325.978,146.91z"/>
		<path fill="#FFD70D" d="M374.169,248.251l-2.009,6.742c-0.516,1.731-2.337,2.716-4.068,2.2l-5.547-1.653
			c-1.731-0.516-2.716-2.337-2.2-4.068l2.009-6.742c0.516-1.731,2.337-2.716,4.068-2.2l5.547,1.653
			C373.699,244.699,374.685,246.52,374.169,248.251z"/>
		<path fill="#FFD70D" d="M390.754,220.173l1.906,6.772c0.489,1.739-0.523,3.545-2.262,4.034l-5.572,1.568
			c-1.739,0.489-3.545-0.523-4.034-2.262l-1.906-6.772c-0.489-1.739,0.523-3.545,2.262-4.034l5.572-1.568
			C388.459,217.421,390.265,218.434,390.754,220.173z"/>
		<path fill="#FFD70D" d="M383.168,197.721l6.406,2.906c1.645,0.746,2.373,2.684,1.627,4.329l-2.391,5.271
			c-0.746,1.645-2.684,2.373-4.329,1.627l-6.406-2.906c-1.645-0.746-2.373-2.684-1.627-4.329l2.391-5.271
			C379.585,197.703,381.523,196.975,383.168,197.721z"/>
		<path fill="#FFD70D" d="M369.752,225.717l5.289,4.639c1.358,1.191,1.493,3.257,0.302,4.615l-3.817,4.351
			c-1.191,1.358-3.257,1.493-4.615,0.302l-5.289-4.639c-1.358-1.191-1.493-3.257-0.302-4.615l3.817-4.351
			C366.328,224.661,368.394,224.526,369.752,225.717z"/>
		<path fill="#8BC33F" d="M270.495,89.28l-0.029-0.312c-1.193-12.907-15.815-19.782-26.516-12.467l0,0
			c-8.849,6.05-19.926,7.863-30.242,4.952l-2.651-0.748c-16.328-4.608-31.907,9.324-29.142,26.064l0.448,2.713
			c1.302,7.885-2.733,15.689-9.919,19.184l-6.728,3.273c-10.509,5.112-9.973,20.263,0.872,24.619l0,0
			c14.051,5.644,24.762,17.385,29.097,31.893l11.402,38.16c4.571,15.299,23.36,20.848,35.51,10.488l0,0
			c15.198-12.96,37.093-14.428,53.885-3.614l5.482,3.53c15.822,10.189,36.068-3.828,32.099-22.224l-2.726-12.634
			c-1.559-7.224,2.614-14.453,9.649-16.716l0,0c11.596-3.73,12.914-19.609,2.093-25.2l-13.415-6.932
			c-14.553-7.52-23.484-22.741-22.951-39.114l0.295-9.053c0.232-7.125-8.105-11.139-13.53-6.513l0,0
			C284.859,105.976,271.538,100.557,270.495,89.28z"/>
		<circle fill="#EE4823" cx="360.532" cy="153.416" r="40.454"/>
		<path fill="#D22D27" d="M360.532,193.87c2.292,0,4.537-0.2,6.725-0.567c-3.479-6.47-5.311-13.843-5.062-21.479l0.295-9.053
			c0.232-7.125-8.105-11.139-13.53-6.513c-8.618,7.349-21.939,1.93-22.981-9.347l-0.029-0.312c-0.289-3.123-1.369-5.888-2.984-8.189
			c-1.856,4.642-2.888,9.703-2.888,15.007C320.077,175.758,338.189,193.87,360.532,193.87z"/>
		<path fill="#729E40" d="M296.08,115.702l-0.029-0.312c-1.193-12.907-15.815-19.782-26.516-12.467l0,0
			c-8.849,6.05-19.926,7.863-30.242,4.952l-2.651-0.748c-16.328-4.608-31.907,9.324-29.142,26.064l0.448,2.713
			c1.302,7.885-2.733,15.689-9.919,19.184l-6.728,3.273c-10.509,5.112-9.973,20.263,0.872,24.619l0,0
			c14.051,5.644,24.762,17.385,29.097,31.893l11.402,38.16c4.571,15.299,23.36,20.848,35.51,10.488l0,0
			c15.198-12.96,37.093-14.428,53.885-3.614l5.482,3.53c15.822,10.189,36.068-3.828,32.099-22.224l-2.726-12.634
			c-1.559-7.224,2.614-14.453,9.649-16.716l0,0c11.596-3.73,12.914-19.609,2.093-25.2l-13.415-6.932
			c-14.553-7.52-23.484-22.741-22.951-39.114l0.295-9.053c0.232-7.125-8.105-11.139-13.53-6.513l0,0
			C310.444,132.397,297.122,126.979,296.08,115.702z"/>
		<path fill="#FFD70D" d="M371.625,199.194l2.67,6.508c0.686,1.671-0.113,3.581-1.784,4.267l-5.355,2.197
			c-1.671,0.686-3.581-0.113-4.267-1.784l-2.67-6.508c-0.686-1.671,0.113-3.581,1.784-4.267l5.355-2.197
			C369.029,196.724,370.939,197.523,371.625,199.194z"/>
		<path fill="#5B8039" d="M265.632,236.612l-1.619-3.314c12.709-2.552,17.998-17.819,9.592-27.686l0,0
			c-6.952-8.16-9.927-18.982-8.123-29.549l0.464-2.715c2.855-16.724-12.648-30.741-29.001-26.221l-2.65,0.733
			c-7.703,2.129-15.89-1.058-20.126-7.834l-3.966-6.344c-6.195-9.909-21.205-7.773-24.389,3.471l0,0
			c-4.126,14.569-14.668,26.463-28.636,32.308l-36.739,15.375c-14.729,6.164-18.259,25.435-6.672,36.42l0,0
			c14.495,13.741,18.271,35.358,9.295,53.2l-2.93,5.825c-8.458,16.811,7.622,35.46,25.495,29.567L157.9,305.8
			c7.019-2.314,14.648,1.07,17.643,7.827l0,0c4.936,11.136,20.865,10.767,25.28-0.585l52.786,14.26
			c5.939-15.267-1.813-55.958-1.813-55.958c7.11-0.523,10.219-9.238,5.045-14.143l0,0
			C248.623,249.409,254.528,238.841,265.632,236.612z"/>
		<circle fill="#5B8039" cx="320.054" cy="246.963" r="40.454"/>
		<path fill="#FDE863" d="M316.95,245.328l-7.016-0.514c-1.801-0.132-3.155-1.699-3.023-3.501l0.423-5.773
			c0.132-1.801,1.699-3.155,3.501-3.023l7.016,0.514c1.801,0.132,3.155,1.699,3.023,3.501l-0.423,5.773
			C320.319,244.107,318.751,245.46,316.95,245.328z"/>
		<path fill="#FDE863" d="M365.211,239.05l-2.226,6.673c-0.572,1.713-2.424,2.639-4.137,2.068l-5.491-1.831
			c-1.713-0.572-2.639-2.424-2.068-4.137l2.226-6.673c0.572-1.713,2.424-2.639,4.137-2.068l5.491,1.831
			C364.857,235.484,365.783,237.336,365.211,239.05z"/>
		<path fill="#FFD70D" d="M346.025,226.223l5.289,4.639c1.358,1.191,1.493,3.257,0.302,4.615l-3.817,4.351
			c-1.191,1.358-3.257,1.493-4.615,0.302l-5.289-4.639c-1.358-1.191-1.493-3.257-0.302-4.615l3.817-4.351
			C342.601,225.167,344.667,225.032,346.025,226.223z"/>
		<g>
			
				<ellipse transform="matrix(0.7531 0.6579 -0.6579 0.7531 177.9577 -127.1634)" fill="#A257A1" cx="258.4" cy="173.513" rx="18.98" ry="26.213"/>
			
				<ellipse transform="matrix(0.7531 0.6579 -0.6579 0.7531 177.9577 -127.1634)" fill="#A257A1" cx="258.4" cy="173.513" rx="18.98" ry="26.213"/>
			<path fill="#7F2A8F" d="M265.481,176.063l0.463-2.715c1.501-8.792-2.076-16.832-8.178-21.827
				c-4.83,1.691-9.652,4.917-13.66,9.506c-9.525,10.903-10.846,25.331-2.952,32.228c6.257,5.466,16.423,4.554,25.114-1.485
				C264.874,186.714,264.577,181.356,265.481,176.063z"/>
			
				<ellipse transform="matrix(0.7531 0.6579 -0.6579 0.7531 170.455 -141.1043)" fill="#7F2A8F" cx="273.222" cy="156.547" rx="4.25" ry="1.409"/>
		</g>
		<path fill="#5B8039" d="M304.616,282.086c-8.003,27.58-52.234,96.469-79.813,88.466c-27.58-8.003-28.064-89.868-20.061-117.448
			c8.003-27.58,36.848-43.449,64.428-35.446C296.749,225.661,312.619,254.506,304.616,282.086z"/>
		<circle fill="#EE4823" cx="333.532" cy="268.815" r="40.454"/>
		<path fill="#D22D27" d="M311.922,234.623c-11.322,7.171-18.845,19.799-18.845,34.192c0,20.641,15.463,37.66,35.435,40.133
			c2.814-5.87,4.947-11.183,6.197-15.489C341.388,270.441,331.43,246.552,311.922,234.623z"/>
		<path fill="#DBAC4D" d="M277.073,329.537c-2.484,1.235-2.93,5.017-1.013,8.036c17.192,27.09,52.234,37.443,81.367,22.966
			c29.209-14.516,42.11-48.839,30.745-78.959c-1.227-3.252-4.51-5.011-6.925-3.811L277.073,329.537z"/>
		<path fill="#BB852C" d="M276.06,337.573c14.336,22.59,41.082,33.527,66.466,28.148c-9.351-11.055-22.634-21.495-38.669-29.547
			c-7.441-3.737-14.94-6.688-22.286-8.871l-4.498,2.235C274.589,330.772,274.144,334.554,276.06,337.573z"/>
		<path fill="#BB852C" d="M331.406,302.536l-54.333,27c-2.484,1.235-2.929,5.017-1.013,8.036
			c5.351,8.432,12.433,15.24,20.526,20.185C311.355,340.743,324.697,318.459,331.406,302.536z"/>
		<path fill="#B3D346" d="M241.425,242.394l-1.619-3.314c12.709-2.552,17.998-17.819,9.592-27.686l0,0
			c-6.952-8.16-9.927-18.982-8.123-29.549l0.464-2.715c2.855-16.724-12.648-30.741-29.001-26.221l-2.65,0.732
			c-7.703,2.129-15.89-1.058-20.126-7.834l-3.966-6.344c-6.195-9.909-21.205-7.773-24.389,3.471l0,0
			c-4.126,14.569-14.668,26.463-28.636,32.308l-36.739,15.375c-14.729,6.164-18.259,25.435-6.672,36.42l0,0
			c14.495,13.741,18.271,35.358,9.295,53.2l-2.93,5.824c-8.458,16.811,7.622,35.46,25.495,29.567l12.275-4.047
			c7.019-2.314,14.648,1.07,17.643,7.827l0,0c4.936,11.136,20.865,10.767,25.28-0.585l52.786,14.26
			c5.939-15.267-1.813-55.958-1.813-55.958c7.11-0.523,10.219-9.238,5.045-14.143l0,0
			C224.416,255.191,230.321,244.623,241.425,242.394z"/>
		<path fill="#ED7D27" d="M116.218,104.724l-6.936,4.473c-26.875,17.333-47.663,42.63-59.456,72.356l-3.36,8.469
			c-11.272,28.411-16.071,58.976-14.049,89.474l1.763,26.596c0.948,14.305,8.809,27.251,21.063,34.691l0,0
			c15.086,9.159,34.185,8.416,48.513-1.889l18.267-13.138c22.665-16.3,38.132-40.75,43.152-68.213v0
			c0.332-1.816,1.184-17.691,2.046-35.172c1.38-27.976,23.377-50.547,51.308-52.637h0c16.434-1.23,29.396-14.477,30.268-30.933v0
			c0.862-16.268-10.36-30.697-26.339-33.866l-52.633-10.439C151.307,90.824,132.085,94.491,116.218,104.724z"/>
		<path fill="#DB6D27" d="M182.656,126.815c18.934,2.702,36.933-5.132,48.093-19.042c-2.572-1.287-5.349-2.254-8.289-2.837
			l-52.633-10.439c-9.415-1.867-19.01-1.828-28.256-0.003C148.277,111.259,163.497,124.082,182.656,126.815z"/>
		<path fill="#DB6D27" d="M142.706,285.492c-31.277,0-56.632,22.963-56.632,51.291c0,3.233,0.346,6.391,0.977,9.458
			c5.908-1.23,11.61-3.679,16.706-7.345l18.267-13.137c14.199-10.212,25.572-23.622,33.322-38.967
			C151.28,285.951,147.053,285.492,142.706,285.492z"/>
		<path fill="#8BC33F" d="M227.59,277.126c7.11-0.523,10.219-9.238,5.045-14.143c-8.219-7.792-2.314-18.36,8.79-20.589l-1.619-3.314
			c10.985-2.205,16.418-13.909,12.264-23.416c-21.532,1.081-40.983,15.573-47.328,37.44c-4.357,15.015-6.197,46.12-2.52,72.637
			l27.181,7.343C235.342,317.816,227.59,277.126,227.59,277.126z"/>
		<g>
			<g>
				<path fill="#FFD70D" d="M244.929,64.644c-4.07,28.525-30.493,48.35-59.019,44.281c-28.526-4.07-48.351-30.493-44.281-59.018
					L244.929,64.644z"/>
				<path fill="#F4F5F5" d="M239.132,63.817c-3.613,25.324-27.071,42.923-52.395,39.31c-25.324-3.613-42.924-27.07-39.311-52.394
					L239.132,63.817z"/>
			</g>
			<path fill="#F4F5F5" d="M198.468,58.016c-0.409,2.866-3.063,4.858-5.929,4.449c-2.866-0.409-4.858-3.064-4.449-5.929"/>
			<g>
				<path fill="#FDE863" d="M185.647,102.972l6.086-42.659l-35.34,24.988C163.302,94.397,173.555,100.958,185.647,102.972z"/>
				<path fill="#FDE863" d="M219.21,95.665l-25.209-35.653l-6.173,43.271C199.284,104.646,210.303,101.688,219.21,95.665z"/>
				<path fill="#FDE863" d="M238.766,66.003L196.689,60l24.315,34.389C229.974,87.685,236.525,77.749,238.766,66.003z"/>
				<path fill="#FDE863" d="M155.104,83.516l34.656-24.504l-42.593-6.077C146.101,64.123,149.14,74.841,155.104,83.516z"/>
			</g>
		</g>
		<g>
			<circle fill="#BB852C" cx="329.051" cy="316.183" r="2.786"/>
			<circle fill="#BB852C" cx="369.494" cy="331.973" r="2.786"/>
			<circle fill="#BB852C" cx="345.165" cy="333.996" r="2.786"/>
			<circle fill="#BB852C" cx="357.613" cy="306.738" r="2.786"/>
			<circle fill="#BB852C" cx="377.45" cy="314.953" r="2.786"/>
			<circle fill="#BB852C" cx="339.838" cy="356.252" r="2.786"/>
		</g>
		
			<ellipse transform="matrix(0.8937 0.4488 -0.4488 0.8937 201.1991 -80.0458)" fill="#DBAC4D" cx="269.487" cy="384.485" rx="79.661" ry="45.221"/>
		
			<ellipse transform="matrix(0.8937 0.4488 -0.4488 0.8937 201.2261 -80.078)" fill="#FFEED2" cx="269.569" cy="384.525" rx="75.796" ry="41.523"/>
		<path fill="#FCE1AD" d="M288.202,347.419c-19.873-9.979-40.101-14.267-56.241-13.021c2.879,23.339,9.861,43.734,22.935,47.528
			c13.097,3.8,29.947-9.742,44.891-27.963C296.116,351.651,292.256,349.454,288.202,347.419z"/>
		<path fill="#DB6D27" d="M146.319,211.096c-22.805,17.612-27.015,50.377-9.403,73.182c3.74,4.843,8.168,8.838,13.034,11.972
			c7.468-11.687,12.687-24.809,15.227-38.705l0,0c0.233-1.277,0.724-9.507,1.294-20.355L146.319,211.096z"/>
		<path fill="#FFD70D" d="M229.403,293.88c-22.805,17.612-55.57,13.402-73.182-9.403c-17.612-22.805-13.402-55.57,9.403-73.182
			L229.403,293.88z"/>
		<path fill="#CEA72C" d="M203.07,259.782c-2.191,11.625-3.294,28.141-2.632,44.893c10.175-0.562,20.291-4.095,28.966-10.795
			L203.07,259.782z"/>
		<g>
			<g>
				<path fill="#F4F5F5" d="M225.824,289.245c-20.246,15.635-49.332,11.898-64.968-8.348c-15.635-20.246-11.898-49.332,8.347-64.968
					L225.824,289.245z"/>
				<path fill="#DBDBDA" d="M203.144,259.878c-1.959,10.188-3.073,24.241-2.872,38.944c8.978-0.527,17.897-3.665,25.552-9.577
					L203.144,259.878z"/>
				<path fill="#FDE863" d="M224.037,290.558l-25.979-33.639l-6.544,41.605C202.618,299.971,214.242,297.416,224.037,290.558z"/>
				<path fill="#FFD70D" d="M202.622,262.828c-1.631,9.867-2.532,22.658-2.351,35.994c1.638-0.096,3.274-0.282,4.902-0.553
					c0.076-0.013,0.153-0.025,0.229-0.038c0.49-0.084,0.979-0.177,1.468-0.277c0.104-0.021,0.208-0.045,0.312-0.067
					c1.458-0.31,2.905-0.693,4.338-1.147c0.16-0.051,0.32-0.098,0.48-0.15c0.368-0.121,0.734-0.252,1.101-0.383
					c0.251-0.09,0.503-0.18,0.753-0.275c0.334-0.126,0.667-0.256,0.999-0.39c0.295-0.119,0.588-0.244,0.881-0.369
					c0.295-0.126,0.591-0.251,0.885-0.384c0.469-0.213,0.936-0.437,1.4-0.666c0.242-0.12,0.482-0.243,0.723-0.367
					c0.448-0.232,0.894-0.468,1.336-0.715c0.208-0.116,0.413-0.238,0.619-0.358c0.391-0.227,0.78-0.458,1.167-0.698
					c0.199-0.123,0.397-0.248,0.595-0.375c0.423-0.271,0.842-0.551,1.259-0.837c0.106-0.073,0.213-0.144,0.318-0.218
					L202.622,262.828z"/>
			</g>
			<path fill="#F4F5F5" d="M200.717,256.736c-2.291,1.769-5.583,1.347-7.352-0.945c-1.769-2.291-1.346-5.583,0.945-7.352"/>
			<g>
				<path fill="#FDE863" d="M160.183,280.026l34.105-26.338l-42.756-6.725C150.142,258.3,152.918,270.152,160.183,280.026z"/>
				<path fill="#FDE863" d="M189.338,298.187l6.785-43.135l-34.594,26.716C168.792,290.733,178.754,296.296,189.338,298.187z"/>
				<ellipse fill="#DBAC4D" cx="168.065" cy="344.202" rx="56.632" ry="51.291"/>
				<path fill="#BB852C" d="M200.344,302.067c0.718,26.844,5.886,55.018,18.315,65.174c3.854-6.929,6.039-14.751,6.039-23.04
					C224.697,326.742,215.058,311.33,200.344,302.067z"/>
				<ellipse fill="#FFEED2" cx="168.065" cy="344.202" rx="52.689" ry="47.096"/>
				<path fill="#FCE1AD" d="M200.531,307.123c1.099,23.003,5.571,46.095,15.167,57.22c3.238-6.107,5.056-12.934,5.056-20.142
					C220.754,329.142,212.837,315.744,200.531,307.123z"/>
				<path fill="#FDE863" d="M151.852,244.784l41.928,6.595l-26.298-34.052C158.918,224.605,153.625,234.407,151.852,244.784z"/>
			</g>
		</g>
		<g>
			<g>
				<path fill="#F1BF65" d="M317.98,296.566c-8.003,27.58-52.234,96.469-79.813,88.466c-27.58-8.003-28.064-89.868-20.061-117.448
					c8.003-27.58,36.848-43.449,64.428-35.446C310.113,240.141,325.983,268.986,317.98,296.566z"/>
				<circle fill="#D09C49" cx="296.449" cy="293.389" r="2.786"/>
				<circle fill="#D09C49" cx="296.449" cy="319.508" r="2.786"/>
				<circle fill="#D09C49" cx="288.091" cy="292.345" r="2.786"/>
				<circle fill="#D09C49" cx="251.525" cy="303.837" r="2.786"/>
				<circle fill="#D09C49" cx="247.346" cy="267.27" r="2.786"/>
				<circle fill="#D09C49" cx="280.778" cy="253.688" r="2.786"/>
				<circle fill="#D09C49" cx="297.494" cy="261.002" r="2.786"/>
				<circle fill="#D09C49" cx="244.211" cy="358.164" r="2.786"/>
			</g>
			<circle fill="#D09C49" cx="263.017" cy="310.105" r="2.786"/>
			<circle fill="#D09C49" cx="306.2" cy="272.842" r="2.786"/>
		</g>
		<g>
			<ellipse fill="#A257A1" cx="266.325" cy="116.3" rx="18.98" ry="26.213"/>
			<ellipse fill="#7F2A8F" cx="266.325" cy="93.771" rx="4.25" ry="1.409"/>
		</g>
		<g>
			
				<ellipse transform="matrix(0.5423 0.8402 -0.8402 0.5423 199.5957 -128.4794)" fill="#A257A1" cx="217.727" cy="118.967" rx="18.98" ry="26.213"/>
			
				<ellipse transform="matrix(0.5423 0.8402 -0.8402 0.5423 197.9929 -149.9737)" fill="#7F2A8F" cx="236.655" cy="106.748" rx="4.25" ry="1.409"/>
		</g>
		<path fill="#FDE863" d="M384.291,242.394h-7.035c-1.806,0-3.27-1.464-3.27-3.27v-5.788c0-1.806,1.464-3.27,3.27-3.27h7.035
			c1.806,0,3.27,1.464,3.27,3.27v5.788C387.561,240.929,386.097,242.394,384.291,242.394z"/>
		<path fill="#FDE863" d="M353.9,227.719l-4.175-5.662c-1.072-1.454-0.762-3.501,0.691-4.573l4.659-3.435
			c1.454-1.072,3.501-0.762,4.573,0.691l4.175,5.662c1.072,1.454,0.762,3.501-0.691,4.573l-4.659,3.435
			C357.019,229.482,354.972,229.172,353.9,227.719z"/>
		<path fill="#FDE863" d="M377.689,213.63l-2.02,6.738c-0.519,1.73-2.342,2.712-4.072,2.194l-5.544-1.662
			c-1.73-0.519-2.712-2.342-2.194-4.072l2.02-6.738c0.519-1.73,2.342-2.712,4.072-2.194l5.544,1.662
			C377.225,210.077,378.207,211.9,377.689,213.63z"/>
		<path fill="#FDE863" d="M393.754,207.173l1.906,6.772c0.489,1.739-0.523,3.545-2.262,4.034l-5.572,1.568
			c-1.739,0.489-3.545-0.523-4.034-2.262l-1.906-6.772c-0.489-1.739,0.523-3.545,2.262-4.034l5.572-1.568
			C391.459,204.421,393.265,205.434,393.754,207.173z"/>
		<path fill="#FFD70D" d="M357.562,185.031l6.612-2.403c1.698-0.617,3.574,0.259,4.191,1.957l1.977,5.44
			c0.617,1.698-0.259,3.574-1.957,4.191l-6.612,2.403c-1.698,0.617-3.574-0.259-4.191-1.957l-1.977-5.44
			C354.988,187.525,355.864,185.649,357.562,185.031z"/>
		<path fill="#FFD70D" d="M371.231,210.705l5.873,3.872c1.508,0.994,1.924,3.023,0.93,4.531l-3.186,4.832
			c-0.994,1.508-3.023,1.924-4.531,0.93l-5.873-3.872c-1.508-0.994-1.924-3.023-0.93-4.531l3.186-4.832
			C367.694,210.127,369.723,209.711,371.231,210.705z"/>
		<path fill="#FFD70D" d="M389.153,240.727l4.019,5.773c1.032,1.482,0.667,3.521-0.815,4.553l-4.75,3.307
			c-1.482,1.032-3.521,0.667-4.553-0.815l-4.019-5.773c-1.032-1.482-0.667-3.521,0.815-4.553l4.75-3.307
			C386.083,238.88,388.121,239.245,389.153,240.727z"/>
		<path fill="#FFD70D" d="M392.991,230.031l6.612-2.403c1.698-0.617,3.574,0.259,4.191,1.957l1.977,5.44
			c0.617,1.698-0.259,3.574-1.957,4.191l-6.612,2.403c-1.698,0.617-3.574-0.259-4.191-1.957l-1.977-5.44
			C390.418,232.524,391.294,230.648,392.991,230.031z"/>
		<path fill="#FDE863" d="M395.127,221.721l6.406,2.906c1.645,0.746,2.373,2.684,1.627,4.329l-2.391,5.271
			c-0.746,1.645-2.684,2.373-4.329,1.627l-6.406-2.906c-1.645-0.746-2.373-2.684-1.627-4.329l2.391-5.271
			C391.544,221.703,393.482,220.975,395.127,221.721z"/>
		<path fill="#FFD70D" d="M404.614,209.979l3.469,6.12c0.891,1.571,0.339,3.567-1.232,4.458l-5.035,2.854
			c-1.571,0.891-3.567,0.339-4.458-1.232l-3.469-6.12c-0.891-1.571-0.339-3.567,1.232-4.458l5.035-2.854
			C401.728,207.856,403.724,208.407,404.614,209.979z"/>
		<g>
			<path fill="#FFD70D" d="M332.265,197.171l6.382,2.959c1.639,0.76,2.351,2.704,1.592,4.343l-2.434,5.251
				c-0.76,1.639-2.704,2.351-4.343,1.592l-6.382-2.959c-1.639-0.76-2.351-2.704-1.592-4.343l2.434-5.251
				C328.682,197.124,330.627,196.412,332.265,197.171z"/>
			<path fill="#FFD70D" d="M310.28,188.323l6.375-2.974c1.637-0.764,3.583-0.055,4.346,1.581l2.447,5.246
				c0.764,1.637,0.056,3.583-1.581,4.346l-6.375,2.974c-1.637,0.764-3.583,0.055-4.346-1.581l-2.447-5.246
				C307.935,191.032,308.643,189.086,310.28,188.323z"/>
			<path fill="#FFD70D" d="M322.809,216.727l6.964-0.997c1.788-0.256,3.445,0.986,3.701,2.774l0.821,5.73
				c0.256,1.788-0.986,3.445-2.774,3.701l-6.964,0.997c-1.788,0.256-3.445-0.986-3.701-2.774l-0.821-5.73
				C319.779,218.64,321.021,216.983,322.809,216.727z"/>
			<path fill="#FFD70D" d="M303.888,198.046l6.679,2.207c1.715,0.567,2.646,2.416,2.079,4.131l-1.816,5.496
				c-0.567,1.715-2.416,2.646-4.131,2.079l-6.679-2.207c-1.715-0.567-2.646-2.416-2.079-4.131l1.816-5.496
				C300.323,198.41,302.173,197.48,303.888,198.046z"/>
			<path fill="#FDE863" d="M344.933,216.538l-4.577,5.342c-1.175,1.372-3.24,1.531-4.611,0.355l-4.395-3.766
				c-1.372-1.175-1.531-3.24-0.355-4.611l4.577-5.342c1.175-1.372,3.24-1.531,4.611-0.355l4.395,3.766
				C345.949,213.102,346.108,215.167,344.933,216.538z"/>
			<path fill="#FDE863" d="M314.014,230.067l-7.016-0.514c-1.801-0.132-3.155-1.699-3.023-3.501l0.423-5.773
				c0.132-1.801,1.699-3.155,3.501-3.023l7.016,0.514c1.801,0.132,3.155,1.699,3.023,3.501l-0.423,5.773
				C317.383,228.845,315.815,230.199,314.014,230.067z"/>
			<path fill="#FDE863" d="M318.795,202.835l3.802,5.919c0.976,1.52,0.536,3.543-0.984,4.519l-4.87,3.129
				c-1.52,0.976-3.543,0.536-4.519-0.984l-3.802-5.919c-0.976-1.52-0.536-3.543,0.984-4.519l4.87-3.129
				C315.796,200.875,317.819,201.316,318.795,202.835z"/>
			<path fill="#FDE863" d="M324.346,186.434l6.382,2.959c1.639,0.76,2.351,2.704,1.592,4.343l-2.434,5.251
				c-0.76,1.639-2.704,2.351-4.343,1.592l-6.382-2.959c-1.639-0.76-2.351-2.704-1.592-4.343l2.434-5.251
				C320.763,186.387,322.707,185.675,324.346,186.434z"/>
			<path fill="#FFD70D" d="M292.675,228.717l2.477-6.584c0.636-1.691,2.522-2.545,4.213-1.909l5.417,2.038
				c1.691,0.636,2.545,2.522,1.909,4.213l-2.477,6.584c-0.636,1.691-2.522,2.545-4.213,1.909l-5.417-2.038
				C292.894,232.293,292.039,230.407,292.675,228.717z"/>
			<path fill="#FFD70D" d="M312.372,205.836l6.762-1.94c1.736-0.498,3.547,0.506,4.046,2.242l1.596,5.564
				c0.498,1.736-0.506,3.547-2.242,4.045l-6.762,1.94c-1.736,0.498-3.547-0.506-4.045-2.242l-1.596-5.564
				C309.632,208.145,310.636,206.334,312.372,205.836z"/>
			<path fill="#FFD70D" d="M346.831,211.762l6.999,0.705c1.797,0.181,3.107,1.784,2.926,3.582l-0.58,5.759
				c-0.181,1.797-1.784,3.107-3.582,2.926l-6.999-0.705c-1.797-0.181-3.107-1.784-2.926-3.582l0.58-5.759
				C343.431,212.891,345.034,211.581,346.831,211.762z"/>
			<path fill="#FFD70D" d="M341.207,201.887l2.477-6.584c0.636-1.691,2.522-2.545,4.213-1.909l5.417,2.038
				c1.691,0.636,2.545,2.522,1.909,4.213l-2.477,6.584c-0.636,1.691-2.522,2.545-4.213,1.909l-5.417-2.038
				C341.425,205.464,340.571,203.578,341.207,201.887z"/>
			<path fill="#FDE863" d="M336.286,194.858l6.375-2.974c1.637-0.764,3.583-0.055,4.346,1.581l2.447,5.246
				c0.764,1.637,0.055,3.583-1.581,4.346l-6.375,2.974c-1.637,0.764-3.583,0.055-4.346-1.581l-2.447-5.246
				C333.941,197.568,334.649,195.622,336.286,194.858z"/>
			<path fill="#FFD70D" d="M333.543,180.014l6.904,1.348c1.773,0.346,2.929,2.064,2.583,3.837l-1.109,5.681
				c-0.346,1.773-2.064,2.929-3.837,2.583l-6.904-1.348c-1.773-0.346-2.929-2.064-2.583-3.837l1.109-5.681
				C330.053,180.824,331.77,179.668,333.543,180.014z"/>
		</g>
		<path fill="#FDE863" d="M328.242,178.958l-7.016-0.514c-1.801-0.132-3.155-1.699-3.023-3.501l0.423-5.773
			c0.132-1.801,1.699-3.155,3.501-3.023l7.016,0.514c1.801,0.132,3.155,1.699,3.023,3.501l-0.423,5.773
			C331.611,177.737,330.043,179.09,328.242,178.958z"/>
	</g>
</g>
<g id="angular" display="none">
	<g display="inline">
		<g>
			<circle fill="#D3D3D3" cx="236" cy="236" r="235.499"/>
			<circle fill="#E9E9E7" cx="236" cy="236" r="223.807"/>
			<circle fill="#C4C3C3" cx="236" cy="236" r="143.638"/>
			<circle fill="#E9E9E7" cx="236" cy="236" r="123.038"/>
			<path fill="#FFFFFF" d="M270.211,110.295c54.138,15.98,94.019,65.199,96,124.033c0.086,2.563,2.189,4.595,4.753,4.595h0.002
				c2.692,0,4.862-2.231,4.772-4.922c-2.122-63.014-44.837-115.731-102.821-132.847c-3.038-0.897-6.081,1.419-6.081,4.587v0
				C266.836,107.837,268.201,109.702,270.211,110.295z"/>
			<circle fill="#FFFFFF" cx="370.123" cy="247.136" r="4.742"/>
		</g>
		<g>
			<path fill="#9F8038" d="M161.124,129.137l26.878-15.129c2.719-1.531,5.781-1.879,8.55-0.973l106.245,34.767
				c2.035,0.666,2.1,3.831,0.102,4.955l-26.878,15.129c-2.719,1.531-5.781,1.879-8.55,0.973l-106.245-34.767
				C159.191,133.427,159.126,130.262,161.124,129.137z"/>
			<path fill="#B99C53" d="M188.744,113.637l115.363,37.75c-0.236,0.553-0.634,1.047-1.208,1.37l-0.085,0.048l-116.19-38.021
				l1.379-0.776C188.246,113.871,188.496,113.755,188.744,113.637z"/>
			<polygon fill="#B99C53" points="299.12,154.884 297.052,156.049 180.862,118.028 182.93,116.863 			"/>
			<polygon fill="#B99C53" points="293.358,158.128 291.289,159.293 175.099,121.272 177.167,120.107 			"/>
			<polygon fill="#B99C53" points="287.595,161.372 285.526,162.536 169.336,124.515 171.405,123.351 			"/>
			<polygon fill="#B99C53" points="281.832,164.615 279.764,165.78 163.574,127.759 165.642,126.594 			"/>
			<path fill="#B99C53" d="M160.222,129.95l115.848,37.909l-0.049,0.027c-0.778,0.438-1.587,0.768-2.406,1.011L159.67,131.611
				C159.691,131.03,159.871,130.442,160.222,129.95z"/>
		</g>
		<g>
			<path fill="#9F8038" d="M77.496,202.225l24.811-21.673c2.51-2.193,5.768-3.335,9.097-3.189l127.748,5.596
				c2.447,0.107,3.511,3.144,1.667,4.756l-24.811,21.673c-2.51,2.193-5.768,3.335-9.097,3.189l-127.748-5.596
				C76.716,206.874,75.652,203.837,77.496,202.225z"/>
			<path fill="#B99C53" d="M103.005,179.998l138.713,6.076c-0.086,0.595-0.369,1.177-0.899,1.64l-0.078,0.068l-139.707-6.119
				l1.273-1.112C102.532,180.356,102.769,180.178,103.005,179.998z"/>
			<polygon fill="#B99C53" points="237.331,190.762 235.422,192.43 95.715,186.31 97.624,184.642 			"/>
			<polygon fill="#B99C53" points="232.012,195.408 230.102,197.076 90.395,190.957 92.305,189.289 			"/>
			<polygon fill="#B99C53" points="226.693,200.055 224.783,201.723 85.076,195.604 86.986,193.936 			"/>
			<polygon fill="#B99C53" points="221.373,204.702 219.464,206.37 79.757,200.251 81.666,198.582 			"/>
			<path fill="#B99C53" d="M76.758,203.247l139.295,6.101l-0.045,0.039c-0.719,0.628-1.504,1.158-2.329,1.608l-137.007-6.001
				C76.514,204.429,76.527,203.814,76.758,203.247z"/>
		</g>
		<g>
			<path fill="#9F8038" d="M62.875,228.005l24.789,21.697c2.508,2.195,5.765,3.34,9.094,3.198l127.754-5.471
				c2.447-0.105,3.514-3.141,1.671-4.754l-24.789-21.697c-2.508-2.195-5.765-3.34-9.094-3.198L64.546,223.25
				C62.099,223.355,61.032,226.392,62.875,228.005z"/>
			<path fill="#B99C53" d="M88.363,250.256l138.719-5.941c-0.085-0.596-0.367-1.177-0.897-1.641l-0.078-0.069l-139.713,5.983
				l1.271,1.113C87.889,249.898,88.126,250.077,88.363,250.256z"/>
			<polygon fill="#B99C53" points="222.699,239.624 220.791,237.954 81.078,243.937 82.986,245.607 			"/>
			<polygon fill="#B99C53" points="217.384,234.972 215.476,233.302 75.763,239.285 77.671,240.955 			"/>
			<polygon fill="#B99C53" points="212.069,230.32 210.161,228.65 70.448,234.633 72.356,236.303 			"/>
			<polygon fill="#B99C53" points="206.754,225.668 204.846,223.998 65.134,229.982 67.042,231.651 			"/>
			<path fill="#B99C53" d="M62.138,226.982l139.301-5.966l-0.045-0.039c-0.718-0.628-1.503-1.16-2.327-1.611l-137.013,5.868
				C61.895,225.8,61.907,226.415,62.138,226.982z"/>
		</g>
		<g>
			<path fill="#9F8038" d="M117.66,262.551l29.027,15.58c2.937,1.576,5.153,4.223,6.191,7.39l39.789,121.523
				c0.762,2.327-1.705,4.394-3.863,3.236l-29.027-15.58c-2.937-1.576-5.153-4.223-6.191-7.39l-39.789-121.523
				C113.035,263.46,115.502,261.393,117.66,262.551z"/>
			<path fill="#B99C53" d="M147.451,278.59l43.204,131.953c-0.587,0.13-1.231,0.07-1.852-0.263l-0.092-0.049l-43.514-132.899
				l1.489,0.799C146.95,278.272,147.2,278.432,147.451,278.59z"/>
			<polygon fill="#B99C53" points="184.722,408.089 182.488,406.89 138.975,273.992 141.209,275.191 			"/>
			<polygon fill="#B99C53" points="178.499,404.749 176.265,403.55 132.751,270.651 134.985,271.85 			"/>
			<polygon fill="#B99C53" points="172.275,401.409 170.041,400.21 126.528,267.311 128.762,268.51 			"/>
			<polygon fill="#B99C53" points="166.052,398.069 163.818,396.869 120.305,263.971 122.539,265.17 			"/>
			<path fill="#B99C53" d="M116.443,262.221l43.385,132.507l-0.053-0.028c-0.841-0.451-1.614-0.999-2.326-1.613l-42.673-130.33
				C115.251,262.409,115.831,262.204,116.443,262.221z"/>
		</g>
		<g>
			<path fill="#9F8038" d="M168.758,357.347l20.659-25.661c2.09-2.596,5.099-4.288,8.403-4.724l126.772-16.728
				c2.428-0.32,4.005,2.485,2.469,4.393l-20.659,25.661c-2.09,2.596-5.099,4.288-8.404,4.724L171.228,361.74
				C168.799,362.061,167.223,359.255,168.758,357.347z"/>
			<path fill="#B99C53" d="M190.009,331.019l137.652-18.164c0.019,0.601-0.158,1.223-0.6,1.772l-0.065,0.081l-138.639,18.294
				l1.06-1.316C189.605,331.454,189.807,331.237,190.009,331.019z"/>
			<polygon fill="#B99C53" points="324.157,318.235 322.567,320.21 183.929,338.504 185.518,336.529 			"/>
			<polygon fill="#B99C53" points="319.728,323.737 318.138,325.712 179.499,344.006 181.089,342.031 			"/>
			<polygon fill="#B99C53" points="315.299,329.238 313.709,331.213 175.07,349.508 176.66,347.533 			"/>
			<polygon fill="#B99C53" points="310.87,334.74 309.28,336.715 170.641,355.009 172.231,353.034 			"/>
			<path fill="#B99C53" d="M168.21,358.482l138.231-18.24l-0.037,0.047c-0.598,0.743-1.279,1.403-2.013,1.989l-135.96,17.941
				C168.175,359.689,168.081,359.081,168.21,358.482z"/>
		</g>
		<g>
			<path fill="#9F8038" d="M144.29,305.488l26.947,18.951c2.726,1.917,6.086,2.711,9.382,2.217l126.456-18.967
				c2.422-0.363,3.162-3.495,1.159-4.904l-26.947-18.951c-2.726-1.917-6.086-2.711-9.382-2.217l-126.456,18.967
				C143.026,300.947,142.286,304.079,144.29,305.488z"/>
			<path fill="#B99C53" d="M171.99,324.916l137.31-20.595c-0.148-0.583-0.49-1.132-1.066-1.537l-0.085-0.06l-138.294,20.743
				l1.382,0.972C171.481,324.611,171.736,324.762,171.99,324.916z"/>
			<polygon fill="#B99C53" points="304.445,300.12 302.371,298.661 164.078,319.404 166.151,320.862 			"/>
			<polygon fill="#B99C53" points="298.668,296.057 296.594,294.598 158.3,315.341 160.374,316.799 			"/>
			<polygon fill="#B99C53" points="292.89,291.994 290.816,290.535 152.523,311.278 154.597,312.736 			"/>
			<polygon fill="#B99C53" points="287.113,287.931 285.039,286.472 146.745,307.215 148.819,308.673 			"/>
			<path fill="#B99C53" d="M143.449,304.549l137.887-20.682l-0.049-0.034c-0.78-0.549-1.617-0.994-2.485-1.355L143.18,302.82
				C143.082,303.4,143.159,304.01,143.449,304.549z"/>
		</g>
		<g>
			<path fill="#9F8038" d="M150.346,259.275l24.789,21.697c2.508,2.195,5.765,3.34,9.094,3.198l127.754-5.471
				c2.447-0.105,3.514-3.141,1.671-4.754l-24.789-21.697c-2.508-2.195-5.765-3.34-9.094-3.198l-127.754,5.471
				C149.57,254.626,148.503,257.662,150.346,259.275z"/>
			<path fill="#B99C53" d="M175.833,281.527l138.719-5.941c-0.085-0.596-0.367-1.178-0.897-1.641l-0.078-0.069l-139.713,5.983
				l1.271,1.113C175.36,281.169,175.597,281.348,175.833,281.527z"/>
			<polygon fill="#B99C53" points="310.169,270.895 308.261,269.225 168.549,275.208 170.456,276.878 			"/>
			<polygon fill="#B99C53" points="304.854,266.243 302.947,264.573 163.234,270.556 165.142,272.226 			"/>
			<polygon fill="#B99C53" points="299.54,261.591 297.632,259.921 157.919,265.904 159.827,267.574 			"/>
			<polygon fill="#B99C53" points="294.225,256.939 292.317,255.269 152.604,261.252 154.512,262.922 			"/>
			<path fill="#B99C53" d="M149.609,258.253l139.301-5.966l-0.045-0.039c-0.718-0.628-1.503-1.16-2.327-1.611l-137.013,5.868
				C149.366,257.071,149.378,257.686,149.609,258.253z"/>
		</g>
		<g>
			<path fill="#9F8038" d="M90.44,176.2l22.915-23.669c2.318-2.394,5.469-3.804,8.8-3.937l127.77-5.088
				c2.447-0.097,3.761,2.84,2.058,4.6l-22.915,23.669c-2.318,2.394-5.469,3.804-8.8,3.937L92.498,180.8
				C90.051,180.898,88.737,177.96,90.44,176.2z"/>
			<path fill="#B99C53" d="M114.005,151.922l138.736-5.524c-0.036,0.601-0.269,1.204-0.759,1.71l-0.072,0.075l-139.73,5.564
				l1.175-1.214C113.563,152.317,113.784,152.12,114.005,151.922z"/>
			<polygon fill="#B99C53" points="248.76,151.435 246.997,153.256 107.267,158.82 109.03,156.999 			"/>
			<polygon fill="#B99C53" points="243.847,156.509 242.084,158.331 102.354,163.895 104.117,162.073 			"/>
			<polygon fill="#B99C53" points="238.935,161.583 237.171,163.405 97.441,168.969 99.205,167.148 			"/>
			<polygon fill="#B99C53" points="234.022,166.658 232.258,168.48 92.528,174.044 94.292,172.222 			"/>
			<path fill="#B99C53" d="M89.79,177.28l139.319-5.548l-0.042,0.043c-0.664,0.686-1.402,1.28-2.187,1.797l-137.03,5.456
				C89.645,178.478,89.607,177.865,89.79,177.28z"/>
		</g>
		<g>
			<path fill="#9F8038" d="M247.487,57.773l8.998,31.691c0.91,3.206,0.551,6.64-1.003,9.588l-59.628,113.117
				c-1.142,2.166-4.343,1.832-5.012-0.524l-8.998-31.691c-0.91-3.206-0.551-6.64,1.003-9.588l59.628-113.117
				C243.617,55.082,246.818,55.417,247.487,57.773z"/>
			<path fill="#B99C53" d="M256.687,90.332l-64.746,122.825c-0.502-0.332-0.907-0.836-1.099-1.513l-0.028-0.1l65.21-123.706
				l0.462,1.625C256.566,89.751,256.626,90.042,256.687,90.332z"/>
			<polygon fill="#B99C53" points="189.577,207.188 188.884,204.749 254.094,81.044 254.787,83.483 			"/>
			<polygon fill="#B99C53" points="187.647,200.394 186.955,197.955 252.165,74.249 252.857,76.688 			"/>
			<polygon fill="#B99C53" points="185.718,193.6 185.026,191.16 250.236,67.455 250.928,69.894 			"/>
			<polygon fill="#B99C53" points="183.789,186.805 183.097,184.366 248.306,60.66 248.999,63.099 			"/>
			<path fill="#B99C53" d="M246.878,56.669L181.86,180.01l-0.016-0.057c-0.261-0.918-0.405-1.855-0.459-2.793l63.95-121.315
				C245.914,55.943,246.464,56.218,246.878,56.669z"/>
		</g>
		<g>
			<path fill="#9F8038" d="M313.75,82.098l27.751,17.753c2.807,1.796,4.816,4.604,5.607,7.841l30.381,124.209
				c0.582,2.379-2.036,4.251-4.099,2.931L345.64,217.08c-2.807-1.796-4.816-4.604-5.607-7.841L309.651,85.029
				C309.069,82.65,311.687,80.778,313.75,82.098z"/>
			<path fill="#B99C53" d="M342.228,100.367l32.989,134.87c-0.596,0.084-1.233-0.024-1.826-0.404l-0.088-0.056L340.078,98.941
				l1.423,0.911C341.753,100.013,341.99,100.191,342.228,100.367z"/>
			<polygon fill="#B99C53" points="369.489,232.337 367.353,230.971 334.128,95.135 336.264,96.501 			"/>
			<polygon fill="#B99C53" points="363.54,228.531 361.404,227.165 328.178,91.328 330.314,92.695 			"/>
			<polygon fill="#B99C53" points="357.59,224.725 355.454,223.359 322.229,87.522 324.364,88.889 			"/>
			<polygon fill="#B99C53" points="351.64,220.919 349.504,219.552 316.279,83.716 318.415,85.082 			"/>
			<path fill="#B99C53" d="M312.563,81.676l33.128,135.436l-0.05-0.032c-0.804-0.514-1.533-1.119-2.196-1.786L310.861,82.083
				C311.36,81.772,311.954,81.613,312.563,81.676z"/>
		</g>
		<g>
			<path fill="#9F8038" d="M163.929,211.821l31.29-10.305c3.166-1.043,6.611-0.826,9.621,0.604l115.494,54.883
				c2.212,1.051,2.01,4.263-0.316,5.029l-31.29,10.305c-3.165,1.043-6.611,0.826-9.621-0.604l-115.494-54.883
				C161.401,215.799,161.602,212.587,163.929,211.821z"/>
			<path fill="#B99C53" d="M196.078,201.278l125.406,59.594c-0.311,0.515-0.798,0.941-1.466,1.161l-0.099,0.033l-126.305-60.021
				l1.605-0.529C195.503,201.422,195.791,201.351,196.078,201.278z"/>
			<polygon fill="#B99C53" points="315.619,263.482 313.21,264.275 186.906,204.254 189.314,203.461 			"/>
			<polygon fill="#B99C53" points="308.91,265.691 306.502,266.484 180.197,206.463 182.605,205.67 			"/>
			<polygon fill="#B99C53" points="302.201,267.901 299.793,268.694 173.488,208.673 175.897,207.88 			"/>
			<polygon fill="#B99C53" points="295.493,270.11 293.085,270.903 166.78,210.882 169.188,210.089 			"/>
			<path fill="#B99C53" d="M162.851,212.475l125.933,59.844l-0.057,0.019c-0.906,0.298-1.836,0.482-2.771,0.575l-123.864-58.861
				C162.166,213.469,162.417,212.908,162.851,212.475z"/>
		</g>
		<g>
			<path fill="#9F8038" d="M344.015,392.517l-28.111-17.178c-2.844-1.738-4.909-4.504-5.768-7.724l-32.934-123.557
				c-0.631-2.366,1.948-4.292,4.038-3.015l28.111,17.178c2.844,1.738,4.909,4.504,5.768,7.724l32.934,123.557
				C348.684,391.869,346.105,393.794,344.015,392.517z"/>
			<path fill="#B99C53" d="M315.167,374.838l-35.76-134.162c0.594-0.097,1.233-0.001,1.834,0.366l0.089,0.054l36.017,135.123
				l-1.442-0.881C315.65,375.184,315.409,375.01,315.167,374.838z"/>
			<polygon fill="#B99C53" points="285.193,243.458 287.356,244.78 323.373,379.903 321.21,378.581 			"/>
			<polygon fill="#B99C53" points="291.22,247.141 293.383,248.463 329.4,383.586 327.236,382.264 			"/>
			<polygon fill="#B99C53" points="297.247,250.824 299.41,252.146 335.427,387.269 333.263,385.947 			"/>
			<polygon fill="#B99C53" points="303.273,254.507 305.437,255.829 341.454,390.952 339.29,389.63 			"/>
			<path fill="#B99C53" d="M345.211,392.915L309.3,258.19l0.051,0.031c0.814,0.498,1.556,1.088,2.232,1.74l35.321,132.512
				C346.412,392.794,345.821,392.966,345.211,392.915z"/>
		</g>
		<g>
			<path fill="#9F8038" d="M329.908,194.462l-25.261,13.211c-2.556,1.337-5.254,1.524-7.537,0.522l-87.558-38.413
				c-1.677-0.736-1.322-3.772,0.556-4.754l25.261-13.211c2.556-1.337,5.254-1.524,7.537-0.522l87.558,38.413
				C332.141,190.443,331.786,193.48,329.908,194.462z"/>
			<path fill="#B99C53" d="M303.956,207.993l-95.072-41.71c0.276-0.518,0.685-0.973,1.225-1.255l0.08-0.042l95.754,42.009
				l-1.296,0.678C304.418,207.793,304.187,207.892,303.956,207.993z"/>
			<polygon fill="#B99C53" points="213.661,163.17 215.605,162.154 311.359,204.163 309.415,205.18 			"/>
			<polygon fill="#B99C53" points="219.077,160.338 221.021,159.321 316.775,201.33 314.83,202.347 			"/>
			<polygon fill="#B99C53" points="224.492,157.505 226.437,156.489 322.19,198.498 320.246,199.515 			"/>
			<polygon fill="#B99C53" points="229.908,154.673 231.853,153.656 327.606,195.665 325.662,196.682 			"/>
			<path fill="#B99C53" d="M330.796,193.726l-95.472-41.886l0.046-0.024c0.732-0.383,1.475-0.66,2.217-0.853l93.903,41.197
				C331.396,192.716,331.164,193.271,330.796,193.726z"/>
		</g>
		<g>
			<path fill="#9F8038" d="M242.723,208.624l27.056-8.979c2.737-0.908,5.431-0.659,7.522,0.696l80.246,51.986
				c1.537,0.996,0.698,3.935-1.313,4.603l-27.056,8.979c-2.737,0.908-5.431,0.659-7.522-0.696l-80.246-51.986
				C239.873,212.231,240.712,209.291,242.723,208.624z"/>
			<path fill="#B99C53" d="M270.512,199.439l87.133,56.448c-0.356,0.467-0.833,0.85-1.411,1.042l-0.085,0.028l-87.757-56.853
				l1.388-0.461C270.024,199.563,270.268,199.502,270.512,199.439z"/>
			<polygon fill="#B99C53" points="352.43,258.192 350.348,258.883 262.59,202.03 264.673,201.339 			"/>
			<polygon fill="#B99C53" points="346.629,260.117 344.547,260.808 256.79,203.955 258.872,203.264 			"/>
			<polygon fill="#B99C53" points="340.829,262.042 338.746,262.733 250.989,205.881 253.071,205.189 			"/>
			<polygon fill="#B99C53" points="335.028,263.967 332.946,264.658 245.188,207.806 247.271,207.115 			"/>
			<path fill="#B99C53" d="M241.728,209.207l87.499,56.685l-0.049,0.016c-0.784,0.26-1.562,0.414-2.325,0.486l-86.061-55.754
				C240.974,210.107,241.292,209.597,241.728,209.207z"/>
		</g>
		<g>
			<path fill="#9F8038" d="M126.384,234.688l31.48,9.711c3.185,0.982,5.869,3.153,7.495,6.062l62.402,111.61
				c1.195,2.138-0.829,4.64-3.169,3.918l-31.48-9.711c-3.185-0.982-5.869-3.153-7.495-6.062l-62.402-111.61
				C122.02,236.469,124.044,233.966,126.384,234.688z"/>
			<path fill="#B99C53" d="M158.703,244.702l67.758,121.19c-0.552,0.24-1.195,0.305-1.868,0.098l-0.099-0.031L156.25,243.901
				l1.615,0.498C158.15,244.487,158.426,244.595,158.703,244.702z"/>
			<polygon fill="#B99C53" points="220.167,364.624 217.744,363.877 149.501,241.819 151.923,242.566 			"/>
			<polygon fill="#B99C53" points="213.418,362.543 210.995,361.795 142.751,239.737 145.174,240.484 			"/>
			<polygon fill="#B99C53" points="206.669,360.461 204.246,359.713 136.002,237.655 138.425,238.402 			"/>
			<polygon fill="#B99C53" points="199.92,358.379 197.497,357.631 129.253,235.573 131.676,236.321 			"/>
			<path fill="#B99C53" d="M125.127,234.598l68.043,121.699l-0.057-0.018c-0.912-0.281-1.776-0.67-2.593-1.136l-66.925-119.699
				C123.994,235.011,124.523,234.699,125.127,234.598z"/>
		</g>
		<g>
			<path fill="#9F8038" d="M345.625,302.785l-20.676-22.887c-2.092-2.315-3.106-5.225-2.832-8.126l10.519-111.292
				c0.201-2.131,3.274-2.892,4.811-1.19l20.676,22.887c2.092,2.315,3.106,5.225,2.832,8.126l-10.519,111.292
				C350.235,303.727,347.162,304.487,345.625,302.785z"/>
			<path fill="#B99C53" d="M324.423,279.256l11.421-120.844c0.591,0.108,1.161,0.388,1.603,0.877l0.065,0.072l-11.503,121.711
				l-1.061-1.174C324.761,279.69,324.593,279.473,324.423,279.256z"/>
			<polygon fill="#B99C53" points="340.354,162.507 341.945,164.268 330.442,285.979 328.851,284.217 			"/>
			<polygon fill="#B99C53" points="344.787,167.414 346.378,169.175 334.875,290.886 333.284,289.124 			"/>
			<polygon fill="#B99C53" points="349.22,172.321 350.811,174.082 339.308,295.793 337.717,294.031 			"/>
			<polygon fill="#B99C53" points="353.653,177.228 355.244,178.989 343.741,300.7 342.15,298.938 			"/>
			<path fill="#B99C53" d="M346.616,303.487l11.469-121.352l0.038,0.042c0.599,0.663,1.098,1.379,1.516,2.125l-11.281,119.358
				C347.787,303.766,347.174,303.721,346.616,303.487z"/>
		</g>
		<g>
			<path fill="#B99C53" d="M380.029,104.493l-20.64-22.92c-2.088-2.319-4.879-3.627-7.792-3.652l-111.784-0.979
				c-2.141-0.019-3.213,2.96-1.679,4.664l20.64,22.92c2.088,2.319,4.879,3.627,7.792,3.652l111.784,0.979
				C380.492,109.176,381.564,106.197,380.029,104.493z"/>
			<path fill="#DFBE64" d="M358.805,80.985l-121.378-1.063c0.047,0.599,0.266,1.195,0.708,1.684l0.065,0.072l122.248,1.071
				l-1.059-1.176C359.202,81.366,359.003,81.176,358.805,80.985z"/>
			<polygon fill="#DFBE64" points="241.036,84.828 242.625,86.592 364.873,87.663 363.284,85.899 			"/>
			<polygon fill="#DFBE64" points="245.461,89.742 247.05,91.506 369.298,92.577 367.71,90.813 			"/>
			<polygon fill="#DFBE64" points="249.886,94.656 251.475,96.42 373.723,97.491 372.135,95.727 			"/>
			<polygon fill="#DFBE64" points="254.312,99.57 255.9,101.334 378.148,102.405 376.56,100.641 			"/>
			<path fill="#DFBE64" d="M380.625,105.552l-121.888-1.068l0.037,0.042c0.598,0.664,1.258,1.234,1.958,1.726l119.886,1.05
				C380.783,106.745,380.801,106.13,380.625,105.552z"/>
		</g>
		<g>
			<path fill="#B99C53" d="M401.225,202.024l-24.811-21.673c-2.51-2.193-5.768-3.335-9.097-3.189l-127.748,5.596
				c-2.447,0.107-3.511,3.144-1.667,4.756l24.811,21.673c2.51,2.193,5.768,3.335,9.097,3.189l127.748-5.596
				C402.005,206.672,403.07,203.635,401.225,202.024z"/>
			<path fill="#DFBE64" d="M375.716,179.797l-138.713,6.076c0.086,0.595,0.369,1.177,0.899,1.64l0.078,0.068l139.707-6.119
				l-1.273-1.112C376.19,180.154,375.952,179.976,375.716,179.797z"/>
			<polygon fill="#DFBE64" points="241.39,190.56 243.3,192.228 383.006,186.109 381.097,184.441 			"/>
			<polygon fill="#DFBE64" points="246.709,195.207 248.619,196.875 388.326,190.756 386.416,189.088 			"/>
			<polygon fill="#DFBE64" points="252.029,199.854 253.938,201.522 393.645,195.402 391.736,193.734 			"/>
			<polygon fill="#DFBE64" points="257.348,204.5 259.258,206.168 398.964,200.049 397.055,198.381 			"/>
			<path fill="#DFBE64" d="M401.963,203.046l-139.295,6.101l0.045,0.039c0.719,0.628,1.504,1.158,2.329,1.608l137.007-6.001
				C402.207,204.228,402.194,203.613,401.963,203.046z"/>
		</g>
		<g>
			<path fill="#B99C53" d="M415.846,227.803L391.057,249.5c-2.508,2.195-5.765,3.34-9.094,3.198l-127.754-5.471
				c-2.447-0.105-3.514-3.141-1.671-4.754l24.789-21.697c2.508-2.195,5.765-3.34,9.094-3.198l127.754,5.471
				C416.622,223.154,417.689,226.19,415.846,227.803z"/>
			<path fill="#DFBE64" d="M390.359,250.055l-138.719-5.941c0.085-0.596,0.367-1.178,0.897-1.641l0.078-0.069l139.713,5.983
				l-1.271,1.113C390.832,249.697,390.595,249.875,390.359,250.055z"/>
			<polygon fill="#DFBE64" points="256.023,239.422 257.931,237.752 397.643,243.736 395.735,245.405 			"/>
			<polygon fill="#DFBE64" points="261.337,234.77 263.245,233.1 402.958,239.084 401.05,240.754 			"/>
			<polygon fill="#DFBE64" points="266.652,230.118 268.56,228.448 408.273,234.432 406.365,236.102 			"/>
			<polygon fill="#DFBE64" points="271.967,225.467 273.875,223.797 413.588,229.78 411.68,231.45 			"/>
			<path fill="#DFBE64" d="M416.583,226.78l-139.301-5.966l0.045-0.039c0.718-0.628,1.503-1.16,2.327-1.611l137.013,5.868
				C416.826,225.598,416.814,226.213,416.583,226.78z"/>
		</g>
		<g>
			<path fill="#B99C53" d="M458.807,191.57l-32.942,0.337c-3.333,0.034-6.524,1.35-8.912,3.675l-91.621,89.199
				c-1.755,1.708-0.528,4.684,1.921,4.659l32.942-0.337c3.333-0.034,6.524-1.35,8.912-3.675l91.621-89.199
				C462.483,194.52,461.256,191.545,458.807,191.57z"/>
			<path fill="#DFBE64" d="M424.975,191.959l-99.485,96.855c0.46,0.387,1.058,0.633,1.763,0.626l0.104-0.001l100.198-97.549
				l-1.69,0.017C425.566,191.91,425.27,191.935,424.975,191.959z"/>
			<polygon fill="#DFBE64" points="331.884,289.392 334.419,289.367 434.617,191.817 432.082,191.843 			"/>
			<polygon fill="#DFBE64" points="338.947,289.32 341.482,289.294 441.68,191.745 439.144,191.771 			"/>
			<polygon fill="#DFBE64" points="346.009,289.248 348.545,289.222 448.742,191.673 446.207,191.699 			"/>
			<polygon fill="#DFBE64" points="353.072,289.176 355.607,289.15 455.805,191.601 453.27,191.627 			"/>
			<path fill="#DFBE64" d="M460.037,191.842l-99.903,97.262l0.06-0.001c0.954-0.01,1.893-0.136,2.809-0.35l98.261-95.664
				C461.006,192.561,460.587,192.111,460.037,191.842z"/>
		</g>
		<g>
			<path fill="#B99C53" d="M328.981,359.06l-20.659-25.661c-2.09-2.596-5.099-4.288-8.403-4.724l-126.772-16.728
				c-2.428-0.32-4.005,2.485-2.469,4.393l20.659,25.661c2.09,2.596,5.099,4.288,8.403,4.724l126.772,16.728
				C328.94,363.774,330.517,360.968,328.981,359.06z"/>
			<path fill="#DFBE64" d="M307.731,332.732l-137.652-18.164c-0.019,0.601,0.158,1.223,0.6,1.772l0.065,0.081l138.639,18.294
				l-1.06-1.316C308.135,333.167,307.932,332.95,307.731,332.732z"/>
			<polygon fill="#DFBE64" points="173.583,319.948 175.173,321.923 313.811,340.217 312.222,338.242 			"/>
			<polygon fill="#DFBE64" points="178.012,325.45 179.602,327.425 318.241,345.719 316.651,343.744 			"/>
			<polygon fill="#DFBE64" points="182.441,330.951 184.031,332.926 322.67,351.22 321.08,349.246 			"/>
			<polygon fill="#DFBE64" points="186.87,336.453 188.46,338.428 327.099,356.722 325.509,354.747 			"/>
			<path fill="#DFBE64" d="M329.53,360.195l-138.231-18.24l0.037,0.047c0.598,0.743,1.279,1.403,2.013,1.989l135.96,17.941
				C329.565,361.401,329.659,360.794,329.53,360.195z"/>
		</g>
		<g>
			<path fill="#B99C53" d="M334.432,305.287l-26.947,18.951c-2.726,1.917-6.086,2.711-9.382,2.217l-126.456-18.967
				c-2.422-0.363-3.162-3.495-1.159-4.904l26.947-18.951c2.726-1.917,6.086-2.711,9.382-2.217l126.456,18.967
				C335.695,300.746,336.435,303.878,334.432,305.287z"/>
			<path fill="#DFBE64" d="M306.731,324.715l-137.31-20.595c0.148-0.583,0.49-1.132,1.066-1.537l0.085-0.06l138.294,20.743
				l-1.382,0.972C307.24,324.409,306.985,324.561,306.731,324.715z"/>
			<polygon fill="#DFBE64" points="174.276,299.918 176.35,298.46 314.644,319.202 312.57,320.661 			"/>
			<polygon fill="#DFBE64" points="180.053,295.855 182.127,294.397 320.421,315.139 318.347,316.598 			"/>
			<polygon fill="#DFBE64" points="185.831,291.792 187.905,290.334 326.199,311.076 324.125,312.535 			"/>
			<polygon fill="#DFBE64" points="191.608,287.729 193.683,286.271 331.976,307.013 329.902,308.472 			"/>
			<path fill="#DFBE64" d="M335.273,304.348l-137.887-20.682l0.049-0.034c0.78-0.549,1.617-0.994,2.485-1.355l135.621,20.342
				C335.639,303.198,335.562,303.808,335.273,304.348z"/>
		</g>
		<g>
			<path fill="#B99C53" d="M328.376,259.074l-24.789,21.697c-2.508,2.195-5.765,3.34-9.094,3.198l-127.754-5.471
				c-2.447-0.105-3.514-3.141-1.671-4.754l24.789-21.697c2.508-2.195,5.765-3.34,9.094-3.198l127.754,5.471
				C329.151,254.425,330.219,257.461,328.376,259.074z"/>
			<path fill="#DFBE64" d="M302.888,281.326l-138.719-5.941c0.085-0.596,0.367-1.177,0.897-1.641l0.078-0.069l139.713,5.983
				l-1.271,1.113C303.362,280.968,303.124,281.146,302.888,281.326z"/>
			<polygon fill="#DFBE64" points="168.552,270.693 170.46,269.023 310.172,275.007 308.265,276.676 			"/>
			<polygon fill="#DFBE64" points="173.867,266.041 175.775,264.371 315.487,270.355 313.58,272.025 			"/>
			<polygon fill="#DFBE64" points="179.182,261.389 181.089,259.719 320.802,265.703 318.894,267.373 			"/>
			<polygon fill="#DFBE64" points="184.496,256.737 186.404,255.068 326.117,261.051 324.209,262.721 			"/>
			<path fill="#DFBE64" d="M329.113,258.051l-139.301-5.966l0.045-0.039c0.718-0.628,1.503-1.16,2.327-1.611l137.013,5.868
				C329.356,256.869,329.343,257.484,329.113,258.051z"/>
		</g>
		<g>
			<path fill="#B99C53" d="M416.319,152.088l-22.915-23.669c-2.318-2.394-5.469-3.804-8.8-3.937l-127.77-5.088
				c-2.447-0.097-3.762,2.84-2.058,4.6l22.915,23.669c2.318,2.394,5.469,3.804,8.8,3.937l127.77,5.088
				C416.709,156.786,418.023,153.848,416.319,152.088z"/>
			<path fill="#DFBE64" d="M392.754,127.81l-138.736-5.524c0.036,0.601,0.269,1.204,0.759,1.71l0.072,0.075l139.73,5.564
				l-1.175-1.214C393.197,128.205,392.975,128.008,392.754,127.81z"/>
			<polygon fill="#DFBE64" points="257.999,127.323 259.763,129.144 399.493,134.708 397.729,132.887 			"/>
			<polygon fill="#DFBE64" points="262.912,132.397 264.676,134.219 404.406,139.783 402.642,137.961 			"/>
			<polygon fill="#DFBE64" points="267.825,137.472 269.588,139.293 409.318,144.857 407.555,143.036 			"/>
			<polygon fill="#DFBE64" points="272.738,142.546 274.501,144.368 414.231,149.932 412.468,148.11 			"/>
			<path fill="#DFBE64" d="M416.969,153.168l-139.319-5.548l0.042,0.043c0.664,0.686,1.402,1.28,2.187,1.797l137.03,5.456
				C417.114,154.366,417.152,153.753,416.969,153.168z"/>
		</g>
		<g>
			<path fill="#B99C53" d="M196.356,45.309L187.358,77c-0.91,3.206-0.551,6.64,1.003,9.588l59.628,113.117
				c1.142,2.166,4.343,1.832,5.012-0.524l8.998-31.691c0.91-3.206,0.551-6.64-1.003-9.588L201.368,44.785
				C200.226,42.618,197.025,42.953,196.356,45.309z"/>
			<path fill="#DFBE64" d="M187.155,77.868l64.746,122.825c0.502-0.332,0.907-0.836,1.099-1.513l0.028-0.1l-65.21-123.706
				L187.358,77C187.276,77.287,187.217,77.578,187.155,77.868z"/>
			<polygon fill="#DFBE64" points="254.266,194.725 254.958,192.286 189.748,68.58 189.056,71.019 			"/>
			<polygon fill="#DFBE64" points="256.195,187.93 256.888,185.491 191.678,61.785 190.985,64.225 			"/>
			<polygon fill="#DFBE64" points="258.124,181.136 258.817,178.697 193.607,54.991 192.914,57.43 			"/>
			<polygon fill="#DFBE64" points="260.054,174.341 260.746,171.902 195.536,48.197 194.844,50.636 			"/>
			<path fill="#DFBE64" d="M196.965,44.205l65.018,123.341l0.016-0.057c0.261-0.918,0.405-1.855,0.459-2.793l-63.95-121.315
				C197.929,43.48,197.379,43.754,196.965,44.205z"/>
		</g>
		<g>
			<path fill="#B99C53" d="M164.971,81.897L137.22,99.65c-2.807,1.796-4.816,4.604-5.607,7.841l-30.381,124.209
				c-0.582,2.379,2.036,4.251,4.099,2.931l27.751-17.753c2.807-1.796,4.816-4.604,5.607-7.841L169.07,84.828
				C169.652,82.449,167.034,80.577,164.971,81.897z"/>
			<path fill="#DFBE64" d="M136.493,100.166l-32.989,134.87c0.596,0.084,1.233-0.024,1.826-0.404l0.088-0.056L138.643,98.74
				l-1.423,0.911C136.969,99.811,136.731,99.989,136.493,100.166z"/>
			<polygon fill="#DFBE64" points="109.232,232.136 111.368,230.77 144.593,94.933 142.457,96.3 			"/>
			<polygon fill="#DFBE64" points="115.182,228.33 117.318,226.963 150.543,91.127 148.407,92.493 			"/>
			<polygon fill="#DFBE64" points="121.131,224.523 123.267,223.157 156.493,87.321 154.357,88.687 			"/>
			<polygon fill="#DFBE64" points="127.081,220.717 129.217,219.351 162.442,83.514 160.307,84.881 			"/>
			<path fill="#DFBE64" d="M166.158,81.474l-33.128,135.436l0.05-0.032c0.804-0.514,1.533-1.119,2.196-1.786L167.86,81.882
				C167.361,81.571,166.768,81.411,166.158,81.474z"/>
		</g>
		<g>
			<path fill="#B99C53" d="M291.612,363.435l-31.437-9.85c-3.18-0.996-6.622-0.73-9.611,0.744l-114.683,56.557
				c-2.196,1.083-1.948,4.292,0.389,5.024l31.437,9.85c3.18,0.996,6.622,0.73,9.611-0.744l114.683-56.557
				C294.198,367.375,293.949,364.167,291.612,363.435z"/>
			<path fill="#DFBE64" d="M259.313,353.359L134.786,414.77c0.318,0.511,0.811,0.929,1.483,1.14l0.099,0.031l125.419-61.851
				l-1.612-0.505C259.891,353.496,259.602,353.429,259.313,353.359z"/>
			<polygon fill="#DFBE64" points="140.689,417.295 143.109,418.053 268.528,356.202 266.108,355.444 			"/>
			<polygon fill="#DFBE64" points="147.429,419.406 149.849,420.164 275.268,358.314 272.848,357.556 			"/>
			<polygon fill="#DFBE64" points="154.169,421.518 156.589,422.276 282.008,360.425 279.588,359.667 			"/>
			<polygon fill="#DFBE64" points="160.909,423.63 163.329,424.388 288.748,362.537 286.328,361.779 			"/>
			<path fill="#DFBE64" d="M292.699,364.073l-125.05,61.669l0.057,0.018c0.911,0.285,1.843,0.455,2.779,0.535l122.995-60.655
				C293.399,365.056,293.139,364.499,292.699,364.073z"/>
		</g>
		<g>
			<path fill="#B99C53" d="M39.974,318.743l27.766,17.729c2.809,1.794,6.201,2.437,9.471,1.796l125.484-24.59
				c2.403-0.471,3.003-3.633,0.939-4.951l-27.766-17.729c-2.809-1.794-6.201-2.437-9.471-1.796l-125.484,24.59
				C38.509,314.263,37.91,317.426,39.974,318.743z"/>
			<path fill="#DFBE64" d="M68.513,336.916l136.254-26.701c-0.174-0.576-0.54-1.109-1.133-1.488l-0.088-0.056L66.316,335.564
				l1.424,0.909C67.992,336.634,68.253,336.774,68.513,336.916z"/>
			<polygon fill="#DFBE64" points="199.73,306.235 197.593,304.87 60.363,331.762 62.5,333.127 			"/>
			<polygon fill="#DFBE64" points="193.778,302.434 191.641,301.069 54.41,327.961 56.547,329.326 			"/>
			<polygon fill="#DFBE64" points="187.825,298.633 185.688,297.268 48.457,324.16 50.594,325.525 			"/>
			<polygon fill="#DFBE64" points="181.872,294.831 179.734,293.467 42.504,320.359 44.641,321.723 			"/>
			<path fill="#DFBE64" d="M39.092,317.843l136.827-26.813l-0.05-0.032c-0.804-0.513-1.66-0.921-2.543-1.243L38.747,316.128
				C38.674,316.711,38.779,317.317,39.092,317.843z"/>
		</g>
		<g>
			<path fill="#B99C53" d="M148.813,194.26l25.261,13.211c2.556,1.337,5.254,1.524,7.537,0.522l87.558-38.413
				c1.677-0.736,1.322-3.772-0.556-4.754l-25.261-13.211c-2.556-1.337-5.254-1.524-7.537-0.522l-87.558,38.413
				C146.58,190.242,146.935,193.278,148.813,194.26z"/>
			<path fill="#DFBE64" d="M174.765,207.792l95.072-41.71c-0.276-0.518-0.685-0.973-1.225-1.255l-0.08-0.042l-95.754,42.009
				l1.296,0.678C174.303,207.591,174.534,207.691,174.765,207.792z"/>
			<polygon fill="#DFBE64" points="265.06,162.969 263.116,161.952 167.363,203.961 169.307,204.978 			"/>
			<polygon fill="#DFBE64" points="259.645,160.136 257.7,159.12 161.947,201.129 163.891,202.146 			"/>
			<polygon fill="#DFBE64" points="254.229,157.304 252.285,156.287 156.531,198.296 158.475,199.313 			"/>
			<polygon fill="#DFBE64" points="248.813,154.471 246.869,153.455 151.115,195.464 153.059,196.481 			"/>
			<path fill="#DFBE64" d="M147.925,193.525l95.472-41.886l-0.046-0.024c-0.732-0.383-1.475-0.66-2.217-0.853l-93.903,41.197
				C147.325,192.515,147.557,193.07,147.925,193.525z"/>
		</g>
		<g>
			<path fill="#B99C53" d="M235.998,208.422l-27.056-8.979c-2.737-0.908-5.431-0.659-7.523,0.696l-80.246,51.986
				c-1.537,0.996-0.698,3.935,1.313,4.603l27.056,8.979c2.737,0.908,5.431,0.659,7.522-0.696l80.246-51.986
				C238.848,212.03,238.009,209.09,235.998,208.422z"/>
			<path fill="#DFBE64" d="M208.209,199.238l-87.133,56.448c0.356,0.467,0.833,0.85,1.411,1.042l0.085,0.028l87.757-56.853
				l-1.388-0.461C208.697,199.362,208.453,199.3,208.209,199.238z"/>
			<polygon fill="#DFBE64" points="126.291,257.99 128.374,258.681 216.131,201.829 214.049,201.138 			"/>
			<polygon fill="#DFBE64" points="132.092,259.915 134.174,260.606 221.932,203.754 219.849,203.063 			"/>
			<polygon fill="#DFBE64" points="137.893,261.84 139.975,262.532 227.732,205.679 225.65,204.988 			"/>
			<polygon fill="#DFBE64" points="143.693,263.766 145.776,264.457 233.533,207.604 231.451,206.913 			"/>
			<path fill="#DFBE64" d="M236.993,209.006l-87.499,56.685l0.049,0.016c0.784,0.26,1.562,0.414,2.325,0.486l86.061-55.754
				C237.747,209.906,237.429,209.395,236.993,209.006z"/>
		</g>
		<g>
			<path fill="#B99C53" d="M436.184,251.129l-31.48,9.711c-3.185,0.982-5.869,3.153-7.495,6.062l-62.402,111.61
				c-1.195,2.138,0.829,4.64,3.169,3.918l31.48-9.711c3.185-0.982,5.869-3.153,7.495-6.062l62.402-111.61
				C440.548,252.91,438.524,250.407,436.184,251.129z"/>
			<path fill="#DFBE64" d="M403.866,261.143l-67.758,121.19c0.552,0.24,1.195,0.305,1.868,0.098l0.099-0.031l68.244-122.058
				l-1.615,0.498C404.419,260.928,404.142,261.036,403.866,261.143z"/>
			<polygon fill="#DFBE64" points="342.401,381.065 344.824,380.318 413.068,258.26 410.645,259.007 			"/>
			<polygon fill="#DFBE64" points="349.15,378.984 351.573,378.236 419.817,256.178 417.394,256.925 			"/>
			<polygon fill="#DFBE64" points="355.9,376.902 358.322,376.154 426.566,254.096 424.143,254.843 			"/>
			<polygon fill="#DFBE64" points="362.649,374.82 365.072,374.072 433.316,252.014 430.893,252.762 			"/>
			<path fill="#DFBE64" d="M437.441,251.039l-68.043,121.699l0.057-0.018c0.912-0.281,1.776-0.67,2.593-1.136l66.925-119.699
				C438.575,251.452,438.045,251.14,437.441,251.039z"/>
		</g>
		<g>
			<path fill="#B99C53" d="M79.248,292.393l20.676-22.887c2.092-2.315,3.106-5.225,2.832-8.126L92.238,150.087
				c-0.201-2.131-3.274-2.892-4.812-1.19L66.75,171.784c-2.092,2.315-3.106,5.225-2.832,8.126l10.519,111.292
				C74.638,293.335,77.711,294.095,79.248,292.393z"/>
			<path fill="#DFBE64" d="M100.45,268.865L89.029,148.02c-0.591,0.108-1.161,0.388-1.603,0.877l-0.065,0.072L98.864,270.68
				l1.061-1.174C100.112,269.299,100.28,269.081,100.45,268.865z"/>
			<polygon fill="#DFBE64" points="84.519,152.115 82.928,153.876 94.431,275.587 96.023,273.826 			"/>
			<polygon fill="#DFBE64" points="80.086,157.022 78.495,158.783 89.998,280.494 91.59,278.732 			"/>
			<polygon fill="#DFBE64" points="75.653,161.929 74.062,163.69 85.565,285.401 87.157,283.639 			"/>
			<polygon fill="#DFBE64" points="71.22,166.836 69.629,168.597 81.132,290.308 82.724,288.546 			"/>
			<path fill="#DFBE64" d="M78.257,293.095L66.787,171.743l-0.038,0.041c-0.599,0.663-1.098,1.379-1.516,2.125l11.281,119.358
				C77.087,293.375,77.7,293.329,78.257,293.095z"/>
		</g>
		<g>
			<path fill="#DFBE64" d="M222.952,28.764l-29.59,8.705c-2.994,0.881-5.379,2.832-6.661,5.448l-49.203,100.378
				c-0.942,1.922,1.28,4.177,3.48,3.53l29.59-8.705c2.994-0.881,5.379-2.832,6.661-5.448l49.203-100.378
				C227.374,30.371,225.151,28.117,222.952,28.764z"/>
			<path fill="#F8D680" d="M192.578,37.741l-53.426,108.993c0.56,0.217,1.192,0.276,1.825,0.09l0.093-0.027l53.809-109.774
				l-1.518,0.446C193.094,37.548,192.836,37.645,192.578,37.741z"/>
			<polygon fill="#F8D680" points="145.138,145.6 147.415,144.93 201.223,35.156 198.946,35.826 			"/>
			<polygon fill="#F8D680" points="151.482,143.734 153.759,143.064 207.568,33.29 205.29,33.96 			"/>
			<polygon fill="#F8D680" points="157.825,141.868 160.103,141.198 213.911,31.423 211.634,32.093 			"/>
			<polygon fill="#F8D680" points="164.169,140.001 166.447,139.331 220.255,29.557 217.978,30.227 			"/>
			<path fill="#F8D680" d="M224.164,28.684l-53.65,109.451l0.054-0.016c0.857-0.252,1.657-0.601,2.403-1.019l52.769-107.653
				C225.308,29.057,224.761,28.776,224.164,28.684z"/>
		</g>
		<g>
			<path fill="#DFBE64" d="M324.323,97.789l-32.836,2.658c-3.322,0.269-6.413,1.807-8.631,4.294l-85.105,95.437
				c-1.63,1.828-0.196,4.709,2.245,4.512l32.836-2.658c3.322-0.269,6.413-1.807,8.631-4.294l85.105-95.437
				C328.198,100.473,326.764,97.592,324.323,97.789z"/>
			<path fill="#F8D680" d="M290.602,100.562L198.193,204.19c0.486,0.354,1.1,0.557,1.802,0.5l0.104-0.008l93.071-104.37
				l-1.684,0.136C291.189,100.472,290.896,100.518,290.602,100.562z"/>
			<polygon fill="#F8D680" points="204.612,204.317 207.14,204.112 300.211,99.742 297.684,99.946 			"/>
			<polygon fill="#F8D680" points="211.652,203.747 214.18,203.542 307.251,99.172 304.724,99.376 			"/>
			<polygon fill="#F8D680" points="218.692,203.177 221.22,202.972 314.291,98.602 311.764,98.806 			"/>
			<polygon fill="#F8D680" points="225.732,202.607 228.26,202.402 321.331,98.032 318.804,98.236 			"/>
			<path fill="#F8D680" d="M325.57,97.974l-92.797,104.063l0.06-0.005c0.951-0.077,1.879-0.269,2.777-0.547l91.273-102.353
				C326.587,98.623,326.137,98.203,325.57,97.974z"/>
		</g>
		<g>
			<path fill="#DFBE64" d="M352.993,105.296l-1.746,32.897c-0.177,3.328-1.628,6.46-4.053,8.747l-93.038,87.721
				c-1.782,1.68-4.702,0.327-4.572-2.119l1.746-32.897c0.177-3.328,1.628-6.46,4.053-8.747l93.038-87.721
				C350.203,101.497,353.123,102.85,352.993,105.296z"/>
			<path fill="#F8D680" d="M351.157,139.08l-101.023,95.25c-0.367-0.476-0.587-1.085-0.55-1.788l0.005-0.104l101.747-95.932
				l-0.09,1.687C351.231,138.492,351.193,138.786,351.157,139.08z"/>
			<polygon fill="#F8D680" points="249.83,227.917 249.964,225.385 351.711,129.453 351.577,131.985 			"/>
			<polygon fill="#F8D680" points="250.204,220.864 250.338,218.332 352.086,122.4 351.951,124.932 			"/>
			<polygon fill="#F8D680" points="250.578,213.811 250.713,211.279 352.46,115.347 352.325,117.879 			"/>
			<polygon fill="#F8D680" points="250.953,206.758 251.087,204.226 352.834,108.294 352.7,110.826 			"/>
			<path fill="#F8D680" d="M352.775,104.055l-101.447,95.65l0.003-0.06c0.051-0.953,0.217-1.886,0.469-2.791l99.781-94.078
				C352.097,103.056,352.529,103.494,352.775,104.055z"/>
		</g>
		<g>
			<path fill="#DFBE64" d="M357,49.239l-22.738,23.838c-2.3,2.412-3.584,5.616-3.584,8.949v127.871c0,2.449,2.988,3.646,4.678,1.873
				l22.738-23.838c2.3-2.412,3.584-5.616,3.584-8.949V51.113C361.678,48.663,358.69,47.467,357,49.239z"/>
			<path fill="#F8D680" d="M333.678,73.751v138.846c0.599-0.06,1.192-0.317,1.678-0.826l0.072-0.075V71.855l-1.166,1.223
				C334.056,73.294,333.868,73.523,333.678,73.751z"/>
			<polygon fill="#F8D680" points="338.553,208.419 340.303,206.585 340.303,66.744 338.553,68.579 			"/>
			<polygon fill="#F8D680" points="343.428,203.309 345.178,201.474 345.178,61.633 343.428,63.468 			"/>
			<polygon fill="#F8D680" points="348.303,198.198 350.053,196.363 350.053,56.522 348.303,58.357 			"/>
			<polygon fill="#F8D680" points="353.178,193.087 354.928,191.252 354.928,51.411 353.178,53.246 			"/>
			<path fill="#F8D680" d="M358.053,48.547v139.429l0.041-0.043c0.659-0.69,1.223-1.452,1.709-2.256V48.538
				C359.244,48.354,358.63,48.341,358.053,48.547z"/>
		</g>
		<g>
			<path fill="#DFBE64" d="M371.808,271.389l-32.798-3.098c-3.318-0.313-6.629,0.663-9.247,2.726l-100.419,79.165
				c-1.923,1.516-1.013,4.603,1.425,4.834l32.798,3.098c3.318,0.313,6.629-0.663,9.247-2.726l100.419-79.165
				C375.156,274.706,374.246,271.62,371.808,271.389z"/>
			<path fill="#F8D680" d="M338.119,268.25l-109.037,85.959c0.417,0.433,0.987,0.74,1.688,0.806l0.104,0.01l109.819-86.575
				l-1.682-0.159C338.713,268.263,338.416,268.257,338.119,268.25z"/>
			<polygon fill="#F8D680" points="235.381,355.451 237.905,355.689 347.724,269.114 345.2,268.876 			"/>
			<polygon fill="#F8D680" points="242.413,356.115 244.937,356.353 354.756,269.778 352.232,269.54 			"/>
			<polygon fill="#F8D680" points="249.444,356.779 251.969,357.018 361.788,270.443 359.263,270.204 			"/>
			<polygon fill="#F8D680" points="256.476,357.444 259,357.682 368.819,271.107 366.295,270.868 			"/>
			<path fill="#F8D680" d="M373.003,271.788l-109.496,86.32l0.059,0.006c0.95,0.09,1.897,0.062,2.83-0.055l107.697-84.902
				C373.892,272.604,373.522,272.113,373.003,271.788z"/>
		</g>
		<g>
			<path fill="#DFBE64" d="M351.719,217.681l-5.219,32.528c-0.528,3.291-2.303,6.252-4.956,8.268L239.74,335.854
				c-1.95,1.482-4.71-0.173-4.322-2.591l5.219-32.528c0.528-3.291,2.303-6.252,4.956-8.268l101.803-77.377
				C349.346,213.608,352.107,215.263,351.719,217.681z"/>
			<path fill="#F8D680" d="M346.316,251.081l-110.54,84.018c-0.315-0.513-0.469-1.141-0.358-1.836l0.016-0.103l111.333-84.62
				l-0.268,1.668C346.452,250.504,346.383,250.792,346.316,251.081z"/>
			<polygon fill="#F8D680" points="236.152,328.69 236.553,326.186 347.886,241.567 347.484,244.07 			"/>
			<polygon fill="#F8D680" points="237.271,321.716 237.672,319.213 349.005,234.593 348.603,237.096 			"/>
			<polygon fill="#F8D680" points="238.39,314.742 238.791,312.239 350.124,227.619 349.722,230.122 			"/>
			<polygon fill="#F8D680" points="239.509,307.768 239.911,305.265 351.243,220.645 350.841,223.149 			"/>
			<path fill="#F8D680" d="M351.633,216.424l-111.005,84.371l0.009-0.059c0.151-0.942,0.416-1.852,0.762-2.726l109.181-82.984
				C351.065,215.359,351.448,215.84,351.633,216.424z"/>
		</g>
		<g>
			<path fill="#DFBE64" d="M314.382,189.784l-1.746,32.897c-0.177,3.328-1.628,6.46-4.053,8.747l-93.038,87.721
				c-1.782,1.68-4.702,0.327-4.572-2.119l1.746-32.897c0.177-3.328,1.628-6.46,4.053-8.747l93.038-87.721
				C311.592,185.985,314.512,187.338,314.382,189.784z"/>
			<path fill="#F8D680" d="M312.546,223.568l-101.023,95.25c-0.367-0.476-0.587-1.085-0.55-1.788l0.005-0.104l101.747-95.932
				l-0.09,1.687C312.62,222.979,312.582,223.274,312.546,223.568z"/>
			<polygon fill="#F8D680" points="211.219,312.405 211.353,309.873 313.1,213.941 312.966,216.472 			"/>
			<polygon fill="#F8D680" points="211.593,305.352 211.727,302.82 313.474,206.887 313.34,209.419 			"/>
			<polygon fill="#F8D680" points="211.967,298.298 212.102,295.767 313.849,199.834 313.714,202.366 			"/>
			<polygon fill="#F8D680" points="212.342,291.245 212.476,288.713 314.223,192.781 314.089,195.313 			"/>
			<path fill="#F8D680" d="M314.163,188.542l-101.447,95.65l0.003-0.06c0.051-0.953,0.217-1.886,0.469-2.791l99.781-94.078
				C313.486,187.544,313.918,187.981,314.163,188.542z"/>
		</g>
		<g>
			<path fill="#DFBE64" d="M299.073,52.141l-32.944-0.092c-3.333-0.009-6.541,1.265-8.959,3.559l-92.774,88
				c-1.777,1.685-0.589,4.676,1.86,4.683l32.944,0.092c3.333,0.009,6.541-1.265,8.959-3.559l92.774-88
				C302.71,55.138,301.522,52.147,299.073,52.141z"/>
			<path fill="#F8D680" d="M265.238,52.089l-100.737,95.552c0.455,0.393,1.05,0.647,1.754,0.649l0.104,0l101.459-96.237l-1.69-0.005
				C265.83,52.048,265.534,52.07,265.238,52.089z"/>
			<polygon fill="#F8D680" points="170.888,148.303 173.423,148.31 274.882,52.073 272.346,52.066 			"/>
			<polygon fill="#F8D680" points="177.951,148.323 180.486,148.33 281.945,52.093 279.409,52.086 			"/>
			<polygon fill="#F8D680" points="185.014,148.343 187.549,148.35 289.008,52.113 286.472,52.106 			"/>
			<polygon fill="#F8D680" points="192.077,148.362 194.612,148.369 296.071,52.132 293.535,52.125 			"/>
			<path fill="#F8D680" d="M300.3,52.428l-101.16,95.954l0.06,0c0.954,0.003,1.895-0.112,2.813-0.313l99.498-94.377
				C301.259,53.16,300.846,52.705,300.3,52.428z"/>
		</g>
		<g>
			<path fill="#DFBE64" d="M54.477,99.096l16.43,28.554c1.662,2.889,4.373,5.027,7.569,5.97l122.645,36.183
				c2.349,0.693,4.342-1.834,3.12-3.957l-16.43-28.554c-1.662-2.889-4.373-5.027-7.569-5.97L57.597,95.139
				C55.248,94.446,53.255,96.973,54.477,99.096z"/>
			<path fill="#F8D680" d="M71.388,128.401l133.171,39.288c0.112-0.591,0.034-1.233-0.318-1.843l-0.052-0.09l-134.126-39.57
				l0.843,1.465C71.056,127.909,71.223,128.154,71.388,128.401z"/>
			<polygon fill="#F8D680" points="201.932,161.831 200.667,159.634 66.542,120.064 67.806,122.261 			"/>
			<polygon fill="#F8D680" points="198.409,155.709 197.145,153.512 63.019,113.942 64.284,116.139 			"/>
			<polygon fill="#F8D680" points="194.887,149.587 193.622,147.39 59.497,107.82 60.761,110.017 			"/>
			<polygon fill="#F8D680" points="191.364,143.465 190.099,141.268 55.974,101.698 57.239,103.895 			"/>
			<path fill="#F8D680" d="M54.111,97.89l133.731,39.453l-0.03-0.052c-0.476-0.827-1.046-1.584-1.681-2.277L54.598,96.209
				C54.263,96.693,54.076,97.278,54.111,97.89z"/>
		</g>
		<g>
			<path fill="#DFBE64" d="M73.446,183.271l-6.638,32.268c-0.672,3.264-0.06,6.662,1.707,9.488l67.804,108.414
				c1.299,2.076,4.466,1.507,4.96-0.892l6.638-32.268c0.672-3.264,0.06-6.662-1.707-9.488L78.405,182.379
				C77.106,180.302,73.939,180.872,73.446,183.271z"/>
			<path fill="#F8D680" d="M66.67,216.42l73.624,117.719c0.476-0.368,0.843-0.901,0.985-1.59l0.021-0.102L67.148,213.884
				l-0.34,1.655C66.748,215.832,66.71,216.126,66.67,216.42z"/>
			<polygon fill="#F8D680" points="142.212,328.012 142.723,325.528 68.571,206.966 68.06,209.45 			"/>
			<polygon fill="#F8D680" points="143.635,321.094 144.146,318.61 69.994,200.048 69.484,202.531 			"/>
			<polygon fill="#F8D680" points="145.058,314.176 145.569,311.692 71.418,193.13 70.907,195.613 			"/>
			<polygon fill="#F8D680" points="146.481,307.257 146.992,304.774 72.841,186.212 72.33,188.695 			"/>
			<path fill="#F8D680" d="M73.971,182.126l73.933,118.213l0.012-0.059c0.192-0.935,0.267-1.879,0.252-2.819L75.45,181.19
				C74.879,181.331,74.351,181.645,73.971,182.126z"/>
		</g>
		<g>
			<path fill="#DFBE64" d="M370.131,297.971l-29.211,15.231c-2.955,1.541-5.204,4.161-6.279,7.315l-41.241,121.038
				c-0.79,2.318,1.652,4.414,3.824,3.282l29.211-15.231c2.955-1.541,5.204-4.16,6.279-7.315l41.241-121.038
				C374.745,298.935,372.303,296.839,370.131,297.971z"/>
			<path fill="#F8D680" d="M340.15,313.652l-44.78,131.426c0.586,0.137,1.231,0.085,1.855-0.241l0.092-0.048l45.101-132.368
				l-1.498,0.781C340.655,313.34,340.403,313.497,340.15,313.652z"/>
			<polygon fill="#F8D680" points="301.332,442.696 303.58,441.523 348.681,309.155 346.433,310.327 			"/>
			<polygon fill="#F8D680" points="307.595,439.43 309.843,438.258 354.944,305.89 352.696,307.062 			"/>
			<polygon fill="#F8D680" points="313.857,436.165 316.106,434.993 361.207,302.624 358.958,303.797 			"/>
			<polygon fill="#F8D680" points="320.12,432.899 322.369,431.727 367.47,299.359 365.221,300.531 			"/>
			<path fill="#F8D680" d="M371.351,297.655l-44.968,131.978l0.053-0.028c0.846-0.441,1.626-0.98,2.345-1.585l44.229-129.81
				C372.541,297.857,371.964,297.646,371.351,297.655z"/>
		</g>
		<g>
			<path fill="#DFBE64" d="M277.415,421.772l-11.233-30.969c-1.136-3.133-3.436-5.708-6.42-7.191l-114.519-56.888
				c-2.193-1.09-4.594,1.054-3.759,3.356l11.233,30.969c1.136,3.133,3.436,5.708,6.42,7.191l114.519,56.888
				C275.85,426.217,278.25,424.074,277.415,421.772z"/>
			<path fill="#F8D680" d="M265.838,389.98l-124.348-61.771c-0.213,0.563-0.247,1.209-0.007,1.87l0.035,0.098l125.24,62.213
				l-0.576-1.588C266.08,390.521,265.958,390.251,265.838,389.98z"/>
			<polygon fill="#F8D680" points="143.062,334.434 143.927,336.817 269.166,399.03 268.302,396.647 			"/>
			<polygon fill="#F8D680" points="145.471,341.073 146.335,343.457 271.575,405.67 270.71,403.287 			"/>
			<polygon fill="#F8D680" points="147.879,347.713 148.744,350.097 273.983,412.31 273.119,409.926 			"/>
			<polygon fill="#F8D680" points="150.287,354.353 151.152,356.737 276.392,418.95 275.527,416.566 			"/>
			<path fill="#F8D680" d="M277.567,423.023l-124.871-62.03l0.02,0.056c0.325,0.897,0.756,1.741,1.261,2.534l122.819,61.011
				C277.209,424.175,277.495,423.631,277.567,423.023z"/>
		</g>
		<g>
			<path fill="#DFBE64" d="M142.684,273.23l27.087-8.884c2.74-0.899,4.757-2.702,5.632-5.036l33.554-89.532
				c0.643-1.715-1.781-3.578-3.794-2.918l-27.087,8.884c-2.74,0.899-4.757,2.702-5.632,5.036l-33.554,89.532
				C138.247,272.027,140.671,273.891,142.684,273.23z"/>
			<path fill="#F8D680" d="M170.483,264.075l36.434-97.217c-0.564-0.164-1.175-0.188-1.754,0.002l-0.086,0.028l-36.695,97.913
				l1.389-0.456C170.017,264.266,170.249,264.17,170.483,264.075z"/>
			<polygon fill="#F8D680" points="201.354,168.11 199.27,168.793 162.575,266.707 164.659,266.023 			"/>
			<polygon fill="#F8D680" points="195.547,170.014 193.462,170.698 156.767,268.611 158.852,267.928 			"/>
			<polygon fill="#F8D680" points="189.74,171.919 187.655,172.603 150.96,270.516 153.045,269.832 			"/>
			<polygon fill="#F8D680" points="183.932,173.824 181.847,174.507 145.152,272.421 147.237,271.737 			"/>
			<path fill="#F8D680" d="M141.538,273.353l36.587-97.625l-0.049,0.016c-0.785,0.257-1.502,0.596-2.158,0.993l-35.986,96.021
				C140.396,273.079,140.955,273.3,141.538,273.353z"/>
		</g>
		<g>
			<path fill="#DFBE64" d="M213.649,220.64l-25.307,13.122c-2.56,1.327-4.261,3.431-4.749,5.875l-18.728,93.761
				c-0.359,1.796,2.333,3.246,4.214,2.27l25.307-13.122c2.56-1.327,4.261-3.431,4.749-5.875l18.728-93.761
				C218.222,221.115,215.531,219.665,213.649,220.64z"/>
			<path fill="#F8D680" d="M187.684,234.144l-20.336,101.808c0.583,0.071,1.19-0.004,1.731-0.284l0.08-0.041l20.482-102.538
				l-1.298,0.673C188.113,233.881,187.899,234.013,187.684,234.144z"/>
			<polygon fill="#F8D680" points="172.637,333.824 174.585,332.814 195.066,230.276 193.118,231.286 			"/>
			<polygon fill="#F8D680" points="178.063,331.01 180.01,330.001 200.492,227.462 198.544,228.472 			"/>
			<polygon fill="#F8D680" points="183.488,328.197 185.436,327.187 205.918,224.649 203.97,225.659 			"/>
			<polygon fill="#F8D680" points="188.914,325.384 190.862,324.374 211.344,221.836 209.396,222.846 			"/>
			<path fill="#F8D680" d="M214.761,220.334L194.34,322.571l0.046-0.024c0.733-0.38,1.386-0.83,1.97-1.327l20.086-100.556
				C215.933,220.422,215.345,220.294,214.761,220.334z"/>
		</g>
		<g>
			<path fill="#DFBE64" d="M383.894,106.996l-15.002,29.33c-1.518,2.967-1.835,6.405-0.885,9.599l36.44,122.569
				c0.698,2.347,3.903,2.643,5.018,0.462l15.002-29.33c1.518-2.967,1.835-6.405,0.885-9.599l-36.44-122.569
				C388.214,105.111,385.009,104.815,383.894,106.996z"/>
			<path fill="#F8D680" d="M368.524,137.138l39.568,133.088c0.557-0.228,1.052-0.643,1.373-1.27l0.047-0.093l-39.851-134.042
				l-0.769,1.504C368.756,136.591,368.641,136.865,368.524,137.138z"/>
			<polygon fill="#F8D680" points="411.574,264.832 412.729,262.575 372.878,128.533 371.723,130.79 			"/>
			<polygon fill="#F8D680" points="414.791,258.544 415.945,256.287 376.094,122.245 374.94,124.502 			"/>
			<polygon fill="#F8D680" points="418.007,252.256 419.162,249.999 379.311,115.956 378.156,118.214 			"/>
			<polygon fill="#F8D680" points="421.224,245.968 422.378,243.71 382.527,109.668 381.372,111.926 			"/>
			<path fill="#F8D680" d="M384.706,106.032l39.734,133.647l0.027-0.053c0.435-0.849,0.759-1.74,0.995-2.65l-39.081-131.452
				C385.793,105.508,385.2,105.67,384.706,106.032z"/>
		</g>
		<g>
			<path fill="#DFBE64" d="M149.823,404.432l-1.976-30.78c-0.2-3.114-1.578-5.871-3.847-7.698l-87.08-70.098
				c-1.668-1.342-4.356,0.329-4.209,2.617l1.976,30.78c0.2,3.114,1.578,5.871,3.847,7.698l87.08,70.098
				C147.282,408.392,149.97,406.72,149.823,404.432z"/>
			<path fill="#F8D680" d="M147.754,372.827L53.2,296.713c-0.335,0.499-0.532,1.102-0.49,1.76l0.006,0.097l95.232,76.66
				l-0.101-1.579C147.829,373.372,147.791,373.1,147.754,372.827z"/>
			<polygon fill="#F8D680" points="52.988,302.801 53.14,305.17 148.372,381.829 148.22,379.46 			"/>
			<polygon fill="#F8D680" points="53.412,309.4 53.564,311.769 148.796,388.429 148.644,386.06 			"/>
			<polygon fill="#F8D680" points="53.835,315.999 53.988,318.368 149.219,395.028 149.067,392.659 			"/>
			<polygon fill="#F8D680" points="54.259,322.598 54.411,324.967 149.643,401.627 149.491,399.258 			"/>
			<path fill="#F8D680" d="M149.634,405.632l-94.951-76.434l0.004,0.056c0.057,0.891,0.222,1.749,0.465,2.568L148.543,407
				C149.018,406.665,149.413,406.194,149.634,405.632z"/>
		</g>
		<g>
			<path fill="#A7CF4E" d="M238.564,157.823l-2.577-2.948c-3.932-4.499-6.931-9.735-8.823-15.403l-5.89-17.65
				c-2.494-7.472-9.834-12.218-17.671-11.424h0c-6.059,0.613-11.936-2.285-15.138-7.465l-2.527-4.088
				c-2.719-4.398-7.158-7.511-12.176-8.354c-4.658-0.782-10.798,1.91-13.379,5.866c-2.78,4.262-3.498,9.636-2.104,14.615
				l1.295,4.628c1.641,5.864-0.209,12.151-4.765,16.192l0,0c-5.893,5.227-7.375,13.841-3.569,20.738l8.992,16.291
				c2.887,5.231,4.707,10.984,5.352,16.924l0.423,3.893c0.859,7.91,6.687,14.381,14.464,16.06l25.163,5.433
				c8.523,1.84,17.266-1.97,21.72-9.466c5.937-9.993,13.223-22.323,13.223-22.323C244.611,172.484,243.8,163.813,238.564,157.823z"
				/>
			
				<line fill="none" stroke="#D3E38F" stroke-width="3" stroke-linecap="round" stroke-linejoin="round" stroke-miterlimit="10" x1="167.788" y1="95.057" x2="219.322" y2="212.583"/>
			<path fill="none" stroke="#D3E38F" stroke-width="3" stroke-linecap="round" stroke-linejoin="round" stroke-miterlimit="10" d="
				M158.705,140.961c0,0,14.958-6.559,31.729,5.742"/>
			<path fill="none" stroke="#D3E38F" stroke-width="3" stroke-linecap="round" stroke-linejoin="round" stroke-miterlimit="10" d="
				M207.352,185.284c0,0-11.456-9.311-27.765,3.3"/>
			<path fill="none" stroke="#D3E38F" stroke-width="3" stroke-linecap="round" stroke-linejoin="round" stroke-miterlimit="10" d="
				M207.707,119.474c0,0-14.958,6.559-17.272,27.228"/>
			<path fill="none" stroke="#D3E38F" stroke-width="3" stroke-linecap="round" stroke-linejoin="round" stroke-miterlimit="10" d="
				M207.352,185.284c0,0,0.913-14.734,21.237-18.187"/>
		</g>
		<g>
			<path fill="#DFBE64" d="M86.382,96.415l28.995,15.638c2.933,1.582,5.145,4.233,6.176,7.402l39.543,121.603
				c0.757,2.329-1.714,4.391-3.87,3.228l-28.995-15.638c-2.933-1.582-5.145-4.233-6.176-7.402L82.512,99.643
				C81.755,97.314,84.226,95.252,86.382,96.415z"/>
			<path fill="#F8D680" d="M116.141,112.513l42.937,132.04c-0.588,0.128-1.232,0.068-1.851-0.267l-0.092-0.049L113.89,111.251
				l1.487,0.802C115.64,112.195,115.89,112.355,116.141,112.513z"/>
			<polygon fill="#F8D680" points="153.15,242.088 150.918,240.884 107.674,107.898 109.905,109.102 			"/>
			<polygon fill="#F8D680" points="146.933,238.735 144.701,237.532 101.457,104.545 103.689,105.749 			"/>
			<polygon fill="#F8D680" points="140.717,235.383 138.485,234.179 95.24,101.193 97.472,102.396 			"/>
			<polygon fill="#F8D680" points="134.5,232.03 132.268,230.826 89.024,97.84 91.255,99.043 			"/>
			<path fill="#F8D680" d="M85.166,96.082l43.117,132.595l-0.053-0.028c-0.84-0.453-1.612-1.002-2.323-1.617L83.499,96.615
				C83.974,96.268,84.554,96.064,85.166,96.082z"/>
		</g>
		<g>
			<path fill="#A7CF4E" d="M342.78,350.458l3.318-2.079c5.064-3.173,10.707-5.307,16.603-6.28l18.359-3.029
				c7.772-1.282,13.617-7.781,14.072-15.645v0c0.351-6.08,4.141-11.425,9.762-13.769l4.436-1.85
				c4.773-1.99,8.547-5.882,10.172-10.704c1.508-4.476-0.181-10.965-3.68-14.137c-3.77-3.418-8.962-4.975-14.1-4.386l-4.774,0.548
				c-6.05,0.694-11.966-2.125-15.236-7.262v0c-4.231-6.645-12.503-9.469-19.914-6.799l-17.507,6.307
				c-5.621,2.025-11.589,2.913-17.557,2.612l-3.911-0.197c-7.946-0.401-15.256,4.332-18.143,11.746l-9.339,23.99
				c-3.163,8.125-0.781,17.361,5.917,22.942c8.93,7.44,19.954,16.583,19.954,16.583C327.348,354.114,336.038,354.682,342.78,350.458
				z"/>
			
				<line fill="none" stroke="#D3E38F" stroke-width="3" stroke-linecap="round" stroke-linejoin="round" stroke-miterlimit="10" x1="415.935" y1="290.482" x2="291.745" y2="322.81"/>
			<path fill="none" stroke="#D3E38F" stroke-width="3" stroke-linecap="round" stroke-linejoin="round" stroke-miterlimit="10" d="
				M372.041,274.264c0,0,4.115,15.807-10.68,30.424"/>
			<path fill="none" stroke="#D3E38F" stroke-width="3" stroke-linecap="round" stroke-linejoin="round" stroke-miterlimit="10" d="
				M320.592,315.301c0,0,11.003-9.842,1.126-27.937"/>
			<path fill="none" stroke="#D3E38F" stroke-width="3" stroke-linecap="round" stroke-linejoin="round" stroke-miterlimit="10" d="
				M385.52,326.044c0,0-4.115-15.807-24.159-21.356"/>
			<path fill="none" stroke="#D3E38F" stroke-width="3" stroke-linecap="round" stroke-linejoin="round" stroke-miterlimit="10" d="
				M320.592,315.301c0,0,14.405,3.228,14.605,23.842"/>
		</g>
		<g>
			<path fill="#729E40" d="M286.872,206.516l0.885-2.243c1.351-3.424,3.369-6.545,5.936-9.182l7.995-8.212
				c3.385-3.477,3.907-8.835,1.258-12.9v0c-2.048-3.143-2.123-7.178-0.193-10.395l1.523-2.538c1.639-2.731,2.088-6.04,1.131-9.025
				c-0.888-2.77-4.097-5.37-6.992-5.664c-3.118-0.317-6.262,0.809-8.594,2.979l-2.167,2.017c-2.746,2.555-6.709,3.32-10.208,1.968
				l0,0c-4.526-1.748-9.66-0.125-12.358,3.908l-6.375,9.526c-2.047,3.059-4.681,5.68-7.75,7.712l-2.011,1.331
				c-4.086,2.706-5.981,7.724-4.702,12.455l4.138,15.307c1.402,5.185,5.958,8.893,11.319,9.212
				c7.147,0.425,15.954,0.928,15.954,0.928C280.557,213.969,285.073,211.074,286.872,206.516z"/>
			
				<line fill="none" stroke="#B7D880" stroke-width="3" stroke-linecap="round" stroke-linejoin="round" stroke-miterlimit="10" x1="301.221" y1="150.042" x2="251.464" y2="211.461"/>
			<path fill="none" stroke="#B7D880" stroke-width="3" stroke-linecap="round" stroke-linejoin="round" stroke-miterlimit="10" d="
				M273.531,158.044c0,0,7.817,6.333,5.825,18.988"/>
			<path fill="none" stroke="#B7D880" stroke-width="3" stroke-linecap="round" stroke-linejoin="round" stroke-miterlimit="10" d="
				M263.022,197.195c0,0,1.858-8.901-9.653-14.263"/>
			<path fill="none" stroke="#B7D880" stroke-width="3" stroke-linecap="round" stroke-linejoin="round" stroke-miterlimit="10" d="
				M299.139,178.79c0,0-7.817-6.333-19.783-1.758"/>
			<path fill="none" stroke="#B7D880" stroke-width="3" stroke-linecap="round" stroke-linejoin="round" stroke-miterlimit="10" d="
				M263.022,197.195c0,0,8.322-3.665,15.955,6.483"/>
		</g>
	</g>
</g>
</svg>
