<?xml version="1.0" encoding="utf-8"?>
<!-- Generator: Adobe Illustrator 18.0.0, SVG Export Plug-In . SVG Version: 6.00 Build 0)  -->
<!DOCTYPE svg PUBLIC "-//W3C//DTD SVG 1.1//EN" "http://www.w3.org/Graphics/SVG/1.1/DTD/svg11.dtd">
<svg version="1.1" xmlns="http://www.w3.org/2000/svg" xmlns:xlink="http://www.w3.org/1999/xlink" x="0px" y="0px" width="556px"
	 height="556px" viewBox="0 0 556 556" enable-background="new 0 0 556 556" xml:space="preserve">
<g id="normal" display="none">
	<g display="inline">
		<path fill="#F4B891" d="M195.304,315.174c21.686,36.683,6.151,78.748,0.396,122.272s-12.621,94.86-39.214,110.582
			c-49.638,29.345-80.548-24.435-140.937-126.585C-13.798,371.805,2.653,307.776,52.291,278.43
			C101.93,249.085,165.959,265.536,195.304,315.174z"/>
		<path fill="#EB8267" d="M156.433,424.287"/>
		<path fill="#E0A280" d="M159.856,336.414c-21.75-25.148-58.519-32.881-87.492-16.57c-24.559,13.827-37.362,40.229-35.121,66.417
			c0.518,6.051,7.297,9.161,12.439,5.929c7.857-4.94,17.988-5.634,26.656-0.772c6.725,3.773,11.17,10.04,12.825,16.993
			c0.958,4.026,6.669,4.28,7.914,0.333c2.171-6.883,2.266-15.962-4.614-26.179c-0.821-1.171-1.688-2.258-2.6-3.223
			c-4.149-4.388-11.09-6.065-17.116-6.631c-6.198-0.582-9.579-7.475-6.331-12.787c12.241-17.346,27.275-25.915,52.306-21.89
			c16.54,4.589,27.877,19.229,33.807,35.337l4.884,13.266c3.136,8.519,15.607,6.722,16.306-2.329
			C175.035,367.243,172.478,351.007,159.856,336.414z"/>
		<path fill="#E0A280" d="M153.327,473.913L153.327,473.913c-4.607-0.57-7.88-4.768-7.309-9.375l6.304-50.909
			c0.57-4.607,4.768-7.879,9.375-7.309h0c4.607,0.57,7.88,4.768,7.309,9.375l-6.304,50.909
			C162.132,471.211,157.934,474.484,153.327,473.913z"/>
	</g>
	<g display="inline">
		<path fill="none" stroke="#98D6D8" stroke-width="16" stroke-linecap="round" stroke-linejoin="round" stroke-miterlimit="10" d="
			M188.483,149.387c-15.796,35.835-12.635,84.3,12.047,127.887s64.616,71.229,103.473,76.116"/>
		<path fill="none" stroke="#98D6D8" stroke-width="16" stroke-linecap="round" stroke-linejoin="round" stroke-miterlimit="10" d="
			M223.753,157.203c-12.538,28.443-10.028,66.911,9.562,101.506s51.287,56.535,82.128,60.415"/>
		<path fill="none" stroke="#98D6D8" stroke-width="16" stroke-linecap="round" stroke-linejoin="round" stroke-miterlimit="10" d="
			M256.872,159.282c-10.095,22.901-8.074,53.873,7.699,81.728s41.294,45.52,66.126,48.643"/>
	</g>
	<g display="inline">
		<path fill="#424343" d="M540.122,166.91l-55.994-60.578l-16.18-39.197l3.421-23.39c5.699,0.486,11.102,0.542,16.12,0.314
			c12.025-0.548,23.499,5.107,30.6,14.827c6.641,9.09,12.912,18.854,18.69,29.225c6.628,11.897,12.234,23.924,16.83,35.871
			c5.522,14.356,1.268,30.656-10.569,40.477C542.084,165.249,541.112,166.067,540.122,166.91z"/>
		<path fill="#424343" d="M347.812,187.033c-45.087-80.93-4.496-169.881-4.496-169.881l62.469,2.371
			c1.396,1.01,2.918,1.96,4.524,2.865l-0.056,0.061c0,0,4.546,9.176,43.448,18.457c8.318,1.985,16.266,2.928,23.63,3.196
			c13.76,14.895,26.575,32.469,37.597,52.254c12.817,23.007,21.825,46.504,27.078,68.964c-3.252,2.724-6.7,5.731-10.313,9.044
			c-18.568,17.024-19.881,31.682-19.599,37.157C490.235,227.546,388.508,260.08,347.812,187.033z"/>
		<path fill="#232323" d="M347.812,187.033c-45.087-80.93-4.496-169.881-4.496-169.881l62.469,2.371
			c1.396,1.01,2.919,1.96,4.524,2.865l-0.056,0.061c0,0,4.216,8.475,39.077,17.374c18.069,17.034,34.977,38.622,48.99,63.774
			c14.083,25.279,23.56,51.148,28.515,75.586c-13.929,14.927-14.996,27.387-14.74,32.337
			C490.235,227.546,388.508,260.08,347.812,187.033z"/>
		
			<ellipse transform="matrix(-0.8736 0.4867 -0.4867 -0.8736 821.1206 95.1013)" fill="#050707" cx="398.209" cy="154.198" rx="98.353" ry="167.743"/>
		
			<ellipse transform="matrix(-0.8736 0.4867 -0.4867 -0.8736 816.5562 103.016)" fill="#323335" cx="394.898" cy="157.562" rx="86.407" ry="154.506"/>
		
			<ellipse transform="matrix(-0.8736 0.4867 -0.4867 -0.8736 809.7054 107.8816)" fill="#424343" cx="390.841" cy="159.105" rx="75.823" ry="135.581"/>
		
			<ellipse transform="matrix(-0.8736 0.4867 -0.4867 -0.8736 856.1166 56.012)" fill="#8C8B8B" cx="420.783" cy="139.199" rx="31.893" ry="56.761"/>
		<path fill="#323335" d="M468.809,55.021"/>
	</g>
</g>
<g id="loud" display="none">
	<g display="inline">
		<path fill="#F4B891" d="M195.304,315.174c21.686,36.683,6.151,78.748,0.396,122.272s-12.621,94.86-39.214,110.582
			c-49.638,29.345-80.548-24.435-140.937-126.585C-13.798,371.805,2.653,307.776,52.291,278.43
			C101.93,249.085,165.959,265.536,195.304,315.174z"/>
		<path fill="#EB8267" d="M156.433,424.287"/>
		<path fill="#E0A280" d="M159.856,336.414c-21.75-25.148-58.519-32.881-87.492-16.57c-24.559,13.827-37.362,40.229-35.121,66.417
			c0.518,6.051,7.297,9.161,12.439,5.929c7.857-4.94,17.988-5.634,26.656-0.772c6.725,3.773,11.17,10.04,12.825,16.993
			c0.958,4.026,6.669,4.28,7.914,0.333c2.171-6.883,2.266-15.962-4.614-26.179c-0.821-1.171-1.688-2.258-2.6-3.223
			c-4.149-4.388-11.09-6.065-17.116-6.631c-6.198-0.582-9.579-7.475-6.331-12.787c12.241-17.346,27.275-25.915,52.306-21.89
			c16.54,4.589,27.877,19.229,33.807,35.337l4.884,13.266c3.136,8.519,15.607,6.722,16.306-2.329
			C175.035,367.243,172.478,351.007,159.856,336.414z"/>
		<path fill="#E0A280" d="M153.327,473.913L153.327,473.913c-4.607-0.57-7.88-4.768-7.309-9.375l6.304-50.909
			c0.57-4.607,4.768-7.879,9.375-7.309h0c4.607,0.57,7.88,4.768,7.309,9.375l-6.304,50.909
			C162.132,471.211,157.934,474.484,153.327,473.913z"/>
	</g>
	<g display="inline">
		<path fill="#424343" d="M540.122,166.91l-55.994-60.578l-16.18-39.197l3.421-23.39c5.699,0.486,11.102,0.542,16.12,0.314
			c12.025-0.548,23.499,5.107,30.6,14.827c6.641,9.09,12.912,18.854,18.69,29.225c6.628,11.897,12.234,23.924,16.83,35.871
			c5.522,14.356,1.268,30.656-10.569,40.477C542.084,165.249,541.112,166.067,540.122,166.91z"/>
		<path fill="#424343" d="M347.812,187.033c-45.087-80.93-4.496-169.881-4.496-169.881l62.469,2.371
			c1.396,1.01,2.918,1.96,4.524,2.865l-0.056,0.061c0,0,4.546,9.176,43.448,18.457c8.318,1.985,16.266,2.928,23.63,3.196
			c13.76,14.895,26.575,32.469,37.597,52.254c12.817,23.007,21.825,46.504,27.078,68.964c-3.252,2.724-6.7,5.731-10.313,9.044
			c-18.568,17.024-19.881,31.682-19.599,37.157C490.235,227.546,388.508,260.08,347.812,187.033z"/>
		<path fill="#232323" d="M347.812,187.033c-45.087-80.93-4.496-169.881-4.496-169.881l62.469,2.371
			c1.396,1.01,2.919,1.96,4.524,2.865l-0.056,0.061c0,0,4.216,8.475,39.077,17.374c18.069,17.034,34.977,38.622,48.99,63.774
			c14.083,25.279,23.56,51.148,28.515,75.586c-13.929,14.927-14.996,27.387-14.74,32.337
			C490.235,227.546,388.508,260.08,347.812,187.033z"/>
		
			<ellipse transform="matrix(-0.8736 0.4867 -0.4867 -0.8736 821.1206 95.1013)" fill="#050707" cx="398.209" cy="154.198" rx="98.353" ry="167.743"/>
		
			<ellipse transform="matrix(-0.8736 0.4867 -0.4867 -0.8736 816.5562 103.016)" fill="#323335" cx="394.898" cy="157.562" rx="86.407" ry="154.506"/>
		
			<ellipse transform="matrix(-0.8736 0.4867 -0.4867 -0.8736 809.7054 107.8816)" fill="#424343" cx="390.841" cy="159.105" rx="75.823" ry="135.581"/>
		
			<ellipse transform="matrix(-0.8736 0.4867 -0.4867 -0.8736 856.1166 56.012)" fill="#8C8B8B" cx="420.783" cy="139.199" rx="31.893" ry="56.761"/>
		<path fill="#323335" d="M468.809,55.021"/>
	</g>
	<g display="inline">
		<path fill="#F9C32C" d="M207.912,185.204l6.268,130.704c0.165,3.431,3.978,5.399,6.87,3.547l41.164-26.371
			c3.001-1.922,6.934,0.271,6.875,3.834l-1.579,95.393c-0.064,3.858,5.518,4.457,6.275,0.673l29.805-149.134
			c0.772-3.863-3.472-6.761-6.789-4.636l-37.102,23.769c-3.2,2.05-7.335-0.579-6.837-4.346l14.742-111.406
			c0.401-3.028-2.923-5.14-5.494-3.493l-48.995,31.388C209.702,177.313,207.717,181.156,207.912,185.204z"/>
		<path fill="#E1A825" d="M277.905,372.364l25.684-128.514c0.772-3.863-3.472-6.761-6.789-4.636l-37.102,23.769
			c-3.2,2.05-7.335-0.579-6.837-4.346l14.742-111.406c0.401-3.028-2.923-5.14-5.494-3.493l-10.031,6.426l-12.704,126.204
			c0.165,3.431,3.978,5.399,6.87,3.547l41.164-26.371c3.001-1.922,6.934,0.271,6.875,3.834L277.905,372.364z"/>
	</g>
</g>
<g id="calm" display="none">
	<g display="inline">
		<path fill="#F4B891" d="M195.304,315.174c21.686,36.683,6.151,78.748,0.396,122.272s-12.621,94.86-39.214,110.582
			c-49.638,29.345-80.548-24.435-140.937-126.585C-13.798,371.805,2.653,307.776,52.291,278.43
			C101.93,249.085,165.959,265.536,195.304,315.174z"/>
		<path fill="#EB8267" d="M156.433,424.287"/>
		<path fill="#E0A280" d="M159.856,336.414c-21.75-25.148-58.519-32.881-87.492-16.57c-24.559,13.827-37.362,40.229-35.121,66.417
			c0.518,6.051,7.297,9.161,12.439,5.929c7.857-4.94,17.988-5.634,26.656-0.772c6.725,3.773,11.17,10.04,12.825,16.993
			c0.958,4.026,6.669,4.28,7.914,0.333c2.171-6.883,2.266-15.962-4.614-26.179c-0.821-1.171-1.688-2.258-2.6-3.223
			c-4.149-4.388-11.09-6.065-17.116-6.631c-6.198-0.582-9.579-7.475-6.331-12.787c12.241-17.346,27.275-25.915,52.306-21.89
			c16.54,4.589,27.877,19.229,33.807,35.337l4.884,13.266c3.136,8.519,15.607,6.722,16.306-2.329
			C175.035,367.243,172.478,351.007,159.856,336.414z"/>
		<path fill="#E0A280" d="M153.327,473.913L153.327,473.913c-4.607-0.57-7.88-4.768-7.309-9.375l6.304-50.909
			c0.57-4.607,4.768-7.879,9.375-7.309h0c4.607,0.57,7.88,4.768,7.309,9.375l-6.304,50.909
			C162.132,471.211,157.934,474.484,153.327,473.913z"/>
	</g>
	<g display="inline">
		<path fill="#424343" d="M540.122,166.91l-55.994-60.578l-16.18-39.197l3.421-23.39c5.699,0.486,11.102,0.542,16.12,0.314
			c12.025-0.548,23.499,5.107,30.6,14.827c6.641,9.09,12.912,18.854,18.69,29.225c6.628,11.897,12.234,23.924,16.83,35.871
			c5.522,14.356,1.268,30.656-10.569,40.477C542.084,165.249,541.112,166.067,540.122,166.91z"/>
		<path fill="#424343" d="M347.812,187.033c-45.087-80.93-4.496-169.881-4.496-169.881l62.469,2.371
			c1.396,1.01,2.918,1.96,4.524,2.865l-0.056,0.061c0,0,4.546,9.176,43.448,18.457c8.318,1.985,16.266,2.928,23.63,3.196
			c13.76,14.895,26.575,32.469,37.597,52.254c12.817,23.007,21.825,46.504,27.078,68.964c-3.252,2.724-6.7,5.731-10.313,9.044
			c-18.568,17.024-19.881,31.682-19.599,37.157C490.235,227.546,388.508,260.08,347.812,187.033z"/>
		<path fill="#232323" d="M347.812,187.033c-45.087-80.93-4.496-169.881-4.496-169.881l62.469,2.371
			c1.396,1.01,2.919,1.96,4.524,2.865l-0.056,0.061c0,0,4.216,8.475,39.077,17.374c18.069,17.034,34.977,38.622,48.99,63.774
			c14.083,25.279,23.56,51.148,28.515,75.586c-13.929,14.927-14.996,27.387-14.74,32.337
			C490.235,227.546,388.508,260.08,347.812,187.033z"/>
		
			<ellipse transform="matrix(-0.8736 0.4867 -0.4867 -0.8736 821.1206 95.1013)" fill="#050707" cx="398.209" cy="154.198" rx="98.353" ry="167.743"/>
		
			<ellipse transform="matrix(-0.8736 0.4867 -0.4867 -0.8736 816.5562 103.016)" fill="#323335" cx="394.898" cy="157.562" rx="86.407" ry="154.506"/>
		
			<ellipse transform="matrix(-0.8736 0.4867 -0.4867 -0.8736 809.7054 107.8816)" fill="#424343" cx="390.841" cy="159.105" rx="75.823" ry="135.581"/>
		
			<ellipse transform="matrix(-0.8736 0.4867 -0.4867 -0.8736 856.1166 56.012)" fill="#8C8B8B" cx="420.783" cy="139.199" rx="31.893" ry="56.761"/>
		<path fill="#323335" d="M468.809,55.021"/>
	</g>
	<g display="inline">
		<g>
			
				<path fill="none" stroke="#98D6D8" stroke-width="8.8635" stroke-linecap="round" stroke-linejoin="round" stroke-miterlimit="10" d="
				M161.127,309.125c24.42-0.095,24.489,17.492,48.909,17.397c24.421-0.095,24.353-17.683,48.774-17.778
				c24.421-0.095,24.489,17.492,48.91,17.397c24.424-0.095,24.355-17.683,48.779-17.778c24.424-0.095,24.493,17.492,48.917,17.396"
				/>
		</g>
		<g>
			
				<path fill="none" stroke="#98D6D8" stroke-width="8.8635" stroke-linecap="round" stroke-linejoin="round" stroke-miterlimit="10" d="
				M146.08,277.524c24.42-0.095,24.489,17.492,48.909,17.397c24.421-0.095,24.353-17.683,48.774-17.778
				c24.421-0.095,24.489,17.492,48.91,17.396c24.424-0.095,24.355-17.683,48.779-17.778c24.424-0.095,24.493,17.492,48.917,17.396"
				/>
		</g>
		<g>
			
				<path fill="none" stroke="#98D6D8" stroke-width="8.8635" stroke-linecap="round" stroke-linejoin="round" stroke-miterlimit="10" d="
				M176.175,340.726c24.42-0.095,24.489,17.492,48.909,17.397c24.421-0.095,24.353-17.683,48.774-17.778
				c24.421-0.095,24.489,17.492,48.91,17.397c24.424-0.095,24.355-17.683,48.779-17.778c24.424-0.095,24.493,17.492,48.917,17.396"
				/>
		</g>
		<g>
			
				<path fill="none" stroke="#98D6D8" stroke-width="8.8635" stroke-linecap="round" stroke-linejoin="round" stroke-miterlimit="10" d="
				M131.032,245.923c24.42-0.095,24.489,17.492,48.909,17.396c24.421-0.095,24.353-17.683,48.774-17.778
				c24.421-0.095,24.489,17.492,48.91,17.397c24.424-0.095,24.355-17.683,48.779-17.778c24.424-0.095,24.493,17.492,48.917,17.396"
				/>
		</g>
		<g>
			
				<path fill="none" stroke="#98D6D8" stroke-width="8.8635" stroke-linecap="round" stroke-linejoin="round" stroke-miterlimit="10" d="
				M115.985,214.322c24.42-0.095,24.489,17.492,48.909,17.396c24.421-0.095,24.353-17.683,48.774-17.778
				c24.421-0.095,24.489,17.492,48.91,17.397c24.424-0.095,24.355-17.683,48.779-17.778c24.424-0.095,24.493,17.492,48.917,17.396"
				/>
		</g>
	</g>
</g>
<g id="classical">
	<g>
		<path fill="#F4B891" d="M195.304,315.174c21.686,36.683,6.151,78.748,0.396,122.272s-12.621,94.86-39.214,110.582
			c-49.638,29.345-80.548-24.435-140.937-126.585C-13.798,371.805,2.653,307.776,52.291,278.43
			C101.93,249.085,165.959,265.536,195.304,315.174z"/>
		<path fill="#EB8267" d="M156.433,424.287"/>
		<path fill="#E0A280" d="M159.856,336.414c-21.75-25.148-58.519-32.881-87.492-16.57c-24.559,13.827-37.362,40.229-35.121,66.417
			c0.518,6.051,7.297,9.161,12.439,5.929c7.857-4.94,17.988-5.634,26.656-0.772c6.725,3.773,11.17,10.04,12.825,16.993
			c0.958,4.026,6.669,4.28,7.914,0.333c2.171-6.883,2.266-15.962-4.614-26.179c-0.821-1.171-1.688-2.258-2.6-3.223
			c-4.149-4.388-11.09-6.065-17.116-6.631c-6.198-0.582-9.579-7.475-6.331-12.787c12.241-17.346,27.275-25.915,52.306-21.89
			c16.54,4.589,27.877,19.229,33.807,35.337l4.884,13.266c3.136,8.519,15.607,6.722,16.306-2.329
			C175.035,367.243,172.478,351.007,159.856,336.414z"/>
		<path fill="#E0A280" d="M153.327,473.913L153.327,473.913c-4.607-0.57-7.88-4.768-7.309-9.375l6.304-50.909
			c0.57-4.607,4.768-7.879,9.375-7.309h0c4.607,0.57,7.88,4.768,7.309,9.375l-6.304,50.909
			C162.132,471.211,157.934,474.484,153.327,473.913z"/>
	</g>
	<g>
		<path fill="#424343" d="M540.122,166.91l-55.994-60.578l-16.18-39.197l3.421-23.39c5.699,0.486,11.102,0.542,16.12,0.314
			c12.025-0.548,23.499,5.107,30.6,14.827c6.641,9.09,12.912,18.854,18.69,29.225c6.628,11.897,12.234,23.924,16.83,35.871
			c5.522,14.356,1.268,30.656-10.569,40.477C542.084,165.249,541.112,166.067,540.122,166.91z"/>
		<path fill="#424343" d="M347.812,187.033c-45.087-80.93-4.496-169.881-4.496-169.881l62.469,2.371
			c1.396,1.01,2.918,1.96,4.524,2.865l-0.056,0.061c0,0,4.546,9.176,43.448,18.457c8.318,1.985,16.266,2.928,23.63,3.196
			c13.76,14.895,26.575,32.469,37.597,52.254c12.817,23.007,21.825,46.504,27.078,68.964c-3.252,2.724-6.7,5.731-10.313,9.044
			c-18.568,17.024-19.881,31.682-19.599,37.157C490.235,227.546,388.508,260.08,347.812,187.033z"/>
		<path fill="#232323" d="M347.812,187.033c-45.087-80.93-4.496-169.881-4.496-169.881l62.469,2.371
			c1.396,1.01,2.919,1.96,4.524,2.865l-0.056,0.061c0,0,4.216,8.475,39.077,17.374c18.069,17.034,34.977,38.622,48.99,63.774
			c14.083,25.279,23.56,51.148,28.515,75.586c-13.929,14.927-14.996,27.387-14.74,32.337
			C490.235,227.546,388.508,260.08,347.812,187.033z"/>
		
			<ellipse transform="matrix(-0.8736 0.4867 -0.4867 -0.8736 821.1206 95.1013)" fill="#050707" cx="398.209" cy="154.198" rx="98.353" ry="167.743"/>
		
			<ellipse transform="matrix(-0.8736 0.4867 -0.4867 -0.8736 816.5562 103.016)" fill="#323335" cx="394.898" cy="157.562" rx="86.407" ry="154.506"/>
		
			<ellipse transform="matrix(-0.8736 0.4867 -0.4867 -0.8736 809.7054 107.8816)" fill="#424343" cx="390.841" cy="159.105" rx="75.823" ry="135.581"/>
		
			<ellipse transform="matrix(-0.8736 0.4867 -0.4867 -0.8736 856.1166 56.012)" fill="#8C8B8B" cx="420.783" cy="139.199" rx="31.893" ry="56.761"/>
		<path fill="#323335" d="M468.809,55.021"/>
	</g>
	<g>
		<g>
			<g>
				
					<ellipse transform="matrix(0.6912 -0.7227 0.7227 0.6912 -168.2839 297.7502)" fill="#98D6D8" cx="264.265" cy="345.79" rx="57.665" ry="38.924"/>
				
					<polyline fill="none" stroke="#98D6D8" stroke-width="14.6058" stroke-linecap="round" stroke-linejoin="round" stroke-miterlimit="10" points="
					304.711,319.048 300.879,304.842 247.823,108.18 318.587,148.875 				"/>
			</g>
			
				<rect x="295.495" y="290.942" transform="matrix(-0.9655 0.2605 -0.2605 -0.9655 673.0874 522.0396)" fill="#98D6D8" width="12.916" height="29.355"/>
		</g>
		
			<path fill="none" stroke="#FFFFFF" stroke-width="5.8423" stroke-linecap="round" stroke-linejoin="round" stroke-miterlimit="10" d="
			M234.905,380.062c-9.508-9.094-8.593-26.131,1.09-41.447c2.137-3.38,4.7-6.676,7.673-9.784"/>
		
			<path fill="none" stroke="#FFFFFF" stroke-width="5.8423" stroke-linecap="round" stroke-linejoin="round" stroke-miterlimit="10" d="
			M293.423,311.344c9.561,9.037,8.748,26.08-0.844,41.453c-2.117,3.392-4.661,6.703-7.615,9.829"/>
	</g>
</g>
<g id="silence" display="none">
	<g display="inline">
		<path fill="#F4B891" d="M195.304,315.174c21.686,36.683,6.151,78.748,0.396,122.272s-12.621,94.86-39.214,110.582
			c-49.638,29.345-80.548-24.435-140.937-126.585C-13.798,371.805,2.653,307.776,52.291,278.43
			C101.93,249.085,165.959,265.536,195.304,315.174z"/>
		<path fill="#EB8267" d="M156.433,424.287"/>
		<path fill="#E0A280" d="M159.856,336.414c-21.75-25.148-58.519-32.881-87.492-16.57c-24.559,13.827-37.362,40.229-35.121,66.417
			c0.518,6.051,7.297,9.161,12.439,5.929c7.857-4.94,17.988-5.634,26.656-0.772c6.725,3.773,11.17,10.04,12.825,16.993
			c0.958,4.026,6.669,4.28,7.914,0.333c2.171-6.883,2.266-15.962-4.614-26.179c-0.821-1.171-1.688-2.258-2.6-3.223
			c-4.149-4.388-11.09-6.065-17.116-6.631c-6.198-0.582-9.579-7.475-6.331-12.787c12.241-17.346,27.275-25.915,52.306-21.89
			c16.54,4.589,27.877,19.229,33.807,35.337l4.884,13.266c3.136,8.519,15.607,6.722,16.306-2.329
			C175.035,367.243,172.478,351.007,159.856,336.414z"/>
		<path fill="#E0A280" d="M153.327,473.913L153.327,473.913c-4.607-0.57-7.88-4.768-7.309-9.375l6.304-50.909
			c0.57-4.607,4.768-7.879,9.375-7.309h0c4.607,0.57,7.88,4.768,7.309,9.375l-6.304,50.909
			C162.132,471.211,157.934,474.484,153.327,473.913z"/>
	</g>
	<g display="inline">
		<path fill="#424343" d="M540.122,166.91l-55.994-60.578l-16.18-39.197l3.421-23.39c5.699,0.486,11.102,0.542,16.12,0.314
			c12.025-0.548,23.499,5.107,30.6,14.827c6.641,9.09,12.912,18.854,18.69,29.225c6.628,11.897,12.234,23.924,16.83,35.871
			c5.522,14.356,1.268,30.656-10.569,40.477C542.084,165.249,541.112,166.067,540.122,166.91z"/>
		<path fill="#424343" d="M347.812,187.033c-45.087-80.93-4.496-169.881-4.496-169.881l62.469,2.371
			c1.396,1.01,2.918,1.96,4.524,2.865l-0.056,0.061c0,0,4.546,9.176,43.448,18.457c8.318,1.985,16.266,2.928,23.63,3.196
			c13.76,14.895,26.575,32.469,37.597,52.254c12.817,23.007,21.825,46.504,27.078,68.964c-3.252,2.724-6.7,5.731-10.313,9.044
			c-18.568,17.024-19.881,31.682-19.599,37.157C490.235,227.546,388.508,260.08,347.812,187.033z"/>
		<path fill="#232323" d="M347.812,187.033c-45.087-80.93-4.496-169.881-4.496-169.881l62.469,2.371
			c1.396,1.01,2.919,1.96,4.524,2.865l-0.056,0.061c0,0,4.216,8.475,39.077,17.374c18.069,17.034,34.977,38.622,48.99,63.774
			c14.083,25.279,23.56,51.148,28.515,75.586c-13.929,14.927-14.996,27.387-14.74,32.337
			C490.235,227.546,388.508,260.08,347.812,187.033z"/>
		
			<ellipse transform="matrix(-0.8736 0.4867 -0.4867 -0.8736 821.1206 95.1013)" fill="#050707" cx="398.209" cy="154.198" rx="98.353" ry="167.743"/>
		
			<ellipse transform="matrix(-0.8736 0.4867 -0.4867 -0.8736 816.5562 103.016)" fill="#323335" cx="394.898" cy="157.562" rx="86.407" ry="154.506"/>
		
			<ellipse transform="matrix(-0.8736 0.4867 -0.4867 -0.8736 809.7054 107.8816)" fill="#424343" cx="390.841" cy="159.105" rx="75.823" ry="135.581"/>
		
			<ellipse transform="matrix(-0.8736 0.4867 -0.4867 -0.8736 856.1166 56.012)" fill="#8C8B8B" cx="420.783" cy="139.199" rx="31.893" ry="56.761"/>
		<path fill="#323335" d="M468.809,55.021"/>
	</g>
	<g display="inline">
		
			<polyline fill="none" stroke="#EE4823" stroke-width="31.3893" stroke-linecap="round" stroke-linejoin="round" stroke-miterlimit="10" points="
			289.783,272.066 303.942,257.907 499.947,61.902 		"/>
		
			<polyline fill="none" stroke="#EE4823" stroke-width="31.3893" stroke-linecap="round" stroke-linejoin="round" stroke-miterlimit="10" points="
			499.947,272.066 485.788,257.907 289.783,61.902 		"/>
	</g>
</g>
</svg>
