<?xml version="1.0" encoding="utf-8"?>
<!-- Generator: Adobe Illustrator 18.0.0, SVG Export Plug-In . SVG Version: 6.00 Build 0)  -->
<!DOCTYPE svg PUBLIC "-//W3C//DTD SVG 1.1//EN" "http://www.w3.org/Graphics/SVG/1.1/DTD/svg11.dtd">
<svg version="1.1" xmlns="http://www.w3.org/2000/svg" xmlns:xlink="http://www.w3.org/1999/xlink" x="0px" y="0px" width="556px"
	 height="556px" viewBox="0 0 556 556" enable-background="new 0 0 556 556" xml:space="preserve">
<g id="vanilla">
	<g>
		<circle fill="#F4B891" cx="199.225" cy="292.646" r="60.725"/>
		<path fill="#E0A280" d="M259.949,292.646c0,33.538-27.187,60.725-60.724,60.725c-6.257,0-12.291-0.95-17.97-2.707
			c-6.862-11.879-10.85-25.626-10.85-40.331c0-13.019,3.095-41.341,8.564-74.876c6.344-2.248,13.142-3.535,20.256-3.535
			C232.763,231.922,259.949,259.109,259.949,292.646z"/>
		<circle fill="#F4B891" cx="356.775" cy="292.646" r="60.725"/>
		<path fill="#E0A280" d="M296.051,292.646c0,33.538,27.187,60.725,60.724,60.725c6.257,0,12.291-0.95,17.97-2.707
			c6.862-11.879,10.85-25.626,10.85-40.331c0-13.019-3.095-41.341-8.564-74.876c-6.344-2.248-13.142-3.535-20.256-3.535
			C323.237,231.922,296.051,259.109,296.051,292.646z"/>
		<path fill="#F4B891" d="M358.828,310.333c0,44.64-36.188,80.828-80.828,80.828s-80.828-36.188-80.828-80.828
			S233.36,41.608,278,41.608S358.828,265.693,358.828,310.333z"/>
		
			<path fill="none" stroke="#F9C32C" stroke-width="13.1427" stroke-linecap="round" stroke-linejoin="round" stroke-miterlimit="10" d="
			M356.471,391.16L356.471,391.16c9.606,33.867,28.927,64.177,55.575,87.18l11.233,9.697"/>
		
			<path fill="none" stroke="#F9C32C" stroke-width="13.1427" stroke-linecap="round" stroke-linejoin="round" stroke-miterlimit="10" d="
			M336.144,424.07L336.144,424.07c5.425,30.377,19.634,58.497,40.87,80.885l8.952,9.437"/>
		
			<path fill="none" stroke="#F9C32C" stroke-width="13.1427" stroke-linecap="round" stroke-linejoin="round" stroke-miterlimit="10" d="
			M199.529,391.16L199.529,391.16c-9.606,33.867-28.927,64.177-55.575,87.18l-11.233,9.697"/>
		
			<path fill="none" stroke="#F9C32C" stroke-width="13.1427" stroke-linecap="round" stroke-linejoin="round" stroke-miterlimit="10" d="
			M219.856,424.07L219.856,424.07c-5.425,30.377-19.634,58.497-40.87,80.885l-8.952,9.437"/>
	</g>
</g>
<g id="none" display="none">
	<g display="inline">
		<circle fill="#F4B891" cx="199.225" cy="292.646" r="60.725"/>
		<path fill="#E0A280" d="M259.949,292.646c0,33.538-27.187,60.725-60.724,60.725c-6.257,0-12.291-0.95-17.97-2.707
			c-6.862-11.879-10.85-25.626-10.85-40.331c0-13.019,3.095-41.341,8.564-74.876c6.344-2.248,13.142-3.535,20.256-3.535
			C232.763,231.922,259.949,259.109,259.949,292.646z"/>
		<circle fill="#F4B891" cx="356.775" cy="292.646" r="60.725"/>
		<path fill="#E0A280" d="M296.051,292.646c0,33.538,27.187,60.725,60.724,60.725c6.257,0,12.291-0.95,17.97-2.707
			c6.862-11.879,10.85-25.626,10.85-40.331c0-13.019-3.095-41.341-8.564-74.876c-6.344-2.248-13.142-3.535-20.256-3.535
			C323.237,231.922,296.051,259.109,296.051,292.646z"/>
		<path fill="#F4B891" d="M358.828,310.333c0,44.64-36.188,80.828-80.828,80.828s-80.828-36.188-80.828-80.828
			S233.36,41.608,278,41.608S358.828,265.693,358.828,310.333z"/>
	</g>
</g>
</svg>
