<?xml version="1.0" encoding="utf-8"?>
<!-- Generator: Adobe Illustrator 18.0.0, SVG Export Plug-In . SVG Version: 6.00 Build 0)  -->
<!DOCTYPE svg PUBLIC "-//W3C//DTD SVG 1.1//EN" "http://www.w3.org/Graphics/SVG/1.1/DTD/svg11.dtd">
<svg version="1.1" xmlns="http://www.w3.org/2000/svg" xmlns:xlink="http://www.w3.org/1999/xlink" x="0px" y="0px" width="556px"
	 height="556px" viewBox="0 0 556 556" enable-background="new 0 0 556 556" xml:space="preserve">
<g id="colour-mono">
	<g>
		<g>
			<g>
				<path fill="#ECD097" d="M213.046,195.333L213.046,195.333c-6.048,2.859-13.268,0.274-16.127-5.774L116.068,18.517
					c-2.859-6.048-0.274-13.268,5.774-16.127l0,0c6.048-2.859,13.268-0.274,16.127,5.774l80.851,171.042
					C221.679,185.254,219.094,192.475,213.046,195.333z"/>
				<path fill="#E4BE7B" d="M202.096,200.51l21.901-10.353l-20.746-43.889c-7.808,2.524-15.106,6.172-21.71,10.756L202.096,200.51z"
					/>
			</g>
			<circle fill="#FBEAC2" cx="231.983" cy="244.123" r="83.016"/>
			<path fill="#ECD097" d="M217.4,162.41c12.906,29.094,42.024,49.397,75.902,49.397c4.978,0,9.846-0.463,14.583-1.303
				c-12.906-29.094-42.024-49.397-75.902-49.397C227.005,161.107,222.138,161.57,217.4,162.41z"/>
			<circle fill="#FBEAC2" cx="324.268" cy="299.333" r="83.016"/>
			<circle fill="#FBEAC2" cx="330.587" cy="153.437" r="83.016"/>
			<path fill="#E9DECD" d="M202.611,397.997c12.392,9.124,21.557,21.954,25.742,36.763l16.311,57.716
				c3.649,12.911,5.499,26.265,5.499,39.682v0h72.042l0,0c0-13.417,1.851-26.771,5.5-39.682l16.311-57.716
				c4.185-14.809,13.35-27.639,25.742-36.763C417.85,362.59,154.52,362.59,202.611,397.997z"/>
			<path fill="#E0CFB8" d="M322.206,532.157c0-8.183,0.697-16.34,2.062-24.39c-11.783-0.988-24.625-1.537-38.083-1.537
				c-13.458,0-26.3,0.549-38.083,1.537c1.365,8.049,2.062,16.207,2.062,24.39v0H322.206z"/>
			<path fill="#E0CFB8" d="M440.192,244.123H132.178c4.975,66.324,28.142,122.737,70.433,153.874
				c12.392,9.124,21.557,21.954,25.742,36.763l1.843,6.521c16.539,6.771,35.185,10.447,55.988,10.447s39.45-3.676,55.989-10.447
				l1.843-6.521c4.185-14.809,13.35-27.639,25.742-36.763C412.049,366.86,435.216,310.447,440.192,244.123z"/>
			<path fill="#E9DECD" d="M431.379,216.317c5.483,0,9.856,4.536,9.714,10.017c-2.862,110.005-53.199,197.588-154.908,197.588
				s-152.046-87.583-154.908-197.588c-0.143-5.482,4.23-10.017,9.714-10.017H431.379z"/>
			<path fill="#F1EAE1" d="M398.38,232.475c-4.75,0-8.634,3.733-8.885,8.476c-4.471,84.292-44.76,150.216-123.72,150.216
				c-2.866,0-5.681-0.087-8.445-0.26c-3.166-0.197-3.753,4.403-0.652,5.072c8.318,1.794,17.181,2.732,26.595,2.732
				c81.074,0,121.384-69.499,124.007-157.024C407.431,236.653,403.417,232.475,398.38,232.475L398.38,232.475z"/>
			<path fill="#FFF6DB" d="M148.968,244.123c0,45.848,37.167,83.016,83.016,83.016s83.016-37.167,83.016-83.016
				c0-9.755-1.697-19.111-4.788-27.806H153.755C150.664,225.012,148.968,234.368,148.968,244.123z"/>
			<path fill="#FBEAC2" d="M231.983,327.139c44.391,0,80.643-34.842,82.902-78.671c-8.324-2.803-17.228-4.345-26.497-4.345
				c-44.391,0-80.642,34.843-82.903,78.671C213.811,325.597,222.714,327.139,231.983,327.139z"/>
			<circle fill="#FFF6DB" cx="318.722" cy="311.17" r="83.016"/>
			<path fill="#FBEAC2" d="M282.152,236.637c13.634,9.815,30.353,15.615,48.436,15.615c13.127,0,25.536-3.058,36.57-8.483
				c-13.634-9.815-30.353-15.615-48.435-15.615C305.595,228.154,293.187,231.212,282.152,236.637z"/>
			<path fill="#FFFFFF" d="M289.721,388.968c8.56,3.192,17.79,4.997,27.42,5.178c43.576-12.511,71.018-49.74,83.098-98.658
				c-2.177-11.381-6.667-21.936-12.978-31.154C378.258,328.548,346.227,378.167,289.721,388.968z"/>
			<path fill="#E9DECD" d="M385.971,556c11.448,0,13.34-16.442,2.182-19c-24.416-5.597-59.476-9.106-98.431-9.106
				s-74.015,3.509-98.431,9.106c-11.159,2.558-9.266,19,2.182,19H385.971z"/>
			<path fill="#FFF6DB" d="M330.587,236.453c20.706,0,39.626-7.598,54.167-20.136H276.42
				C290.961,228.855,309.881,236.453,330.587,236.453z"/>
			<path fill="#FFFFFF" d="M362.458,173.921l-0.98,0.883c-1.026,0.924-2.606,0.843-3.531-0.183l-12.731-14.122
				c-0.924-1.026-0.843-2.606,0.183-3.531l0.98-0.883c1.026-0.924,2.606-0.843,3.531,0.183l12.731,14.122
				C363.566,171.415,363.484,172.996,362.458,173.921z"/>
			<path fill="#FFFFFF" d="M361.953,206.268l-1.114-0.707c-1.166-0.74-1.511-2.285-0.77-3.451l10.192-16.052
				c0.74-1.166,2.285-1.511,3.451-0.77l1.114,0.707c1.166,0.74,1.511,2.285,0.771,3.451l-10.192,16.052
				C364.663,206.663,363.118,207.008,361.953,206.268z"/>
			<path fill="#FFFFFF" d="M278.737,130.505l0.161-1.31c0.169-1.37,1.417-2.344,2.787-2.175l18.871,2.327
				c1.37,0.169,2.344,1.417,2.175,2.787l-0.161,1.31c-0.169,1.37-1.417,2.344-2.787,2.175l-18.871-2.327
				C279.542,133.123,278.568,131.875,278.737,130.505z"/>
			<path fill="#FFFFFF" d="M355.985,96.626l1.203-0.541c1.259-0.566,2.739-0.005,3.306,1.254l7.8,17.34
				c0.566,1.259,0.005,2.739-1.254,3.306l-1.203,0.541c-1.259,0.566-2.739,0.005-3.306-1.254l-7.8-17.34
				C354.164,98.672,354.726,97.192,355.985,96.626z"/>
			<path fill="#FFFFFF" d="M264.635,152.852l0.615-1.168c0.643-1.222,2.155-1.691,3.377-1.048l16.826,8.856
				c1.222,0.643,1.691,2.155,1.048,3.377l-0.615,1.168c-0.643,1.222-2.155,1.691-3.377,1.048l-16.826-8.856
				C264.461,155.586,263.992,154.074,264.635,152.852z"/>
			<path fill="#FFFFFF" d="M389.573,131.545l0.605,1.172c0.633,1.227,0.152,2.735-1.075,3.368l-16.896,8.722
				c-1.227,0.633-2.735,0.152-3.368-1.075l-0.605-1.172c-0.633-1.227-0.152-2.735,1.075-3.368l16.896-8.722
				C387.432,129.837,388.94,130.318,389.573,131.545z"/>
			<path fill="#FFFFFF" d="M323.52,86.508l1.317-0.075c1.379-0.078,2.559,0.976,2.638,2.354l1.078,18.983
				c0.078,1.378-0.976,2.559-2.354,2.638l-1.317,0.075c-1.379,0.078-2.559-0.976-2.638-2.354l-1.078-18.983
				C321.087,87.767,322.141,86.586,323.52,86.508z"/>
			<path fill="#FFFFFF" d="M306.559,193.229l-0.533-1.207c-0.558-1.263,0.014-2.739,1.277-3.297l17.392-7.683
				c1.263-0.558,2.739,0.014,3.297,1.277l0.533,1.207c0.558,1.263-0.014,2.739-1.277,3.297l-17.392,7.683
				C308.593,195.063,307.117,194.491,306.559,193.229z"/>
			<path fill="#FFFFFF" d="M303.542,96.582l-0.128,1.313c-0.134,1.374-1.356,2.38-2.73,2.246l-18.925-1.84
				c-1.374-0.134-2.38-1.356-2.246-2.73l0.128-1.313c0.134-1.374,1.356-2.38,2.73-2.246l18.925,1.84
				C302.67,93.985,303.676,95.207,303.542,96.582z"/>
			<path fill="#FFFFFF" d="M320.445,145.671l0.161-1.31c0.169-1.37,1.417-2.344,2.787-2.175l18.871,2.327
				c1.37,0.169,2.344,1.417,2.175,2.787l-0.161,1.31c-0.169,1.37-1.417,2.344-2.787,2.175l-18.871-2.327
				C321.25,148.29,320.276,147.042,320.445,145.671z"/>
			<path fill="#FFFFFF" d="M185.523,188.339l1.132-0.677c1.185-0.709,2.72-0.322,3.429,0.863l9.757,16.32
				c0.709,1.185,0.322,2.72-0.863,3.429l-1.132,0.677c-1.185,0.709-2.72,0.322-3.429-0.863l-9.757-16.32
				C183.952,190.582,184.338,189.047,185.523,188.339z"/>
			<path fill="#FFFFFF" d="M224.399,180.996l-0.532-1.208c-0.556-1.264,0.017-2.739,1.281-3.295l17.403-7.66
				c1.264-0.556,2.739,0.017,3.295,1.281l0.532,1.208c0.556,1.264-0.017,2.739-1.281,3.295l-17.403,7.66
				C226.431,182.834,224.955,182.26,224.399,180.996z"/>
			<path fill="#FBEAC2" d="M225.361,176.449c1.238,1.763,2.542,3.476,3.91,5.134l15.221-6.7c1.597-0.703,2.322-2.568,1.619-4.165
				c-0.703-1.597-2.568-2.322-4.165-1.619l-16.195,7.128C225.612,176.289,225.488,176.37,225.361,176.449z"/>
			<path fill="#FFFFFF" d="M216.806,205.074l0.161-1.31c0.169-1.37,1.417-2.344,2.787-2.175l18.871,2.327
				c1.37,0.169,2.344,1.417,2.175,2.787l-0.161,1.31c-0.169,1.37-1.417,2.344-2.787,2.175l-18.871-2.327
				C217.611,207.692,216.637,206.445,216.806,205.074z"/>
			<path fill="#FFFFFF" d="M239.052,221.935l1.315-0.114c1.376-0.119,2.587,0.9,2.706,2.275l1.638,18.943
				c0.119,1.376-0.9,2.587-2.275,2.706l-1.315,0.114c-1.376,0.119-2.587-0.9-2.706-2.275l-1.638-18.943
				C236.658,223.265,237.677,222.054,239.052,221.935z"/>
			<path fill="#FFFFFF" d="M395.165,145.034l1.203-0.541c1.259-0.566,2.739-0.005,3.306,1.254l7.8,17.34
				c0.566,1.259,0.005,2.739-1.254,3.306l-1.203,0.541c-1.259,0.566-2.739,0.005-3.306-1.254l-7.8-17.34
				C393.345,147.08,393.906,145.6,395.165,145.034z"/>
		</g>
		<path fill="#FFFFFF" d="M349.042,334.193l-0.128,1.313c-0.134,1.374-1.356,2.38-2.73,2.246l-18.925-1.84
			c-1.374-0.134-2.38-1.356-2.246-2.73l0.128-1.313c0.134-1.374,1.356-2.38,2.73-2.246l18.925,1.84
			C348.17,331.597,349.176,332.819,349.042,334.193z"/>
		<path fill="#FFFFFF" d="M290.522,292.302l-1.298,0.235c-1.359,0.246-2.659-0.657-2.905-2.015l-3.384-18.71
			c-0.246-1.359,0.657-2.659,2.015-2.905l1.298-0.235c1.359-0.246,2.659,0.657,2.905,2.015l3.384,18.71
			C292.783,290.756,291.88,292.057,290.522,292.302z"/>
		<path fill="#FFFFFF" d="M351.717,255.298l0.491,1.225c0.514,1.281-0.108,2.737-1.389,3.251l-17.646,7.081
			c-1.281,0.514-2.737-0.108-3.251-1.389l-0.491-1.225c-0.514-1.281,0.108-2.737,1.389-3.251l17.646-7.081
			C349.747,253.395,351.203,254.017,351.717,255.298z"/>
		<path fill="#FFFFFF" d="M200.77,257.142l-0.693-1.123c-0.726-1.175-0.361-2.715,0.813-3.441l16.177-9.992
			c1.175-0.726,2.715-0.361,3.441,0.813l0.693,1.123c0.726,1.175,0.361,2.715-0.813,3.441l-16.177,9.992
			C203.036,258.681,201.495,258.317,200.77,257.142z"/>
		<path fill="#FFFFFF" d="M177.848,244.027l-1.155,0.639c-1.208,0.668-2.729,0.231-3.398-0.977l-9.206-16.637
			c-0.668-1.208-0.231-2.729,0.977-3.398l1.154-0.639c1.208-0.668,2.729-0.231,3.398,0.977l9.206,16.637
			C179.494,241.837,179.056,243.358,177.848,244.027z"/>
	</g>
</g>
<g id="colour-multi">
	<g>
		<g>
			<g>
				<g>
					<path fill="#FBEAC2" d="M213.046,195.333L213.046,195.333c-6.048,2.859-13.268,0.274-16.127-5.774L116.069,18.517
						c-2.859-6.048-0.274-13.268,5.774-16.127l0,0c6.048-2.859,13.268-0.274,16.127,5.774l80.851,171.042
						C221.68,185.254,219.094,192.475,213.046,195.333z"/>
					<path fill="#ECD097" d="M202.096,200.51l21.901-10.353l-20.746-43.889c-7.808,2.524-15.106,6.172-21.71,10.756L202.096,200.51z
						"/>
				</g>
				<circle fill="#B3D346" cx="231.984" cy="244.123" r="83.016"/>
				<path fill="#94C83F" d="M217.401,162.41c12.906,29.094,42.024,49.397,75.902,49.397c4.978,0,9.846-0.463,14.583-1.303
					c-12.906-29.094-42.024-49.397-75.902-49.397C227.005,161.107,222.138,161.57,217.401,162.41z"/>
				<circle fill="#F6A9A9" cx="330.588" cy="153.437" r="83.016"/>
				<path fill="#E18080" d="M346.613,71.982c-1.083,10.301,4.383,20.599,14.31,25.183c9.208,4.252,19.67,2.393,26.835-3.888
					C376.554,82.626,362.389,75.069,346.613,71.982z"/>
				<circle fill="#FBEAC2" cx="324.268" cy="299.333" r="83.016"/>
				<path fill="#BEE4E6" d="M202.612,397.997c12.392,9.124,21.557,21.954,25.742,36.763l16.311,57.716
					c3.649,12.911,5.499,26.265,5.499,39.682v0h72.042l0,0c0-13.417,1.851-26.771,5.5-39.682l16.311-57.716
					c4.185-14.809,13.35-27.639,25.742-36.763C417.85,362.59,154.52,362.59,202.612,397.997z"/>
				<path fill="#98D6D7" d="M322.206,532.157c0-8.183,0.697-16.34,2.062-24.39c-11.783-0.988-24.625-1.537-38.083-1.537
					c-13.458,0-26.3,0.549-38.083,1.537c1.365,8.049,2.062,16.207,2.062,24.39v0H322.206z"/>
				<path fill="#98D6D7" d="M440.192,244.123H132.178c4.975,66.324,28.142,122.737,70.433,153.874
					c12.392,9.124,21.557,21.954,25.742,36.763l1.843,6.521c16.539,6.771,35.185,10.447,55.988,10.447s39.45-3.676,55.989-10.447
					l1.843-6.521c4.185-14.809,13.35-27.639,25.742-36.763C412.05,366.86,435.217,310.447,440.192,244.123z"/>
				<path fill="#BEE4E6" d="M431.379,216.317c5.483,0,9.856,4.536,9.714,10.017c-2.862,110.005-53.199,197.588-154.908,197.588
					s-152.046-87.583-154.908-197.588c-0.143-5.482,4.23-10.017,9.714-10.017H431.379z"/>
				<path fill="#E6F4F5" d="M398.38,232.475c-4.75,0-8.634,3.733-8.885,8.476c-4.471,84.292-44.76,150.216-123.72,150.216
					c-2.866,0-5.681-0.087-8.445-0.26c-3.166-0.197-3.753,4.403-0.652,5.072c8.318,1.794,17.181,2.732,26.595,2.732
					c81.074,0,121.384-69.499,124.007-157.024C407.431,236.653,403.418,232.475,398.38,232.475L398.38,232.475z"/>
				<path fill="#E0ECBE" d="M148.968,244.123c0,45.848,37.167,83.016,83.016,83.016S315,289.971,315,244.123
					c0-9.755-1.697-19.111-4.788-27.806H153.755C150.665,225.012,148.968,234.368,148.968,244.123z"/>
				<path fill="#B5D787" d="M231.984,327.139c44.391,0,80.643-34.842,82.902-78.671c-8.324-2.803-17.228-4.345-26.497-4.345
					c-44.391,0-80.642,34.843-82.903,78.671C213.811,325.597,222.715,327.139,231.984,327.139z"/>
				<circle fill="#FFEE8B" cx="318.723" cy="311.17" r="83.016"/>
				<path fill="#FDDF4A" d="M282.152,236.637c13.634,9.815,30.353,15.615,48.436,15.615c13.127,0,25.536-3.058,36.57-8.483
					c-13.634-9.815-30.353-15.615-48.435-15.615C305.596,228.154,293.187,231.212,282.152,236.637z"/>
				<path fill="#FFFFFF" d="M289.721,388.968c8.56,3.192,17.79,4.997,27.42,5.178c43.576-12.511,71.018-49.74,83.098-98.658
					c-2.177-11.381-6.667-21.936-12.978-31.154C378.258,328.548,346.227,378.167,289.721,388.968z"/>
				<path fill="#BEE4E6" d="M385.971,556c11.448,0,13.34-16.442,2.182-19c-24.416-5.597-59.476-9.106-98.431-9.106
					s-74.015,3.509-98.431,9.106c-11.159,2.558-9.266,19,2.182,19H385.971z"/>
				<path fill="#FACFCE" d="M330.588,236.453c20.706,0,39.626-7.598,54.167-20.136H276.42
					C290.961,228.855,309.881,236.453,330.588,236.453z"/>
				<path fill="#FFFFFF" d="M362.458,173.921l-0.98,0.883c-1.026,0.924-2.606,0.843-3.531-0.183l-12.731-14.122
					c-0.924-1.026-0.843-2.606,0.183-3.531l0.98-0.883c1.026-0.924,2.606-0.843,3.531,0.183l12.731,14.122
					C363.566,171.415,363.484,172.996,362.458,173.921z"/>
				<path fill="#98D6D7" d="M361.953,206.268l-1.114-0.707c-1.166-0.74-1.511-2.285-0.77-3.451l10.192-16.052
					c0.74-1.166,2.285-1.511,3.451-0.77l1.114,0.707c1.166,0.74,1.511,2.285,0.771,3.451l-10.192,16.052
					C364.663,206.663,363.118,207.008,361.953,206.268z"/>
				<path fill="#FDDF4A" d="M278.737,130.505l0.161-1.31c0.169-1.37,1.417-2.344,2.787-2.175l18.871,2.327
					c1.37,0.169,2.344,1.417,2.175,2.787l-0.161,1.31c-0.169,1.37-1.417,2.344-2.787,2.175l-18.871-2.327
					C279.542,133.123,278.568,131.875,278.737,130.505z"/>
				<path fill="#98D6D7" d="M355.985,99.808l1.203-0.541c1.259-0.566,2.739-0.005,3.306,1.254l7.8,17.34
					c0.566,1.259,0.005,2.739-1.254,3.306l-1.203,0.541c-1.259,0.566-2.739,0.005-3.306-1.254l-7.8-17.34
					C354.164,101.854,354.726,100.374,355.985,99.808z"/>
				<path fill="#B3D346" d="M264.635,152.852l0.615-1.168c0.643-1.222,2.155-1.691,3.377-1.048l16.826,8.856
					c1.222,0.643,1.691,2.155,1.048,3.377l-0.615,1.168c-0.643,1.222-2.155,1.691-3.377,1.048l-16.826-8.856
					C264.461,155.586,263.992,154.074,264.635,152.852z"/>
				<path fill="#FDDF4A" d="M389.573,131.545l0.605,1.172c0.633,1.227,0.152,2.735-1.075,3.368l-16.896,8.722
					c-1.227,0.633-2.735,0.152-3.368-1.075l-0.605-1.172c-0.633-1.227-0.152-2.735,1.075-3.368l16.896-8.722
					C387.432,129.837,388.94,130.318,389.573,131.545z"/>
				<path fill="#B3D346" d="M323.52,86.508l1.317-0.075c1.379-0.078,2.559,0.976,2.638,2.354l1.078,18.983
					c0.078,1.378-0.976,2.559-2.354,2.638l-1.317,0.075c-1.379,0.078-2.559-0.976-2.638-2.354l-1.078-18.983
					C321.088,87.767,322.142,86.586,323.52,86.508z"/>
				<path fill="#FFFFFF" d="M306.56,193.229l-0.533-1.207c-0.558-1.263,0.014-2.739,1.277-3.297l17.392-7.683
					c1.263-0.558,2.739,0.014,3.297,1.277l0.533,1.207c0.558,1.263-0.014,2.739-1.277,3.297l-17.392,7.683
					C308.594,195.063,307.118,194.491,306.56,193.229z"/>
				<path fill="#FFFFFF" d="M303.542,96.582l-0.128,1.313c-0.134,1.374-1.356,2.38-2.73,2.246l-18.925-1.84
					c-1.374-0.134-2.38-1.356-2.246-2.73l0.128-1.313c0.134-1.374,1.356-2.38,2.73-2.246l18.925,1.84
					C302.67,93.985,303.676,95.207,303.542,96.582z"/>
				<path fill="#EE4823" d="M320.445,145.671l0.161-1.31c0.169-1.37,1.417-2.344,2.787-2.175l18.871,2.327
					c1.37,0.169,2.344,1.417,2.175,2.787l-0.161,1.31c-0.169,1.37-1.417,2.344-2.787,2.175l-18.871-2.327
					C321.25,148.29,320.276,147.042,320.445,145.671z"/>
				<path fill="#EE4823" d="M185.523,188.339l1.132-0.677c1.185-0.709,2.72-0.322,3.429,0.863l9.757,16.32
					c0.709,1.185,0.322,2.72-0.863,3.429l-1.132,0.677c-1.185,0.709-2.72,0.322-3.429-0.863l-9.757-16.32
					C183.952,190.582,184.338,189.047,185.523,188.339z"/>
				<path fill="#FFFFFF" d="M224.399,180.996l-0.532-1.208c-0.556-1.264,0.017-2.739,1.281-3.295l17.403-7.66
					c1.264-0.556,2.739,0.017,3.295,1.281l0.532,1.208c0.556,1.264-0.017,2.739-1.281,3.295l-17.403,7.66
					C226.431,182.834,224.955,182.26,224.399,180.996z"/>
				<path fill="#FBEAC2" d="M225.362,176.449c1.238,1.763,2.542,3.476,3.91,5.134l15.221-6.7c1.597-0.703,2.322-2.568,1.619-4.165
					c-0.703-1.597-2.568-2.322-4.165-1.619l-16.195,7.128C225.613,176.289,225.488,176.37,225.362,176.449z"/>
				<path fill="#FDDF4A" d="M216.806,205.074l0.161-1.31c0.169-1.37,1.417-2.344,2.787-2.175l18.871,2.327
					c1.37,0.169,2.344,1.417,2.175,2.787l-0.161,1.31c-0.169,1.37-1.417,2.344-2.787,2.175l-18.871-2.327
					C217.611,207.692,216.637,206.445,216.806,205.074z"/>
				<path fill="#FFFFFF" d="M239.053,221.935l1.315-0.114c1.376-0.119,2.587,0.9,2.706,2.275l1.638,18.943
					c0.119,1.376-0.9,2.587-2.275,2.706l-1.315,0.114c-1.376,0.119-2.587-0.9-2.706-2.275l-1.638-18.943
					C236.658,223.265,237.677,222.054,239.053,221.935z"/>
				<path fill="#FFFFFF" d="M395.166,145.034l1.203-0.541c1.259-0.566,2.739-0.005,3.306,1.254l7.8,17.34
					c0.566,1.259,0.005,2.739-1.254,3.306l-1.203,0.541c-1.259,0.566-2.739,0.005-3.306-1.254l-7.8-17.34
					C393.345,147.08,393.907,145.6,395.166,145.034z"/>
			</g>
			<path fill="#B3D346" d="M349.042,334.193l-0.128,1.313c-0.134,1.374-1.356,2.38-2.73,2.246l-18.925-1.84
				c-1.374-0.134-2.38-1.356-2.246-2.73l0.128-1.313c0.134-1.374,1.356-2.38,2.73-2.246l18.925,1.84
				C348.17,331.597,349.176,332.819,349.042,334.193z"/>
			<path fill="#EE4823" d="M290.522,292.302l-1.298,0.235c-1.359,0.246-2.659-0.657-2.905-2.015l-3.384-18.71
				c-0.246-1.359,0.657-2.659,2.015-2.905l1.298-0.235c1.359-0.246,2.659,0.657,2.905,2.015l3.384,18.71
				C292.783,290.756,291.881,292.057,290.522,292.302z"/>
			<path fill="#98D6D7" d="M351.717,255.298l0.491,1.225c0.514,1.281-0.108,2.737-1.389,3.251l-17.646,7.081
				c-1.281,0.514-2.737-0.108-3.251-1.389l-0.491-1.225c-0.514-1.281,0.108-2.737,1.389-3.251l17.646-7.081
				C349.747,253.395,351.203,254.017,351.717,255.298z"/>
			<path fill="#98D6D7" d="M200.77,257.142l-0.693-1.123c-0.726-1.175-0.361-2.715,0.813-3.441l16.177-9.992
				c1.175-0.726,2.715-0.361,3.441,0.813l0.693,1.123c0.726,1.175,0.361,2.715-0.813,3.441l-16.177,9.992
				C203.036,258.681,201.495,258.317,200.77,257.142z"/>
			<path fill="#FFFFFF" d="M177.849,244.027l-1.155,0.639c-1.208,0.668-2.729,0.231-3.398-0.977l-9.206-16.637
				c-0.668-1.208-0.231-2.729,0.977-3.398l1.154-0.639c1.208-0.668,2.729-0.231,3.398,0.977l9.206,16.637
				C179.494,241.837,179.057,243.358,177.849,244.027z"/>
		</g>
		<g>
			<circle fill="#EE4823" cx="373.727" cy="63.289" r="24.875"/>
			
				<ellipse transform="matrix(0.9079 0.4192 -0.4192 0.9079 54.6187 -156.3021)" fill="#D22D27" cx="382.978" cy="46.135" rx="5.938" ry="2.812"/>
			<path fill="none" stroke="#B3D346" stroke-width="3" stroke-linecap="round" stroke-linejoin="round" stroke-miterlimit="10" d="
				M382.978,45.512c0,0,15.896-28.829,52.449-22.318"/>
		</g>
	</g>
</g>
</svg>
