<svg xmlns="http://www.w3.org/2000/svg" viewBox="0 0 1280 1280"><g fill="#FFF"><path d="M435 481.9c0 27.8-8.4 53.6-22.8 75.1l11.5 11.5c22.2-22.2 35.8-52.8 35.8-86.6s-13.7-64.4-35.8-86.6l-11.5 11.5c14.3 21.4 22.8 47.3 22.8 75.1z"/><path d="M435.4 555.3l-9.6-9.6c-39.6 32.6-64.9 81.9-64.9 137.2s25.3 104.6 64.9 137.2l9.6-9.6c-27.4-35.2-43.9-79.4-43.9-127.5.1-48.3 16.5-92.5 43.9-127.7zM748.1 481.9c0 43.8-13.2 84.4-36 118.2l18 18c34.9-34.9 56.4-83.1 56.4-136.3 0-53.3-21.5-101.4-56.4-136.3l-18 18c22.6 33.9 36 74.6 36 118.4z"/><path d="M748.8 597.4l-15.2-15.2c-62.3 51.2-102.1 128.9-102.1 215.9s39.8 164.6 102.1 215.9l15.2-15.2c-43.1-55.4-69-124.9-69-200.7s25.8-145.2 69-200.7z"/><g><path d="M588.2 481.9c0 75.8-26 145.3-69 200.7l15.2 15.2c62.3-51.2 102.1-128.9 102.1-215.9S596.6 317.2 534.4 266l-15.2 15.2c43.2 55.4 69 124.9 69 200.7z"/><path d="M555.9 679.9l-18-18c-34.9 34.9-56.4 83-56.4 136.3 0 53.2 21.5 101.4 56.4 136.3l18-18c-22.7-33.8-36-74.4-36-118.2 0-43.9 13.4-84.6 36-118.4z"/></g><g><path d="M884.3 640c0 54.6-18.7 104.7-49.7 144.7l10.9 10.9c44.9-36.9 73.6-92.9 73.6-155.6s-28.7-118.7-73.6-155.6l-10.9 10.9c31.1 40 49.7 90.1 49.7 144.7z"/><path d="M861 782.7l-13-13c-25.1 25.1-40.6 59.8-40.6 98.2 0 38.3 15.5 73.1 40.6 98.2l13-13c-16.4-24.4-25.9-53.6-25.9-85.2s9.6-60.8 25.9-85.2z"/></g></g></svg>