<svg xmlns="http://www.w3.org/2000/svg" viewBox="0 0 202 586"><g id="_x31_"><path fill="#F4B891" d="M117.276 510.06h29v52.5h-29z"/><path fill="#986327" d="M155.958 66.182a55.746 55.746 0 0 0 .875-13.597c-1.64-28.537-25.336-51.447-53.911-52.168-31.274-.79-56.874 24.326-56.874 55.421 0 3.472.321 6.868.934 10.161 1.99 10.69-1.222 21.697-8.702 29.59-7.011 7.398-14.075 15.25-19.443 21.319a36.96 36.96 0 0 0-9.273 24.498c0 16.231 13.157 29.388 29.388 29.388h125.071c16.231 0 29.388-13.158 29.388-29.388a36.966 36.966 0 0 0-9.273-24.498c-5.344-6.042-12.369-13.851-19.349-21.219-7.46-7.874-10.852-18.85-8.831-29.507z"/><path fill="#E0A280" d="M149.268 351.107c-7.203 0-13.042-5.839-13.042-13.042V174.087a3.292 3.292 0 0 1 3.292-3.292h19.5a3.292 3.292 0 0 1 3.292 3.292v163.978c0 7.203-5.839 13.042-13.042 13.042zM53.705 351.107c-7.203 0-13.042-5.839-13.042-13.042V174.087a3.292 3.292 0 0 1 3.292-3.292h19.5a3.292 3.292 0 0 1 3.292 3.292v163.978c0 7.203-5.839 13.042-13.042 13.042z"/><path fill="#D22D27" d="M104.432 120.271H82.351c-27.288 0-49.408 22.121-49.408 49.408V301.12h41.524l79.373-120.401v-11.04c0-27.287-22.12-49.408-49.408-49.408z"/><path fill="#D22D27" d="M120.626 120.271h-22.08c-27.288 0-49.408 22.121-49.408 49.408v11.04l79.369 120.401h41.529V169.679c-.001-27.287-22.122-49.408-49.41-49.408z"/><path fill="#C38669" d="M40.663 309.789h16.949v14.06H40.663zM145.361 309.789h16.949v14.06h-16.949z"/><path fill="#F4B891" d="M55.992 510.06h29v52.5h-29z"/><path fill="#EE4823" d="M172.068 309.789h-24.829a2.252 2.252 0 0 1-2.252-2.252v-12.833a2.252 2.252 0 0 1 2.252-2.252h24.829a2.252 2.252 0 0 1 2.252 2.252v12.833a2.252 2.252 0 0 1-2.252 2.252zM55.735 309.789h-24.83a2.252 2.252 0 0 1-2.252-2.252v-12.833a2.252 2.252 0 0 1 2.252-2.252h24.829a2.252 2.252 0 0 1 2.252 2.252v12.833a2.251 2.251 0 0 1-2.251 2.252z"/><path fill="#CFD9EE" d="M50.457 244.51v287.463h39.311l6.96-237.007c.181-6.161 9.336-6.161 9.517 0l6.96 237.007h39.311V244.51H50.457z"/><path fill="#AABBD9" d="M50.457 261.452h102.059v16.456H50.457z"/><circle fill="#76491D" cx="101.486" cy="62.248" r="40.108"/><circle fill="#E0A280" cx="65.703" cy="67.864" r="8.764"/><path fill="#C38669" d="M74.467 67.864a8.764 8.764 0 0 1-8.764 8.764c-.37 0-.733-.03-1.091-.075a35.54 35.54 0 0 1-2.994-14.306c0-.729.029-1.451.072-2.17a8.709 8.709 0 0 1 4.013-.979 8.767 8.767 0 0 1 8.764 8.766z"/><path fill="#C38669" d="M65.703 59.1a8.719 8.719 0 0 0-4.273 1.116 39.993 39.993 0 0 0 2.548 16.241A8.764 8.764 0 1 0 65.703 59.1z"/><circle fill="#E0A280" cx="137.27" cy="67.864" r="8.764"/><path fill="#C38669" d="M128.506 67.864a8.764 8.764 0 0 0 10.49 8.592 40.011 40.011 0 0 0 2.548-16.242 8.719 8.719 0 0 0-4.273-1.116c-4.841.002-8.765 3.926-8.765 8.766z"/><path fill="#F4B891" d="M87.626 86.004h27.72v37.118h-27.72z"/><path fill="#F4B891" d="M87.626 86.004h27.72v37.118h-27.72z"/><path fill="#C38669" d="M87.626 102.153a40.023 40.023 0 0 0 13.86 2.461c4.872 0 9.54-.87 13.86-2.461V85.597h-27.72v16.556z"/><circle fill="#F4B891" cx="101.486" cy="62.248" r="35.669"/><path fill="#E0A280" d="M65.964 59.1h71.045c-1.093-12.493-8.624-23.133-19.259-28.593H85.222c-10.634 5.46-18.165 16.1-19.258 28.593z"/><path fill="#986327" d="M146.034 53.836H56.938l8.88-33.851h71.337z"/><circle fill="#020202" cx="115.173" cy="64.125" r="2.513"/><circle fill="#020202" cx="87.8" cy="64.125" r="2.513"/><path fill="none" stroke="#C38669" stroke-width="1.2" stroke-linecap="round" stroke-linejoin="round" stroke-miterlimit="10" d="M97.287 70.801a4.6 4.6 0 0 0 8.4 0"/><path fill="none" stroke="#CA6634" stroke-width="1.2" stroke-linecap="round" stroke-linejoin="round" stroke-miterlimit="10" d="M93.136 77.921c1.431 3.19 4.628 5.417 8.351 5.417 3.723 0 6.92-2.226 8.351-5.417"/><path fill="#EE4823" d="M112.527 120.271H90.446c-27.288 0-49.408 22.121-49.408 49.408v91.773h120.897v-91.773c0-27.287-22.121-49.408-49.408-49.408z"/><path fill="#FFD70D" d="M111.833 549.267v33.686a2.649 2.649 0 0 0 2.648 2.648h11.271a2.648 2.648 0 0 0 2.394-1.517l2.564-5.429c1.471-3.114 5.848-3.258 7.52-.248l2.567 4.621a5.004 5.004 0 0 0 4.374 2.573h51.702c3.415 0 5.826-3.346 4.746-6.585l-1.095-3.286a15.392 15.392 0 0 0-14.602-10.524h-12.318c-5.4 0-10.483-2.551-13.71-6.882l-8.732-11.72a4.458 4.458 0 0 0-3.575-1.794H116.29a4.458 4.458 0 0 0-4.457 4.457zM91.139 549.267v33.686a2.649 2.649 0 0 1-2.648 2.648H77.22a2.648 2.648 0 0 1-2.394-1.517l-2.564-5.429c-1.471-3.114-5.848-3.258-7.52-.248l-2.567 4.621a5.004 5.004 0 0 1-4.374 2.573H6.1c-3.415 0-5.826-3.346-4.746-6.585l1.095-3.286a15.392 15.392 0 0 1 14.602-10.524h12.318c5.4 0 10.483-2.551 13.71-6.882l8.732-11.72a4.458 4.458 0 0 1 3.575-1.794h31.297a4.457 4.457 0 0 1 4.456 4.457z"/><g fill="#AABBD9"><path d="M152.516 485.271h-40.683l.929 31.626h39.754zM50.457 516.897h39.754l.928-31.626H50.457z"/></g><path fill="#CFD9EE" d="M91.055 531.973H49.929a3.252 3.252 0 0 1-3.251-3.251v-24.387a3.252 3.252 0 0 1 3.251-3.251h41.125a3.252 3.252 0 0 1 3.251 3.251v24.387a3.25 3.25 0 0 1-3.25 3.251zM152.92 531.973h-41.126a3.252 3.252 0 0 1-3.251-3.251v-24.387a3.252 3.252 0 0 1 3.251-3.251h41.126a3.252 3.252 0 0 1 3.251 3.251v24.387a3.251 3.251 0 0 1-3.251 3.251z"/></g></svg>