<svg xmlns="http://www.w3.org/2000/svg" viewBox="0 0 1280 1280"><path fill="#1D345C" d="M328.4 450.4L5.3 519.8l69.4 323.1 203.4-72.3 84.4-161-34.1-159.2z"/><path fill="#B69C89" d="M341.6 971.5l74-120.6-51.8-241.2-159.3 34.2-128.6 199 16.6 77.4 117.1 79.6 132-28.4z"/><path fill="#FDCD4D" d="M426.5 950.6L0 1044v236h510.7l-5.1-8.4c57.5-12.3 113.9-8.5 165.1 8.4h474.5c-137.1-249.3-427.5-392-718.7-329.4z"/><path fill="#1D345C" d="M811.6 494.1l-329.9 17.6 17.6 330 212.3-39.3 109-141-9-167.3z"/><path fill="#F3AAB9" d="M499.3 841.8l4.5 83.6 176 153.7 154-171.4-13.2-246.3-162.7 8.7-158.6 171.7z"/><circle fill="#1D345C" cx="481.6" cy="511.7" r="162.9"/><path fill="#B69C89" d="M903.2 1056.8l-665.9 35.6C148.1 1097.2 66.6 1137.3 0 1202v78h1274.2c-88.9-142.2-224.6-231-371-223.2z"/><g fill="#17FF73"><path d="M357.237 784.923l14.142 14.142L255.415 915.03l-14.142-14.142z"/><path d="M193.92 853.481l14.143-14.142 56.568 56.568-14.142 14.142z"/></g><g fill="#17FF73"><path d="M773.597 844.868l14.142 14.142-115.964 115.964-14.142-14.142z"/><path d="M610.24 913.394l14.141-14.142 56.568 56.568-14.142 14.142z"/></g></svg>