<svg xmlns="http://www.w3.org/2000/svg" viewBox="0 0 202 586"><g id="_x33__1_"><path fill="#F4B891" d="M117.805 510.06h29v52.5h-29z"/><path fill="#E0A280" d="M158.517 351.107c-7.203 0-13.042-5.839-13.042-13.042V174.087a3.292 3.292 0 0 1 3.292-3.292h19.5a3.292 3.292 0 0 1 3.292 3.292v163.978c0 7.203-5.839 13.042-13.042 13.042z"/><path fill="#C38669" d="M145.474 304.908h26.085v14.06h-26.085z"/><path fill="#E0A280" d="M45.514 351.107c-7.203 0-13.042-5.839-13.042-13.042V174.087a3.292 3.292 0 0 1 3.292-3.292h19.5a3.292 3.292 0 0 1 3.292 3.292v163.978c.001 7.203-5.839 13.042-13.042 13.042z"/><path fill="#C38669" d="M32.472 304.908H55.89v14.06H32.472z"/><path fill="#DDDDDC" d="M30.141 306.908V169.679c0-27.287 22.121-49.408 49.408-49.408h22.081c.538 0 1.069.023 1.603.041.533-.017 1.065-.041 1.603-.041h22.081c27.287 0 49.408 22.121 49.408 49.408v137.229h-30.85l-42.242-12.5-47.343 12.5H30.141z"/><path fill="#F4B891" d="M56.521 510.06h29v52.5h-29z"/><path fill="#5876AF" d="M50.986 244.51v287.463h39.311l6.96-228.007c.181-6.161 9.336-6.161 9.517 0l6.96 228.007h39.311V244.51H50.986z"/><path fill="#426496" d="M153.045 324.281a31.113 31.113 0 0 0-4.699-.36c-15.429 0-28.212 11.324-30.492 26.115-.384 2.488 1.534 4.738 4.051 4.738 2.052 0 3.738-1.525 4.057-3.552 1.746-11.09 11.536-19.509 23.209-19.094 1.326.047 2.619.218 3.873.489v-8.336z"/><path fill="#7C4D1F" d="M50.986 260.951h102.059v18.957H50.986z"/><path fill="#5876AF" d="M126.776 258.241h6.5v25.355h-6.5zM70.754 258.241h6.5v25.355h-6.5z"/><circle fill="#E0A280" cx="66.232" cy="67.864" r="8.764"/><path fill="#C38669" d="M74.996 67.864a8.764 8.764 0 0 1-8.764 8.764c-.37 0-.733-.03-1.091-.075a35.54 35.54 0 0 1-2.994-14.306c0-.729.029-1.451.072-2.17a8.709 8.709 0 0 1 4.013-.979 8.767 8.767 0 0 1 8.764 8.766z"/><path fill="#C38669" d="M66.232 59.1a8.719 8.719 0 0 0-4.273 1.116 39.993 39.993 0 0 0 2.548 16.241A8.764 8.764 0 1 0 66.232 59.1z"/><circle fill="#E0A280" cx="137.799" cy="67.864" r="8.764"/><path fill="#C38669" d="M129.035 67.864a8.764 8.764 0 0 0 10.49 8.592 40.011 40.011 0 0 0 2.548-16.242 8.719 8.719 0 0 0-4.273-1.116c-4.841.002-8.765 3.926-8.765 8.766z"/><path fill="#F4B891" d="M88.156 86.004h27.72v37.118h-27.72z"/><path fill="#F4B891" d="M88.156 86.004h27.72v37.118h-27.72z"/><path fill="#C38669" d="M88.155 102.153a40.023 40.023 0 0 0 13.86 2.461c4.872 0 9.54-.87 13.86-2.461V85.597h-27.72v16.556z"/><circle fill="#F4B891" cx="102.015" cy="62.248" r="35.669"/><path fill="#606060" d="M101.613 76.191c-.119 2.067-2.153 3.616-4.423 3.616H86.603c-1.475 0-2.107-1.703-.936-2.521 3.187-2.227 8.045-5.123 11.76-5.123 2.39 0 4.312 1.824 4.186 4.028zM102.56 76.191c.119 2.067 2.153 3.616 4.423 3.616h10.587c1.475 0 2.107-1.703.936-2.521-3.187-2.227-8.045-5.123-11.76-5.123-2.39 0-4.313 1.824-4.186 4.028z"/><path fill="#E0A280" d="M102.015 26.579c-19.699 0-35.669 15.969-35.669 35.669 0 2.79 4.055.535 4.448-5.361.204.007.404.031.609.031 7.402 0 13.759-4.43 16.596-10.777a36.37 36.37 0 0 1 5.065 1.927l.452.214a10.547 10.547 0 0 0 10.309-.732l1.671-1.103a7.712 7.712 0 0 1 10.254 1.602 13.81 13.81 0 0 0 11.311 5.14c3.607-.144 7.188 2.93 7.326 5.994s3.296 5.782 3.296 3.064c.001-19.698-15.968-35.668-35.668-35.668z"/><circle fill="#020202" cx="115.702" cy="64.125" r="2.513"/><circle fill="#020202" cx="88.329" cy="64.125" r="2.513"/><path fill="none" stroke="#C38669" stroke-width="1.2" stroke-linecap="round" stroke-linejoin="round" stroke-miterlimit="10" d="M97.816 70.801a4.6 4.6 0 0 0 8.4 0"/><path fill="none" stroke="#CA6634" stroke-width="1.2" stroke-linecap="round" stroke-linejoin="round" stroke-miterlimit="10" d="M93.665 79.921c1.431 3.19 4.628 5.417 8.351 5.417 3.723 0 6.92-2.226 8.351-5.417"/><path fill="#FFF" d="M113.056 120.271H90.975c-27.288 0-49.408 22.121-49.408 49.408v91.773h120.897v-91.773c0-27.287-22.121-49.408-49.408-49.408z"/><path fill="#7C4D1F" d="M112.362 549.267v33.686a2.649 2.649 0 0 0 2.648 2.648h11.271a2.648 2.648 0 0 0 2.394-1.517l2.564-5.429c1.471-3.114 5.848-3.258 7.52-.248l2.567 4.621a5.004 5.004 0 0 0 4.374 2.573h51.702c3.415 0 5.826-3.346 4.746-6.585l-1.095-3.286a15.392 15.392 0 0 0-14.602-10.524h-12.318c-5.4 0-10.483-2.551-13.71-6.882l-8.732-11.72a4.458 4.458 0 0 0-3.575-1.794H116.82a4.458 4.458 0 0 0-4.458 4.457zM91.668 549.267v33.686a2.649 2.649 0 0 1-2.648 2.648H77.749a2.648 2.648 0 0 1-2.394-1.517l-2.564-5.429c-1.471-3.114-5.848-3.258-7.52-.248l-2.567 4.621a5.004 5.004 0 0 1-4.374 2.573H6.629c-3.415 0-5.826-3.346-4.746-6.585l1.095-3.286a15.392 15.392 0 0 1 14.602-10.524h12.318c5.4 0 10.483-2.551 13.71-6.882l8.732-11.72a4.458 4.458 0 0 1 3.575-1.794h31.297a4.457 4.457 0 0 1 4.456 4.457z"/><g fill="#426496"><path d="M153.045 485.271h-40.683l.929 31.626h39.754zM50.986 516.897H90.74l.928-31.626H50.986z"/></g><path fill="#CFD9EE" d="M91.584 531.973H50.458a3.252 3.252 0 0 1-3.251-3.251v-24.387a3.252 3.252 0 0 1 3.251-3.251h41.125a3.252 3.252 0 0 1 3.251 3.251v24.387a3.25 3.25 0 0 1-3.25 3.251zM153.449 531.973h-41.126a3.252 3.252 0 0 1-3.251-3.251v-24.387a3.252 3.252 0 0 1 3.251-3.251h41.126a3.252 3.252 0 0 1 3.251 3.251v24.387a3.251 3.251 0 0 1-3.251 3.251z"/><path fill="#AEAEAF" d="M135.871 22.858l-3.414-4.903a12.414 12.414 0 0 0-12.622-5.08l-5.471 1.094c-2.456.491-5.007.08-7.184-1.157l-3.327-1.89A7.2 7.2 0 0 0 95 12.305a11.357 11.357 0 0 1-12.371 2.923c-2.77-1.046-5.714-1.969-7.485-1.969-2.751 0-2.952 2.585-2.789 4.279a1.526 1.526 0 0 0-.421.417l-3.414 4.903a36.465 36.465 0 0 0-6.539 20.836v14.252a3.583 3.583 0 0 0 7.121.569l.901-8.603a7.132 7.132 0 0 1 7.326-5.994l4.436-8.417 2.142.38a36.246 36.246 0 0 1 9.158 2.916l.452.214a10.542 10.542 0 0 0 10.308-.733l1.672-1.103a7.712 7.712 0 0 1 10.254 1.602 13.81 13.81 0 0 0 11.311 5.14 7.132 7.132 0 0 1 7.326 5.994l.901 8.603a3.582 3.582 0 0 0 7.121-.569V43.694a36.483 36.483 0 0 0-6.539-20.836z"/><path fill="#606060" d="M71.404 20.614c-.462 0-.916.035-1.37.069l-1.514 2.175a36.465 36.465 0 0 0-6.539 20.836v10.631a18.032 18.032 0 0 0 7.295 2.519l.726-6.933a7.132 7.132 0 0 1 7.326-5.994l4.436-8.417 2.142.38c1.91.338-2.943-15.266-12.502-15.266z"/><circle fill="#AEAEAF" cx="71.404" cy="29.463" r="18.183"/><path fill="#606060" d="M92.039 28.458c-.502-1.344-2.499-.939-2.459.495A18.096 18.096 0 0 1 88 36.869a36.705 36.705 0 0 1 4.757 1.794 18.097 18.097 0 0 0-.718-10.205z"/><g fill="none" stroke="#020202" stroke-width="2" stroke-miterlimit="10"><circle cx="33.895" cy="553.027" r="11.619"/><circle cx="52.966" cy="566.439" r="11.619"/></g><g fill="none" stroke="#020202" stroke-width="2" stroke-miterlimit="10"><circle cx="170.888" cy="553.027" r="11.619"/><circle cx="151.818" cy="566.439" r="11.619"/></g><path fill="#D6B429" d="M109.645 283.597H94.386a4.704 4.704 0 0 1-4.704-4.704v-15.948a4.704 4.704 0 0 1 4.704-4.704h15.259a4.704 4.704 0 0 1 4.704 4.704v15.948a4.704 4.704 0 0 1-4.704 4.704z"/><path fill="#76491D" d="M105.954 276.617h-7.877a1.605 1.605 0 0 1-1.605-1.605v-8.187c0-.887.719-1.605 1.605-1.605h7.877c.887 0 1.605.719 1.605 1.605v8.187c0 .887-.719 1.605-1.605 1.605z"/><path fill="none" stroke="#C38669" stroke-width="1.2" stroke-linecap="round" stroke-linejoin="round" stroke-miterlimit="10" d="M120.693 63.437l2.5-1.189M120.693 65.437l2.5-1.189M83.338 63.437l-2.5-1.189M83.338 65.437l-2.5-1.189"/><path fill="#FFD70D" d="M163.281 323.921c16.277 0 29.6 12.607 30.761 28.587h.092v233.094h-8.193V355.316c0-12.287-9.555-22.752-21.835-23.189-11.674-.415-21.464 8.004-23.209 19.094-.319 2.026-2.005 3.552-4.057 3.552-2.517 0-4.435-2.25-4.051-4.738 2.28-14.79 15.063-26.114 30.492-26.114z"/><path fill="#E0A280" d="M155.61 321.575h9.701v23.333h-9.701z"/></g></svg>