<svg xmlns="http://www.w3.org/2000/svg" viewBox="0 0 1280 1280"><path fill="#1D345C" d="M514.8 391.4l-318 22 22 318 199.7-40.8 107.1-142.4-10.8-156.8z"/><circle fill="#1D345C" cx="196.9" cy="413.4" r="157.1"/><path fill="#B69C89" d="M218.6 727l5.6 80.6 167.6 145.9 150.4-167.9-16.4-237.4-161.2 11.2-146 167.6z"/><path fill="#DBDCDC" d="M754.5 896.6L58.1 944.9c-19.8 1.4-39.1 3.9-58.1 7.4v258c22.3-8.4 46.2-13.8 71-15.5l5.9 85.2h699.6l-9.5-137.8c101.8-3.8 193.1 52.4 236.4 137.8h264.2c-53.3-231.7-267.9-396.4-513.1-383.4z"/><path fill="#1D345C" d="M474.7 663.3L496 971.7l302.1-175.9-10.7-154.2-158.6 11-154.1 10.7z"/><path fill="#F3AAB9" d="M496 971.7l5.5 79.3 164.9 143.5 147.9-165.2-16.2-233.5-158.6 11L496 971.7z"/><path fill="#EA5C42" d="M948.2 1113l-574 39.8c-97.2 6.7-183 54-248.5 127.2H1277c-81.8-108.1-200.7-173.3-328.8-167z"/><path fill="#45BEFF" d="M596 1014h164v20H596zM306 777h164v20H306z"/></svg>