<svg xmlns="http://www.w3.org/2000/svg" viewBox="0 0 1280 1280"><path fill="#54C0D9" d="M648.7 1014.6H0V1280h1143.3c-106.4-160.5-288.8-265.4-494.6-265.4z"/><path fill="#1D345C" d="M1280 1275.5l-519-519V599.9H447.8c-89.5 0-156.6 71.6-156.6 156.6v371.4h474.2V1280h514.5l.1-4.5z"/><path fill="#F3AAB9" d="M537.3 1083.1l-93.9-93.9v-76.1L600 752h161v237.1l-93.9 93.9-129.8.1z"/><path fill="#EA5C42" d="M848.7 1083.8H189.2c-67.6 0-131.8 18-189.2 50.1V1280h1050.6c-54.9-101-145.2-196.2-201.9-196.2z"/><g><path fill="#1D345C" d="M355.2 563.8H59.9v295.3l189-23.6 106.3-124V563.8z"/><path fill="#F3AAB9" d="M266.7 1018.5l88.6-88.6V711.4H207.6L60 859.1V930l88.6 88.6 118.1-.1z"/><circle fill="#1D345C" cx="355.2" cy="563.8" r="146.2"/></g></svg>