<svg xmlns="http://www.w3.org/2000/svg" viewBox="0 0 1096 1280"><path fill="#FDCD4D" d="M893.022 1181.214l-33.718-25.288-28.098 25.288-21.079 49.177h-40.736c-28.098 0-49.177 22.491-49.177 49.184h174.219v-98.355h-1.405l-.006-.006zm-175.624 0l-33.717-25.288-28.11 25.288-21.073 49.177h-40.742c-28.098 0-49.177 22.491-49.177 49.184h174.219l-1.405-98.355.005-.006z"/><path fill="#1D345C" d="M742.686 539.117l-148.937 61.815v580.283h123.649V725.98l50.576 50.589v404.64h125.048V600.932l-150.336-61.815zM696.343 137.289l35.128 42.159 64.625 8.429v-99.76h-99.753v49.172z"/><path fill="#B69C89" d="M766.593 242.675l29.503-30.908v-23.896l-50.576-50.576h-49.177v74.478l29.503 30.908 40.747-.006z"/><path fill="#FDCD4D" d="M895.856 242.675H596.583c-109.594 0-199.513 89.913-199.513 199.513h99.76c0-54.791 41.957-99.754 96.76-99.754v299.273h302.273V342.435c54.803 0 99.778 44.957 99.778 99.76 0 54.797-44.969 99.766-99.778 99.766v99.76c109.6 0 199.526-89.913 199.526-199.513 0-111.005-89.932-199.52-199.526-199.52l-.007-.013z"/><path fill="#B69C89" d="M876.187 520.868h-60.423c0 11.239 8.429 19.668 19.669 19.668h9.834v9.828h-80.085c-11.239 0-19.669 8.429-19.669 19.668h99.76v9.834h-109.6c0 11.252 8.429 19.668 19.669 19.668h89.913v9.84h-99.747c0 11.239 8.429 19.668 19.669 19.668h80.085v9.834H796.09c0 11.239 8.429 19.668 19.669 19.668h30.908l47.766-19.668v-99.754l-18.251-18.245.005-.009z"/><g><path fill="#B69C89" d="M500.803 1181.214l-33.718-25.288-28.098 25.288-21.079 49.177h-40.736c-28.098 0-49.177 22.491-49.177 49.184h174.219v-98.355h-1.405l-.006-.006zm-175.624 0l-33.717-25.288-28.11 25.288-21.073 49.177h-40.742c-28.098 0-49.177 22.491-49.177 49.184h174.219l-1.405-98.355.005-.006z"/><path fill="#1D345C" d="M350.467 539.117L201.53 600.932v580.283h123.649V725.98l50.576 50.589v404.64h125.048V600.932l-150.336-61.815zM301.29 99.336l35.122 40.748 64.625 8.429V48.76H301.29v50.576z"/><path fill="#F3AAB9" d="M350.467 99.336H301.29v74.472l49.177 49.177 50.576-49.177V148.52l-50.576-49.184z"/><path fill="#B69C89" d="M698.906 402.823c0-109.594-89.913-199.513-199.513-199.513H200.119C90.538 203.31.612 293.223.612 402.817S90.525 602.33 200.125 602.33H498c109.594-2.81 200.918-91.318 200.918-199.513l-.012.006zm-497.376 99.76c-54.797 0-99.76-44.957-99.76-99.766 0-54.791 44.957-99.76 99.76-99.76v199.526zm297.862 0l1.417-199.52c54.791 0 99.76 44.957 99.76 99.76 0 54.797-46.368 98.342-101.171 99.754l-.006.006z"/><circle fill="#1D345C" cx="401.044" cy="48.753" r="49.177"/><path fill="#F3AAB9" d="M499.386 502.589l-19.669-19.668h-60.41c0 11.239 8.429 19.668 19.669 19.668h9.834v9.828h-80.085c-11.239 0-19.669 8.429-19.669 19.668h99.753v9.834H339.228c0 11.239 8.429 19.668 19.669 19.668h89.913v9.828h-99.754c0 11.239 8.429 19.668 19.669 19.668h80.085v9.834h-49.177c0 11.239 8.429 19.668 19.669 19.668h30.908l47.766-19.668v-98.361h1.417l-.007.033z"/></g></svg>