<svg xmlns="http://www.w3.org/2000/svg" viewBox="0 0 1096 1280"><path fill="#1D345C" d="M242.039 1187.704l31.638-23.729 26.365 23.729 19.774 46.145h38.224c26.365 0 46.145 21.104 46.145 46.151H242.022v-92.29l.017-.006zm164.801 0l31.638-23.729 26.365 23.729 19.774 46.145h38.23c26.365 0 46.145 21.104 46.145 46.151H406.828v-92.29l.012-.006zM383.111 585.2l139.747 58.003v544.5H406.84V760.541l-47.457 47.469v379.688H242.039V643.204L383.111 585.2z"/><path fill="#F3AAB9" d="M56.147 82.89v46.139h9.228V53.888c0-10.546 7.91-18.456 18.456-18.456v93.602h9.234v-83.05c0-10.546 7.91-18.456 18.456-18.456v102.836h9.228v-93.62c10.546 0 18.456 7.91 18.456 18.456v75.147h9.234v-9.234c0-10.546 7.91-18.456 18.456-18.456v56.697l-58.003 58.003-54.06-39.548-18.459-44.819v-29.002c0-13.183 9.234-21.092 19.78-21.092l-.006-.006zm653.922 653.928v-46.145h-9.228v75.147c0 10.546-7.91 18.456-18.456 18.456v-93.602h-9.228v84.369c0 10.546-7.91 18.456-18.456 18.456V690.672h-9.228v93.602c-10.546 0-18.456-7.91-18.456-18.456v-75.147h-9.228v9.228c0 10.546-7.91 18.456-18.456 18.456v-56.691l58.003-58.003 54.06 39.548 18.456 44.821v29.002c-1.33 11.876-9.24 19.791-19.786 19.791l.003-.005z"/><path fill="#54C0D9" d="M522.858 270.106H242.039c-51.418 0-93.608-42.196-93.608-93.614H54.823c0 102.836 84.369 187.211 187.211 187.211v280.819h280.819V363.703c51.418 0 93.608 42.184 93.608 93.608v187.211h93.608V457.311c0-104.148-84.369-187.211-187.211-187.211v.006z"/><g><path fill="#1D345C" d="M430.2 127.789l-46.608-.008h-46.616l.008 93.223 59.658-7.457 33.566-39.159-.008-46.599z"/><path fill="#F3AAB9" d="M402.236 271.349l27.965-27.965.004-68.992-46.616.008-46.608 46.608v22.372l27.965 27.965 37.29.004z"/><circle fill="#1D345C" cx="430.2" cy="127.781" r="46.145"/></g><g><path fill="#1D345C" d="M913.271 325.467L760.324 172.549v-46.145h-92.29c-26.365 0-46.139 21.092-46.139 46.145v109.427h139.747v44.821h151.612v-1.312l.017-.018z"/><path fill="#F3AAB9" d="M694.411 268.782l-27.683-27.683v-22.41l46.145-47.457h47.457V241.1l-27.683 27.683h-38.236zM1041.148 82.89v46.145h-9.228V53.888c0-10.546-7.909-18.456-18.456-18.456v93.602h-9.222V44.666c0-10.546-7.909-18.456-18.456-18.456v102.824H975.24V35.432c-10.546 0-18.456 7.91-18.456 18.456v75.147h-9.228v-9.228c0-10.546-7.909-18.456-18.456-18.456v56.691l58.015 58.003 54.055-39.548 18.456-44.821v-29.002c-.012-11.864-9.24-19.78-18.467-19.78l-.011-.004z"/><path fill="#EA5C42" d="M947.546 175.186c0 51.412-42.184 93.602-93.614 93.602H573.113c-102.824 0-187.205 84.369-187.205 187.211 0 102.824 84.369 187.205 187.211 187.205h280.819V362.385c102.836 0 187.211-84.369 187.211-187.211h-93.602v.012zM573.119 549.601c-51.412 0-93.608-42.184-93.608-93.608 0-51.418 42.184-93.608 93.608-93.608v187.222-.006zM573.124 1187.71l-1.312 92.29h163.464c0-25.047-19.78-46.151-46.145-46.151h-38.23l-19.78-46.145-26.365-23.729-31.638 23.729.006.006zm163.483 0h-1.33V1280h163.482c0-25.047-19.78-46.151-46.145-46.151h-38.23l-19.78-46.145-26.365-23.729-31.638 23.729.006.006z"/><path fill="#F3AAB9" d="M794.61 1187.704h-59.327V732.857h59.327v454.847zm-163.488 0H571.8V732.857h59.327l-.005 454.847z"/><path fill="#1D345C" d="M852.625 958.297H571.806V643.204h280.819v315.093z"/><path fill="#F3AAB9" d="M703.638 606.286c10.546 0 18.456-7.91 18.456-18.456H619.258v-10.546h93.608c0-10.546-7.909-18.456-18.456-18.456h-75.14v-9.222h9.222c10.546 0 18.456-7.91 18.456-18.456h-56.691L571.8 549.607v93.608l44.821 18.456h29.002c10.546 0 18.456-7.91 18.456-18.456h-44.821v-9.228h75.147c10.546 0 18.456-7.91 18.456-18.456h-93.602v-9.228h84.38v-.017z"/></g></svg>