<svg id="Layer_1" xmlns="http://www.w3.org/2000/svg" viewBox="0 0 1280 1280"><path fill="#FFF" d="M145.2 426.5l2.2 8.4 2 33.6-.4 39.3v93.4l-2.5 23.9-1.3 4.9 1.8 8.8-1.4 18 1.1 32.9 1.5 44.5.8 33.2v10.5l3.5 20.9 6.8 16.6-1.4 18.4-7.3 9.9-9.2 10.5-6.1.8-9.1-7.8L116 832l-1.1-7.8 2.8-11.6 2.9-20.2 2.4-17.6 1.1-6-2.8-18.4 1.7-24.7 1.1-18 .7-25.4.7-26.9-4.5-16.7 3.5-12.9-2.2-24.4-3.9-31.1-1.7-29.6.3-27.9-.3-22.6 1-20.5 7.1-28.6 6.7-10.3 5.7-4.2z"/><path fill="#FFF" d="M135.1 855.2c-1.6-2.2-3.1-4.5-4.9-6.6-3.8-4.6-8.4-8.6-11.5-13.6-6.5-10.2-.5-20.9 1.2-30.7 2.5-13.8 5.9-27.1 3.6-41.3-1.1-6.7-.6-13.8-.3-20.6.4-10.2 1.7-20.4 2-30.5.5-17.6-.1-35.3 1.2-52.9.6-8-1-14.3-5.3-20.1.7 6.8 2.3 13.8 2 20.7-1.5 28.7 1.8 57.5-3.7 86.1-1.4 7.4 2.9 15.7 2.9 23.6 0 7.6-2.3 15.3-3.4 22.9-1.3 8.8-1.7 17.7-3.6 26.3-3.5 16.3 4.3 31.2 20.1 36.7 2 .4 5 1.8 5.8 1.1 5.3-5.5 10.1-11.4 15.1-17.2 7.8-9.1 5.8-19.6 3.4-29.6-3.3-13.4-8.8-26.3-8.5-40.5.2-11.5-.4-23-.6-34.5-.8-34.7-1.8-69.3-2.2-104-.1-10.3 2.2-20.7 2.3-31 .5-37.1.5-74.2.6-111.2 0-14.8 0-29.7-.7-44.5-.3-6.7-2.1-13.4-3.2-19.8-12.8-1.1-27.1 14.5-23.2 24.3 5.1-14 12.4-21.7 20.4-21.2 1 11.6 2.9 23.2 3 34.9.4 38.9.5 77.8.1 116.7-.2 16.2-2.1 32.3-3.2 48.9-5 .4-9.7.8-14.4 1.2.1.5.1.9.2 1.4 4.5.3 9.1.6 14 .9.5 3.2 1.4 6.2 1.3 9-.2 7.6-1.3 15.3-1.1 22.9.9 34.2 3 68.4 2.9 102.6 0 14.9 2.9 29.1 7.8 42.3 6.2 16.8.5 29.1-9.3 41-2.6 2.8-7.2 4.2-10.8 6.3z"/><path fill="#FFF" d="M117.9 464.6c-4 56.7-2.1 113.2 6.4 169.5 1-6 1.1-11.9.4-17.8-1.9-16.4-5-32.7-5.9-49.1-1.2-20.4-.7-40.9-.8-61.4-.2-13.7-.1-27.5-.1-41.2z"/><path fill="#D0D0D0" d="M135.1 855.2c3.6-2.1 8.2-3.5 10.7-6.5 9.8-11.9 15.5-24.2 9.3-41-4.9-13.2-7.8-27.4-7.8-42.3.1-34.2-2-68.4-2.9-102.6-.2-7.6.9-15.2 1.1-22.9.1-2.9-.8-5.8-1.3-9-5-.3-9.5-.6-14-.9-.1-.5-.1-.9-.2-1.4 4.7-.4 9.4-.8 14.4-1.2 1.1-16.6 3-32.7 3.2-48.9.4-38.9.3-77.8-.1-116.7-.1-11.7-1.9-23.3-3-34.9-8-.5-15.3 7.2-20.4 21.2-3.9-9.8 10.4-25.4 23.2-24.3 1.1 6.4 2.9 13.1 3.2 19.8.6 14.8.7 29.7.7 44.5-.1 37.1-.1 74.2-.6 111.2-.1 10.3-2.4 20.7-2.3 31 .4 34.7 1.4 69.3 2.2 104 .3 11.5.8 23 .6 34.5-.3 14.2 5.2 27.1 8.5 40.5 2.5 9.9 4.4 20.5-3.4 29.6-5 5.8-9.8 11.7-15.1 17.2-.8.8-3.8-.7-5.8-1.1l-.2.2z"/><path fill="#D0D0D0" d="M135.3 855c-15.8-5.5-23.6-20.4-20.1-36.7 1.8-8.6 2.3-17.6 3.6-26.3 1.1-7.7 3.4-15.3 3.4-22.9 0-7.9-4.3-16.2-2.9-23.6 5.5-28.6 2.2-57.4 3.7-86.1.4-6.9-1.3-13.9-2-20.7 4.2 5.8 5.8 12.1 5.3 20.1-1.3 17.6-.6 35.3-1.2 52.9-.3 10.2-1.6 20.4-2 30.5-.3 6.9-.8 13.9.3 20.6 2.4 14.2-1.1 27.5-3.6 41.3-1.8 9.8-7.8 20.5-1.2 30.7 3.2 5 7.7 9 11.5 13.6 1.8 2.1 3.3 4.4 4.9 6.6.1.2.3 0 .3 0zM117.9 464.6c0 13.7-.1 27.4 0 41.2.1 20.5-.3 41 .8 61.4.9 16.4 4 32.7 5.9 49.1.7 5.9.7 11.9-.4 17.8-8.4-56.3-10.2-112.8-6.3-169.5z"/><g><path fill="#FFF" d="M183.1 640l-.2-.2c1.6 2.3 2.8 5.3 5 6.8 7.2 4.7 10.9 11.7 11 19.6.4 28.4.1 56.8-.1 85.1 0 3.2-1.5 6.3-2.1 9.5-1.5 8.3-7.8 16.2-1.5 25.3 1.4 1.9.1 6-.4 8.9-.7 4.5-1.7 8.8-2.7 13.3-1 2.5-2 4.9-2.9 7.4-5.3 7.7-6 17.4-1.9 24.2 3.9 6.5 12.8 10.2 19.6 14.8.8.6 3-.2 4.2-1 3.2-1.9 6.3-4 9.3-6.4 4.7-3.7 8.2-8.4 7.3-14.8-1.2-8.2-2.6-16.4-4.5-24.4-2.2-9.6-8.5-18.6-2.1-29 1.2-2-.5-5.8-1.1-8.7-1.5-7.6-4.3-15.2-4.5-22.8-.5-26.8-.4-53.7-.1-80.5.1-8.3 3.3-15.1 10.7-20.6 5.1-3.8 9.1-10.3 11.3-16.4 6-16.7 2.8-33.4-4.4-48.9-4.3-9.4-11.3-17.6-17.8-25.7-2-2.4-6.9-4.3-10-3.7-8.9 1.6-21.4 18.3-22.2 28.2l.2-.3c-.7.2-1.9.3-2.1.7-5.8 14.2-9.3 28.9-6.3 44.1.9 5.6 5.4 10.4 8.3 15.5z"/><path fill="#FFF" d="M189.2 815.7c1-2.5 2-4.9 2.9-7.4 1.8-3.7 3.7-7.4 5.5-11 2.6-5.3 3-10.4-.3-15.9-1.5-2.4-1.4-6.2-.8-9.2 1.6-8.6 5.3-17.1 5.5-25.7.8-25.8.1-51.5.3-77.3.1-14.3-6.5-23.8-19.4-29.4l.2.2c-.2-1.3-.1-2.6-.5-3.7-4.9-11.9-8.5-23.6-3.5-36.7 2.4-6.2 2.8-13.1 4-19.7l-.2.3c1-.9 2.4-1.5 3-2.6 4.7-8.3 8.8-17.1 17.9-21.7 1.4-.7 3.7-1.5 4.6-.9 4.2 3.2 9.2 6.1 11.9 10.4 11.7 19.1 20.6 39.2 13.7 62.2-1.7 5.7-5 12.2-9.6 15.5-9 6.6-12.5 14.6-12.4 25.2.2 27.9-.2 55.8.3 83.7.1 6.9 3.2 13.6 4.5 20.5.5 2.7 1.4 6.6 0 8.4-4.8 6.4-2.2 12.1-.3 18.5 3.3 11 6.3 22.2 8 33.5 1.1 7.3-10.2 18.1-17.4 18.5-6.3.3-17.9-10.8-18.2-17.9-.3-6.1.2-12 .3-17.8z"/><path fill="#D0D0D0" d="M189.2 815.7c-.1 5.9-.5 11.7-.3 17.6.3 7 11.9 18.2 18.2 17.9 7.2-.4 18.5-11.2 17.4-18.5-1.7-11.3-4.7-22.5-8-33.5-1.9-6.4-4.4-12.1.3-18.5 1.3-1.8.5-5.6 0-8.4-1.4-6.9-4.4-13.6-4.5-20.5-.6-27.9-.2-55.8-.3-83.7-.1-10.6 3.4-18.6 12.4-25.2 4.6-3.3 7.9-9.8 9.6-15.5 6.9-23-2-43.1-13.7-62.2-2.6-4.3-7.6-7.2-11.9-10.4-.9-.6-3.2.2-4.6.9-9.1 4.6-13.2 13.4-17.9 21.7-.6 1.1-2 1.8-3 2.6.9-9.9 13.3-26.6 22.2-28.2 3.1-.6 8 1.3 10 3.7 6.6 8.1 13.5 16.4 17.8 25.7 7.1 15.5 10.4 32.2 4.4 48.9-2.2 6.1-6.2 12.6-11.3 16.4-7.4 5.5-10.6 12.3-10.7 20.6-.3 26.8-.5 53.7.1 80.5.2 7.6 3 15.2 4.5 22.8.6 2.9 2.3 6.8 1.1 8.7-6.3 10.4-.1 19.5 2.1 29 1.9 8.1 3.3 16.2 4.5 24.4.9 6.4-2.6 11-7.3 14.8-2.9 2.3-6.1 4.4-9.3 6.4-1.2.7-3.4 1.5-4.2 1-6.9-4.6-15.7-8.3-19.6-14.8-4-6.8-3.3-16.5 2-24.2z"/><path fill="#D0D0D0" d="M182.9 639.8c12.8 5.6 19.4 15.2 19.4 29.4-.1 25.8.5 51.6-.3 77.3-.3 8.6-3.9 17.1-5.5 25.7-.6 3-.6 6.8.8 9.2 3.4 5.5 3 10.5.3 15.9-1.8 3.7-3.6 7.4-5.5 11 .9-4.4 2-8.8 2.7-13.3.5-3 1.8-7 .4-8.9-6.4-9.1 0-17 1.5-25.3.6-3.2 2-6.3 2.1-9.5.2-28.4.5-56.8.1-85.1-.1-7.9-3.8-14.9-11-19.6-2.2-1.5-3.4-4.5-5-6.8z"/><path fill="#D0D0D0" d="M183.1 579.8c-1.3 6.6-1.7 13.6-4 19.7-5 13.1-1.4 24.8 3.5 36.7.5 1.1.4 2.5.5 3.7-2.9-5.1-7.4-9.9-8.4-15.3-2.9-15.2.5-29.9 6.3-44.1.2-.4 1.4-.4 2.1-.7z"/></g><g><path fill="#FFF" d="M272.1 515.5c-1.2.7-2.6 1.1-3.6 2-20.4 18.6-22.8 54.7-13 78 .9 2.2 2.9 3.9 4.4 5.9 1.6 3 2.8 6.4 5 8.8 7.7 8.3 14.3 17.6 14.9 28.9 1.1 23 1.3 46 .8 69-.5 20.4-2.6 40.8-3.6 61.2-.2 5 2.2 10.2 1.3 15-1.7 9.1-4.5 18.1-7.4 26.9-5.4 16.7-1.2 31.2 13 41.7 1.8 1.3 5.7 1.8 7.5.7 13.9-8 19.1-23.6 14.3-39.2-3-9.8-6.2-19.9-7-30.1-1.9-23.9-2.7-47.8-3.3-71.8-.5-22.8-1-45.6.3-68.3.5-8.5 3.9-18.3 9.4-24.7 15.1-17.6 24.1-36.8 21.8-60.2-1.9-19.3-9.1-35.9-25.3-48.1-10.9-8-24-5.6-29.5 4.3z"/><path fill="#D0D0D0" d="M272.1 515.5c5.4-9.9 18.6-12.3 29.5-4.1 16.2 12.2 23.4 28.8 25.3 48.1 2.3 23.4-6.7 42.6-21.8 60.2-5.5 6.4-8.9 16.2-9.4 24.7-1.3 22.7-.8 45.5-.3 68.3.6 23.9 1.4 47.9 3.3 71.8.8 10.1 4 20.2 7 30.1 4.7 15.6-.4 31.1-14.3 39.2-1.8 1.1-5.7.6-7.5-.7-14.1-10.5-18.3-25-13-41.7 2.8-8.9 5.7-17.8 7.4-26.9.9-4.8-1.6-10-1.3-15 1-20.4 3.1-40.8 3.6-61.2.5-23 .4-46-.8-69-.6-11.2-7.2-20.6-14.9-28.9-2.2-2.4-3.4-5.8-5-8.8l-.1.1c1.7 1.2 3.7 2.2 5 3.7 7.5 9.1 16.5 17.4 17.5 30.2 1.1 13.5 2.2 27.1 2.4 40.6.1 13.9 1.8 27.7-2.2 41.8-2.7 9.5-.2 20.3-.6 30.5-.3 7.7-3.6 16-1.6 22.8 4.6 14.9-3.7 26.9-6.1 40.1-2.1 11.8-4.7 22.5 4.9 32.5 7.6 7.9 10.7 7.8 18.3.1 12.7-12.9 4.6-27 2.5-40.2-1.6-9.8-6.1-19.2-4.6-29.6.4-2.8.2-5.6 0-8.4-1-17.3-2.7-34.5-3.1-51.8-.5-23.8-.6-47.6.1-71.4.3-9.8 3.2-19.4 10.4-26.8 13.9-14.5 21.8-31.5 21.3-51.7-.1-5.5-2.3-10.9-3.4-16.4-3-15-11.7-26.1-23.7-34.9-5.4-3.9-11-4.6-16.9-.4-2.3 1.6-5.3 2.2-8 3.3 0-.3.1-.2.1-.2z"/><path fill="#D0D0D0" d="M259.9 601.4c-1.5-2-3.4-3.7-4.4-5.9-9.8-23.3-7.4-59.4 13-78 1-.9 2.4-1.3 3.6-2l-.1-.2c-.2 1.1-.1 2.6-.8 3.3-17.7 19.7-22.3 42.3-14.9 67.5 1.5 5 2.3 10.2 3.4 15.3h.2z"/><path fill="#FFF" d="M259.7 601.6c-1.1-5.1-2-10.3-3.4-15.3-7.3-25.3-2.8-47.8 14.9-67.5.7-.7.6-2.2.8-3.3 2.7-1.1 5.7-1.7 8-3.3 5.9-4.2 11.5-3.5 16.9.4 12 8.8 20.8 19.9 23.7 34.9 1.1 5.5 3.2 10.9 3.4 16.4.5 20.3-7.4 37.3-21.3 51.7-7.1 7.4-10.1 17.1-10.4 26.8-.6 23.8-.6 47.6-.1 71.4.4 17.3 2.1 34.5 3.1 51.8.2 2.8.4 5.7 0 8.4-1.5 10.4 3 19.7 4.6 29.6 2.1 13.3 10.2 27.3-2.5 40.2-7.6 7.7-10.7 7.8-18.3-.1-9.6-10-7-20.7-4.9-32.5 2.4-13.2 10.6-25.3 6.1-40.1-2.1-6.8 1.3-15.1 1.6-22.8.3-10.2-2.1-21.1.6-30.5 4-14.1 2.3-27.9 2.2-41.8-.1-13.5-1.3-27.1-2.4-40.6-1-12.7-10-21.1-17.5-30.2-1.3-1.5-3.4-2.4-5.1-3.6z"/></g><g><path fill="#FFF" d="M1060.6 771.9c.3 0 .6.1.7 0 7.4-8.9 11.4-43.9 6.1-53.2-.2-.3-.9-.4-1.4-.6.9-7.9-4.7-12.8-9.9-15.9-7.1-4.4-10.2-10.4-10.1-17.5.1-21.7-5.7-43.2-1.7-65 1.1-6 .2-12.3.8-18.4.7-6.8 2.4-13.5 2.8-20.2.3-5.7-.6-11.4-1.1-17.1-.2-2-1.2-4.1-.7-5.8 2.9-10.7 5.9-21.4 9.2-32 3.4-11 1.7-16.9-7.4-23.9-12.4-9.4-12.6-9.4-24.5-1.7-9.2 6-12.5 12.9-10.3 23.2 1.1 5.1 3.8 10 4.6 15.2 1.6 10 11.8 18.7 4.8 30.2-.6.9-.3 2.6 0 3.8 1.1 5.1 3 10 3.5 15.2 1.4 12.7 2.8 25.5 3.1 38.2.4 18.9.3 37.8-.3 56.6-.3 8.1-2.9 15.6-10.8 20.4-7.5 4.6-12.2 12.1-12.7 20.6-.9 12.5-1.6 25.2 3.5 37.5 5 12 10.4 23.7 20.3 32.2 2.9 2.5 8 4.6 11.5 3.8 7.2-1.6 20.2-16.1 20-25.6zM1132.4 581.9l-.3.2c.9-.6 2.5-1.1 2.7-1.9 3.3-11.8 7.6-23.5 4.6-36.1-.7-2.9-1.4-5.9-1.8-8.9-2.3-17.5-4.5-35-6.7-52.9-2.8.4-4.5.5-4.5.7-1.3 8.8-2.5 17.6-3.7 26.5-2-9.2-4-18.2-6-27.2-1-.1-1.9-.3-2.9-.4-.9 2.1-2.5 4.2-2.7 6.4-.4 4.8 0 9.7 0 14.6.1 5.3.1 10.6.2 15.9h-2.1c-1.3-12.3-2.6-24.6-3.9-37h-4.1c-6.3 12.7.1 27.6-4.7 40.2-3.2-12.9 2.3-27.4-6.7-40-2.3 3.6-3.9 7.3-4 11-.3 21-.1 42-.4 62.9-.2 11.7 2.6 22 11.1 30.5 7 7 9.3 15.9 9.1 25.4-.4 27.1-.9 54.2-1.6 81.2-.2 5.4-1.6 10.8-2.6 16.2-.6 2.9-3 6.3-2 8.4 6.8 15.7-.6 30.2-4.7 44.3-3.1 10.7-2.9 17.7 5.4 25.6 14.7 13.9 13.7 13.8 28.2.1 7.9-7.5 8.2-17 4.6-23.7-10.1-18.6-9-39.3-12-58.7-5-32.4-4.1-65.7-2.2-98.7.4-6.2 1.6-11.2 6.5-15.4 3-2.3 4.9-6 7.2-9.2z"/><path fill="#D0D0D0" d="M1132.4 581.9c-2.4 3.2-4.3 6.9-7.2 9.5-4.9 4.2-6.1 9.2-6.5 15.4-1.9 33-2.8 66.2 2.2 98.7 3 19.4 1.9 40.1 12 58.7 3.6 6.7 3.3 16.1-4.6 23.7-14.5 13.7-13.5 13.8-28.2-.1-8.3-7.9-8.5-14.9-5.4-25.6 4.1-14.1 11.5-28.6 4.7-44.3-.9-2.1 1.5-5.6 2-8.4 1-5.4 2.5-10.8 2.6-16.2.8-27.1 1.2-54.2 1.6-81.2.1-9.6-2.2-18.5-9.1-25.4-8.5-8.5-11.3-18.8-11.1-30.5.3-21 .1-42 .4-62.9.1-3.7 1.7-7.4 4-11 9.1 12.6 3.5 27.1 6.7 40 4.8-12.6-1.6-27.4 4.7-40.2h4.1c1.3 12.3 2.6 24.6 3.9 37h2.1c-.1-5.3-.1-10.6-.2-15.9-.1-4.9-.4-9.7 0-14.6.2-2.2 1.8-4.2 2.7-6.4 1 .1 1.9.3 2.9.4 2 9 3.9 18 6 27.2 1.2-9 2.4-17.8 3.7-26.5 0-.3 1.8-.3 4.5-.7 2.3 17.9 4.4 35.4 6.7 52.9.4 3 1.1 5.9 1.8 8.9 3 12.6-1.2 24.3-4.6 36.1-.2.8-1.8 1.3-2.8 1.9 7.9-27.8 2.5-55-3.5-82.2-.7 3.9-.9 7.9-.6 11.8.7 9.7 1.9 19.3 2.3 29 .1 2.2-2.5 4.6-3.9 6.9-1.5-2.2-4.1-4.2-4.4-6.6-1.9-13.2-3.3-26.4-4.9-39.6-.9.1-1.7.1-2.6.2.4 5.3.8 10.7 1.2 16 .6 8.7 1.6 17.3 1.6 26 0 2-3.5 4-5.3 6.1-1.2-1.9-3.3-3.7-3.5-5.7-1.5-12.4-2.6-24.8-3.9-37.2-.1-.8-.6-1.6-.9-2.4-1.5 2.3-1.8 4.5-1.8 6.7.1 10.5.4 21 .2 31.5 0 1.7-2 3.3-3.1 4.9-1.1-1.6-3.1-3.1-3.2-4.8-1.3-13-2.2-25.9-3.3-38.9-.2-2.1-.7-4.2-1-6.3-2.1 3.5-2.7 6.9-2.7 10.3-.1 15.9.4 31.8-.2 47.6-.4 11.9 3.5 21.9 11.6 30.2 6.3 6.4 8.5 14.6 8.5 22.7 0 31.1-.9 62.3-1.4 93.4 0 1.3-.1 2.6-.2 3.8-.8 6.9-1.6 13.8-2.4 20.8-.9 7-1.4 14-2.8 20.8-1.5 7.2-4.5 14.1-5.5 21.3-.6 4.1.5 9 2.5 12.6 2.6 4.7 6.7 8.7 10.6 12.5 1.7 1.6 5.3 3.2 6.9 2.4 10.8-5 16.7-21.2 12.5-32.7-3-8.1-6.7-16-8.5-24.4-2.1-10-2.6-20.4-3.4-30.7-1.4-18.6-3.2-37.2-3.5-55.9-.2-16 1.5-32.1 2.2-48.1.5-9 8.1-19.3 16.8-22.5zM1060.6 771.9c.2 9.5-12.8 24-20 25.5-3.5.7-8.6-1.3-11.5-3.8-10-8.6-15.4-20.2-20.3-32.2-5.1-12.3-4.3-25-3.5-37.5.6-8.4 5.3-16 12.7-20.6 7.9-4.8 10.5-12.3 10.8-20.4.6-18.9.7-37.8.3-56.6-.3-12.8-1.7-25.5-3.1-38.2-.5-5.1-2.4-10.1-3.5-15.2-.3-1.2-.6-2.9 0-3.8 7-11.4-3.1-20.1-4.8-30.2-.8-5.2-3.5-10-4.6-15.2-2.2-10.3 1.1-17.1 10.3-23.2 11.9-7.8 12.1-7.7 24.5 1.7 9.1 6.9 10.8 12.9 7.4 23.9-3.3 10.6-6.3 21.3-9.2 32-.5 1.7.6 3.8.7 5.8.5 5.7 1.4 11.5 1.1 17.1-.4 6.8-2.1 13.5-2.8 20.2-.6 6.1.3 12.4-.8 18.4-4 21.8 1.8 43.3 1.7 65 0 7.2 3 13.2 10.1 17.5 5.1 3.2 10.8 8 9.9 15.9l.2-.1c-1-.4-2.4-.6-3-1.3-3.1-3.8-5.2-9.4-9.2-11.4-10-5-12.8-14.2-13.4-23.1-1.4-20.4-1.3-40.9-1.1-61.4.1-14.7-.5-29.5 5.3-43.7 1.3-3.1-1-7.6-1.7-11.5-.5-2.9-2.1-6.1-1.4-8.6 2.1-7.3 5.7-14.1 7.5-21.4 2.1-8.6 9-17.3 1-26.6-4.8-5.6-14.8-11.7-20.2-8.7-9.5 5.1-15.6 10.7-14.2 20.8.7 5.7 3.7 11.1 4.9 16.8 2.2 10.7 12.2 20.3 4.9 32.6-1.2 2 0 5.5.4 8.2 2 13.7 5.1 27.4 5.9 41.2 1.2 20.8 1.7 41.8.5 62.6-.5 8.2-2.2 17.8-12 22.9-6.9 3.6-10.9 10.7-11.7 18.6-2.3 20.9 1.3 40.7 14.2 57.9 12.3 16.4 16.5 17.5 29.5 0 2.5-3.4 5.5-6.5 8.3-9.8l-.1-.1z"/><path fill="#D0D0D0" d="M1066 718.2c.5.2 1.2.2 1.4.6 5.4 9.3 1.3 44.3-6.1 53.2-.1.1-.5 0-.7 0l.1.1c.3-2.7.3-5.4.8-8.1 1.6-8.3 4-16.4 4.9-24.7.8-7-.1-14.1-.3-21.2.1 0-.1.1-.1.1z"/><path fill="#FFF" d="M1132.4 581.9c-8.8 3.2-16.3 13.6-16.7 22.4-.7 16.1-2.5 32.1-2.2 48.1.3 18.6 2.1 37.2 3.5 55.9.8 10.3 1.3 20.7 3.4 30.7 1.7 8.4 5.5 16.3 8.5 24.4 4.2 11.5-1.7 27.7-12.5 32.7-1.7.8-5.3-.8-6.9-2.4-4-3.8-8-7.8-10.6-12.5-2-3.6-3.1-8.6-2.5-12.6 1-7.2 4-14.1 5.5-21.3 1.4-6.8 1.9-13.9 2.8-20.8.8-6.9 1.6-13.8 2.4-20.8.1-1.3.2-2.6.2-3.8.5-31.1 1.4-62.3 1.4-93.4 0-8.1-2.2-16.3-8.5-22.7-8.1-8.3-12-18.3-11.6-30.2.5-15.9.1-31.7.2-47.6 0-3.4.6-6.8 2.7-10.3.3 2.1.8 4.2 1 6.3 1.1 13 2 26 3.3 38.9.2 1.7 2.1 3.2 3.2 4.8 1.1-1.6 3.1-3.3 3.1-4.9.2-10.5-.1-21-.2-31.5 0-2.2.4-4.4 1.8-6.7.3.8.8 1.6.9 2.4 1.3 12.4 2.4 24.8 3.9 37.2.2 2 2.3 3.8 3.5 5.7 1.9-2 5.3-4 5.3-6.1 0-8.7-1-17.3-1.6-26-.4-5.3-.8-10.7-1.2-16 .9-.1 1.7-.1 2.6-.2 1.6 13.2 3 26.4 4.9 39.6.3 2.4 2.9 4.4 4.4 6.6 1.4-2.3 4-4.6 3.9-6.9-.3-9.7-1.6-19.3-2.3-29-.3-3.9-.1-7.8.6-11.8 5.9 27.2 11.4 54.4 3.5 82.2.1-.2.3-.4.3-.4zM1066.2 718.1c.1 7.1 1 14.2.3 21.2-.9 8.3-3.3 16.5-4.9 24.7-.5 2.6-.6 5.4-.8 8.1-2.8 3.3-5.7 6.4-8.3 9.8-13 17.5-17.2 16.4-29.5 0-12.9-17.1-16.5-36.9-14.2-57.9.8-7.8 4.8-15 11.7-18.6 9.8-5.1 11.5-14.7 12-22.9 1.1-20.8.7-41.8-.5-62.6-.8-13.8-3.9-27.5-5.9-41.2-.4-2.8-1.6-6.3-.4-8.2 7.4-12.4-2.7-21.9-4.9-32.6-1.2-5.7-4.1-11.1-4.9-16.8-1.3-10.2 4.7-15.7 14.2-20.8 5.5-2.9 15.4 3.1 20.2 8.7 8 9.3 1.1 17.9-1 26.6-1.8 7.3-5.5 14.1-7.5 21.4-.7 2.5.9 5.7 1.4 8.6.7 3.9 2.9 8.4 1.7 11.5-5.7 14.2-5.2 29-5.3 43.7-.2 20.5-.3 41 1.1 61.4.6 9 3.4 18.1 13.4 23.1 4 2 6.1 7.6 9.2 11.4.5.8 1.9 1 2.9 1.4z"/></g><g><path fill="#FFF" d="M938 639.8c-1.5 155.8-124.6 278.1-278.4 278-154-.1-278.6-122.5-277.9-279.3.8-155.9 124.6-276.9 278.1-276.9 153.7 0 276.6 122 278.2 278.2z"/><path fill="#FFF" d="M780.4 392.5c-.9-2.4-.9-3.1-1.2-3.3-1.2-.9-2.5-1.8-3.8-2.4-29.1-14.2-60.1-21.4-92-24.5-33.5-3.2-66.8.4-99.2 9.2-27.8 7.6-53.9 20-77.9 36-38.2 25.4-68.4 58.3-90.7 98.5-16.9 30.5-27.6 63.3-32.3 97.5-3.7 26.9-3.3 54.3 1.7 81.5 5.1 27.4 13 53.7 25.3 78.6 23.3 47.1 57.4 84.5 101.9 112.6 39 24.6 81.6 38.2 127.2 41.9 44.4 3.6 87-4.4 128.2-21.3 27.7-11.4 52.5-27.2 75.1-46.5 30.4-26 53.8-57.6 70.6-94 11.7-25.3 19.9-51.9 23.1-79.5 2.4-20.7 4.3-41.7.9-62.7-1.7-10.6-1.6-21.5-4.3-31.8-4.3-16.4-9.6-32.6-15.8-48.4-15-38.3-38.3-71-68.8-98.4-1.7-1.5-4.3-2.1-6.5-3.2-.4.6-.9 1.3-1.3 1.9 2.1 2.4 4.1 4.9 6.4 7.1 19.4 18.8 35.9 39.7 49.2 63.3 10.4 18.5 18.2 37.9 24.7 58.2 7.5 23.6 11.4 47.8 12.3 72.2 1 27.6-4.4 54.7-12.3 81.3-7.1 23.9-16.8 46.4-29.9 67.5-22.7 36.5-52.2 66.1-89.1 88.4-38.9 23.5-80.8 37.2-126.3 39.6-35 1.9-69.4-1.9-102.4-13.3-33.6-11.7-64.3-28.9-91.5-52.3-25.1-21.6-45.4-46.8-61.1-75.7-17.9-33-28.5-68.3-32.5-105.9-3.9-36.8 1-72.3 11.7-107.2 8.3-27.1 20.6-52.7 37.8-75.4 10.3-13.6 21.2-27.1 33.5-38.9 23.7-23 51-40.7 81.7-53.7 28.9-12.2 58.6-20.9 89.8-21.6 22.1-.5 44.6.2 66.3 3.9 19.5 3.4 38.2 11.8 57.3 17.7 4.3 1.4 8.8 2 14.2 3.1z"/><path fill="#FFF" d="M660 431.4c-117.9-2.1-210 95.6-209.8 208.5.2 114.3 93.6 209.1 210.2 209.3 113.5.2 211.2-95.2 209.2-213.6-1.9-108.4-92.3-206.5-209.6-204.2zM833.4 422.8c-4.6-3.4-8.6-6.3-12.6-9.2-.6.8-1.1 1.5-1.7 2.3 3.9 2.9 7.7 5.9 11.7 8.5.6.2 2.4-1.4 2.6-1.6z"/><path fill="#D0D0D0" d="M660 431.4c117.3-2.3 207.8 95.8 209.6 204.3 2 118.4-95.7 213.8-209.2 213.6-116.6-.2-210-95-210.2-209.3-.2-113 91.9-210.7 209.8-208.6zm203.4 208.4C862.3 525.4 772.3 436 659.8 436c-112.4 0-203 88.7-203.6 202.8-.6 114.9 90.7 204.5 203.4 204.6 112.7.1 202.8-89.5 203.8-203.6z"/><path fill="#FFF" d="M863.4 639.8c-1.1 114.1-91.2 203.7-203.8 203.7-112.7-.1-204-89.7-203.4-204.6.6-114.2 91.3-202.9 203.6-202.9 112.5 0 202.5 89.4 203.6 203.8zm-346.4-.6c-1.6 82.2 65.4 143.3 141.3 143.8 80 .6 141.2-62.9 144-137.1 3.3-86.2-66.5-149.5-142.7-149.3-77.9.2-143.7 63.3-142.6 142.6z"/><path fill="#D0D0D0" d="M517 639.2c-1.1-79.2 64.8-142.4 142.6-142.6 76.2-.2 146 63.1 142.7 149.3-2.8 74.2-64 137.7-144 137.1-76-.6-142.9-61.7-141.3-143.8zm142.7 139.1c76.4.5 138.6-62.3 138.9-137.6.3-76.1-60.1-138.7-137.7-139.4-77.8-.7-139.1 61.4-140 137.4-.9 75.4 61.4 140 138.8 139.6z"/><path fill="#FFF" d="M659.7 778.3c-77.4.4-139.7-64.1-138.8-139.6.9-75.9 62.1-138.1 140-137.4 77.6.7 138 63.3 137.7 139.4-.3 75.3-62.5 138.1-138.9 137.6z"/><path fill="#D0D0D0" d="M659.8 361.7c155.6-3.1 275.5 127.6 278 271.9 2.7 157.6-126.9 284.6-277.5 284.3-154.6-.3-278.5-126.5-278.8-278.6-.1-150.4 121.9-280.3 278.3-277.6zm269.9 277.4c-1.6-152.3-120.9-271.3-270-271.3-149 0-269.3 118-270 270C389 790.7 510 910.1 659.4 910.2c149.3.1 268.8-119.2 270.3-271.1z"/></g><g><path fill="#FFF" d="M999.6 146.1c-70.1-.5-122.7 56.1-122.6 121.6.1 67.6 53.8 122.7 123.5 122.7 65.1 0 121.3-54.2 121.3-122.7 0-67.9-55.7-122.3-122.2-121.6z"/><path fill="#D0D0D0" d="M999.6 146.1c66.5-.7 122.2 53.7 122.2 121.7 0 68.5-56.2 122.7-121.3 122.7-69.7 0-123.4-55.1-123.5-122.7-.1-65.5 52.6-122.2 122.6-121.7zm-117.5 122c.6 66.6 52.7 117.5 117.8 117.2 64.1-.3 117.1-50 116.9-117.6-.1-67.1-51.5-117.3-117.2-117.5-64.8-.2-116.9 50.2-117.5 117.9z"/><path fill="#FFF" d="M882.1 268.1c.5-67.7 52.7-118.1 117.5-117.8 65.7.2 117 50.4 117.2 117.5.1 67.5-52.8 117.3-116.9 117.6-65.1.3-117.2-50.7-117.8-117.3zm141.9 49.2c6.6 9.6 12.7 18.3 18.7 27 6.8 10 8.7 10.5 18.1 4.2 3.4-2.3 5.5-4.7 2.2-9.2-6.8-9.4-12.8-19.3-19.7-28.6-2.9-3.9-2.9-6.2.6-9.6 9.5-9.2 14.6-21.1 17.9-33.4 4.1-15.2 2.7-30.5-3.3-45.4-9.9-24.9-28.1-40.2-53.6-46.9-16.5-4.4-32.5-2.6-48.1 4.2-22.7 9.8-38 26.9-43.9 50.2-7.2 28.2-.4 54.2 21.1 75 14.3 13.9 31.2 21.4 51.6 21.5 13.7.1 26.2-2.9 38.4-9z"/><path fill="#D0D0D0" d="M1024 317.3c-12.3 6-24.8 9.1-38.4 9-20.5-.1-37.3-7.7-51.6-21.5-21.5-20.8-28.2-46.8-21.1-75 5.9-23.3 21.1-40.5 43.9-50.2 15.7-6.7 31.7-8.5 48.1-4.2 25.6 6.8 43.7 22 53.6 46.9 6 14.9 7.3 30.1 3.3 45.4-3.3 12.3-8.4 24.2-17.9 33.4-3.4 3.3-3.5 5.6-.6 9.6 6.9 9.3 12.9 19.3 19.7 28.6 3.3 4.5 1.2 7-2.2 9.2-9.4 6.3-11.3 5.8-18.1-4.2-6-8.7-12.1-17.4-18.7-27zm34.5-67.6c-2-45.8-32.6-71.3-71.4-71.7-36.7-.4-71.3 24.1-71.8 72-.5 42.6 32.3 71.9 71.7 71.6 39.6-.4 70.1-28.5 71.5-71.9zm0 93.2c-.4-1.2-.5-1.8-.8-2.1-6.7-9.9-13.3-19.8-20.3-29.4-.7-.9-4.2-.9-5.6 0-1.3.9-2.5 4.1-1.9 5.1 5.8 9.6 11.9 19 18.4 28.2.9 1.3 4.2 1.4 6.2 1.1 1.6-.1 2.8-2 4-2.9z"/><path fill="#FFF" d="M1058.5 249.7c-1.4 43.4-31.9 71.5-71.4 71.9-39.4.3-72.2-29-71.7-71.6.5-47.9 35.1-72.4 71.8-72 38.7.4 69.3 25.8 71.3 71.7zm-56.3-19.9l.3.2c-4.5-5.1-9-1.3-13.7-.3-16.5 3.5-25.8 14.9-25.2 31.2v6.9c-.4 10.7 2.7 17.1 9.5 19.5l2 2c.3.9.2 2 .8 2.6 5.1 5.3 24 9 30.6 6 .8-.4 1.1-1.9 1.7-2.9 1.9-.4 3.7-.8 5.6-1.3 15-5.5 21.9-27.2 16.4-40.7-2.2-5.4-7.1-9.8-10.7-14.7l.2.2c-3.7-7.1-10.2-8.8-17.5-8.7zM1058.5 342.9c-1.1.9-2.4 2.8-3.9 3-2 .3-5.3.1-6.2-1.1-6.5-9.2-12.6-18.6-18.4-28.2-.6-1 .6-4.3 1.9-5.1 1.3-.9 4.9-1 5.6 0 7 9.6 13.6 19.6 20.3 29.4.2.2.2.7.7 2z"/><path fill="#FFF" d="M963.6 267.7v-6.9c.7-1.5 1.8-2.9 2.1-4.5 2.6-15.9 20-27.1 36.8-26.4l-.3-.2c5.8 2.9 11.6 5.9 17.4 8.8l-.2-.2c.7 1.4 1.2 3.1 2.1 4.3 12.1 15 9.3 34.5-5 46.9-1.2 1.1-1.9 2.8-2.8 4.3-1.9.4-3.7.8-5.6 1.3-11.9 3-22.7-.1-33.1-5.7l-2-2c-3.1-6.6-6.3-13.2-9.4-19.7z"/><path fill="#D0D0D0" d="M1013.7 293.7c.9-1.4 1.6-3.2 2.8-4.3 14.3-12.4 17-31.8 5-46.9-1-1.2-1.4-2.8-2.1-4.3 3.7 4.9 8.5 9.2 10.7 14.7 5.5 13.7-1.3 35.4-16.4 40.8zM1002.5 230c-16.8-.8-34.2 10.5-36.8 26.4-.3 1.6-1.4 3-2.1 4.5-.6-16.2 8.8-27.6 25.2-31.2 4.7-1 9.2-4.8 13.7.3zM975 289.3c10.4 5.6 21.2 8.8 33.1 5.7-.6 1-.9 2.5-1.7 2.9-6.6 3-25.5-.7-30.6-6-.5-.6-.5-1.7-.8-2.6zM963.6 267.7c3.2 6.5 6.3 13 9.5 19.5-6.8-2.4-9.9-8.8-9.5-19.5z"/><path fill="#D0D0D0" d="M1019.6 238.6c-5.8-2.9-11.6-5.9-17.4-8.8 7.3-.1 13.8 1.6 17.4 8.8z"/></g></svg>